<?xml version="1.0" standalone="no"?>
<!DOCTYPE svg PUBLIC "-//W3C//DTD SVG 1.1//EN" "http://www.w3.org/Graphics/SVG/1.1/DTD/svg11.dtd" >
<svg xmlns="http://www.w3.org/2000/svg" xmlns:xlink="http://www.w3.org/1999/xlink" version="1.1">
<metadata></metadata>
<defs>
<font id="blood_crowregular" horiz-adv-x="798" >
<font-face units-per-em="2048" ascent="1638" descent="-410" />
<missing-glyph horiz-adv-x="497" />
<glyph horiz-adv-x="0" />
<glyph unicode="&#xd;" horiz-adv-x="1228" />
<glyph unicode=" "  horiz-adv-x="497" />
<glyph unicode="&#x09;" horiz-adv-x="497" />
<glyph unicode="&#xa0;" horiz-adv-x="497" />
<glyph unicode="!" horiz-adv-x="591" d="M-23 1012q6 0 30 -1t30 -3q8 -4 41 -10.5t69.5 -13.5t69.5 -12t41 -5q2 0 29.5 8t44.5 12q6 0 24.5 10.5t24.5 10.5t16.5 -5.5t22.5 -12.5t21.5 -14t13.5 -9q43 -12 53 -41t4 -71t-17.5 -94t-11.5 -112q0 -14 2 -26.5t2 -32.5q0 -16 1 -27.5t1 -13.5l25 -23l25 41 q4 -37 -2.5 -79t-6.5 -70q0 -2 -1 -6t-1 -6l-63 -9h-12h-13q-8 6 -26.5 21.5t-22.5 21.5q-33 6 -77 -6t-80.5 -18t-57 9t-6.5 79q25 63 34 92t10 50.5t-2 51t-3 97.5q0 43 -17.5 64.5t-43 31.5t-55.5 15t-55.5 14.5t-43 30t-17.5 61.5zM217 53v8v21v6q0 51 21.5 76.5 t72.5 42.5q6 2 13.5 4t9.5 2q66 0 109.5 -31.5t43.5 -91.5q0 -41 -34.5 -64.5t-71.5 -39.5h-2q-4 0 -25.5 4t-45 8t-43 9t-21.5 7q-6 10 -9.5 21.5t-17.5 17.5zM236 127q2 0 2 4v2q-2 0 -2 -2v-4zM256 25q0 -4 6 -5q6 0 6 5q0 8 -6 8t-6 -8zM260 74q0 -20 2 -21q4 4 4 21 q0 16 -4 20q-2 2 -2 -6v-14zM262 47q0 -6 8 -6q4 0 4 6t-4 6q-8 0 -8 -6zM272 61q0 -2 2 -2q4 0 5 2v2q-6 0 -7 -2zM272 84q0 -2 4 -1l3 1v4q-6 2 -7 -4zM317 575q0 -8 3.5 -27.5t6.5 -43t7 -45t8 -31.5q2 -6 10 -14t15 -11q0 10 1 43t1 43q0 53 -3.5 92.5t-23.5 92.5 q-4 -8 -8 -22.5t-7 -29t-6.5 -28t-3.5 -19.5zM354 760q0 -16 12.5 -13t12.5 13q0 8 -12 12q-12 2 -13 -12zM406 174q0 -6 10 -6q2 0 2 6q0 8 -2 8q-10 0 -10 -8zM406 182l10 2h-10v-2zM418 14l10 6h-10v-6zM430 72q10 8 10 26h-10v-26z" />
<glyph unicode="&#x22;" horiz-adv-x="651" d="M37 801v8v18v9q0 49 21.5 75.5t74.5 42.5q4 2 11.5 4.5t11.5 2.5q66 0 109.5 -33t41.5 -90q-4 -113 -20.5 -173.5t-39 -89t-47 -37t-42.5 -14.5l18 193q0 6 -16.5 12t-37 11t-38.5 10.5t-21 11.5q-4 10 -7 20.5t-19 18.5zM57 874q2 0 2 3v4q-2 0 -2 -4v-3zM76 772 q0 -6 8 -6q4 0 4 6t-4 6q-8 0 -8 -6zM82 821q0 -20 2 -20q2 2 2 20q0 17 -2 19q-2 4 -2 -4v-15zM84 795q0 -6 6 -7q6 0 6 7q0 6 -6 6t-6 -6zM94 809q0 -2 2 -2t2 2v2q-4 0 -4 -2zM94 831q0 -4 2 -2l2 2v5q-4 4 -4 -5zM225 922q0 -8 11 -9q2 0 2 9q0 8 -2 8q-10 0 -11 -8z M225 930l11 2h-11v-2zM250 819q10 8 10 27h-10v-27zM352 809v6v21v8q0 49 21.5 74.5t72.5 42.5q6 2 13.5 5t9.5 3q66 0 111 -33t43 -90q-4 -113 -20.5 -173.5t-39 -90t-47 -36.5t-45.5 -16l21 195q0 6 -16.5 11t-37 10.5t-39 11.5t-20.5 12q-6 10 -9.5 20.5t-17.5 18.5z M371 883q2 0 2 2v2q-2 0 -2 -2v-2zM391 778q0 -4 6 -4t6 4q0 8 -6 8t-6 -8zM395 827q0 -18 2 -18q4 2 4 18q0 19 -4 21q-2 2 -2 -4v-17zM397 801q0 -4 9 -4q4 0 4 4q0 8 -4 8q-8 0 -9 -8zM408 815q0 -2 2 -2q4 0 4 2v4q-6 0 -6 -4zM408 838q0 -2 3 -1l3 1v6q-6 2 -6 -6z M541 930q0 -8 10 -8q2 0 2 8q0 6 -2 6q-10 0 -10 -6zM541 936l10 2h-10v-2zM565 825q10 10 10 27h-10v-27z" />
<glyph unicode="#" horiz-adv-x="1042" d="M41 758q2 -8 4 -29.5t3 -47.5t2 -50.5t1 -38.5l2 -4q4 -2 6 -2t2 -2v-2q6 -10 9.5 -13.5t7.5 -17.5l117 43l-21 20q0 4 31 4q14 0 40.5 1.5t73.5 -3.5q0 -20 1.5 -33.5t1.5 -17.5v-45t2 -53h-64q-33 0 -66.5 1t-61.5 4t-47 11.5t-22 24.5l-18 -21q2 -8 3 -29.5t2 -47 t2 -50t1 -38.5l4 -5h4v-6q8 -10 11.5 -13t9.5 -17l115 43l-21 18q0 4 31 4q14 0 40.5 1t76.5 -3q0 -55 -3.5 -118.5t-13.5 -137.5q-14 -4 -14 -37v-43h-27l180 -12q8 0 11.5 7t9.5 7q-10 18 -9 31.5t6 22t8 12.5t-1 6h-2q-4 -4 -6 11.5t-8 21.5q2 49 2 96t2 94l45 17l-10 8 q23 -4 46 -6t52 -5q4 -8 14 -9t25 -1q-2 -49 -5 -104t-12 -119q-10 -4 -12 -14.5t-2 -22.5v-45h-27l181 -12q8 0 11 8t9 8q-10 18 -9 31.5t6 22t8 12.5t-1 4h-2q-4 -2 -6 12t-8 23q2 55 3 110.5t5 108.5q29 -4 60.5 -7t68.5 -8q6 -10 19 -10h32h25l31 8l-7 168v4q0 4 -4 6.5 t-4 6.5q-41 -16 -46 -26.5t-7 -16.5q4 -4 -9.5 -5.5t-21.5 -5.5l-133 13v143q29 -2 58.5 -6t64.5 -8q6 -10 18.5 -11.5t32.5 -1.5h25l31 7l-7 172v4q0 4 -5 6t-5 6q-41 -16 -45 -26.5t-6 -14.5q2 -4 -11.5 -6t-19.5 -6l-129 12q4 135 12.5 217t32.5 86l-33 23q-4 -2 -16 -2 h-27h-67q-18 0 -26.5 3t-13.5 7t-9 7t-15 3l-8 -2q-2 -2 -10 -14.5t-14 -12.5q-12 -8 -17.5 -11t-25.5 -9l77 -104q-4 -18 -3 -71.5t5 -113.5h-53q-25 0 -49 -1t-47 1q4 131 12 213t33 86l-33 23q-4 -2 -16 -2h-27h-67q-18 0 -26.5 3t-13.5 8t-9.5 8t-14.5 3l-8 -4 q-2 -2 -10 -14t-15 -12q-12 -8 -17 -11.5t-26 -7.5l78 -106q-4 -18 -3 -71.5t5 -113.5h-53q-33 0 -66.5 1t-61.5 4t-47.5 11.5t-21.5 24.5zM279 698v2h2q4 6 12 10.5t18 12.5q0 -4 2 -7t2 -7q-14 -6 -23 -8.5t-11 -2.5h-2zM281 430v2q4 6 16.5 11.5t26.5 11.5v-13 q-16 -6 -27.5 -9t-15.5 -3zM467 467v111l35 14l-13 10q23 -2 47.5 -6t53.5 -6q4 -8 14 -10t23 -2q0 -6 1 -9.5t1 -5.5v-45t2 -53h-64h-51q-25 0 -49 2z" />
<glyph unicode="$" horiz-adv-x="761" d="M20 475q0 -25 2.5 -60.5t10.5 -70.5t23.5 -62.5t41.5 -35.5q-2 -10 -6 -39t-8 -60.5t-7 -59.5t-3 -38v-24q2 -6 10 -14.5t14 -10.5l49 123h74v-25l13 -6q12 -6 30.5 -13t40 -14.5t39.5 -11.5q-2 -25 -3 -50.5t-5 -49.5q-12 -6 -12 -37v-43h-21l152 -12q8 0 10 7t6 7 q-8 18 -6 31.5t6 22t7 12.5t-1 6h-2q-6 -4 -7 11t-5 22v32q0 18 2 37h2q2 0 13.5 4t23.5 8.5t22.5 8.5t14.5 4q8 0 25.5 -9.5t23.5 -15.5l28 35v-10q0 -25 21 -25q20 0 20 25t-20 24q-4 0 -8 -2l106 125q2 2 3 26.5t1 37.5q0 59 -9 104t-44 103q-25 -14 -46 3t-42.5 41.5 t-42 44t-41.5 9.5q-10 4 -19.5 8t-19.5 8q2 82 4 155t6 134q39 -31 68 -71t50.5 -75.5t39 -61t31.5 -25.5q2 0 6 1t6 1q6 90 28.5 174t22.5 172q0 12 1 28.5t-2 31.5t-11 26.5t-29 11.5q-12 0 -26.5 -27.5t-29.5 -59.5t-28.5 -59.5t-23.5 -27.5q-25 0 -49.5 5t-51.5 11 q4 70 12.5 112t18.5 44l-26 22q-4 -2 -37 -2h-56q-16 0 -23 3.5t-11.5 7.5t-8.5 7t-12 3l-4 -2q-2 -2 -9 -14.5t-14 -12.5q-10 -8 -15 -11t-21 -9l65 -107q0 -4 -1 -5t-1 -3h-4q-53 0 -98 -21.5t-78 -56.5t-50.5 -82t-17.5 -98q0 -55 21.5 -98t56.5 -78t79 -63.5t91 -53.5 q2 -63 4 -136t-2 -149h-4q-2 -2 -12 -13t-13 -11q-47 0 -75.5 25.5t-48 65.5t-34 85t-31.5 85t-43 65.5t-67 25.5zM127 688q0 25 20 25t21 -25q0 -25 -21 -24q-20 0 -20 24zM244 823q0 2 1 7l1 6q20 23 32.5 39t21.5 28t19.5 19.5t26.5 11.5q-2 -53 -2 -119v-125 q-29 23 -51 51.5t-47 69.5l-1 5q-1 5 -1 7zM467 125q2 59 3 117.5t1 117.5q53 -33 82.5 -71.5t11.5 -91.5q-6 -16 -31.5 -42t-41.5 -32h-11q-6 0 -14 2z" />
<glyph unicode="%" horiz-adv-x="1386" d="M37 606v17v49v16q0 119 48 181.5t157 103.5q6 2 22.5 7t18.5 5q63 0 119.5 -20.5t98.5 -57.5t66.5 -90t24.5 -121q0 -51 -18.5 -89t-49 -66.5t-69.5 -52t-78 -44.5h-6q-10 0 -54.5 8.5t-92.5 19.5t-88 23.5t-42 18.5q-16 20 -23 48t-34 44zM72 788q0 -8 7 -6t7 6 q0 7 -8 9q-6 2 -6 -9zM123 539q0 -12 10 -13q10 0 10 13q0 14 -10 14t-10 -14zM125 653q0 -20 2 -35.5t6 -11.5q4 6 4 19v28v31q0 14 -4 18t-6 -12t-2 -37zM135 594q0 -14 12 -14q10 0 11 14q-1 12 -11 12q-12 0 -12 -12zM152 627q0 -8 8 -7t8 7q0 4 -2 4t-6 4q-4 2 -6 -1 t-2 -7zM152 680q0 -6 8 -5t8 5t-8 8t-8 -8zM174 98q51 2 100.5 43t94.5 94.5t81.5 107.5t63.5 85l373 457q0 6 -9.5 14t-15.5 10q-10 2 -32.5 7.5t-45.5 37.5l29 15q8 0 22.5 10t20.5 4h424l25 -25q-6 -12 -27 -24t-43.5 -23.5t-44 -18.5t-33.5 -9q-156 -162 -261 -280 t-173 -198.5t-102.5 -130t-49 -77t-12.5 -37.5t8 -13l72 -81q-25 0 -37 -5.5t-35 -11.5q-4 0 -23.5 -11t-25.5 -13h-12q-27 0 -72 7t-91 16t-86 17.5t-58 8.5zM184 750q0 -14 2 -52.5t9.5 -79t21.5 -72.5t39 -32h121q6 0 18.5 22.5t26.5 50t24.5 54.5t10.5 35q0 6 -1 20.5 t-2 31.5t-2 32.5t-1 21.5v-80q-4 31 -10.5 72t-20.5 80t-40 65.5t-71 26.5q-37 0 -61.5 -20.5t-37.5 -51t-19.5 -64t-6.5 -60.5zM430 905l12 15h-12v-15zM432 893q0 -16 10 -16q12 0 13 16q-1 12 -13 12q-10 0 -10 -12zM457 514l14 12h-14v-12zM459 332q0 -45 10 -62 q6 -8 9 14.5t3 47.5h-22zM483 647q8 16 13.5 33.5t5.5 34.5h-19v-68zM803 188v17v49v16q0 119 48 181.5t157 103.5q8 2 23.5 7t17.5 5q63 0 119.5 -20.5t99.5 -57t67.5 -90t24.5 -120.5q0 -51 -19.5 -89t-50 -67t-69.5 -52.5t-78 -43.5h-4q-12 0 -55.5 8t-91.5 19.5 t-88 23.5t-44 18q-16 20 -23 48t-34 44zM838 371q0 -8 7 -6t7 6t-6 8q-8 2 -8 -8zM889 121q0 -12 10 -12t10 12q0 14 -10 14t-10 -14zM893 236q0 -20 1 -36t5 -12q4 6 5 19.5t1 28.5q0 16 -1 30.5t-5 18.5t-5 -12.5t-1 -36.5zM901 176q0 -14 12 -14q10 0 11 14q-1 12 -11 12 q-12 0 -12 -12zM920 209q0 -8 7 -7t7 7q0 2 -8 8q-6 2 -6 -8zM920 262q0 -6 7 -5t7 5q0 6 -8 8q-6 2 -6 -8zM950 332q0 -14 2 -52t9.5 -79t21.5 -73t39 -32h121q6 0 19.5 22.5t26.5 50.5t24.5 54.5t11.5 34.5q0 6 -1 20.5t-2 32t-3 32.5t-2 22v-80q-4 31 -10.5 71.5 t-19.5 79.5t-40 65.5t-70 26.5q-37 0 -61.5 -20.5t-38.5 -51t-20.5 -64t-6.5 -60.5zM1196 487l12 15h-12v-15zM1200 475q0 -16 8 -16q12 0 13 16q-1 12 -13 12q-8 0 -8 -12zM1225 96l14 13h-14v-13zM1251 229q16 33 17 68h-17v-68z" />
<glyph unicode="&#x26;" horiz-adv-x="1017" d="M10 430l25 -24v-173q2 6 10 14.5t14 10.5l5 1q6 1 8 1q23 0 28.5 -13.5t5.5 -29.5t-3 -32.5t6 -24.5q2 -4 13 -7t23.5 -6.5t22.5 -6.5t14 -5q12 -10 25.5 -33.5t25.5 -38.5l60 -4q29 -14 67.5 -19t61.5 -11q4 0 4 -2h-37q18 -37 35.5 -42t33 4t30 27.5t26.5 30.5 l57.5 -10t68.5 -4t58.5 13t24.5 40q0 8 -6 12h-2q10 12 17 25.5t18 19.5q2 2 13 5.5t23.5 6.5t22.5 6t14 7q8 6 5 22.5t-3 32.5t6.5 30.5t28.5 14.5q2 0 7 -1l5 -1q6 -4 14.5 -12t10.5 -12l-82 202l25 25q4 -8 29.5 -17.5t54 -8.5t52 20.5t23.5 68.5v19q-16 -6 -33.5 -10 t-35.5 -11q-10 -4 -16.5 -7t-8.5 -3l-254 41q-92 -25 -188 -37q-63 10 -99 20.5t-52.5 22t-18.5 22.5t2 21.5t8 20.5t2 20h74q-4 4 -15.5 14.5t-22.5 21.5t-21.5 22.5t-14.5 15.5l-1 5q-1 5 -1 7q0 14 10.5 38t25.5 48.5t32.5 45t31.5 28.5l1 -5q2 -5 4 -15q2 8 14 24 l98 -16l8 -8l17 16q29 -29 44 -58.5t15 -52.5q0 -4 -1 -8l-1 -4l209 -8l37 57v12q0 63 -15.5 77t-41.5 14h-21h-18q-6 0 -17 4v4q2 0 2 2q-14 2 -32 10q-10 10 -16.5 18.5t-12.5 18.5l-86 -10q-29 4 -48.5 7t-39.5 5q-6 2 -12.5 4t-8.5 2q-29 0 -70.5 -5t-86.5 -15l-68 4 q-18 -39 -52 -47.5t-66 -17.5t-55.5 -31.5t-23.5 -88.5v-12l50 -74l1 -5t1 -7t-1 -7l-1 -5q-2 -6 -11.5 -14.5t-13.5 -10.5q35 -6 55.5 -30.5t20.5 -55.5q0 -33 -18.5 -50t-43 -29.5t-50 -23.5t-38.5 -32zM250 258q-2 2 2 23.5t10 50t13.5 58.5t11.5 48q6 6 10 6q10 0 8 7 q-6 12 32 9t85 -7q0 -2 6 -2q2 -4 23 -5q35 -4 62.5 -7t31.5 3q16 6 20 23q12 2 23 2h22q18 0 17 -10q-4 -4 4 -4q10 0 12 -9q4 -14 17.5 -44.5t26.5 -66.5t19.5 -69t-1.5 -51q6 -4 6 -6q0 -10 -10.5 -14.5t-14.5 6.5q-8 -2 -14 0l-92 -66q-2 -2 -10.5 -4t-14.5 -2t-9 -4 t-15.5 -7t-43.5 -3q-29 0 -92 8q-2 -2 -2 -6l-16 6q-6 0 -14.5 1t-10.5 3zM377 836h2h6h-8zM389 838q16 4 25.5 6t10.5 4t-3 8.5t-14 20.5q-4 -12 -8.5 -21.5t-10.5 -17.5zM444 53h15h12q8 0 12 4q-6 -16 -26 -22q-3 2 -11 6q0 4 -1 6t-1 6zM606 856q1 25 21 25t20 -25 t-20 -25t-21 25zM651 561q6 0 48 -5t91.5 -11t91.5 -10.5t48 -4.5q6 4 13 7.5t11 7.5h-24h-4q-10 0 -53.5 3t-91.5 7t-88 6t-42 0zM686 199v8q0 14 12 12l2 -2q2 0 5 -4q-4 -14 -19 -14zM725 266v25q6 6 12 25.5t13 23.5l5 1t7 1t6 -1t6 -1z" />
<glyph unicode="'" horiz-adv-x="323" d="M25 809v6v21v8q0 49 21.5 74.5t74.5 42.5q4 2 11 5t11 3q66 0 110 -33t42 -90q-4 -113 -20.5 -173.5t-39 -90t-47 -36.5t-43.5 -16l19 195q0 6 -16.5 11t-37 10.5t-39 11.5t-20.5 12q-4 10 -7 20.5t-19 18.5zM45 883q2 0 2 2v2q-2 0 -2 -2v-2zM63 778q0 -4 9 -4q4 0 4 4 q0 8 -4 8q-8 0 -9 -8zM70 827q0 -18 2 -18q2 2 2 18q0 19 -2 21t-2 -4v-17zM72 801q0 -4 6 -4t6 4q0 8 -6 8t-6 -8zM82 815q0 -2 2 -2t2 2v4q-4 0 -4 -4zM82 838q0 -2 2 -1l2 1v6q-4 4 -4 -6zM213 930q0 -8 10 -8q2 0 2 8q0 6 -2 6q-10 0 -10 -6zM213 936l10 2h-10v-2z M238 825q10 10 10 27h-10v-27z" />
<glyph unicode="(" horiz-adv-x="794" d="M23 504q0 37 23.5 86t52 97t52 88t23.5 56l-2 5q43 33 95 75.5t108.5 81.5t114 65.5t110.5 26.5h86q23 4 42.5 20.5t25.5 16.5t6 -14v-4q0 -6 -7.5 -19.5t-23.5 -29t-41.5 -26.5t-60.5 -11q-74 0 -127.5 -53.5t-88 -131t-51 -163.5t-16.5 -152v-108q0 -39 18.5 -77 t66.5 -85t146 -127q27 -23 41.5 -43.5t25.5 -35.5t22.5 -24.5t33.5 -9.5q47 0 61.5 -20.5t14.5 -44.5q0 -16 -4 -37q-25 -4 -43 -6t-31 -2q-23 0 -32 8t-18 18t-27.5 18.5t-61.5 8.5q-10 0 -32.5 8t-46 19.5t-42 23.5t-18.5 23v38q-8 0 -39 -8t-49 -8q-4 0 -6 1t-5 1 q-53 14 -105 66.5t-95 121t-69.5 140.5t-26.5 127zM98 762v24h25zM119 393q0 -29 5 -54.5t23 -43.5v369q-18 -41 -22 -80t-4 -80v-51q0 -10 -1 -26.5t-1 -33.5zM201 811q0 -25 20 -25t21 25q-1 25 -21 25t-20 -25zM262 172h62q0 8 -5 25q-2 6 -10 24.5t-14 24.5 q-23 -8 -28 -33t-5 -41zM344 125q0 -14 12 -14q9 0 13 12v2q0 10 -13 10q-12 0 -12 -10z" />
<glyph unicode=")" horiz-adv-x="794" d="M23 -57q0 -16 4 -37q25 -4 43 -6t30 -2q23 0 32 8t18.5 18t27 18.5t60.5 8.5q10 0 33.5 8t47 19.5t42 23.5t18.5 23v38q8 0 39 -8t49 -8q4 0 6 1t4 1q51 14 104.5 66.5t96.5 121t69.5 140.5t26.5 127q0 37 -23.5 86t-52 97t-52 88t-23.5 56l2 5q-43 33 -95.5 75.5 t-108.5 81.5t-114.5 65.5t-109.5 26.5h-86q-25 4 -43.5 20.5t-26.5 16.5q-4 0 -4 -14v-4q0 -6 7 -19.5t23.5 -29t42 -26.5t60.5 -11q74 0 127 -53.5t88 -131t51.5 -163.5t16.5 -152v-108q0 -39 -18.5 -77t-67 -85t-146.5 -127q-27 -23 -41 -43.5t-25.5 -35.5t-23.5 -24.5 t-33 -9.5q-47 0 -61 -20.5t-14 -44.5zM428 123v2q0 10 12 10t13 -10q0 -14 -13 -14q-10 0 -12 12zM471 172q0 6 2 12t4 12.5t10.5 25t14.5 24.5q23 -8 26.5 -33t3.5 -41h-61zM555 811q0 25 20 25q18 0 19 -25q0 -25 -19 -25q-20 0 -20 25zM649 295v369q18 -41 22.5 -80 t4.5 -80v-51q0 -10 1 -26.5t1 -33.5q0 -29 -5 -54.5t-24 -43.5zM674 786l24 -24v24h-24z" />
<glyph unicode="*" horiz-adv-x="712" d="M16 623q0 8 23.5 13t54.5 11t61.5 16.5t45.5 28.5q6 8 20.5 24.5t27.5 36t23.5 40t10.5 38.5q0 41 -22.5 82t-47.5 80h-4h-8q-4 -2 -14.5 -6t-12.5 -8q2 4 7 12t5 13q0 14 -19.5 21t-42 11t-42 10.5t-19.5 20.5q0 10 13.5 18.5t30 13.5t32 8t21.5 3q2 0 17.5 -5t15.5 -15 q-51 0 -87 -17q70 -6 141.5 -9t143.5 1q-6 -10 -15 -13t-18.5 -5.5t-16.5 -5.5t-7 -13q0 -4 9 -20.5t20.5 -35t22.5 -33.5t17 -19q16 10 37 33.5t31 39.5q10 18 12 23q4 6 -1 17l-5 11h-47v21l26 4q27 4 44 4h8q10 0 22.5 2t22.5 2h20h15q10 0 21.5 -2t21.5 -2h16 q4 0 14.5 -4t12.5 -4l2 -8q0 -2 -1 -3t-1 -5q-33 -16 -62.5 -29.5t-56.5 -29t-51.5 -35t-46.5 -48.5l-27 -24v-6v-5l41 -36q2 -4 7 -14.5t12.5 -23l13.5 -22.5t8 -12q12 -16 29.5 -26.5t34 -21.5t27.5 -26.5t11 -40.5h-28q-25 0 -47.5 -8t-26.5 -35q-4 16 -21.5 17.5 t-23.5 1.5q-29 0 -50.5 -9.5t-47.5 -9.5q0 29 26.5 38t48.5 15q-4 12 -16 23.5t-25 22.5q4 0 9.5 4t5.5 8q0 14 -18.5 36.5t-34.5 22.5q-23 0 -32 -10t-24 -27q-4 -4 -13 -17t-20.5 -28.5t-20.5 -30t-13 -20.5h69q0 -2 -1 -5t-1 -7q-4 -4 -20.5 -16.5t-20.5 -16.5v25h-252z M188 967q1 12 13 12q10 0 10 -12q0 -10 -10 -11q-12 0 -13 11zM268 739q4 2 8.5 6.5l6.5 6.5v6v6q-4 -2 -8.5 -6t-6.5 -6v-4v-9zM285 1040q0 -12 10 -12q12 0 12 12q0 9 -12 9q-10 0 -10 -9zM297 1028q0 -12 12 -12q10 0 10 12t-10 12q-12 0 -12 -12zM309 848h13v12h-13v-12 zM311 825q0 -14 11 -14q12 0 12 14q0 11 -12 11q-10 0 -11 -11zM334 729q0 4 1 6t1 4q2 -2 8 -10t12 -17.5t12.5 -18.5t8.5 -13q2 -2 2 -12h-14q-4 0 -14.5 18.5t-14.5 30.5l-1 4q-1 4 -1 8zM340 801q0 -12 8 -13q12 0 12 13q0 10 -12 10q-8 0 -8 -10zM379 717q0 12 12 12 q10 0 10 -12t-10 -12q-12 0 -12 12zM514 680q0 -12 12 -12q10 0 11 12q-1 12 -11 12q-12 0 -12 -12zM541 631q0 12 12 12q10 0 10 -12q0 -8 -10 -8q-12 0 -12 8zM635 616v27h12h15q4 0 19 -4t19 -8q0 -2 -5 -5t-7 -3q-8 -4 -27.5 -5.5t-25.5 -1.5zM673 1086.5q-3 5.5 7 5.5 q8 -1 8 -7q-4 -4 -8 -4t-7 5.5z" />
<glyph unicode="+" d="M29 598q4 -8 4 -45v-66q0 -37 1 -72.5t1 -56.5l2 -6q2 -4 14 -12t12 -12q8 -14 11.5 -19.5t9.5 -25.5l104 77l-18 29q0 6 29 6q25 0 98 -6q-8 -41 -14.5 -88t-16.5 -104q-10 -4 -13 -14.5t-3 -22.5v-45l29 -15l180 -12q8 0 11 7t9 7q-10 20 -9 34t6 22t8 12t-1 4h-2 q-4 -2 -6 12.5t-8 22.5l20 156q33 -6 70 -13.5t84 -15.5q6 -12 19.5 -13t35.5 -1h27l14 26v252q0 8 -7 11t-7 7q-43 -23 -50 -40t-9 -25q2 -6 -12.5 -8t-22.5 -6l-137 16v23q0 76 11 138t54 70l-31 23q-8 -2 -45 -2h-65q-18 0 -26.5 3t-13.5 7t-9.5 7t-14.5 3l-8 -2 q-2 -2 -10 -14t-15 -12q-12 -8 -17 -11.5t-28 -9.5l80 -104l-35 -6q4 -4 5 -29v-31q0 -16 -5 -45h-59q-37 0 -72.5 2t-65.5 8.5t-48.5 19.5t-22.5 36zM281 508v4h2q6 6 15 12.5t19 16.5q0 -12 -2 -21q-12 -4 -20 -8t-12 -4h-2z" />
<glyph unicode="," horiz-adv-x="323" d="M23 70q14 -8 17 -19.5t9 -21.5q4 -4 22.5 -9.5t38 -11.5t36 -12t16.5 -10l-19 -195q18 8 43 16.5t47.5 37t39 89t20.5 172.5q2 57 -43 90t-111 33q-2 0 -9 -3t-11 -5q-53 -16 -74.5 -41.5t-21.5 -77.5v-6v-20v-6zM41 143v2q0 2 4 2v-2q0 -2 -4 -2zM61 39q1 8 9 8 q4 0 4 -8q0 -4 -4 -4q-8 0 -9 4zM66 88v14q0 9 4 7q2 -2 2 -21q0 -16 -2 -18q-4 0 -4 18zM70 61q0 9 6 9t6 -9q0 -4 -6 -4t-6 4zM78 76q0 2 6 2v-2q0 -2 -2 -2q-4 0 -4 2zM78 98q0 6 2 7t4 -3v-4l-3 -1t-3 1zM211 188q0 9 10 9q2 0 2 -9q0 -6 -2 -6q-10 0 -10 6zM211 197v2 h10zM236 86v27h10q0 -16 -10 -27z" />
<glyph unicode="-" d="M29 598l22 31q4 -23 22.5 -36t48.5 -19.5t65.5 -8.5t72.5 -2l131 2h23q12 0 16 -2l199 -24q8 4 22.5 6t12.5 8q2 8 9 25.5t50 39.5q0 -4 7 -7t7 -11v-2v-250l-14 -26h-27q-23 0 -36 1t-19 13q-111 20 -186.5 31.5t-127 17.5t-82 8t-46.5 2q-29 0 -29 -6l18 -29l-104 -77 q-6 20 -9 25l-12 20q0 4 -12 12t-14 12l-2 6q0 20 -1 56.5t-1 72.5v66q0 37 -4 45zM281 508h2q12 0 57 29l-6 14q-37 -20 -51 -39h-2v-4z" />
<glyph unicode="." horiz-adv-x="323" d="M23 70q14 -8 17 -19.5t9 -21.5q2 -2 22.5 -7.5t44 -9.5t44 -8t24.5 -4h2q37 16 72 39.5t35 66.5q0 57 -44 90t-110 33q-2 0 -9 -3t-11 -5q-53 -16 -74.5 -41.5t-21.5 -77.5v-6v-20v-6zM41 143v2q0 2 4 2v-2q0 -2 -4 -2zM61 39q1 8 9 8q4 0 4 -8q0 -4 -4 -4q-8 0 -9 4z M66 88v14q0 9 4 7q2 -2 2 -21q0 -16 -2 -18q-4 0 -4 18zM70 61q0 9 6 9t6 -9q0 -4 -6 -4t-6 4zM78 76q0 2 6 2v-2q0 -2 -2 -2q-4 0 -4 2zM78 98q0 6 2 7t4 -3v-4l-3 -1t-3 1zM211 188q0 9 10 9q2 0 2 -9q0 -6 -2 -6q-10 0 -10 6zM211 197v2h10zM223 29v6h10zM236 86v27h10 q0 -16 -10 -27z" />
<glyph unicode="/" horiz-adv-x="1085" d="M-25 98l25 -24q18 0 58 -8.5t86 -17.5t91.5 -16t71.5 -7h12q6 2 24.5 13t25.5 11q23 6 35 11.5t36 5.5l-71 81q-6 2 -8.5 12.5t12 38t49.5 77t102.5 130t174 198.5t259.5 280q10 2 32 9t45.5 18.5t43 23.5t27.5 24l-25 25h-426q-4 6 -18 -4t-23 -10l-28 -15 q23 -33 45 -38t33 -7q6 -2 15 -10t9 -14l-373 -457q-27 -31 -63.5 -85t-81.5 -107.5t-94 -94.5t-101 -43zM260 332h23q0 -25 -3.5 -47.5t-9.5 -14t-8 25t-2 36.5z" />
<glyph unicode="0" horiz-adv-x="1056" d="M23 414v28q0 106 21.5 186.5t65.5 141.5t114.5 106.5t168.5 81.5q16 6 44 15.5t30 9.5q115 0 217 -37t180 -104.5t123 -165.5t45 -221q0 -92 -33.5 -161t-89 -122t-126 -94t-144.5 -78h-10q-14 0 -55.5 7t-95.5 18.5t-114.5 26t-112.5 27.5t-88 24.5t-40 19.5 q-14 20 -21.5 45t-16.5 48.5t-22 44t-38 34.5v27q0 23 -1 46t-1 46zM86 627q0 -16 12.5 -13.5t12.5 13.5q-1 8 -13 12q-12 2 -12 -12zM176 172q0 -25 21 -25q20 0 20 25t-20 25t-21 -25zM184 381q0 -37 3 -66.5t9.5 -19.5t8.5 33.5t2 52.5t-2 52.5t-8 33.5t-9.5 -19.5 t-3.5 -66.5zM201 270q0 -25 20 -24q20 0 21 24q-1 25 -21 25t-20 -25zM233 332q0 -16 12.5 -13t12.5 13q0 8 -12 12q-12 2 -13 -12zM233 430q0 -16 12.5 -13t12.5 13q0 8 -12 12q-12 2 -13 -12zM293 555q0 -16 1 -55t5 -87t12 -99.5t21.5 -93.5t34 -69.5t51.5 -27.5h221 q10 0 34.5 41t49.5 92t44 99t19 63q0 10 -1 37.5t-3 59.5t-4 60.5t-4 38.5v-147q-8 55 -18.5 131t-36 145.5t-73.5 118.5t-130 49q-66 0 -108.5 -37.5t-68.5 -93t-36 -117t-10 -108.5zM737 836l25 24h-25v-24zM741 811q0 -25 21 -25q20 0 20 25t-20 25t-21 -25zM786 123 l25 24h-25v-24zM836 369q12 29 20 60.5t8 62.5h-28v-123z" />
<glyph unicode="1" horiz-adv-x="692" d="M14 1012q0 -47 17.5 -70.5t43 -35t55.5 -16.5t55.5 -17.5t43 -37t17.5 -73.5q0 -156 -11.5 -324t-62.5 -315q-20 -43 -62 -57.5t-85 -16.5v-26q8 0 35.5 1t37.5 1q18 0 59.5 3t88.5 6t88 7t59 8q6 -8 23.5 -25.5t25.5 -23.5h13h12l147 49q0 2 1 6t1 6q0 14 -10 29.5 t-24.5 32t-26.5 34t-14 40.5l-25 -50l-24 25q0 2 -1.5 17.5t-1.5 31.5q0 20 -1 37.5t-1 32.5q0 37 8.5 115.5t17.5 164.5t17.5 166t8.5 121q0 16 10 21.5t21.5 6.5t18.5 2t2 6t-27.5 20.5t-71.5 43.5q-4 2 -13.5 10.5t-22 17.5t-22.5 15.5t-16 6.5t-24.5 -11.5t-24.5 -13.5 q-16 -6 -44 -15.5t-30 -9.5q-8 0 -41 6.5t-70 15.5t-69.5 16.5t-40.5 11.5q-6 2 -30 3t-30 1zM319 270q0 16 9.5 49t15.5 50q20 -53 23.5 -92t3.5 -93q0 -10 -1 -42.5t-1 -43.5q-6 2 -14.5 10.5t-10.5 14.5q-4 10 -8 31.5t-7 45t-6.5 43t-3.5 27.5zM356 455q1 14 13 12 q12 -4 12 -12q0 -10 -12.5 -13.5t-12.5 13.5z" />
<glyph unicode="2" horiz-adv-x="761" d="M20 285q0 59 9.5 104t44.5 103q25 -14 46 3t42.5 41.5t42 44t41.5 9.5q51 25 90 45t69.5 45t57 55.5t53.5 75.5l1 5t1 7t-1 7l-1 6q-23 25 -36 43t-24.5 31.5t-24.5 19.5t-36 6q-74 0 -124 -43t-84.5 -94t-57.5 -94t-43 -43q-2 0 -6 1t-6 1q-4 45 -8.5 69.5t-8.5 45 t-7 45t-3 69.5q0 10 -1 27.5t2 33t11.5 26.5t28.5 11q12 0 23.5 -9t21.5 -19.5t19.5 -19.5t19.5 -9q29 0 59.5 7t61.5 16.5t62.5 17.5t64.5 8q53 0 98 -21.5t77 -56.5t50.5 -82t18.5 -98q0 -76 -40 -130t-97.5 -95t-123 -74t-118 -66.5t-80 -71.5t-8.5 -91q6 -16 31.5 -42 t41.5 -32q6 0 23.5 4t38 8t38 8t23.5 4h15h10q2 -2 12 -13t12 -11q47 0 71 15.5t34 37t13 48t12.5 48t29 37t62.5 15.5q0 -25 10 -37.5t16 -17.5t3 -9t-29 -14q2 -12 7 -41t8 -59.5t6 -58.5t3 -38v-14v-10q-2 -6 -10 -14.5t-14 -10.5l-119 23l-522 -23l2 221q0 2 -2.5 26.5 t-2.5 37.5zM594 688q0 -25 20 -24q20 0 21 24q-1 25 -21 25t-20 -25z" />
<glyph unicode="3" horiz-adv-x="888" d="M4 944q25 10 59.5 19.5t69.5 15.5t65.5 10t51.5 4q8 0 26.5 -10t22.5 -14l332 10q20 -39 53 -48t64.5 -17.5t55 -31t23.5 -87.5v-13l-49 -73l-1 -5q-1 -6 -1 -8q0 -4 1 -8l1 -4q4 -6 12.5 -14t12.5 -11q-35 -6 -55.5 -30.5t-20.5 -55.5q0 -33 18.5 -50t44 -29.5t50 -23.5 t37.5 -32l-25 -24v-172q-2 4 -10 12t-15 12l-4 1q-4 1 -8 1q-23 0 -28 -14t-5 -31q0 -16 2 -32.5t-6 -22.5q-2 -4 -13 -7t-23.5 -6t-23.5 -6.5t-13 -5.5q-12 -10 -24.5 -34.5t-27.5 -36.5l-161 -11q-10 0 -24.5 -19t-34 -44t-42 -44.5t-47.5 -19.5v93h21q20 0 44.5 7 t32.5 27q-6 0 -24.5 1t-24.5 1q-49 0 -92 -14t-92 -14q-12 0 -43 5t-63.5 13t-57.5 19.5t-25 25.5q0 8 5 13q31 0 52 -2.5t37.5 -3.5t28 2.5t21.5 17.5q63 -6 123 -6q88 0 150.5 4t74.5 4q4 0 12 2t13 4l20 158q2 2 11.5 19.5t18.5 41t14 49t-1 43.5q-2 8 -12 9q-10 0 -6 4 q2 8 -24 10t-66.5 1t-90 -4t-93.5 -6t-75.5 -4t-35.5 1q-16 8 -19.5 18t-3.5 21q0 14 3 22t-1 8q145 16 224 32.5t117 34t48 34t17 34.5h-74q4 2 15.5 12.5t23.5 23t21.5 23.5t13.5 15l2 4q2 4 2 8q0 14 -11.5 38t-27 48.5t-32.5 45t-32 28.5q0 -6 -9 -25.5t-15 -23.5 q2 0 15 -3t24.5 -6t13.5 -3q-4 0 -8 1l-4 1q-8 6 -13.5 19.5t-11.5 25.5t-14 21.5t-23 9.5q-4 0 -7 -1t-5 -1l-158 -25l-43 -49q0 37 -19.5 51t-47 17.5t-59 -1t-54.5 -4.5q-35 0 -41 35zM563 856q0 -25 19 -25q20 0 20 25t-20 25q-18 0 -19 -25zM606 561h25q6 2 25.5 10.5 t23.5 14.5h-25q-4 -4 -23.5 -12.5t-25.5 -12.5zM641 207q0 -16 12.5 -13t12.5 13q-1 8 -13 12t-12 -12zM680 266l49 74q-2 0 -5 1t-7 1q-2 0 -7 -1l-5 -1q-4 -4 -11.5 -23.5t-13.5 -25.5v-25z" />
<glyph unicode="4" horiz-adv-x="1069" d="M2 938q8 -12 27.5 -24.5t43 -23.5t45 -19.5t32.5 -10.5l18 -371l483 3q-20 -23 -23 -40.5t-3 -45.5q0 -6 1 -18.5t1 -18.5l49 24v-18q0 -10 1 -24.5t1 -26.5v-17v-28v-37q0 -33 -5 -61.5t-22 -33.5l-221 -73q12 0 44 -3t68 -7.5t67.5 -8.5t41.5 -6q6 0 24.5 -11t24.5 -13 h13q27 0 71.5 7t91 16t86 17.5t58.5 8.5l24 24q-51 2 -84.5 29t-53 64.5t-28 82.5t-8.5 84q0 16 1 35t26 25q-16 10 -32.5 33.5t-16.5 40.5q0 6 9 15t15 9q-4 76 -12 147.5t1 127t49 89t132 33.5q0 25 -13 38.5t-33.5 19.5t-42 7t-40.5 1q-76 0 -148.5 -8t-146.5 -15 q35 -49 47.5 -104t12.5 -115v-20q0 -14 -1 -29.5t-1 -30.5v-18q-12 -20 -37 -34.5t-47 -14.5h-14q-14 0 -49 2t-74 6t-74 8t-49 8l2 242q0 6 9 14.5t15 10.5q10 2 33 7t45 38l-28 14q-8 0 -22.5 10.5t-18.5 3.5l-340 9zM590 307q0 -16 12 -13t12 13q0 8 -12 12 q-12 2 -12 -12zM729 492q1 24 21 24t20 -24q0 -25 -20 -25t-21 25zM737 332q0 29 3.5 49t9.5 12t8 -24.5t2 -36.5t-2 -36.5t-8.5 -25t-9.5 14t-3 47.5z" />
<glyph unicode="5" horiz-adv-x="876" d="M0 983l590 -10l119 22q4 -2 12 -10t12 -14v-10v-15q0 -29 -19.5 -53.5t-13.5 -40.5q27 -10 30 -13t-3 -9.5t-16.5 -17.5t-10.5 -38q-43 0 -58 7t-18 19.5t0 25t-2.5 24.5t-24.5 19.5t-67 7.5q-2 2 -17 -4.5t-7 -20.5h-10l-260 12v-202q66 4 136 3t138 -13.5t127 -39 t104 -71.5t72 -112t27 -161q0 -51 -17.5 -98t-50.5 -82t-77 -56.5t-97 -21.5q-33 0 -86 7.5t-110.5 14.5t-109.5 14t-83 7q-10 0 -19.5 -8t-19.5 -19.5t-21.5 -19.5t-23.5 -8q-20 0 -28.5 11t-11.5 26.5t-2 32t1 28.5q0 43 4 49.5t9 4t11.5 5t10.5 52.5q2 0 5 1t7 1 q18 0 62.5 -23.5t104.5 -52.5t131 -52.5t144 -23.5q25 0 37.5 6.5t23.5 18.5t23.5 31.5t34.5 44.5l2 5t2 7t-2 7l-2 5q-16 123 -61 191.5t-107.5 100.5t-132 37t-134 3t-116.5 -2q-51 0 -73 20zM772 305q1 -24 19 -24q20 0 20 24q0 25 -20 25q-18 0 -19 -25z" />
<glyph unicode="6" horiz-adv-x="1030" d="M23 590q0 55 15 79.5t34.5 36t35 15.5t15.5 16v172q0 16 7 20.5t15 4.5q10 0 19.5 -2t15.5 -2q0 10 -3 24.5t-2 26.5t9.5 21.5t28.5 9.5q0 -16 4 -43t29 -35q8 2 25.5 7t36 8t35.5 6t26 3q10 0 17 1.5t15 1.5q10 0 26.5 1t51.5 1q66 0 126.5 -1t82.5 -1q12 18 23.5 40.5 t25 42t30.5 33t42 13.5q4 0 11 -10.5t14 -14.5v-25l-33 -147q6 -23 10 -40t4 -19q0 -6 -9 -14.5t-22 -18.5v10q0 -2 -1 -5t-1 -5q-16 -16 -16 -17q-27 -20 -35 -18t-11 16.5t-8 36t-25.5 42t-62.5 35.5t-120 15q-61 0 -89 -24.5t-39 -64.5t-14.5 -94t-13.5 -112l293 -12 q84 -29 144.5 -56.5t100.5 -58t58.5 -67.5t18.5 -82q0 -31 -6.5 -65.5t-22.5 -77.5q-2 -6 10 -24.5t14 -25.5v-24q0 -6 -3 -20.5t-7 -30t-8 -28.5t-6 -19l-49 49q-4 -4 -14.5 -15.5t-21.5 -22.5t-22.5 -21.5t-15.5 -14.5l-5 -1t-7 -1t-7 1l-6 1q-6 6 -15 23.5t-9 25.5 q-68 -25 -133.5 -25.5t-136.5 -0.5h-29q-23 0 -46.5 1t-45.5 1h-27q-37 49 -81 65t-103 16q0 37 -17.5 70t-38 63.5t-38 59.5t-17.5 57v13l25 49q0 2 -2 12t-2 12h-25q0 12 5 20.5t10.5 15.5t10.5 15.5t5 22.5q0 6 -1 14.5t-1 10.5l-49 -25q0 8 -1 36t-1 38zM72 774q0 2 1 7 l1 5q2 6 10 14.5t14 10.5q0 -2 1 -6t1 -6t-1 -7l-1 -6q-2 -6 -10 -14t-14 -10q0 2 -1 6t-1 6zM127 467q0 -25 20 -25t21 25q-1 25 -21 25t-20 -25zM176 762q0 -25 21 -25q20 0 20 25q0 24 -20 24t-21 -24zM201 319q0 -25 20 -24q20 0 21 24q-1 25 -21 25t-20 -25zM283 270 q0 -23 3 -39t9 -10q12 12 12 49t-12 49q-6 6 -9 -10t-3 -39zM319 197q66 -43 137.5 -59.5t145.5 -16.5q10 0 43 1t43 1q12 4 36 29.5t46.5 56.5t39.5 59.5t17 40.5q0 27 -25.5 55.5t-81.5 52t-145.5 39t-214.5 15.5q-4 -45 -8 -79t-7 -63.5t-4 -55t3 -52.5zM754 846 q0 -16 12 -13t12 13q0 8 -12 12t-12 -12zM782 782v19h2q-2 -4 -2 -10v-7v-2zM784 811v12v-4v-8zM791 147q0 -25 20 -24q20 0 20 24q0 25 -20 25t-20 -25zM860 147h25l-25 123v-123z" />
<glyph unicode="7" horiz-adv-x="1030" d="M25 74q0 -2 16 -6.5t39.5 -8.5t49.5 -7t42 -3q25 0 73 -1t113 -1h134l-50 -2l88 51l-88 27q0 2 -1 10t-1 14t1 15l1 10l25 49q6 10 23.5 52t38 92.5t39 94.5t22.5 56q8 12 29.5 52t47 87t49 91.5t36.5 66.5q2 6 11 14.5t13 10.5v-13v-12q-10 -37 -27.5 -79t-37 -82 t-39 -75.5t-33.5 -60.5v-49l211 346q12 18 42 33.5t59.5 32t53 36t23.5 48.5q-111 0 -218.5 -13.5t-217.5 -13.5q-74 0 -137.5 12.5t-124 27.5t-120.5 28.5t-128 13.5q0 -31 16.5 -52.5t37 -44t36.5 -48t16 -62.5q0 -23 -8 -44.5t-19 -44t-19.5 -47t-8.5 -50.5q49 0 70.5 16 t30 42t11.5 55.5t14 55t38 42t86 16.5v-16q2 0 12.5 1t12.5 1l147 49q2 0 7 -1t7 -1q0 -35 4.5 -57.5t6.5 -39t-2.5 -33t-22.5 -40.5q-55 -74 -102 -133.5t-91.5 -120t-89.5 -129t-100 -160.5q-18 8 -44 1t-48.5 -20.5t-38.5 -28.5t-16 -26v-24zM127 123q0 24 20 24t21 -24 q0 -25 -21 -25q-20 0 -20 25zM174 727q0 16 12 12t13 -12q0 -10 -12.5 -12t-12.5 12zM309.5 1009.5q1.5 -12.5 12.5 -12.5q8 1 12 13q2 12 -12 12t-12.5 -12.5zM344 369q23 59 59 121.5t89 99.5q-29 -59 -62 -120.5t-86 -100.5zM489 479q0 2 1 7l2 6q2 6 10 14t14 10 q0 -2 1 -6t1 -6t-1 -7l-1 -5q-2 -6 -10 -14.5t-14 -10.5q0 2 -1.5 6t-1.5 6zM586 616q0 25 18 25q20 0 21 -25q0 -25 -21 -24q-18 0 -18 24zM627 727q0 2 1 7l1 5q6 8 23.5 26.5t25.5 22.5q-8 -20 -18.5 -39.5t-30.5 -33.5q0 2 -1 6t-1 6zM1028 911q0 -25 19 -24q20 0 20 24 q0 25 -20 25q-18 0 -19 -25z" />
<glyph unicode="8" horiz-adv-x="933" d="M10 442q12 20 38 31.5t50.5 24t43 31t18.5 51.5t-20.5 57.5t-55.5 30.5q4 4 13 12t12 12l1 5q1 5 1 8q0 4 -1 8l-1 4l-50 78v12q0 68 23.5 90.5t55.5 30.5t66 16t52 49l68 -6q45 10 87 17.5t70 7.5q2 0 8.5 -2t12.5 -4q20 -4 39.5 -7.5t48.5 -7.5l86 8q6 -10 12 -18 t17 -18q8 -2 16 -4.5t16 -4.5q0 -4 -2 -4v-2q23 -6 47.5 -10t44 -15.5t32.5 -36t13 -73.5v-12l-49 -76l-1 -5t-1 -7t1 -7l1 -6q2 -6 10.5 -14t14.5 -10q-35 -6 -55.5 -32t-20.5 -56q0 -33 18.5 -51.5t43 -30.5t50 -23.5t38.5 -31.5l-25 -29v-174q-2 6 -10 14t-15 10l-5 1 q-5 1 -7 1q-23 0 -29 -13t-6 -30q0 -18 3 -34.5t-5 -24.5q-4 -4 -14 -7t-22.5 -6t-23.5 -6t-13 -6q-10 -6 -17.5 -18t-17.5 -27h2q6 -6 6 -14q0 -29 -24.5 -40t-58.5 -13t-68.5 4l-57.5 10q-12 -12 -26.5 -30.5t-30 -28.5t-32.5 -4t-36 43h19h18q0 4 -4 4q-23 4 -61.5 10 t-67.5 18l-60 5q-12 14 -25 38.5t-26 34.5q-4 2 -14 6.5t-22.5 7.5t-23.5 6t-13 5q-8 8 -5.5 24.5t2.5 34.5q0 16 -6 30.5t-28 14.5q-2 0 -8 -1l-5 -1q-6 -4 -14 -12t-10 -12v174zM250 266l102 -135q2 -4 10.5 -5t14.5 -1q2 0 5 -1t11 -3q0 2 2 4q63 -6 92 -6q31 0 43.5 3 t15.5 7t9 4t14.5 1t10.5 3l92 68q37 -4 39 27.5t-11.5 75.5t-33 87t-23.5 62q-2 8 -12 8q-8 0 -4 4q2 10 -17 10h-22q-10 0 -23 -2q-4 -16 -20 -22q-4 -6 -32 -3t-62 7q-20 0 -23 4q-6 0 -6 2q-47 4 -85 7t-32 -9q2 -6 -8 -6q-4 0 -10 -6q-4 -18 -11.5 -49t-13.5 -61 t-10 -51.5t-2 -23.5zM293 603q2 -11 18.5 -22.5t52 -22.5t99.5 -21q78 12 119 24t57 24.5t14 24t-9 22.5t-15 22.5t-2 21.5v74l1 5q1 5 1 7q0 12 -8.5 32.5t-20.5 42t-26.5 42t-28.5 34.5q-6 -2 -12.5 -12t-12.5 6l-98 17q-4 -8 -8 -13.5t-6 -11.5q-2 10 -4 15l-1 6 q-14 -8 -31.5 -29t-32.5 -46.5t-25.5 -51t-10.5 -39.5q0 -2 1 -8l1 -5q4 -4 14.5 -15t21.5 -22.5t22.5 -21.5t15.5 -14h-74q2 -10 -2 -20.5t-8 -22t-2 -22.5zM377 856h2q6 0 10 2l-5 -1q-5 -1 -7 -1zM389 858q33 8 36 10t-17 31q-4 -14 -8.5 -23.5t-10.5 -17.5zM444 57 q0 -6 1 -8t1 -4q4 -4 6.5 -5t4.5 -3q20 6 26 22q-4 -2 -12 -2h-12h-15zM606 874q0 -25 21 -24q20 0 20 24q0 27 -20 27t-21 -27zM651 575h25q6 2 24.5 10.5t24.5 14.5h-25q-6 -2 -24.5 -11t-24.5 -14zM686 211q0 -14 12.5 -12t12.5 12q-1 10 -13 14q-12 6 -12 -14zM725 272 l49 76q-2 0 -6 2t-6 2t-7 -2l-5 -2q-6 -2 -12.5 -22.5t-12.5 -28.5v-25z" />
<glyph unicode="9" horiz-adv-x="956" d="M31 711q0 -90 75.5 -146.5t241.5 -111.5l287 -13q-10 -57 -13.5 -108t-13.5 -91t-37.5 -63.5t-87.5 -23.5q-76 0 -117.5 14t-62 34.5t-26 42t-8.5 35t-10 14.5t-34 -18l-16 -16q0 -2 -1 -4t-1 -4v8q-12 -10 -21.5 -17t-9.5 -14q0 -2 4 -18t10 -39q35 -53 62 -78.5 t49 10.5q23 0 81 -1t124 -1q35 0 51 1t27 1q8 0 14 1t16 1q18 0 25.5 19.5t26.5 24.5q25 -8 28.5 -34t3.5 -42q20 0 28.5 9t9.5 21.5t-2 25.5t-3 24q6 0 14.5 -2t18.5 -2q8 0 15 4t7 20v166q0 12 15.5 16t34 14.5t34 36t15.5 78.5q0 10 -1 37t-1 35l-47 -25q0 2 -1 10.5 t-1 14.5q0 12 5 20.5t10 15.5t10 15t5 21h-24q0 2 -2 12l-2 10l24 49v13q0 27 -17.5 55.5t-38 58t-37.5 61.5t-17 68q-29 0 -43.5 1t-23.5 6.5t-17.5 17.5t-26.5 37h-27q-23 0 -45 1t-45 1h-28q-72 0 -135.5 -1t-131.5 -26q0 8 -8 25.5t-14 23.5l-5 1t-7 1t-7 -1l-6 -1 l-74 -71l-47 47q-2 -6 -6 -19.5t-8 -28t-7 -28.5t-3 -20v-25q2 -4 14 -22.5t10 -24.5q-16 -41 -22 -76t-6 -63zM106 897h25v-119zM160 897q0 25 20 25t21 -25q-1 -23 -21 -23t-20 23zM164 739q0 12 16.5 40t40 58.5t46 55.5t34.5 29q10 0 42 1t42 1q74 0 143.5 -16.5 t135.5 -57.5l-25 -25q4 -25 15.5 -55.5t22.5 -65t19 -73.5t4 -82q-125 0 -224 19.5t-168.5 49t-106.5 62.5t-37 59zM207 240v12v-8v-4zM207 260h2v19v-3v-6q0 -8 -2 -10zM213 217q0 10 11.5 13t11.5 -13q-1 -16 -11 -12q-12 2 -12 12zM670 748q0 25 20 24q20 0 21 -24 q-1 -23 -21 -23t-20 23zM676 778q0 35 12 47q6 6 9 -9t3 -38t-3 -38t-9 -9q-12 8 -12 47zM694 317q0 23 21 23q20 0 20 -23q0 -24 -20 -24t-21 24zM741 604q0 25 21 25q20 0 20 -25q0 -24 -20 -24t-21 24zM809 281q0 -2 1 -6.5t1 -6.5q6 2 14.5 10.5t10.5 14.5l1 5q1 5 1 7 t-1 6t-1 6q-6 -2 -14.5 -10t-10.5 -14l-1 -5q-1 -5 -1 -7z" />
<glyph unicode=":" horiz-adv-x="323" d="M20 598q14 -8 17.5 -19.5t9.5 -21.5q2 -2 21.5 -7t43 -9t45 -8.5t25.5 -4.5h2q37 16 72 40t35 67q0 57 -44 90t-110 33q-2 0 -9 -3t-13 -5q-51 -16 -73 -42t-22 -77v-6v-21v-6zM23 70q14 -8 17 -19.5t9 -21.5q2 -2 22.5 -7.5t44 -9.5t44 -8t24.5 -4h2q37 16 72 39.5 t35 66.5q0 57 -44 90t-110 33q-2 0 -9 -3t-11 -5q-53 -16 -74.5 -41.5t-21.5 -77.5v-6v-20v-6zM39 672v2q0 2 2 2v-2q0 -2 -2 -2zM41 143v2q0 2 4 2v-2q0 -2 -4 -2zM59 567q1 8 7 8t6 -8q0 -4 -6 -4t-7 4zM61 39q1 8 9 8q4 0 4 -8q0 -4 -4 -4q-8 0 -9 4zM63 616v15q1 8 3 6 q4 -2 4 -21q0 -16 -4 -18q-2 0 -3 18zM66 88v14q0 9 4 7q2 -2 2 -21q0 -16 -2 -18q-4 0 -4 18zM66 590q0 8 8 8q4 0 4 -8q0 -4 -4 -4q-8 0 -8 4zM70 61q0 9 6 9t6 -9q0 -4 -6 -4t-6 4zM76 604q0 2 6 2v-2q0 -2 -4 -2q-2 0 -2 2zM76 627q0 10 6 4v-4l-3 -1q-3 -1 -3 1zM78 76 q0 2 6 2v-2q0 -2 -2 -2q-4 0 -4 2zM78 98q0 6 2 7t4 -3v-4l-3 -1t-3 1zM209 717q0 8 10 8q2 0 2 -8q0 -6 -2 -6q-10 0 -10 6zM209 725v2h10zM211 188q0 9 10 9q2 0 2 -9q0 -6 -2 -6q-10 0 -10 6zM211 197v2h10zM221 557v6h10zM223 29v6h10zM233 614v27h11q0 -16 -11 -27z M236 86v27h10q0 -16 -10 -27z" />
<glyph unicode=";" horiz-adv-x="323" d="M20 598v6v21v6q0 51 21.5 76.5t73.5 42.5q6 2 13 5t9 3q66 0 110 -33t44 -90q0 -43 -35 -66.5t-72 -40.5h-2q-4 0 -25.5 4.5t-45 8.5t-43 9t-21.5 7q-6 10 -9.5 21.5t-17.5 19.5zM23 70v6v20v6q0 51 21.5 77t74.5 42q4 2 11 5t9 3q66 0 111 -32.5t43 -90.5 q-4 -113 -20.5 -173t-39 -89.5t-47 -37t-43.5 -15.5l19 195q0 6 -16.5 11t-37 10t-39 10.5t-20.5 11.5q-6 10 -9 21.5t-17 19.5zM39 672q2 0 2 2v2q-2 0 -2 -2v-2zM41 143q4 0 4 2v2q-4 0 -4 -2v-2zM59 567q0 -4 7 -4q6 0 6 4q0 8 -6 8t-7 -8zM61 39q0 -4 9 -4q4 0 4 4 q0 8 -4 8q-8 0 -9 -8zM63 616q0 -18 3 -18q4 2 4 18q0 19 -4 21q-2 2 -3 -6v-15zM66 88q0 -18 4 -18q2 2 2 18q0 19 -2 21q-4 2 -4 -7v-14zM66 590q0 -4 8 -4q4 0 4 4q0 8 -4 8q-8 0 -8 -8zM70 61q0 -4 6 -4t6 4q0 9 -6 9t-6 -9zM76 604q0 -2 2 -2q4 0 4 2v2q-6 0 -6 -2z M76 627q0 -2 3 -1l3 1v4q-6 6 -6 -4zM78 76q0 -2 4 -2q2 0 2 2v2q-6 0 -6 -2zM78 98q0 -2 3 -1l3 1v4q-2 4 -4 3t-2 -7zM209 717q0 -6 10 -6q2 0 2 6q0 8 -2 8q-10 0 -10 -8zM209 725l10 2h-10v-2zM211 188q0 -6 10 -6q2 0 2 6q0 9 -2 9q-10 0 -10 -9zM211 197l10 2h-10v-2z M221 557l10 6h-10v-6zM233 614q10 10 11 27h-11v-27zM236 86q10 10 10 27h-10v-27z" />
<glyph unicode="&#x3c;" horiz-adv-x="790" d="M20 553l230 -307q6 -6 -6.5 -15.5t-18.5 -9.5q25 -20 44.5 -44.5t29.5 -53.5q-20 -4 -45 -10.5t-45.5 -17.5t-33.5 -28.5t-13 -43.5q47 0 87 14t91 14h43q35 0 39 -26q8 49 50 65t83 16h55q0 51 -21.5 82t-51 54.5t-61.5 45t-54 56.5q-2 2 -13.5 23.5t-23.5 48t-23.5 49 t-13.5 27.5l-74 73l-1 5t-1 8q0 2 1 7l1 5l50 49q39 59 83 99t93 71t102 59.5t115 65.5q0 2 2 6t2 6t-2 7l-2 5q-4 6 -23.5 15.5t-25.5 9.5h-27q-20 0 -39.5 1t-40.5 1h-29h-32q-23 0 -45.5 -1t-38.5 -1h-19q-14 0 -35.5 -3t-41 -7t-33 -8t-13.5 -7v-36h84l12 -22 q11 -23 3 -40q-4 -8 -9.5 -18.5t-15.5 -22.5q-6 -12 -30.5 -34.5t-57.5 -50t-70.5 -57.5t-72.5 -55.5t-62 -44t-35 -24.5zM100 270q0 -6 1 -14t1 -10q2 -10 10.5 -27.5t16.5 -33t15 -27.5l8 -11h30q0 8 -6 25l-74 123q0 -2 -1 -10.5t-1 -14.5zM182 246q0 -25 19 -25 q20 0 20 25q0 24 -20 24q-18 0 -19 -24zM428 172q0 25 18 25q20 0 21 -25q0 -25 -21 -25q-18 0 -18 25zM477 74q0 -25 19 -25q20 0 20 25q0 24 -20 24q-18 0 -19 -24zM643 39q6 0 20.5 1t30 3t28.5 4t19 2t15.5 9.5t9.5 15.5q-4 2 -13.5 6t-21.5 8t-23.5 7t-15.5 3h-24h-25 v-59zM718 1007.5q5 -12.5 11 -12.5q8 1 12 13q6 12 -12 12q-16 0 -11 -12.5z" />
<glyph unicode="=" d="M37 799l22 32q2 -23 22.5 -35t50.5 -17t67 -6t73 -1l131 2h23q12 0 16 -2l199 -24q8 4 22.5 6t12.5 8q2 8 7 22.5t46 36.5q0 -6 8 -9t8 -11v-2l5 -242l-35 -8h-27h-35q-14 0 -18 14q-111 18 -184.5 27.5t-120.5 12.5t-74 2t-45 -1q-29 0 -29 -6l19 -29l-125 -61 q-4 23 -8.5 28t-10.5 17q0 4 -4 4q-2 0 -4 4l-2 6q0 18 -1 53t-3 71t-3 66.5t-3 41.5zM39 418l22 33q2 -23 22.5 -35.5t51.5 -17.5t68 -6t71 -1l132 2h22q12 0 16 -2l199 -24q8 4 22.5 6t12.5 8q2 8 7 22.5t48 36.5q0 -6 7.5 -9t7.5 -11v-2l4 -242l-35 -8h-27h-35 q-14 0 -18 14q-111 18 -184.5 27.5t-120.5 12.5t-74 2t-45 -1q-29 0 -29 -6l21 -29l-127 -61q-4 23 -7 28t-12 17q0 4 -2 4q-4 0 -6 4l-2 6q0 18 -1 53t-2 71t-3 67t-4 41zM293 717h2q12 0 57 28l-6 15q-37 -20 -51 -39h-2v-4zM295 336h2q16 0 57 29l-6 14q-37 -20 -51 -39 h-2v-4z" />
<glyph unicode="&#x3e;" horiz-adv-x="790" d="M20 74q2 2 12.5 6t23 8t23.5 7t15 3h25h24v-59q-6 0 -20 1t-29.5 3t-29 4t-19.5 2t-15.5 9.5t-9.5 15.5zM45 1008q-6 12 12 12q16 0 11 -12.5t-11 -12.5q-10 1 -12 13zM66 946q0 2 2 7l2 5q4 6 23.5 15.5t25.5 9.5h26q20 0 40 1t40 1h29h33q23 0 45 -1t39 -1h18 q14 0 35.5 -3t41 -7t33 -8t13.5 -7v-36h-84l-11 -22q-11 -23 -3 -40q4 -8 9 -18.5t15 -22.5q6 -12 31 -34.5t57.5 -50t70.5 -57.5t73 -55.5t61.5 -44t34.5 -24.5l-229 -307q-6 -6 6 -15.5t18 -9.5q-25 -20 -44 -44.5t-30 -53.5q20 -4 45 -10.5t45.5 -17.5t34 -28.5 t13.5 -43.5q-47 0 -87 14t-92 14h-45q-33 0 -36 -26q-8 49 -50.5 65t-83.5 16h-55q0 51 21.5 82t51.5 54.5t61.5 45t54.5 56.5q2 2 13 24.5t23.5 48t23.5 48t13 27.5l74 73l1 5t1 8q0 2 -1 7l-1 5l-49 49q-41 59 -84 99t-92 71t-102.5 59.5t-114.5 65.5q0 2 -2 6t-2 6z M270 74q1 24 21 24q18 0 18 -24q0 -25 -18 -25q-20 0 -21 25zM319 172q0 -25 21 -25q18 0 18 25t-18 25q-20 0 -21 -25zM565 246q1 24 21 24q18 0 18 -24q0 -25 -18 -25q-20 0 -21 25zM604 147q0 8 6 25l74 123q0 -2 1 -10.5t1 -14.5t-1 -14t-1 -10q-2 -10 -10 -27.5 t-16.5 -33t-15.5 -27.5l-7 -11h-31z" />
<glyph unicode="?" horiz-adv-x="679" d="M29 969q0 -45 6 -75t14 -55.5t16.5 -55t10.5 -72.5q2 0 6 -1t6 -1q20 0 43 35.5t55.5 77.5t80.5 78t122 36q23 0 36 -6t24.5 -19.5t23.5 -32t35 -42.5l2 -6q2 -5 2 -7t-2 -7l-2 -5q-27 -45 -52.5 -75.5t-56 -55.5t-70.5 -45.5t-91 -44.5q-20 10 -36 -5.5t-31 -35 t-31.5 -32.5t-41.5 1q-18 -29 -25 -43t-10.5 -24.5t-2.5 -24.5t1 -45q0 -12 1.5 -37t3.5 -27h147q-6 20 -6 37q0 43 32.5 67.5t83 42t108.5 34t108.5 43t83 69.5t32.5 115q0 51 -17 98t-50 82t-77 56.5t-97 21.5q-66 0 -123.5 -1t-116.5 -1q-10 0 -25.5 17.5t-31 36 t-27.5 30.5t-18 2zM59 61q12 -8 14.5 -17t8.5 -19q2 -2 17.5 -6.5t35 -8.5t36.5 -7t22 -3h2q29 16 57.5 34.5t28.5 59.5q0 49 -38 77t-87 28q-4 0 -9.5 -2t-11.5 -4q-76 -27 -76 -103v-6v-18v-5zM74 123v2q0 2 2 2v-2q0 -2 -2 -2zM90 35q0 4 8 4q2 0 2 -4q0 -2 -1 -4l-1 -2 q-8 0 -8 6zM96 76q0 20 2 18v-18v-15q-2 0 -2 15zM98 53q0 8 4 8l2 -1q2 -1 2 -7q0 -2 -2 -3l-2 -1q-4 0 -4 4zM102 66h7q0 -2 -3 -3q-4 0 -4 3zM102 86q0 6 2.5 7t4.5 -3v-4l-3 -1q-4 -1 -4 1zM211 164q0 8 10 8v-8v-6q-10 0 -10 6zM211 172v2h10zM221 25v4h10zM233 74v24 h9q0 -6 -2 -11t-7 -13zM588 688q0 25 18 25q20 0 21 -25q0 -25 -21 -24q-18 0 -18 24z" />
<glyph unicode="@" horiz-adv-x="1093" d="M23 504q0 -37 11 -91.5t30.5 -117t46 -126t57.5 -116.5t65.5 -90t69.5 -47q4 -2 18.5 0t31 5t30.5 6t18 3v-39q0 -10 20.5 -15t48.5 -7t54.5 -3t36.5 -1q53 0 125 2t140.5 14.5t124 38t77.5 72.5q23 49 18.5 59t-32 -1t-73.5 -34.5t-106.5 -41t-131 -18.5t-146.5 32 q-84 0 -138 54t-85 132t-43 165t-12 155q0 115 46 218t114.5 179t149.5 114.5t152 24.5q70 -16 110 -56t58.5 -92.5t19.5 -112.5t-7.5 -116.5t-21.5 -102.5t-23 -71l16 27v8q0 8 -11.5 17.5t-23.5 21.5t-23.5 29.5t-11.5 44.5q0 23 7.5 29t7.5 24v16q-41 2 -53.5 17.5 t-16.5 37t-12 46t-41 47.5l-4 1q-4 1 -9 1q-4 0 -8 -1t-6 -1q4 -4 8 -14.5t6 -14.5v-4q0 -29 -7 -46t-16 -30.5t-17.5 -29t-12.5 -37.5q0 -4 6.5 -14.5t6.5 -12.5q0 -4 -12.5 -21.5t-14.5 -19.5q-6 -10 -13.5 -30.5t-16.5 -43t-18 -41t-20 -20.5q-6 0 -19 -2t-28.5 -4 t-29 -4t-19.5 -2q10 -10 17.5 -26.5t17.5 -16.5h8l27 16v-4h2q0 -66 -21.5 -83t-52.5 -20.5t-63.5 -6.5t-53.5 -38h27q20 0 25.5 8.5t21.5 8.5q10 0 22.5 -12.5t22.5 -16.5h16l119 12h12q12 0 21.5 2.5t9.5 18.5q0 14 -11 18t-23.5 7.5t-23.5 8.5t-11 19v8l14 35t12 35 q6 -2 21.5 -5t33 -5t33 -4t21.5 -2q4 0 20.5 -3.5t32.5 -9.5t26.5 -16t2.5 -25l-56 -108l7 -5q6 -5 10 -7h6q25 0 39 13t35 13q18 0 19 -14.5t20 -14.5q18 0 27 8.5t34 8.5t45.5 -7t44.5 -7h12q4 0 20.5 5t20.5 7l-53 43v12q-23 37 -37 65.5t-13 77t22.5 132.5t72.5 231 q2 0 2 29t-12 70.5t-43 87.5t-94 83q-57 0 -109.5 13.5t-111.5 13.5q-53 0 -126 -8t-148 -23.5t-143.5 -39t-111.5 -56.5q4 -8 -5 -39t-26.5 -76t-38 -97t-40 -102.5t-31.5 -93.5t-12 -67zM101 240.5q-1 21.5 0 43t1 35.5q0 29 3.5 98.5t9.5 147.5t15 146.5t22 95.5 l-21 -645q-16 14 -22.5 35.5t-7.5 43zM102 905l25 25h-25v-25zM207 954q0 25 18 25q20 0 21 -25q0 -25 -21 -24q-18 0 -18 24zM246 39q0 16 5 41t28 33q4 -4 12 -23.5t12 -26.5q4 -12 4 -24h-61zM327 -10.5q-3 12.5 13 12.5q14 0 12 -12q-8 -12 -12 -13q-10 0 -13 12.5z M459 412q2 -6 8 -6q4 0 4 4q6 8 -6 8q-8 0 -6 -6zM513 316.5q-3 7.5 7 7.5q12 -1 6 -7q0 -8 -6 -8q-4 0 -7 7.5zM623 465q6 33 21 68t44 55q29 -16 45.5 -53t16.5 -70h-127zM772 762q0 -12 12 -12q10 0 11 12q-1 14 -11 14q-12 0 -12 -14zM823 291v12l15 -12h-15zM905 397 v13q4 0 8.5 -4.5t6.5 -8.5v-14q-4 2 -8.5 6t-6.5 8zM922 371q0 12 10 12q12 0 12 -12q0 -14 -12 -15q-10 0 -10 15zM938 348q0 12 8 8q8 0 8 -8q0 -4 -8 -5t-8 5zM946 195h39v14zM948 330q0 14 10 14q12 0 13 -14h2q10 0 10 -13q0 -14 -10 -14t-10 14h-5q-10 0 -10 13z M963 317q0 13 8 13q0 -12 -8 -13zM1006 907q0 25 18 25q20 0 20 -25t-20 -24q-18 0 -18 24z" />
<glyph unicode="A" horiz-adv-x="1439" d="M-227 47q35 55 82 73.5t97 22.5t99 5.5t88 21.5t62.5 70.5t23.5 152.5q-2 0 -2 4q0 2 -2 2l-65 -32l-6 -1q-7 -1 -13 -1q-14 0 -23.5 11t-17.5 27.5l-16 33t-19 26.5q12 0 45 4t68 9t66.5 10.5t44.5 9.5q25 6 48 48t43.5 94t38 103.5t29.5 73.5q2 2 12.5 15.5t21.5 30 t20.5 31.5t9.5 19q0 8 -16.5 32t-16.5 32q8 53 29.5 88t43 67.5t39 73.5t17.5 107v14q-2 10 -14 32.5t-19 33.5q4 0 14.5 2t18.5 2q6 0 17.5 -2t13.5 -2q51 -35 74.5 -73t34 -75t14.5 -71.5t19.5 -62.5t48 -46.5t98.5 -24.5q0 -2 1 -12t1 -20q0 -23 -6.5 -36.5t-12.5 -25.5 t-12 -26.5t-6 -38.5q0 -61 25.5 -102.5t55 -72t55.5 -53t26 -45.5v-14l-31 -66v-14q0 -33 36 -59.5t75.5 -51t67.5 -48t11 -50.5l160 -190v-33l129 -96q-6 -4 -19.5 -9.5t-28.5 -10.5t-28.5 -8t-19.5 -3h-33q-55 0 -104 16.5t-105 16.5q-29 0 -47 -6.5t-32.5 -12.5l-29 -12 t-36.5 -6q-23 0 -31 11t-14 23.5t-14.5 23.5t-30.5 11q-25 0 -44.5 -10t-40 -22.5t-43 -22.5t-50.5 -10h-17q-10 8 -22.5 18.5t-8.5 12.5l127 256q18 33 -5 56t-62 38.5t-77 24t-48 8.5q-12 0 -49 4t-78 9t-78 10t-49 9q-4 -10 -14.5 -32.5t-20.5 -47t-19.5 -47t-11.5 -32.5 v-17q0 -35 26 -47t56.5 -19t56 -18.5t25.5 -42.5q0 -37 -21.5 -43t-47.5 -6h-29l-289 -31h-18h-13q-12 4 -26.5 14.5t-29.5 21.5t-30.5 20.5t-25.5 9.5q-18 0 -28.5 -6t-21 -12.5t-23.5 -12.5t-40 -6q-8 0 -32.5 1t-30.5 1zM29 367.5q-6 15.5 14 15.5q22 0 18 -16 q-6 -14 -16 -15q-10 0 -16 15.5zM156 143.5q4 -16.5 16 -16.5t16 16t-16 17q-20 0 -16 -16.5zM412 496h301q0 37 -10.5 78.5t-29 81.5t-44 74t-58.5 52q-35 -25 -60.5 -58.5t-43.5 -71.5t-32.5 -79t-22.5 -77zM768 1198q0 33 27 33q25 0 24 -33q0 -33 -24 -33q-27 0 -27 33z M891 80h33l-33 33v-33zM1081 352q0 -4 1 -10l1 -6q2 -8 12.5 -19.5t18.5 -13.5q0 2 2 8t2 8t-2 9l-2 8q-2 8 -13 18.5t-18 12.5q0 -2 -1 -7.5t-1 -7.5zM1120 272q0 -33 27 -32q25 0 24 32q1 31 -24 31q-27 0 -27 -31zM1163 223q0 -20 15.5 -16t15.5 16q0 15 -14 17 q-10 2 -13.5 -1t-3.5 -16zM1180 -143l94 30v-30h-94zM1184 176q0 -33 26 -33q25 0 25 33q0 31 -25 31q-27 0 -26 -31zM1217 143q0 -31 26 -30q25 0 25 30q0 33 -25 33q-27 0 -26 -33z" />
<glyph unicode="B" horiz-adv-x="1308" d="M-23 139q0 2 5 15q68 2 106.5 11t63 30.5t43 57.5t43.5 93l32 -33l31 33v766q0 49 -25.5 67.5t-62.5 22.5q-16 2 -33 2q-21 0 -44 -3q-40 -5 -70 -5q-49 0 -52 45q33 12 77 23.5t89 20.5t86 14.5t68 5.5q10 0 32.5 -13.5t30.5 -19.5h576q16 -35 40.5 -49.5t53.5 -22.5 t57.5 -13t52 -20.5t38 -46t14.5 -88.5v-14l-64 -96l-2 -8q-2 -7 -2 -9q0 -4 2 -10l2 -6q2 -8 12.5 -18.5t18.5 -12.5q-47 -10 -72.5 -41t-25.5 -72q0 -43 23.5 -65.5t56 -37.5t65.5 -30.5t49 -42.5l-32 -30v-226q-2 6 -12.5 17.5t-18.5 15.5l-7 1q-8 1 -10 1 q-29 0 -37 -17.5t-8 -39.5q0 -23 4.5 -43.5t-6.5 -28.5q-4 -4 -18 -9t-29.5 -9t-30 -8.5t-18.5 -6.5q-8 -6 -26.5 -19t-39 -27.5t-39 -29t-24.5 -20.5h-350q-12 0 -32.5 -26.5t-45.5 -57.5t-54.5 -57.5t-60.5 -26.5v123h27q27 0 59.5 8t42.5 37q-10 0 -32.5 1t-32.5 1 q-31 0 -60.5 -6t-58.5 -13t-58.5 -13.5t-62.5 -6.5q-16 0 -56 6.5t-81 18.5t-74 27.5t-33 33.5zM207 1081l31 31v-31h-31zM424 721q51 0 61.5 28.5t10.5 75.5q0 6 -1 31t-1 33q-41 -29 -55.5 -75t-14.5 -93zM430 410l47 63v-94l17 160h-64v-129zM477 682q0 -20 16.5 -16 t16.5 16q0 6 -16 16q-16 4 -17 -16zM586 299q0 -43 11 -82t56 -39q8 0 18.5 2t14.5 6l191 193q2 2 -0.5 28.5t-7.5 62.5t-11 73t-12 59q-6 25 -32 39t-59.5 20.5t-67.5 8.5t-54 2q0 -45 -7.5 -85t-16.5 -79t-16 -79t-7 -83v-47zM621 756q37 0 79.5 1t83.5 10t75 29.5 t50 61.5h-96q6 4 19.5 17.5l29 29l28.5 28.5l19 19l1 6q1 7 1 11q0 18 -13 49t-33.5 63.5t-43 59t-41.5 37.5q0 -10 -11 -35t-19 -31l-8 -2q-7 -2 -9 -2t-9 2l-7 2q-10 8 -17.5 24.5t-14.5 33t-18.5 28.5t-29.5 12q-2 0 -7 -1t-9 -1v-452zM883 1112q0 -31 26 -31q27 0 27 31 q0 33 -27 33t-26 -33zM926 266q0 -20 15 -16t15 16q0 7 -16 17q-8 2 -11 -1t-3 -16zM940 729h16h17q8 2 31.5 13.5t31.5 19.5h-16h-14q-10 -4 -33 -15.5t-33 -17.5zM1036 346l64 96q-2 0 -7.5 1t-7.5 1q-4 0 -10 -1l-6 -1q-4 -2 -8 -11t-8 -19.5t-8.5 -19.5t-8.5 -13v-17 v-16z" />
<glyph unicode="C" horiz-adv-x="1341" d="M29 655q0 49 33.5 117t71.5 133.5t68 115.5q23 39 23 56q0 5 -2 8q55 43 127 74t148.5 50.5t154.5 29.5t146 10q76 0 144.5 -17.5t141.5 -17.5q49 0 84 24t35 77q20 0 34.5 16.5t23 38t12.5 42t4 26.5q35 -35 35 -74v-80v-24q0 -18 -1 -34t-1 -28v-16q-2 -37 -7.5 -91.5 t-10.5 -104.5t-10 -87l-5 -37l-64 -63q-10 74 -39.5 137t-77.5 111.5t-111.5 76t-139.5 27.5q-94 0 -169 -43t-126 -111.5t-78 -153.5t-27 -169q0 -86 6.5 -178.5t36 -167t90 -122.5t169.5 -48q111 0 192.5 12t141 48t99.5 98.5t64 162.5h35q0 -8 -1 -31.5t-1 -31.5 q0 -12 -3 -49t-8 -79t-11.5 -79t-10.5 -49q-70 -16 -129 -44t-116.5 -53.5t-118 -45t-129.5 -19.5q-12 0 -47 1t-71 4t-63.5 10t-27.5 20v49q-6 0 -24.5 -4t-39 -9.5t-39 -7.5t-24.5 2q-68 18 -137.5 87t-125 157t-90 182.5t-34.5 165.5zM127 991v31h33zM156 486.5 q2 -29.5 10 -57.5t27 -46v479q-33 -70 -34 -135t-1 -139q0 -18 -2 -45t0 -56.5zM260 1055q0 -33 27 -33t26 33q1 30 -26 30t-27 -30zM340 223h80q0 12 -4 33q-4 8 -14.5 31.5t-18.5 31.5q-29 -10 -36 -42.5t-7 -53.5zM447 159.5q4 -16.5 16 -16.5q12 1 16 17t-16 16 t-16 -16.5zM1188 991q0 -33 26 -33q27 0 27 33q0 31 -27 31t-26 -31zM1251 702q0 33 27 33t27 -33q0 -31 -27 -30q-27 0 -27 30z" />
<glyph unicode="D" horiz-adv-x="1325" d="M-47 33q23 16 56.5 23t67.5 13.5t61.5 17.5t37.5 40q10 96 16.5 173t9.5 147.5t4 140t1 151.5q0 49 2 105q1 18 1 36q0 36 -3 74q-4 56 -17.5 107t-46.5 90l-30 -66q-6 12 -22.5 33t-35 43.5t-32 46t-13.5 43.5q109 0 209 -8t199 -16q100 -7 204 -13q50 -3 104 -3 q58 0 120 3q25 -43 65.5 -64.5t84.5 -34.5t89 -24.5t80 -35.5q10 -8 23.5 -41t29 -78t30 -97.5t25.5 -100.5t18 -85t7 -51q0 -31 -1 -58.5t-9 -52t-29.5 -44t-60.5 -31.5l33 -33q-6 -12 -24.5 -43t-40 -66.5t-40 -68.5t-24.5 -45q-8 -8 -18.5 -32t-12.5 -32q-14 -2 -51 -11 t-78 -19.5t-77 -19.5t-50 -13q-8 -4 -31.5 -18.5t-31.5 -14.5q-10 0 -33 14.5t-33 18.5h-14h-17q-8 -4 -31.5 -14.5t-31.5 -18.5h-608zM256 399q0 -20 3 -38.5t13 -8.5q14 6 15 47q-1 41 -15 47q-10 4 -13 -11t-3 -36zM272 672q25 49 33 107.5t8 115.5h-41v-223zM319 606 q0 -10 4.5 -22.5t12.5 -8.5q16 4 16 31q0 29 -16 33q-8 2 -12.5 -9.5t-4.5 -23.5zM416 623q0 -37 1 -74t3 -62.5t5 -38t7 -2.5q8 20 10 68.5t2 108.5q0 59 -2 107.5t-10 68.5q-4 10 -7 -2.5t-5 -38t-3 -61t-1 -74.5zM416 1038q0 -23 3 -40t13 -7q14 14 14 47t-14 47 q-10 10 -13 -7t-3 -40zM446 367q0 -20 16.5 -15.5t16.5 15.5q0 10 -4 12t-12 4q-16 4 -17 -16zM496 575q0 -41 5 -96t17 -113.5t30.5 -113.5t43.5 -92q4 0 17.5 -1t28.5 -2t28.5 -2t19.5 -1q86 0 139.5 46t84 114.5t45 147.5t20.5 144h45q0 47 -5 75t-14.5 45t-19.5 29.5 t-22.5 28t-24.5 41t-23 70.5q-12 53 -23 100t-34 82t-63.5 55.5t-114.5 20.5q-41 0 -79 -1t-71 -34q-4 -31 -9 -107.5t-10 -163.5t-8 -164t-3 -108zM911 193q2 0 7.5 -2.5t7.5 -2.5q4 0 10 2l6 3q8 2 18.5 12t14.5 18zM1085 463q0 -20 16.5 -16t16.5 16t-16 16t-17 -16z M1085 623q0 -23 4.5 -39.5t12.5 -8.5q16 16 16 48q0 29 -16 49q-8 8 -12.5 -9.5t-4.5 -39.5zM1231 512q4 4 9 17.5t9 28.5t8.5 28.5t4.5 19.5v33v33q-4 -6 -9.5 -19.5t-9.5 -29t-8 -28.5t-4 -20v-32v-31z" />
<glyph unicode="E" horiz-adv-x="1214" d="M27 1294h100l864 -16l94 160h33q10 0 16.5 -20.5t10.5 -50.5t6 -63.5t2 -60.5v-45v-22t-1 -34t-1 -34v-23q-37 0 -56.5 -22.5t-31.5 -54t-23.5 -63.5t-33.5 -50v190l-48 -63l-63 129h-274q0 -6 4 -19.5t9 -29t7 -28.5t-2 -19q0 -4 -9 -13.5t-20.5 -20.5t-21.5 -19.5 t-13 -10.5q-18 -20 -29 -65t-23.5 -89t-29 -76t-47.5 -26l33 -33q2 -2 29 1.5t62.5 8.5t72.5 11t59 12q23 4 37.5 27.5t21.5 56.5t9 70t2 69v64h59q4 0 9.5 -21.5t10.5 -52t8 -63.5t3 -54q0 -10 -3 -32.5t-8 -47t-10 -47t-10 -32.5l-32 30q-8 0 -20.5 -11t-12.5 -19 q0 -33 10 -68t22.5 -71.5t22.5 -74.5t10 -75v-64q-25 35 -38 89.5t-29 106.5t-47 89t-92 37q-45 0 -75 -14.5t-71 -14.5v-229l64 33q-8 -27 -8 -56q0 -17 3 -34q7 -47 29.5 -85t60.5 -62.5t85 -24.5q12 0 31.5 3t21.5 3l225 223q0 -2 1 -7t1 -9q0 -2 -1 -9l-1 -6 q-14 -29 -30.5 -51t-29.5 -43.5t-22.5 -44.5t-9.5 -53h27q6 0 30.5 21.5t55 52t60.5 63.5t46 55q6 10 13.5 34t12.5 52.5t8 56t3 48.5h37q0 -43 -7 -86t-15.5 -84t-15.5 -83t-7 -85q0 -23 3 -45.5t32 -32.5q-35 -37 -114 -44t-173 -9t-189.5 -14.5t-162.5 -59.5h32l-32 33 q-70 -5 -138 -5q-62 0 -122 4q-127 9 -250 31q0 2 -2 8.5t-2 8.5q0 37 30.5 49t66.5 20.5t66.5 22.5t30.5 51v703q8 10 18.5 32.5t14.5 32.5v15q0 78 -23.5 112.5t-58.5 55t-73 39t-68 65.5q-6 2 -6 16zM287 352l65 127v383h-33q-10 -70 -16 -122t-10 -98t-5 -92t-1 -104 v-94zM326 319q0 -33 26 -32q27 0 27 32q0 33 -27 33t-26 -33zM1038 432q1 20 17 14q16 -4 16 -14q0 -12 -16.5 -16t-16.5 16z" />
<glyph unicode="F" horiz-adv-x="1150" d="M-94 96q8 -14 24.5 -25.5t36 -19.5t38 -13t28.5 -5h702l33 30l-289 64q-12 2 -18 26.5t-10.5 56.5t-5.5 62.5t-1 46.5v93q0 66 30 114.5t118 48.5q23 0 48.5 -41.5t48 -94t39.5 -98.5t24 -54v96l47 -31l32 64v491q-70 0 -94 -15t-28 -38t1 -49.5t-4.5 -49t-45 -38 t-119.5 -15.5q-61 0 -62 62v35q0 12 4 49t10.5 78t11.5 77.5t7 51.5q20 31 48 44t60 18q26 4 54 4h11q34 -1 67 -1h28q18 0 43 -1t43 -1h29q6 -27 17.5 -85t28.5 -118.5t41 -105.5t52 -45q20 0 48 1t36 34v35q0 29 2 59.5t2 58.5v39v109q0 78 -7 146.5t-28 158.5 q-47 0 -71.5 -16.5t-42 -41t-33.5 -52t-45 -50.5h-37q-29 0 -59.5 -1t-61.5 -1h-32q-90 0 -159 17.5t-147 17.5h-14l31 -64q-6 -4 -26.5 -5t-37.5 -1h-16q-41 0 -70.5 16.5t-57.5 36t-56.5 36t-67.5 16.5q-12 0 -27.5 -1t-28 -5t-20.5 -15.5t-8 -29.5v-17l33 -94v-33l63 33 q16 -90 33.5 -167t32 -153.5t24 -157.5t9.5 -177v-54q0 -41 -1 -83t-1 -83v-53q0 -41 -37 -64.5t-85 -35.5t-96.5 -17.5t-68.5 -9.5zM-90 0q0 -33 27 -33t26 33q1 33 -26 33t-27 -33zM240 799q0 29 4 50t12 13q16 -16 16 -63t-16 -64q-8 -8 -12 13.5t-4 50.5zM336 623 q0 37 4 63t12 16t10.5 -31.5t2.5 -47.5q0 -27 -2.5 -48.5t-10.5 -31.5q-4 -4 -7 1t-5 17t-3 28.5t-1 33.5zM1008 862q0 29 3 51.5t13 12.5q14 -14 14 -64q0 -49 -14 -63q-10 -8 -13 13.5t-3 49.5z" />
<glyph unicode="G" horiz-adv-x="1437" d="M29 766q0 72 20.5 104.5t45 47t45 19.5t20.5 21v224q0 20 9 26t19 6q12 0 24.5 -3t20.5 -3q0 12 -3 30.5t-2 36t11.5 29t36.5 11.5q0 -20 5.5 -55t37.5 -46q10 4 33 9.5t47.5 10.5t47 8t32.5 3q14 0 42 1t65 1t80 1t86 1q86 0 163.5 -2t106.5 -2q16 25 47 52.5t65.5 52 t72.5 40t71 15.5q8 0 15 -11.5t18 -19.5v-16v-17l-66 -286q0 -4 -1 -21.5t-1 -27.5t1 -27.5t1 -20.5q0 -6 5 -24.5t11.5 -40t11.5 -39.5t5 -23q0 -4 -10.5 -13t-21.5 -19.5t-21.5 -19.5t-10.5 -13q-10 -16 -8 -29.5t4 -26t-2 -22.5t-26 -16q-31 12 -46.5 54t-29.5 98.5 t-31.5 120t-51.5 115.5t-91.5 87t-149.5 35q-100 0 -164.5 -49.5t-103.5 -128t-55.5 -178t-20.5 -198.5q-2 -50 -2 -97.5t2 -92.5q4 -90 8 -151l-30 -31q84 -57 177 -77.5t189 -20.5h23q16 0 33.5 1t33.5 1h23q16 6 33.5 33.5t32 60.5t23.5 64.5t9 48.5q0 45 -21.5 66.5 t-52 33.5t-64.5 20.5t-56 24.5l-1 5t-1 7q0 6 1 12l1 7q2 8 15 20t17 12h510q8 0 32 -12t32 -20l2 -7q2 -6 2 -10q0 -2 -2 -7t-2 -7q-53 -23 -90 -42t-59.5 -45t-32 -66t-9.5 -103q0 -8 14.5 -31.5t16.5 -31.5v-17v-16q0 -8 -4 -25.5t-8 -38t-9 -38t-10 -25.5l-63 63 q-6 -6 -19.5 -20.5t-29 -29.5t-28.5 -28.5t-19 -17.5l-7 -1q-8 -1 -10 -1t-9 1l-7 1q-8 8 -19.5 30.5t-11.5 32.5q-90 -33 -174 -33.5t-178 -0.5h-37q-29 0 -59.5 2t-61.5 2h-35q-47 63 -104 84.5t-135 21.5q0 47 -22.5 90t-49 83t-49.5 77t-23 74v16l33 64q0 2 -3 15t-3 17 h-31q0 16 6.5 26.5t13.5 20t13 20.5t6 30q0 8 -1 18t-1 12l-63 -30q0 4 -1 17t-1 28q0 16 -1 29.5t-1 19.5zM92 1006q0 4 2 10l2 6q2 8 12.5 18.5t18.5 14.5q0 -4 2 -9.5t2 -7.5t-2 -9l-2 -7q-2 -8 -12.5 -18.5t-18.5 -12.5q0 2 -2 7.5t-2 7.5zM166 606q0 -31 27 -31t26 31 q1 33 -26 33t-27 -33zM229 991q0 -33 27 -33t27 33q0 31 -27 31t-27 -31zM260 416q0 -33 27 -33t26 33q1 30 -26 30t-27 -30zM367 352q0 -29 4 -51t12 -14q16 20 16 65q0 48 -16 64q-8 8 -12 -13.5t-4 -50.5zM1028 193q0 -33 27 -33t26 33q1 30 -26 30t-27 -30zM1118 193h33 l-33 159v-159zM1198 846q0 -20 16.5 -15t16.5 15t-4.5 12t-12.5 4q-16 4 -16 -16z" />
<glyph unicode="H" horiz-adv-x="1597" d="M33 128q57 6 105 14t82 27t52.5 54t18.5 94q0 8 -1 23.5t-1 30.5q0 16 -1 28.5t-1 16.5q-10 94 -12.5 191.5t-5.5 194.5t-12 192.5t-34 187.5q-27 8 -68.5 20t-58.5 43l31 33h575q8 8 29 -4t31 -12l31 -17q-41 -35 -76 -45t-45 -18q-10 -2 -21.5 -12.5t-11.5 -18.5 l-51 -379q18 -2 71.5 -4t112.5 -2h113h73h19q31 0 61.5 19.5t46.5 45.5q0 8 1 25.5t1 38.5q0 20 1.5 37.5t1.5 25.5q1 12 1 24q-1 66 -21 106q-24 46 -54.5 77t-59 54.5t-34.5 64.5q45 4 106.5 8t126 8.5t126.5 7.5t112 3q23 0 52.5 -1t55 -9.5t43 -26t17.5 -49.5 q-80 0 -128.5 -22.5t-74 -61.5t-32.5 -93q-5 -42 -5 -88v-26q2 -62 9 -128.5t11 -133.5q-8 0 -19 -12.5t-11 -20.5q0 -20 21.5 -52t41.5 -44q-33 -8 -34 -32t-1 -46q0 -53 10.5 -110.5t36 -106.5t68.5 -83t111 -37l-31 -32q-23 0 -75 -10t-113.5 -21.5t-120 -21.5t-90.5 -10 h-17q-8 2 -31.5 16t-31.5 14q-14 2 -55.5 7.5t-87.5 11.5t-88 10t-58 4l289 97q20 4 27.5 41.5t7.5 78.5v49v37q0 6 -1.5 22.5t-1.5 33.5q0 18 -1 34.5t-1 22.5l-63 -33q0 8 -1 23.5t-1 23.5q0 37 4 60.5t31 52.5h-320q-35 0 -55.5 -20.5t-35.5 -47t-30.5 -53t-38.5 -39.5 v-286q6 -4 19.5 -13.5t29 -18.5t29 -18.5t19.5 -14.5l1 -7q1 -6 1 -8q0 -4 -1 -9.5t-1 -7.5q-16 0 -45 -3t-55.5 -13t-45 -28.5t-14.5 -51.5q-12 41 -49 55.5t-90 14.5q-51 0 -107.5 -4.5t-105.5 -4.5q-47 0 -82 13t-45 54zM399 446q0 -10 4.5 -22t12.5 -8q16 4 16 30 q0 29 -16 33q-8 2 -12.5 -9t-4.5 -24zM975 399q0 12 3 15.5t13 1.5q14 -6 15 -17q0 -12 -15.5 -16t-15.5 16zM1155 639q0 -33 27 -33t26 33q1 33 -26 33t-27 -33zM1165 432q0 -33 4.5 -61.5t12.5 -18.5t11 32t3 48q0 25 -3 47.5t-11 32.5t-12.5 -17.5t-4.5 -62.5z" />
<glyph unicode="I" horiz-adv-x="1054" d="M18 1315q8 0 39 -1t39 -3q10 -4 52 -15.5t91.5 -22.5t91.5 -19.5t52 -8.5l11 4q12 4 27 9.5t31.5 10.5t26.5 9q8 2 32 17.5t32 15.5q6 0 21.5 -8.5t30.5 -19.5t28.5 -21.5t15.5 -16.5h383q-49 -59 -75.5 -75.5t-49.5 -19.5t-50.5 -4t-80.5 -28q-31 -16 -53.5 -68.5 t-36.5 -123t-23.5 -153.5t-13.5 -159.5t-5 -139t-1 -95.5q0 -18 2 -42t2 -50q0 -23 1 -42.5t1 -21.5l33 -30l30 63q4 -29 19.5 -52.5t33 -45t32 -41t14.5 -37.5q0 -2 -1 -8t-1 -9l-193 -63h-14h-17q-10 8 -32.5 30.5t-30.5 32.5q-23 -4 -77 -9t-115.5 -10t-115.5 -8t-77 -3 q-6 0 -19.5 -1t-29.5 -1q-14 0 -27.5 -1t-17.5 -1v34q55 2 109.5 21.5t80.5 75.5q33 96 52.5 200.5t29.5 211t12 213t2 206.5q0 63 -22.5 96t-55 48.5t-72.5 21.5t-73 20.5t-55.5 45t-22.5 92.5zM416 352q0 -10 3 -35.5t8 -56.5t10 -58.5t9 -41.5q4 -8 14.5 -18.5 t18.5 -14.5v23q0 16 1 33.5t1 33.5v23v63q0 29 -3 56.5t-10 56t-22 63.5q-4 -8 -9 -25.5t-10 -38t-8 -38t-3 -25.5zM463 592q0 -20 16.5 -16t16.5 16q-1 10 -17 14q-16 6 -16 -14z" />
<glyph unicode="J" horiz-adv-x="1067" d="M29 260q0 -61 34.5 -109.5t88 -82t116 -52t115.5 -18.5q59 0 102 11t81 32.5t77 51.5t92 67q71 261 71 530q0 85 -7 172q20 27 30.5 59.5t15.5 68.5t8 69t9 59q10 31 42 39t66 12.5t60.5 14.5t26.5 47q0 2 -1 8l-1 6q-4 10 -14.5 20.5t-18.5 12.5q-37 18 -67.5 47 t-54 55.5t-40 45t-29.5 18.5q-25 0 -45 -12.5t-35.5 -32t-27.5 -43t-21 -45.5h-16h-14q-6 0 -14.5 5t-18.5 11t-18.5 10t-14.5 4q-4 0 -13 -9t-19.5 -20.5t-19.5 -21.5t-11 -12h-17q-23 0 -41 5t-36.5 12.5t-38 12.5t-43.5 5q-29 0 -60 -4t-56.5 -16.5t-41.5 -35t-16 -59.5 v-16q12 0 43.5 -3t67.5 -8.5t67.5 -10.5t44.5 -9q18 -6 24 -18.5t8.5 -25.5t0 -27.5t-2.5 -24.5q4 -53 9.5 -141.5t10.5 -174.5t9 -151.5t4 -75.5q0 -6 5 -25.5t11.5 -41t11.5 -40t5 -22.5v-31v-33q-4 8 -14.5 18.5t-18.5 14.5q-33 18 -86 46t-103 52.5t-88 43t-42 18.5h-97 q-10 0 -17 -34t-11 -77t-5 -85t-1 -56zM37 223q-1 33 26 33t27 -33q0 -31 -27 -30q-27 0 -26 30zM256 193q-4 10 3 28.5t17.5 39t22.5 36.5t20 22q10 4 33 1t47.5 -11t47 -21.5t32.5 -31.5v-16v-17q-2 -8 -12 -31.5t-21 -31.5h-16q-10 0 -22.5 -1t-24.5 -1h-16 q-6 0 -23.5 -1t-36 0t-34 9.5t-17.5 26.5zM326 33q-1 30 26 30t27 -30q0 -33 -27 -33t-26 33zM580 1438q0 -33 26 -33q27 0 27 33q0 32 -27 32t-26 -32zM667 405.5q-1 14.5 1 30t10 27.5t24 16v-33v-30q0 -6 -3 -20.5t-8 -30t-10 -28.5t-9 -18q0 8 -2 32t-2 32t-1 22.5z M766 1150q-4 15 16 15q19 0 17 -14q-4 -16 -17 -16q-12 0 -16 15zM1124 1214q0 -33 27 -32q27 0 27 32q0 31 -27 31t-27 -31z" />
<glyph unicode="K" horiz-adv-x="1507" d="M-80 1311q31 -41 64.5 -63.5t70.5 -38t75 -27t79 -31.5q20 -12 34.5 -58t26 -110.5t18.5 -139.5t11 -142.5t6 -121t2 -73.5q0 -98 -27.5 -189.5t-39.5 -189.5h-31q-43 0 -78 17.5t-78 17.5q0 -25 -7 -44.5t-15 -39t-15.5 -39t-7.5 -41.5q104 0 196.5 18.5t194.5 18.5 q27 0 69 2q21 1 43 1t45 -1q46 -2 90 -10.5t73 -26.5q4 8 5 23.5t1 23.5q0 57 -43 75q-26 10 -52 10q-18 0 -38 -5q-12 33 -19.5 57.5t-10.5 47t-4 47t-1 57.5q0 35 1 62.5t4 54t10.5 55.5t19.5 67q2 0 7 1.5t9 1.5q29 0 78 -30t95 -74t76 -95q24 -40 24 -74q0 -9 -2 -18 q6 10 29.5 22.5t33.5 9.5q14 -4 31.5 -21t32 -38.5t23.5 -44t9 -39.5v-16l-96 96q7 -32 7 -53q0 -7 -1 -15q-4 -24 -14 -34.5t-25.5 -13.5t-30 -7t-24.5 -15.5t-10 -37.5q0 -2 2 -10l2 -7q2 -8 12 -18t19 -12q12 0 43.5 1t68.5 1q35 0 68 -1t43 -1q2 0 11 -5t19.5 -11.5 t20.5 -11.5t14 -5q2 0 21.5 5t41 11.5t41 11.5t23.5 5q10 2 42 7t69 10t68.5 9t44.5 4q0 2 2 8.5t2 8.5t-2 9l-2 7q-76 76 -157 145.5t-163 138.5t-163 140.5t-156 151.5l32 30l-63 64l160 160h-17h-16q-4 0 -18.5 -5.5t-31 -10.5t-30.5 -10t-16 -5q-8 0 -19.5 11.5 t-11.5 19.5q68 18 106.5 36.5t70.5 41t68.5 50t104.5 64.5q27 14 71 19.5t89 11.5t82 20.5t47 44.5l-33 32h-491q0 -29 26.5 -45.5t48.5 -18.5q-39 -43 -94 -98.5t-117.5 -102.5t-129 -80t-130.5 -33q0 8 -3 13.5t-4 8.5t1 6t12 9q12 12 31 30.5t19 22.5v35v62v61v35 q0 2 9 12.5t20.5 20.5t21.5 19t14 11q2 8 5 7.5t3 9.5q-92 0 -179 12t-172 27.5t-171 29t-174 13.5h-16q-10 0 -22.5 -1t-22.5 -1h-19zM360 256q0 43 39 63v-63h-39zM629 639q-1 33 26 33q25 0 25 -33t-25 -33q-27 0 -26 33zM688 606h31v-31zM719 799v32h33zM1071 352h16 q47 0 82 -30.5t35 -75.5q-25 0 -45 11t-36.5 28.5t-30 36t-21.5 30.5z" />
<glyph unicode="L" horiz-adv-x="1374" d="M27 1257q39 0 84 -7t82 -36h382q6 23 48.5 37.5t92.5 22.5t96 11t60 3q0 -41 -17 -72.5t-46 -55t-64.5 -42t-72.5 -33.5q-14 -78 -31.5 -161.5t-33 -167.5t-26 -168t-10.5 -160q0 -63 33 -122.5t83 -105.5t113.5 -75t125.5 -29q72 0 113.5 24.5t66 64.5t38 90.5t28 99.5 t38 94t68.5 74v-350q2 8 12 18t21 12l6 1t8 1q4 0 9 -1t7 -1q-12 -23 -20 -51.5t-17.5 -55t-22.5 -49t-36 -34.5q-79 2 -152 2q-93 0 -175 -3q-148 -5 -289.5 -12.5t-284.5 -13.5t-311 -6v33q0 14 30.5 28.5t69.5 26.5t75 22.5t48 16.5q37 25 55.5 61.5t28.5 71.5t18.5 61.5 t24.5 30.5v350l-31 64q0 -16 1 -56t1 -87t-1 -87t-1 -57q0 -10 -12 -32.5t-21 -30.5q-8 70 -15 150.5t-12 163.5t-7 166q-1 28 -1 55q0 54 3 104q-23 39 -67 57t-87 33.5t-74.5 39t-31.5 72.5zM319 991h33l-33 31v-31zM516 1151q0 -33 27 -33t26 33q1 31 -26 31t-27 -31z M526 176q0 -33 4.5 -61.5t12.5 -18.5t11 32t3 48q0 27 -3 48.5t-11 31.5t-12.5 -17.5t-4.5 -62.5zM671 96.5q5 -16.5 15 -16.5t12 4t4 12q4 16 -16 17q-20 0 -15 -16.5z" />
<glyph unicode="M" horiz-adv-x="1853" d="M0 1231h287v90q10 0 50 -19.5t84 -44t81 -47t41 -28.5q0 8 7 19t17.5 20.5t20.5 16.5t18 7q72 0 107 -47t49 -109.5t19 -127t18 -99.5q12 -43 34.5 -98t49 -111.5t55.5 -111t53 -95.5q12 4 36 51.5t51.5 117t57 152.5t54 158.5t40 133t15.5 78.5v14q-18 12 -40.5 17.5 t-43 12.5t-35 21.5t-14.5 42.5h39q10 0 52 -5t91 -10t91 -10.5t53 -5.5q12 0 64 5.5t111.5 10.5t112 10t64.5 5h57q0 -45 -24.5 -60.5t-56 -24.5t-62.5 -22.5t-43 -52.5q-35 -90 -49.5 -200.5t-17.5 -222.5q-2 -56 -1.5 -111t1.5 -107q3 -106 3 -188h48v-123l18 -4 q18 -4 31 -2q6 2 19 6t28.5 8t29 9.5t19.5 9.5v-94h-21q-12 0 -27.5 -1.5t-29.5 -1.5h-18q-18 0 -55 -2t-84.5 -4t-100.5 -5t-100 -7t-85 -7t-55 -5l-63 30q10 18 41 36t64.5 31t59.5 22l25 8q43 18 55.5 23t9.5 12.5t-12.5 26t-9.5 65.5h-16v18q0 14 1 29.5t2 30t3 18.5 q0 6 5 29.5t10.5 50t10.5 50.5t5 30q0 4 -10.5 13t-21.5 18.5t-21.5 18.5t-10.5 13t5.5 13.5t11.5 19.5t11 19.5t5 13.5v10q0 10 1 22.5t1 24.5v23v14q0 12 -1 24.5t-1 22.5v18l-33 -65q4 10 6.5 36.5t-2 55.5t-15.5 50.5t-36 21.5q-4 0 -9 -2t-7 -2q-29 -51 -57.5 -130 t-58 -171.5t-62.5 -189.5t-70 -183t-78 -153.5t-90 -98.5q-8 8 -19.5 30.5t-11.5 32.5q0 16 -2 55.5t-2 86.5t2 89t2 58q-29 10 -34.5 39t2.5 55q-4 -10 -11.5 -27.5t-16.5 -32.5t-22.5 -26.5t-29.5 -11.5q-6 0 -26.5 42t-49.5 107.5t-61.5 143.5t-64.5 149.5t-58.5 127 t-42.5 73.5v-639q0 -37 15 -87t44 -95t70 -76t94 -31l-33 -30h-479q-8 0 -15.5 11t-15.5 19l-2 7q-2 8 -2 10q0 31 32 38t72 19.5t76.5 42t46.5 107.5v65q0 45 1.5 94.5t1.5 96.5v63v84q0 49 -1.5 101.5t-1.5 89.5v45q-4 86 -11 135t-21.5 73.5t-35 29.5t-50.5 5h-72t-96 13 q-10 2 -22.5 20.5t-10.5 28.5zM709 416q0 -33 26 -33q27 0 27 33q0 30 -27 30t-26 -30zM739 479q0 -33 27 -33t27 33t-27 33t-27 -33zM1155 1118q0 33 27 33t26 -33q0 -33 -26 -33q-27 0 -27 33zM1391 975q0 -23 3 -40t11 -9q16 16 16 49t-16 47q-8 8 -11 -8.5t-3 -38.5z M1470 352h31v31z" />
<glyph unicode="N" horiz-adv-x="1501" d="M27 1233q0 -2 1 -9l1 -7q14 -14 56 -34t87 -40.5t79 -43t34 -42.5v-703q0 -49 -29 -89t-69 -71.5t-84 -55t-74 -40.5v-32h479l63 65q-25 -7 -49 -7q-16 0 -32 3q-40 8 -71.5 30.5t-52 57.5t-20.5 72q0 18 4 73.5t10.5 127t13.5 149.5t14 143.5t13.5 107.5t10.5 42h32 l24 -18q24 -19 54.5 -43.5t63 -52.5t51.5 -46q31 -29 85 -90.5t115.5 -139t123 -165.5t111.5 -171q50 -82 81 -152q27 -62 27 -103v-10q2 0 12 -1t18 -1q6 0 20 1l13 1q2 0 15.5 16t17.5 16q2 0 11 -5t19.5 -11t19.5 -11t13 -5h17h14q-45 41 -71.5 99t-41 125.5t-18.5 141.5 t-4 146t3 138t3 120q0 135 15.5 263t15.5 263q31 0 58.5 -8t52 -10.5t46 10t37.5 53.5q-10 4 -37.5 9t-58.5 10.5t-58.5 9.5t-35.5 4q-4 0 -14.5 -5t-20.5 -11.5t-19.5 -11.5t-11.5 -5q-10 -4 -41.5 -9t-68.5 -9.5t-69 -8.5t-44 -4v-32v-33q2 -8 6 -25.5t8.5 -37t9.5 -38 t9 -26.5q18 10 26.5 31.5t13.5 44t13 39t27 16.5q2 0 9 -2l7 -2q6 -4 14.5 -27.5t16.5 -36.5v-16v-14l-31 -97v-16v-16q2 -6 12.5 -31t18.5 -33v-352q-63 45 -113.5 110.5t-97.5 137t-96 141.5t-109 123q47 -2 57.5 16.5t10.5 44.5q0 25 -45 57.5t-101.5 63.5t-108.5 52.5 t-67 21.5q-4 0 -14 -5t-20.5 -11.5t-19.5 -11.5t-11 -5q-23 -4 -77 -9t-114.5 -9.5t-115 -8.5t-76.5 -4q0 -4 -1 -9t-1 -7zM354 1153q0 18 7.5 24.5t19.5 6.5t18.5 -6.5t6.5 -24.5q0 -33 -25 -33q-27 0 -27 33zM397 465q0 -16 15.5 -13t15.5 13q0 12 -16 16q-14 6 -15 -16z M961 451q-1 30 26 30q25 0 25 -30q0 -33 -25 -33q-27 0 -26 33zM993 418q0 33 27 33q25 0 24 -33q0 -33 -24 -33q-27 0 -27 33zM1024 385q0 33 27 33q25 0 24 -33q0 -31 -24 -31q-27 0 -27 31z" />
<glyph unicode="O" horiz-adv-x="1374" d="M29 539v36q0 137 27.5 242t86 183.5t149.5 138t220 106.5q10 4 25.5 10.5t31 11.5t26.5 8l11 3q150 0 283 -47t233.5 -136t159.5 -216t59 -287q0 -121 -44 -210t-116.5 -158.5t-163.5 -123t-186 -100.5h-14q-18 0 -71.5 9t-124 23.5t-149.5 33t-145.5 36t-113.5 34 t-53 24.5q-18 27 -28.5 58.5t-22 61t-28.5 57.5t-48 46v35q0 31 -2 61.5t-2 59.5zM113 815q0 -20 15 -16t15 16q0 10 -16 16q-14 2 -14 -16zM229 223q0 -31 27 -30q27 0 27 30q0 33 -27 33t-27 -33zM240 496q0 -25 1 -47.5t3 -39t5 -24.5t7 -2q8 12 10 44t2 69t-2 68.5 t-10 41.5q-8 12 -12 -25.5t-4 -84.5zM260 352q0 -33 27 -33t26 33q1 31 -26 31t-27 -31zM303 432q0 -20 16.5 -16t16.5 16q-1 10 -17 14q-16 6 -16 -14zM303 559q0 -20 16.5 -16t16.5 16q-1 10 -17 16q-16 4 -16 -16zM381 721q0 -23 1 -73t6 -112.5t15.5 -129t29 -121 t45 -90t65.5 -35.5h288q8 0 25.5 24.5t39.5 63.5t43.5 85t39.5 88t30.5 75.5t12.5 46.5q0 12 -2 49t-4 78t-5 77.5t-5 51.5v-193q-6 47 -14.5 108.5t-22 126t-35 126t-56 109.5t-85 78t-121.5 30q-86 0 -142.5 -49.5t-89 -121t-46 -151.5t-13.5 -141zM958 1085l33 33h-33 v-33zM965 1055q0 -33 26 -33q27 0 27 33q0 30 -27 30t-26 -30zM1022 160l33 33h-33v-33zM1085 479q16 35 27.5 77t11.5 83h-39v-160z" />
<glyph unicode="P" horiz-adv-x="1130" d="M-29 -10q0 61 38 82.5t85 30t90 15.5t54 42q23 100 28.5 223t5.5 238v145v65q0 45 -2 94.5t-2 96.5v63q2 45 -32.5 57.5t-79.5 22t-82 29.5t-37 84h807q6 8 29.5 20.5t33.5 12.5q6 0 19.5 -12.5t13.5 -20.5q0 -10 -13.5 -32.5t-19.5 -31.5q53 -12 90 -43.5t60.5 -72.5 t34 -90.5t10.5 -96.5q0 -90 -53.5 -153.5t-131 -107.5t-166.5 -69.5t-163 -37.5q-4 -10 -9.5 -42t-9.5 -68t-8 -68.5t-4 -45.5q0 -2 -2 -23.5t-2 -29.5q0 -55 38 -89t93 -34v-47h160q0 16 4 36t11 36t20.5 27.5t35.5 11.5q0 -41 -5 -90t-33 -84q-72 -14 -160 -22.5 t-182.5 -13.5t-188.5 -6t-180 -1h-195zM365 479.5q4 -16.5 16 -16.5q10 0 16 16q4 16 -16 17q-20 0 -16 -16.5zM365 702l63 33h-63v-33zM401 831q0 -33 27 -32q25 0 25 32q0 31 -25 31q-27 0 -27 -31zM557 780q0 -37 27.5 -43t54.5 -6q43 0 71.5 17.5t44 45t21.5 63.5t6 73 v94q0 63 -34 94l-80 -127v180l-31 -5t-49 -15q-8 -10 -19.5 -32.5t-11.5 -33.5q0 -8 15.5 -31.5t15.5 -31.5t-5 -41t-10.5 -71t-10.5 -70.5t-5 -40.5v-19zM621 607.5q4 -15.5 16 -15.5t14 14q6 16 -14 17q-20 0 -16 -15.5zM747.5 191.5q-4.5 15.5 16.5 15.5q18 0 16 -14 q-2 -16 -16 -17q-12 0 -16.5 15.5zM905 782q0 -2 1 -7t1 -9l33 65q-8 -4 -18.5 -14t-14.5 -18l-1 -7q-1 -8 -1 -10z" />
<glyph unicode="Q" horiz-adv-x="1363" d="M27 524q27 -53 50 -126.5t51 -147.5t64.5 -138.5t90.5 -99.5q57 -39 91 -48t55.5 -7t34.5 5t32.5 -8t50.5 -48t86 -117q6 -10 46 -23.5t97.5 -27.5t124 -27.5t125.5 -25t104.5 -18.5t57.5 -7q41 0 79 1t70 32l-32 33q2 6 12 17t20 15q8 2 31 7.5t48.5 10.5t48 9t32.5 4 l-33 33h-446q-27 0 -55.5 18.5t-53 46t-41 58t-16.5 55.5q0 18 29.5 32.5t68.5 28t77 24.5t54 24q55 43 97.5 103t71 130t43 142.5t14.5 140.5q0 10 -1 33.5t-1 25.5q-43 117 -100.5 221.5t-134.5 183t-177 126t-227 47.5q-106 0 -191.5 -47.5t-160 -102.5t-144.5 -100 q-64 -41 -131 -41h-12v-447zM276 109q0 6 3.5 18t3.5 14q18 -10 36.5 -18t34 -20.5t25.5 -29t10 -38.5q-45 0 -79 12.5t-34 61.5zM287 971q-1 33 26 33q25 0 25 -33q0 -31 -25 -31q-27 0 -26 31zM309 461q0 63 13.5 124.5t28 125t24.5 127.5q6 41 6 82q0 26 -2 51 q6 12 25.5 36.5t45 50t50 46t39.5 26.5q2 0 32.5 2.5t49.5 2.5q84 0 156.5 -40t125.5 -105.5t84 -148.5t31 -169v-51q0 -18 -4 -63.5t-9.5 -96.5t-11.5 -96.5t-8 -63.5l-63 127q-10 -25 -18.5 -78t-22 -106.5t-34 -94t-54.5 -40.5h-287q-43 0 -79 43t-61.5 100t-41 116.5 t-15.5 92.5zM416 -51q0 -31 26 -31q23 0 23 31q0 33 -23 33q-27 0 -26 -33zM672 1227q-1 33 26 33q23 0 23 -33q0 -31 -23 -31q-27 0 -26 31zM1085 1130q0 -31 27 -30q25 0 25 30q0 33 -25 33q-27 0 -27 -33zM1118 45q0 -33 27 -33q25 0 24 33q1 33 -24 33q-27 0 -27 -33z M1321 508q0 -20 15.5 -16t15.5 16q-1 12 -15 16q-10 2 -13 -1t-3 -15z" />
<glyph unicode="R" horiz-adv-x="1677" d="M-2 1315q0 -35 23.5 -47.5t52.5 -22.5q8 -4 40.5 -9t69.5 -10t70 -8.5t45 -3.5l63 -129l2 -37q3 -36 5 -94.5t5 -131t7 -146.5t7 -142.5t5 -117.5v-54q0 -59 -13 -115.5t-13 -121.5q-35 0 -86.5 -2t-104.5 -10.5t-98 -27.5t-68 -52h27q20 0 43.5 -2t44.5 -2h29 q92 0 182 7t180 15t180 15.5t183 7.5q0 37 -31 49t-68 17t-67.5 13.5t-30.5 39.5v413h96q2 0 17.5 -21.5t36 -52t41 -63.5t32.5 -53l160 -320q2 -8 12.5 -19.5t20.5 -13.5q10 0 43 1.5t67 1.5q37 0 69 -1.5t44 -1.5q14 0 34.5 -4t39 -13t31 -24.5t12.5 -37.5h106l33 49h227 q0 16 -9 37.5t-28 25.5q-63 8 -107 13.5t-78 11.5t-59.5 16t-50 33t-53 58.5t-67.5 90.5l-64 -32l-160 159v33q6 -8 31 -18t33 -15h16h17q-10 8 -28.5 31t-39 48.5t-37 48t-22.5 32.5l-3 8q-3 7 -3 9t3 8t3 8q51 23 105 53.5t99.5 71.5t74 91t28.5 110q0 96 -42 155.5 t-110.5 95t-154.5 52t-174 27t-168 18.5t-138 28q4 -29 -2 -42t-18 -17t-29 -4h-26q-135 0 -268.5 18.5t-276.5 18.5zM463 319q-1 33 26 33q25 0 25 -33t-25 -32q-27 0 -26 32zM463 383q-1 33 26 33q25 0 25 -33q0 -31 -25 -31q-27 0 -26 31zM506 496q0 20 16 16 q16 -8 17 -16q0 -12 -16.5 -16.5t-16.5 16.5zM586 1181.5q-4 16.5 16 16.5t16 -16q-10 -16 -16 -17q-12 0 -16 16.5zM649 799q6 39 22.5 64.5t33 45t30 41t13.5 56.5q0 29 -7.5 51t-14.5 43.5t-14 45t-7 52.5q2 0 38.5 -2t95 -8t113 -15.5t93 -24.5t38.5 -36v-254h70 q0 -45 -45 -74.5t-105.5 -48t-120 -27t-89.5 -8.5q-16 0 -43 3.5t-51.5 13.5t-40 29.5t-9.5 52.5zM1001.5 639q-4.5 16 16.5 16q20 0 14 -16t-14 -16q-12 0 -16.5 16zM1257 383l31 -31v31h-31zM1294 256q0 31 27 31q23 0 22 -31q0 -33 -22 -33q-27 0 -27 33zM1325 223 q0 33 27 33q25 0 24 -33q0 -31 -24 -30q-27 0 -27 30z" />
<glyph unicode="S" horiz-adv-x="991" d="M27 618q55 0 87.5 -33.5t55.5 -84.5t41 -110.5t43 -111t62.5 -85t99.5 -33.5q2 0 15 14t15 19h15h18q6 0 29.5 -5.5t50.5 -11.5t50.5 -11t29.5 -5q10 4 24.5 15t30 26.5t26.5 30t15 24.5q9 27 9 50q0 37 -22 69q-36 51 -103.5 94t-152.5 86t-161 96.5t-127 123t-51 167.5 q0 68 23.5 128t65.5 106.5t100.5 74t127.5 27.5q43 0 84 -10.5t81 -21.5t80 -21.5t77 -10.5q12 0 30.5 35t37 78t38 78t35.5 35q27 0 38 -14.5t14.5 -35t2.5 -42t-1 -35.5q0 -57 -9.5 -112.5t-20.5 -111t-21.5 -111.5t-14.5 -116q-4 0 -9 -1t-7 -1q-16 0 -36 26.5 t-43.5 65.5t-53 86t-68.5 86t-88 66t-113 27q-31 0 -48 -8.5t-31.5 -25t-31 -41t-47.5 -57.5l-1 -6t-1 -8q0 -4 1 -10l1 -6q35 -59 69 -99.5t75 -72t91 -59t118 -58.5q25 12 51.5 -12.5t54.5 -57.5q26 -32 56 -54q16 -12 33 -11q14 0 28 8q45 -74 57.5 -133.5t12.5 -134.5 q0 -8 -1 -21.5l-2 -27t-2.5 -23.5t-1.5 -12l-192 -224q-8 8 -30.5 20.5t-33.5 12.5q-4 0 -17 -5t-29.5 -11t-31 -11.5t-18.5 -5.5q-2 0 -27.5 -1t-37.5 -1t-36 1t-26 1q-23 4 -55.5 14.5t-63 21t-52.5 19.5l-21 9v33h-94l-66 -160q-8 2 -18.5 12.5t-12.5 20.5v12v18 q0 12 4 49.5t9.5 78t10.5 77.5t7 51q-35 12 -54.5 48t-29.5 81.5t-13 91.5t-3 78zM166 895q0 -33 27 -33t26 33q1 31 -26 31t-27 -31zM805 96q-1 31 26 31t27 -31q0 -33 -27 -33t-26 33z" />
<glyph unicode="T" horiz-adv-x="1263" d="M-18 1184q0 -25 15 -47.5t33.5 -44t34 -39t15.5 -31.5q0 -4 -10.5 -23.5t-21.5 -41t-21.5 -40t-10.5 -22.5q-4 -10 -7 -33.5t-5 -50.5t-3 -50.5t-1 -31.5q49 0 74.5 29.5t45 68.5t45 77t75.5 54q-41 -2 -54.5 16.5t-13.5 47.5q0 33 13.5 44t54.5 18q14 0 46.5 -1.5 t68.5 -3.5t68 -4t46 -2q0 -90 11.5 -185t24.5 -191.5t21 -191.5q5 -52 5 -103q0 -42 -3 -83q-8 -86 -61 -125.5t-131 -39.5v-72q-10 0 -32.5 2t-47.5 5t-47.5 5t-32.5 2q-8 0 -19.5 -12.5t-11.5 -20.5q31 16 47.5 8t28.5 -23t25.5 -31.5t38.5 -16.5q72 0 137 16.5t135 16.5 h68l286 -33h19h14q6 2 28.5 11t48.5 22.5t49.5 30t33.5 32.5q-2 18 -17.5 25.5t-35 9.5t-37 1t-23.5 -1t-23.5 1t-37 -1t-34.5 -9t-17 -26q-55 86 -75 172t-20 185q0 82 2 157.5t5.5 151.5t9.5 154.5t14 167.5q31 12 56.5 20t50 11t49 4t55.5 1q14 0 33.5 1t36 -3t29 -14 t12.5 -33q0 -16 -6.5 -25.5t-12.5 -18.5t-12 -20.5t-6 -31.5q0 -57 25.5 -104.5t41.5 -104.5q23 45 41.5 101.5t30.5 114.5t19.5 114.5t7.5 103.5q0 4 -1 9l-1 5q-6 4 -19.5 9.5t-29 10.5t-28.5 8t-20 3h-542q-27 -20 -40.5 -25.5t-25.5 -5.5q-10 0 -22.5 2.5t-40.5 2.5v102 q-12 0 -48 -17.5t-80 -38t-91.5 -38t-83.5 -17.5q-41 0 -79 16.5t-65 51.5q-45 -20 -56 -38.5t-11 -55.5zM592 702q0 14 13 22.5t30.5 12.5t33 6t19.5 2v-362l-63 33q0 12 1 44t1 66q0 39 -1 70t-1 43q0 8 -16.5 31.5t-16.5 31.5zM655.5 830.5q-4.5 15.5 16.5 15.5 q18 -1 16 -15q-6 -16 -16 -16q-12 0 -16.5 15.5zM735 176q1 21 17 17q16 -6 16 -17q0 -10 -16.5 -16t-16.5 16zM758 96q-1 31 26 31t27 -31q0 -33 -27 -33t-26 33zM1055 1071q0 -23 16 -16.5t16 16.5t-16 13q-16 7 -16 -13zM1171 639q0 -33 27 -33t27 33t-27 33t-27 -33z " />
<glyph unicode="U" horiz-adv-x="1439" d="M43 1227q0 -2 1 -9l1 -8q12 -29 45 -38t64 -9q18 0 21 3t1 6.5t-5 6.5t7 3l47 -64v-831q10 -8 26.5 -32t22.5 -32q4 -4 13.5 -17t19.5 -29.5t18.5 -31t12.5 -18.5q4 0 13 5t19.5 11.5t18.5 11.5t12 5q16 0 23.5 -13.5t9.5 -30t1 -32t-1 -21.5q18 -6 57 -16t84.5 -21.5 t85 -18.5t60.5 -7q43 0 102.5 20.5t118.5 53t112.5 72.5t82.5 77q4 18 9 63.5t10 96.5t9 96t4 64v18q0 37 -17 62.5t-17 60.5q0 121 3 196.5t26.5 131t76.5 99.5t152 103q8 2 18 12.5t12 18.5q-14 4 -51 10.5t-78 11.5t-76.5 8t-48.5 3h-49h-47l31 -33h-12q-8 0 -18.5 -1 t-20.5 -1h-13q-12 0 -36.5 1t-26.5 1q-4 0 -12.5 5t-18.5 11.5t-19 11.5t-14 5q-27 0 -30.5 -25.5t-3.5 -42.5q0 -8 1 -18l1 -10q49 -45 63 -45q18 -4 30.5 -2t25 -7.5t28.5 -39t45 -97.5v-51q0 -37 1 -78t1 -80v-47q0 -57 2 -127q1 -20 1 -39q0 -50 -4 -101 q-5 -71 -20.5 -138.5t-49 -118.5t-90 -83t-144.5 -32q-74 0 -117 55.5t-66.5 142.5t-30.5 192.5t-7 203.5q0 104 5 188.5t5 125.5v30q0 20 1 39t1 31v14l96 96l-32 31q-25 0 -88.5 -1t-135.5 -1q-70 0 -133 1t-90 1q-6 0 -3 15.5t-3 15.5q-10 0 -27.5 -4t-36 -9.5t-36 -11.5 t-27.5 -8q0 -2 -1 -7t-1 -9zM258 496q0 20 16 16q16 -6 17 -16q0 -12 -16.5 -16.5t-16.5 16.5zM346 193q0 30 25 30q27 0 26 -30q0 -33 -26 -33q-25 0 -25 33zM367 512q0 29 6 48.5t28 45.5v-190q-23 27 -28.5 47t-5.5 49zM379 96q0 -33 22 -33q27 0 27 33q0 31 -27 31 q-23 0 -22 -31zM379 287q-1 32 22 32q27 0 27 -32q0 -31 -27 -31q-23 0 -22 31zM379 672q-1 30 22 30q27 0 27 -30q0 -33 -27 -33q-23 0 -22 33zM410 256q-1 31 24 31q27 0 27 -31q0 -33 -27 -33q-25 0 -24 33zM506 1311q0 -33 24 -33q27 0 27 33q0 30 -27 30q-25 0 -24 -30 zM1178 1182q-1 32 22 32q27 0 27 -32q0 -31 -27 -31q-23 0 -22 31zM1343 1135q0 -23 16.5 -17t16.5 17q0 10 -16 16q-16 4 -17 -16z" />
<glyph unicode="V" horiz-adv-x="1212" d="M-238 1341q29 -37 67 -57t77 -37.5t76.5 -38t66.5 -57.5q68 -86 115 -189.5t84 -213t68.5 -219t68.5 -210.5v97q18 0 44 -42t47.5 -97.5t36.5 -108t15 -72.5q0 -8 -14 -31.5t-18 -31.5v-17v-16q22 -10 45 -10q13 0 25 3q36 9 58.5 34.5t25.5 61.5v7q0 32 -25 64 q88 264 199.5 506.5t246.5 484.5q6 4 34 20.5t56.5 39t52 49t23.5 51.5h-422l-31 -33q8 -29 35 -36t54.5 -14t50 -25.5t22.5 -67.5q0 -10 -1 -27.5t-1 -22.5l-256 -542h-33l-94 159q-31 55 -37 128t-15 142.5t-37 127t-103 82.5l127 63q6 10 19 20.5t13 12.5q0 8 -13 31.5 t-19 31.5l-4 1q-5 1 -11 1q-4 0 -10 -1l-6 -1q-8 -2 -18.5 -12t-14.5 -18h-29q-20 0 -43.5 -2t-42.5 -2h-28q-117 0 -226.5 17t-220.5 17h-80zM309 1214q0 31 27 31q25 0 24 -31q0 -33 -24 -32q-27 0 -27 32zM352 655q1 21 17 17q6 -4 11 -6t5 -11q0 -12 -16.5 -16t-16.5 16 zM565 446q0 33 27 33q25 0 24 -33q0 -31 -24 -30q-27 0 -27 30zM565 543q0 32 27 32q25 0 24 -32q0 -31 -24 -31q-27 0 -27 31z" />
<glyph unicode="W" horiz-adv-x="1638" d="M-303 1323q0 6 4 17.5t4 15.5l256 -33l-33 -33q2 -18 20.5 -25.5t41 -9.5t42 0t25.5 2h23q16 0 31.5 1.5t27.5 1.5h13q2 0 11 5t19.5 10t20.5 10t14 5q12 0 29.5 -5t36 -13t35 -19.5t26.5 -25.5l-33 -31l66 -33l-66 -63q14 -6 35 -62.5t39 -127t33.5 -136t21.5 -90.5 q23 10 38.5 -3t25.5 -30l63 -127q33 23 61.5 70t50 102.5t35 108.5t13.5 86q0 49 -16.5 101t-46 99.5t-70.5 83t-90 52.5q0 6 11 30.5t22 32.5h12q49 0 117.5 -4t142.5 -12t144.5 -20.5t125.5 -26.5q6 -2 17.5 -13.5t13.5 -17.5q-39 14 -59.5 7t-29.5 -24.5t-11 -39 t-2 -35.5q0 -74 32.5 -152t69.5 -156q36 -77 60 -154q13 -44 14 -86q0 -32 -8 -64l30 32q12 92 29.5 156.5t40 119t53.5 109t70 127.5l1 6q1 7 1 9q0 4 -1 10l-1 6q-4 2 -23.5 20.5t-43 41t-42 42t-20.5 25.5l-1 6q-1 6 -1 8q0 4 1 10l1 7q6 6 15 19.5t18 13.5h415 q-6 -10 -23.5 -30t-38 -39.5t-40 -36.5t-27.5 -24q-8 -2 -23.5 6.5t-17.5 8.5q0 -27 -8 -78t-21.5 -113.5t-32 -129t-39 -123t-41 -96.5t-40.5 -48v94q-35 -59 -55.5 -130.5t-35.5 -147.5t-30.5 -152t-39 -145.5t-61.5 -127t-97 -95.5q1 15 1 32q0 37 -6 85 q-8 70 -25.5 149.5t-44 163.5t-59 156.5t-71.5 128.5t-82 83q-25 -25 -51.5 -91t-54 -153.5t-56.5 -180.5t-58.5 -172t-59 -129t-58.5 -50q0 51 -16.5 138t-46 193.5t-70.5 224.5t-89 231.5t-102.5 216t-110 177t-111.5 113.5q-43 30 -83 30q-12 0 -24 -3q23 31 14.5 46 t-28 24.5t-39 20.5t-19.5 36zM248 764q0 -37 14 -82t49 -61v16q0 35 -13 80t-50 63v-16zM317 748q0 -31 27 -31q25 0 25 31q0 32 -25 32q-27 0 -27 -32zM344 397h37q0 41 -37 64v-64zM373 621q0 -37 13 -80t32.5 -86t43 -83t42.5 -71q2 8 7 25.5t9 37t9.5 38t7.5 26.5v18v15 l-160 190q0 -2 -2 -13t-2 -17zM406 301q0 -12 1 -29.5t6 -33t15 -25.5t29 -10q2 0 7 1t7 1l-63 127q0 -2 -1 -13.5t-1 -17.5zM743 571q1 23 17 17q16 -4 16 -17q0 -10 -16.5 -15t-16.5 15zM1300 717q0 -10 1.5 -20.5t1.5 -12.5q23 27 28.5 46.5t5.5 49.5q0 6 -1 17.5 t-1 13.5q-23 -25 -29 -45.5t-6 -48.5z" />
<glyph unicode="X" horiz-adv-x="1507" d="M-96 63h592v-63q6 4 19 17.5t28.5 28.5t29 29.5t19.5 20.5q2 8 6 15.5t4 15.5h-170q10 16 32.5 53t47.5 78t47.5 77t32.5 48q31 47 55.5 72.5t71.5 25.5q18 0 40.5 -18.5t42 -44t32 -53t12.5 -46.5q0 -8 -11.5 -20t-19.5 -12q33 -27 58.5 -57.5t37.5 -69.5 q-29 -6 -60.5 -14.5t-58 -22.5t-44 -37t-17.5 -57q59 0 112.5 18.5t117.5 18.5q6 0 23 1t35.5 0t34 -8.5t17.5 -25.5q4 31 21.5 51t42 32.5t53.5 17.5t55 5h70q0 68 -26.5 108t-64.5 69.5t-80 58t-71 71.5q-6 6 -20.5 35t-29.5 61.5t-28.5 61.5t-17.5 35l-96 96l-1 7 q-1 6 -1 10q0 2 1 8l1 6l63 65q51 78 108.5 129.5t121 91.5t134 76.5t148.5 85.5q0 2 1 7.5t1 9.5q0 2 -1 8l-1 6q-8 10 -31.5 21.5t-31.5 11.5h-35q-27 0 -53.5 1t-53.5 1h-35h-45q-29 0 -58.5 -1t-51.5 -1h-21q-18 0 -45.5 -4t-53.5 -10.5t-43 -11.5t-17 -7v-47h108 q2 -2 8 -14.5t11.5 -33t-0.5 -32.5q-6 -23 -31 -53q-12 -27 -31.5 -56.5t-42 -57t-45 -51t-41.5 -38.5q-12 10 -39.5 53t-55.5 92.5t-48.5 92.5t-20.5 53q0 27 15.5 36t37 14t44 12.5t34.5 29.5q-74 -4 -148 -4q-92 0 -186 6q-168 10 -335 31q47 27 97 32t107 5 q0 12 -11 23.5t-25.5 18.5t-26.5 12t-14 5q-12 0 -50 -7t-77 -20.5t-70 -35t-31 -49.5q0 -39 45 -56.5t100.5 -30t100.5 -31t45 -59.5q0 -10 -11 -32.5t-20 -30.5q8 8 32 18.5t32 14.5h16h15q29 -49 58.5 -101.5t53 -107.5t37.5 -110.5t14 -110.5q0 -47 -24.5 -101.5 t-56 -106.5t-64.5 -95t-49 -66q-25 -35 -66 -57.5t-89 -39t-97 -27.5t-89 -21.5t-65.5 -21.5t-25.5 -26zM309 991q0 -33 27 -33t26 33q1 31 -26 31t-27 -31zM492 399q0 2 2 9l2 8q2 8 12 18t18 12q0 -2 2 -7t2 -7q0 -4 -2 -10l-2 -6q-2 -8 -12 -19.5t-18 -13.5q0 2 -2 8 t-2 8zM532 1182q0 32 27 32t27 -32q0 -31 -27 -31t-27 31zM565 1151q0 31 27 31t26 -31q0 -33 -26 -33q-27 0 -27 33zM592 672v30h31v-30h-31zM596 606q0 33 27 33t26 -33q0 -31 -26 -31q-27 0 -27 31zM651 352q0 -10 2 -20t2 -13q2 -14 11.5 -35.5t20.5 -42t21 -34.5 l11 -14h37q0 4 -1 12t-3 18q-6 10 -19.5 33t-29 47.5t-28.5 47t-20 32.5q0 -2 -2 -12.5t-2 -18.5zM659 543q0 32 27 32t27 -32q0 -31 -27 -31t-27 31zM756 319q0 -33 26 -32q27 0 27 32q0 33 -27 33t-26 -33zM1075 223q0 33 27 33t26 -33q0 -31 -26 -30q-27 0 -27 30z M1139 96q0 -33 26 -33q27 0 27 33q0 31 -27 31t-26 -31zM1358 51q8 0 25.5 2t38 4t38 4t26.5 2q10 0 21 12.5t11 20.5q-6 4 -19.5 9.5t-29 10.5t-29 8t-19.5 3h-30h-33v-76zM1453.5 1309.5q6.5 -15.5 16.5 -15.5q13 1 16 17q6 14 -16 14q-23 0 -16.5 -15.5z" />
<glyph unicode="Y" horiz-adv-x="1449" d="M-27 1311h160q-6 8 -17.5 31.5t-15.5 31.5v17v14q51 -29 87 -52.5t73 -40t82 -25.5t117 -9h26q4 0 13.5 5t19.5 11t18.5 11.5t12.5 5.5t16.5 -16.5t14.5 -16.5q8 0 28.5 -3t42 -5t41 -4t27.5 -2q0 -18 -12.5 -29.5t-26.5 -23t-26.5 -24.5t-12.5 -34q0 -43 12.5 -90 t30.5 -93t42 -90t46 -81l64 32q0 -4 3 -9t3 -7q0 -4 -3 -10l-3 -6q-2 -8 -12.5 -18.5t-18.5 -14.5q4 0 8 -1t6 -1q25 0 42.5 14.5t29.5 35t21.5 43t19.5 38.5l127 190q-20 8 -25.5 17.5t-4.5 21t5 22.5t4 25q-31 0 -48 -4t-31.5 -9t-31 -9t-42.5 -4q0 90 80 133h26t38 1 t36 1h27h34t40 -1t34 -1h19q29 -4 72.5 -9t84.5 -9.5t70 -8.5t29 -6v-31l-160 -96v19q-23 0 -44.5 -19.5t-42 -47.5t-39 -58.5t-34.5 -53.5q-25 -35 -62.5 -93t-73.5 -115.5t-61.5 -99.5t-25.5 -44q0 -4 -2 -29.5t-3 -58.5t-3 -66.5t-2 -52.5q0 -12 2 -41.5t3 -62.5t3 -61.5 t2 -40.5q39 -8 82 -22.5t79.5 -38t62.5 -56.5t32 -76q-4 0 -14.5 -1t-18.5 -1q-18 0 -35.5 4t-27.5 31h-416l-31 -66v33q0 2 -21.5 7t-52 11.5t-63.5 10.5t-55 4q-12 0 -48 2t-75 3t-73 3t-46 2q0 45 25.5 64.5t64.5 27.5t84 13.5t82 20.5t61 50q21 32 21 90v10l31 -32 q4 6 10 19t10 28.5t8 29t4 19.5v16q0 33 -17 83t-42 104.5t-52.5 102.5t-47.5 77q-18 29 -52 83t-70 111.5t-64.5 102.5t-37.5 55q-29 41 -68.5 55.5t-77.5 25.5t-68.5 33.5t-41.5 78.5zM428 1405q0 33 25 33q27 0 26 -33q0 -31 -26 -31q-25 0 -25 31zM469 1358q0 20 16 16 q14 -6 15 -16q0 -10 -15.5 -16.5t-15.5 16.5zM492 446q-1 33 24 33q27 0 27 -33q0 -31 -27 -30q-25 0 -24 30zM524 416q0 30 25 30q27 0 26 -30q0 -33 -26 -33q-25 0 -25 33zM692 686q0 -20 16.5 -15t16.5 15t-4 12t-12 4q-16 4 -17 -16zM864 686q0 -2 2 -7t2 -7 q4 4 13.5 12t19.5 17.5t18.5 18.5t12.5 15l3 7q3 6 3 10q0 2 -3 7t-3 7q-8 -8 -31.5 -30.5t-32.5 -33.5l-2 -6t-2 -10zM877 0q-1 33 22 33q27 0 27 -33t-27 -33q-23 0 -22 33zM995 926q4 0 9.5 -1t7.5 -1q4 0 10 1l6 1q8 4 16.5 28.5t14.5 36.5v15v16z" />
<glyph unicode="Z" horiz-adv-x="1404" d="M33 96v31q0 12 20.5 32.5t50 38t62.5 26.5t57 -1q70 119 131.5 213t122 178t123 166t135.5 178q23 31 29 52.5t4 43t-8 50.5t-6 76q-2 0 -9.5 1t-9.5 1l-192 -64q-2 0 -15.5 -1t-15.5 -1v21q-76 0 -111.5 -21.5t-51 -54.5t-18.5 -72t-13.5 -71.5t-39 -54t-92.5 -21.5 q0 33 11.5 64.5t25 62t24.5 58.5t11 56q0 47 -22.5 81t-48 62.5t-48 57.5t-22.5 68q88 0 166.5 -16.5t157.5 -37t162 -37t179 -16.5q145 0 282.5 17.5t283.5 17.5q0 -37 -30 -61.5t-69 -46t-76.5 -42t-54.5 -45.5l-287 -479v66q18 31 46 82t57 108.5t52.5 115.5t35.5 107v17 v16q-8 -2 -18.5 -12t-12.5 -21q-16 -29 -50 -91t-68.5 -128.5t-65.5 -123t-41 -70.5q-6 -16 -28.5 -73.5t-49 -122t-51.5 -121t-31 -68.5l-31 -64l-2 -11t-2 -19q0 -10 2 -20.5t2 -12.5l351 -33q23 -4 47 26.5t49 76.5t50.5 101.5t52 102.5t53 79t53.5 32q35 0 42 -26.5 t7 -53.5q0 -14 -1 -53t-4 -91.5t-9 -109.5t-19.5 -104.5t-33 -78t-48.5 -30.5q-2 0 -8 1l-6 1q-6 4 -20.5 12t-30 18.5t-28.5 19.5t-17 13q-33 0 -95.5 -1t-148.5 -1h-172h-174q-84 0 -146.5 1t-95.5 1q-23 0 -54.5 4.5t-62 10.5t-52 11t-21.5 7zM166 160q0 -33 27 -33 t26 33q1 33 -26 33t-27 -33zM240 975q0 -20 16 -16t16 16q0 10 -16 16q-16 4 -16 -16zM416 1341.5q-4 16.5 16 16.5q20 -1 14 -17q-4 -16 -14 -16q-12 0 -16 16.5zM446 479q70 49 114 130t79 157q-35 -25 -63.5 -58.5t-52 -71.5t-43 -79t-34.5 -78zM637 623q0 -2 1 -7.5 t1 -9.5q8 4 18.5 14.5t14.5 18.5l1 6q1 6 1 10q0 2 -1 7.5t-1 9.5q-10 -4 -20.5 -14.5t-12.5 -18.5l-1 -7q-1 -7 -1 -9zM772 831q0 -33 27 -32q27 0 26 32q1 31 -26 31t-27 -31zM827 975q0 -4 2 -9t2 -8q25 16 39.5 43t24.5 54q-10 -8 -32.5 -31t-31.5 -33l-2 -7 q-2 -7 -2 -9zM1147 303q0 -8 2 -23.5t2 -23.5q14 4 21.5 15.5t10.5 26.5t2 29.5t-1 24.5q0 8 -1 32t-1 32q-27 -29 -31 -52.5t-4 -60.5zM1348 1214q-1 31 26 31t27 -31q0 -33 -27 -32q-27 0 -26 32z" />
<glyph unicode="[" horiz-adv-x="653" d="M33 1104h596l-27 -107h-211q0 -10 10.5 -36.5t4.5 -36.5q0 -2 -7.5 -9.5t-16.5 -15.5t-16.5 -15t-9.5 -10q-10 -10 -16 -37.5t-11 -63.5t-10.5 -73.5t-12.5 -69.5t-18.5 -50.5t-25.5 -14.5l25 -389l49 25q-10 -35 -5 -70t23.5 -64.5t47 -48t65.5 -18.5q10 0 24.5 2 t16.5 2q20 6 36.5 16.5t29 14.5t22.5 -1t16 -30h19q-18 0 -27.5 -19.5t-34 -42t-77 -42t-156.5 -19.5h24l-24 25q-51 -2 -86 -3t-65.5 1t-63.5 7t-80 15q0 2 -1 6.5t-1 6.5q0 27 8 38t17.5 18t17.5 18.5t8 39.5l-4 772q6 6 14.5 25.5t10.5 23.5v13q0 59 -3.5 85.5t-11.5 41 t-22.5 29t-36.5 49.5q-4 4 -4 12zM139 152l49 217v295h-24q-14 -109 -19.5 -229t-5.5 -210v-73zM170 127q0 -25 18 -25q20 0 21 25q-1 25 -21 25q-18 0 -18 -25z" />
<glyph unicode="\" horiz-adv-x="1097" d="M-25 958l25 25h426q4 6 18.5 -4t22.5 -10l29 -15q-23 -33 -45.5 -38t-32.5 -7q-6 -2 -15.5 -10t-9.5 -14l373 -457q25 -33 61.5 -87t81.5 -107.5t95.5 -93.5t101.5 -42l-25 -24q-16 0 -57 -8.5t-87 -17.5t-91 -16t-72 -7h-12q-6 2 -24.5 13t-24.5 11q-23 6 -35 11.5 t-37 5.5l72 81q6 2 8 12.5t-12.5 38t-49 77t-102.5 130t-174.5 198.5t-259.5 280q-10 2 -31.5 9t-45 18.5t-43 23.5t-28.5 24zM799 332q0 -25 3 -47.5t9 -14t8 25t2 36.5h-22z" />
<glyph unicode="]" horiz-adv-x="653" d="M33 4q18 0 27.5 -19.5t34 -42t76.5 -42t157 -19.5h-25l25 25q51 -2 84.5 -3t64.5 1t64.5 7t81.5 15q0 2 1 6.5t1 6.5q0 27 -8.5 38t-17.5 18t-17.5 18.5t-8.5 39.5l5 772q-6 6 -14.5 25.5t-10.5 23.5v13q0 59 3 85.5t11 41t22.5 29t37.5 49.5q4 4 4 12h-596l26 -107h211 q0 -10 -10 -36.5t-4 -36.5q0 -2 7 -9.5t16.5 -15.5t16.5 -15t9 -10q8 -10 15.5 -37.5t12.5 -63.5t10 -73.5t12.5 -69.5t17.5 -50.5t26 -14.5l-24 -389l-49 25q10 -35 5 -70t-23.5 -64.5t-47.5 -48t-65 -18.5q-10 0 -24.5 2t-16.5 2q-20 6 -37 16.5t-29 14.5t-22.5 -1 t-16.5 -30h-18zM455 127q0 25 20 25q18 0 19 -25q0 -25 -19 -25q-20 0 -20 25zM475 369v295h25q14 -109 19 -229t5 -210v-73z" />
<glyph unicode="^" horiz-adv-x="1052" d="M2 20h326l24 25q-8 20 -28.5 26.5t-42 11.5t-39 19.5t-17.5 53.5q0 6 2 19t2 18l197 417h25l73 -123q25 -45 28 -100t10 -108.5t28.5 -97.5t81.5 -62l-99 -49q-6 -6 -15 -14.5t-9 -10.5q0 -6 9 -25.5t15 -23.5l3 -2q4 -2 10 -2q2 0 7 2l5 2q4 2 12 10t13 14h20 q16 0 33.5 1.5t34.5 1.5h22q86 0 171 -13.5t173 -13.5h62q-23 31 -51.5 46t-59.5 27.5t-60.5 28t-49.5 45.5q-53 66 -90 146t-66 164t-52.5 168t-50.5 161v-73q-16 0 -34.5 32.5t-36 74.5t-28.5 82t-11 56q0 4 10 23.5t14 26.5v12v12q-27 12 -54 4t-43.5 -27.5t-19.5 -46 t19 -53.5q-70 -201 -154.5 -388t-189.5 -374q-4 -4 -25.5 -16t-44 -29.5t-41 -38t-18.5 -39.5zM479 610q0 25 21 25q18 0 18 -25q0 -24 -18 -24q-20 0 -21 24zM479 684q0 25 21 25q18 0 18 -25t-18 -25q-20 0 -21 25zM659 524q0 10 12.5 12.5t12.5 -12.5q0 -20 -12 -12 q-12 2 -13 12zM676 94q0 25 20 25q18 0 19 -25q-1 -24 -19 -24q-20 0 -20 24z" />
<glyph unicode="_" d="M33 102v68q0 16 3 15t1 3q25 -20 86 -14t137 6l131 2h23q12 0 16 -2l199 -24q8 4 22.5 6t12.5 8q2 8 13 13t52 28q0 -4 8 -8t8 -10v-5l5 -204l-15 -29h-26q-23 0 -36.5 1t-19.5 15q-111 18 -188.5 27.5t-131.5 12.5t-86 2t-48 -1q-29 0 -29 -8l18 -27l-114 -30 q-4 10 -4 12v4l-1 1t-6 7q0 4 -12 -1t-14 -3l-2 8q0 20 -1 55.5t-1 71.5zM281 125h2q10 0 57 27l-6 16q-39 -27 -51 -41h-2v-2z" />
<glyph unicode="`" horiz-adv-x="415" d="M35 907q0 57 34.5 70.5t100.5 13.5q2 0 9 -3t14 -5q51 -16 72.5 -42t21.5 -77v-6l82 -106v-7q-4 -23 -16.5 -33t-30 -15t-38 -8t-38.5 -9h-2q-18 8 -53 35.5t-70 63.5t-60.5 71t-25.5 57zM76 872v27l6 14q0 -10 -5 -22t-1 -19zM88 975q0 -6 2 -6q10 0 10 6q0 8 -10 8 q-2 0 -2 -8zM90 985l10 -2v2h-10zM197 715l10 -4v4h-10zM225 860l3 -1q3 -1 3 1q0 10 -6 4v-4zM238 850q0 -4 18 -20.5t42 -34t43 -31.5l19 -14l-18 13t-39.5 31.5t-40 35t-18.5 20.5v14q0 8 -2 6q-4 -2 -4 -20zM266 907q0 -2 2 -2v2q0 2 -2 2v-2zM346 758q0 -4 2 -4 q4 0 4 4q0 2 -6 2v-2zM348 741q0 -4 6 -4t6 4q0 9 -6 9t-6 -9zM359 718q5 1 1 9q-6 -10 -1 -9z" />
<glyph unicode="a" horiz-adv-x="1130" d="M-160 37q18 29 44 45t54.5 23.5t58.5 8.5t56 1q29 0 53.5 8t43 28.5t28.5 57.5t10 94q-2 0 -2 2t-2 2l-49 -24l-5 -1t-11 -1q-10 0 -17.5 9t-13.5 21.5t-12 24.5t-15 20q10 0 35 2t52.5 6.5t51 8.5t33.5 8q18 4 37 37t34 72.5t28.5 78.5t23.5 58q2 2 9.5 12t16.5 22.5 t16.5 23.5t7.5 15q0 6 -12.5 24.5t-12.5 25.5q6 41 22.5 67.5t33 52t29.5 56t13 82.5v12q-4 6 -12 24.5t-12 24.5q2 0 10 2t14 2q4 0 12.5 -2t12.5 -2q39 -29 56.5 -57.5t24.5 -57t11 -54.5t16.5 -46t38 -34.5t74.5 -20.5q0 -2 1 -10.5t1 -14.5q0 -16 -5 -26.5t-10 -19.5 t-10.5 -21.5t-5.5 -30.5q0 -47 19.5 -79t44 -55.5t44 -40t19.5 -34.5v-12l-24 -49v-13q0 -25 27.5 -45t58 -38.5t52 -37t9.5 -39.5l123 -147v-25l98 -73q-8 -6 -35.5 -14.5t-37.5 -10.5h-25q-43 0 -81 13.5t-83 13.5q-23 0 -36 -4t-23 -10.5t-21.5 -10.5t-29.5 -4 q-16 0 -22.5 8t-11.5 18.5t-11.5 18.5t-22.5 8q-18 0 -33.5 -8t-32 -17t-34 -17.5t-37.5 -8.5h-12q-8 6 -18.5 14.5t-6.5 10.5l98 196q14 25 -4 43.5t-48 30.5t-59.5 18.5t-35.5 6.5q-10 0 -39 2t-60.5 6t-60.5 8t-37 8q-4 -8 -11 -25.5t-15.5 -36t-14.5 -35.5t-8 -26v-12 q0 -27 19.5 -36t43 -15t43 -14.5t19.5 -32.5q0 -29 -16.5 -33t-38.5 -4h-21l-221 -25h-16h-9q-8 2 -19 10.5t-23.5 17.5t-23.5 16t-20 7q-16 0 -23 -4t-14.5 -10t-17.5 -10t-31 -4q-6 0 -25.5 1t-23.5 1zM36 282.5q-5 12.5 9 12.5q18 0 16 -12q-6 -12 -12 -13q-8 0 -13 12.5 zM134 110.5q3 -12.5 13 -12.5q7 1 13 13q2 12 -13 12q-16 0 -13 -12.5zM332 381h229q0 29 -7 61.5t-21.5 63.5t-33.5 56.5t-44 39.5q-53 -35 -81 -99.5t-42 -121.5zM606 922q1 24 21 24q18 0 18 -24q0 -25 -18 -25q-20 0 -21 25zM700 61h25l-25 25v-25zM844 270q0 -2 2 -7 l2 -5q2 -6 10 -14t14 -11q0 2 1 6.5t1 6.5t-1 7l-1 5q-4 6 -12 14.5t-12 10.5q0 -2 -2 -6.5t-2 -6.5zM877 209q0 -25 20 -25q18 0 18 25q0 24 -18 24q-20 0 -20 -24zM909 172q0 -16 12.5 -13t12.5 13q0 8 -12 12q-12 2 -13 -12zM922 -111l73 25v-25h-73zM926 135 q0 -25 20 -24q18 0 19 24q-1 25 -19 25q-20 0 -20 -25zM950 111q0 -25 21 -25q18 0 18 25q0 24 -18 24q-20 0 -21 -24z" />
<glyph unicode="b" horiz-adv-x="1003" d="M-20 106l4 13q51 2 80.5 9t49 23.5t34 44t32.5 70.5l25 -24l24 24v590q0 37 -19.5 51.5t-48 17.5t-60 -1t-54.5 -4q-35 0 -39 34q25 10 58.5 19.5t68.5 15.5t66.5 10.5t52.5 4.5q8 0 25.5 -10.5t23.5 -14.5h442q18 -41 51 -49t66 -16.5t56.5 -31t23.5 -87.5v-13l-49 -73 l-1 -5q-1 -6 -1 -8q0 -4 1 -8l1 -4q2 -6 10 -14t15 -11q-35 -6 -55.5 -30.5t-20.5 -55.5q0 -33 18.5 -50t44 -29.5t50 -23.5t36.5 -32l-24 -24v-172q-2 4 -10.5 12t-14.5 12l-5 1q-5 1 -7 1q-23 0 -29 -14t-6 -31q0 -16 3 -32.5t-5 -22.5q-4 -4 -15.5 -7t-23.5 -6 t-22.5 -6.5t-12.5 -5.5q-6 -4 -20.5 -14t-29.5 -21.5t-28.5 -21.5t-19.5 -16h-270q-10 0 -24.5 -20.5t-34 -44t-42 -44t-47.5 -20.5v94h21q20 0 44.5 6t32.5 29q-6 0 -24.5 1t-24.5 1q-49 0 -92 -15.5t-92 -15.5q-12 0 -43 5t-63.5 14.5t-57 20.5t-24.5 25zM156 831l24 25 v-25h-24zM324 555q39 0 47 22.5t8 57.5q0 4 -1 23.5t-1 25.5q-31 -23 -42 -58.5t-11 -70.5zM328 315l37 50v-74l12 123h-49v-99zM365 524q0 -16 12 -13t12 13q0 7 -12 13q-12 2 -12 -13zM449 229q0 -33 8 -62.5t43 -29.5q6 0 14 1t10 5l148 148q2 2 0 22.5t-6 48t-9.5 55 t-9.5 46t-24.5 30t-45 16.5t-51 6t-43.5 1q0 -68 -17 -126t-17 -124v-37zM475 582q27 0 60.5 1t65.5 8t57.5 22.5t37.5 45.5h-73q4 2 15 12.5t22.5 23t21.5 23.5t14 15l1 4q1 4 1 8q0 14 -10 38t-25.5 48.5t-33 45t-31.5 28.5q0 -6 -9 -25.5t-16 -23.5l-5 -2q-5 -2 -7 -2 t-7 2l-5 2q-8 6 -13.5 19.5t-11.5 25.5t-14 21.5t-23 9.5q-2 0 -6 -1t-6 -1v-348zM676 856q0 -25 20 -25t21 25q-1 25 -21 25t-20 -25zM709 205q0 -16 12 -13t12 13q0 6 -12 12q-12 2 -12 -12zM721 561h12h12q6 2 24.5 10.5t25.5 14.5h-13h-12q-6 -4 -24.5 -12.5 t-24.5 -12.5zM795 266l49 74q-2 0 -6.5 1t-6.5 1t-7 -1l-5 -1q-6 -4 -12 -23.5t-12 -25.5v-12v-13z" />
<glyph unicode="c" horiz-adv-x="1032" d="M23 504q0 37 25.5 90t55 103.5t52 89t16.5 49.5q43 33 97.5 56t113.5 38.5t118.5 23t112.5 7.5q59 0 111.5 -13.5t110.5 -13.5q37 0 63.5 18.5t26.5 59.5q16 0 27.5 12t17.5 28.5t9 32t3 21.5q27 -27 27 -57v-62v-18q0 -14 -1 -25.5t-1 -21.5v-13q-2 -29 -5.5 -69.5 t-7.5 -79.5t-8 -68l-4 -28l-49 -50q-8 55 -30.5 104.5t-59.5 86.5t-85 58.5t-108 21.5q-74 0 -130 -33t-96 -85t-60.5 -117.5t-20.5 -131.5q0 -68 5 -137.5t27.5 -127.5t69 -95t129.5 -37q84 0 147.5 9t110 37t77 76t48.5 126h27q0 -6 -1 -24.5t-1 -25.5q0 -10 -3 -37.5 t-6 -60.5t-8 -60.5t-8 -37.5q-53 -12 -99 -33.5t-90 -41t-90 -35t-101 -15.5q-10 0 -36 1t-53.5 3t-49 7t-21.5 16v38q-4 0 -18.5 -3t-31 -7t-30.5 -6t-19 2q-53 14 -105 66.5t-95 121t-69.5 140.5t-26.5 127zM98 762v24h25zM120 373.5q1 -21.5 7 -43t20 -35.5v369 q-25 -53 -25.5 -103.5t-0.5 -107.5q0 -14 -1 -36t0 -43.5zM201 811q0 -25 20 -25t21 25q-1 25 -21 25t-20 -25zM262 172h62q0 8 -5 25q-2 6 -10 24.5t-14 24.5q-23 -8 -28 -33t-5 -41zM343 123q3 -12 13 -12q9 0 13 12q2 12 -13 12q-16 0 -13 -12zM913 762q0 -25 21 -25 q20 0 20 25q0 24 -20 24t-21 -24zM963 541q0 24 20 24t21 -24q0 -25 -21 -25q-20 0 -20 25z" />
<glyph unicode="d" horiz-adv-x="1030" d="M-27 25q18 12 44 17t52.5 10t47 14.5t28.5 31.5q6 74 11.5 133.5t8.5 113.5t4 107.5t1 116.5q0 37 1 80v21q0 32 -2 65q-3 43 -13.5 82t-34.5 68l-25 -49q-4 10 -17 25.5t-27.5 32.5t-25 34.5t-10.5 34.5q84 0 162 -6.5t155 -12.5t157 -10q40 -2 83 -2t89 2 q18 -35 48.5 -50.5t65.5 -25.5t70 -19.5t61 -27.5q10 -8 27.5 -57t34 -108.5t29 -113t12.5 -69.5q0 -47 -9.5 -85t-68.5 -59l24 -24q-4 -10 -18 -33.5t-30.5 -51.5t-31 -52.5t-18.5 -34.5q-6 -6 -14 -24.5t-10 -24.5q-12 -2 -40 -8.5t-60 -14.5t-59.5 -16t-37.5 -10 q-6 -2 -25.5 -13.5t-23.5 -11.5q-6 0 -25.5 11.5t-23.5 13.5h-13h-12q-6 -2 -25.5 -10.5t-23.5 -14.5h-467zM207 307q0 -16 3 -29.5t9 -7.5q12 8 12 37t-12 37q-6 2 -9 -9t-3 -28zM219 516q20 39 25.5 84t5.5 88h-31v-172zM256 467q0 -10 3 -18.5t9 -6.5q12 4 13 25 q-1 21 -13 25q-6 2 -9 -6.5t-3 -18.5zM330 479q0 -29 1 -56.5t2 -48t3 -29.5t6 -1q4 16 7 53t3 82t-3 82t-7 53q-4 8 -6 -1t-3 -29.5t-2 -48t-1 -56.5zM330 799q0 -16 3 -29.5t9 -7.5q12 16 12 37t-12 37q-6 6 -9 -7.5t-3 -29.5zM354 283q0 -16 12.5 -13.5t12.5 13.5 q0 8 -12 12q-12 2 -13 -12zM391 442q0 -31 4 -73.5t13.5 -87.5t23.5 -87t33 -71q8 -2 35.5 -3t38.5 -1q66 0 106.5 35.5t64 88t35 113t15.5 111.5h35q0 55 -9.5 76.5t-21.5 37t-26.5 36t-26.5 71.5q-10 41 -18.5 77t-26 63.5t-49 43t-87.5 15.5q-31 0 -61.5 -1t-52.5 -26 q-4 -25 -8.5 -84t-7.5 -124.5t-6 -125t-3 -84.5zM711 147q2 0 6 -1t6 -1t7 1l5 1q4 2 13.5 10.5t11.5 14.5zM846 356q0 -16 12 -13t12 13q0 9 -12 13q-12 2 -12 -13zM846 479q0 -16 3 -29.5t9 -7.5q12 16 12 37t-12 37q-6 6 -9 -7t-3 -30zM956 393q4 8 13.5 36t11.5 38v25 v24q-6 -8 -14.5 -35.5t-10.5 -38.5v-24v-25z" />
<glyph unicode="e" horiz-adv-x="933" d="M20 995h78l664 -12l74 123h24q8 0 13.5 -16.5t8.5 -39t4 -48t1 -46.5v-34q0 -10 -1 -43t-1 -43q-29 0 -43.5 -17.5t-23.5 -42t-17 -49.5t-27 -39v148l-37 -50l-49 99h-211q0 -10 10.5 -37t4.5 -37q0 -4 -7.5 -11t-16.5 -15.5t-16.5 -14.5t-9.5 -8q-14 -16 -22 -50 t-17.5 -69t-22.5 -59.5t-36 -18.5l25 -24q2 -2 22.5 0t48 6t55 9t46 9t29 22.5t15.5 43t7 53.5t2 53v49h45q4 0 8 -16t8 -39.5t6.5 -49.5t2.5 -42q0 -8 -3.5 -25.5t-6.5 -36t-8 -36t-7 -25.5l-25 25q-6 0 -15 -9.5t-9 -15.5q0 -25 7 -51.5t16.5 -55t17.5 -57t8 -57.5v-49 q-18 27 -28.5 68.5t-23 81.5t-36 69t-70.5 29q-35 0 -58.5 -11.5t-53.5 -11.5v-176l49 24q-7 -23 -7 -46q0 -11 2 -23q5 -34 23.5 -64t47 -48.5t65.5 -18.5q10 0 24.5 2t16.5 2l172 172q0 -2 1 -6t1 -6t-1 -7l-1 -6q-23 -45 -46.5 -73.5t-23.5 -73.5h21q4 0 23.5 16.5t43 40 t46 49t34.5 41.5q6 8 11.5 26.5t9.5 40t6 43t2 38.5h29q0 -68 -17.5 -131.5t-17.5 -128.5q0 -16 2 -35t24 -25q-27 -29 -88 -34t-133 -7t-145.5 -11t-124.5 -46h24l-24 25q-51 -3 -101 -3q-151 0 -292 27q0 2 -1 6t-1 6q0 27 23.5 37.5t51 16.5t51 17t23.5 40v541 q6 6 14.5 24.5t10.5 24.5v12q0 59 -18.5 86t-45.5 42.5t-56.5 30.5t-51.5 50q-4 4 -5 12zM221 270l49 99v295h-24q-8 -53 -12.5 -93.5t-7.5 -76t-4 -70.5t-1 -80v-74zM250 246q0 -25 20 -25t21 25q-1 24 -21 24t-20 -24zM799 332q0 14 12 12q12 -4 12 -12q0 -10 -12 -13.5 t-12 13.5z" />
<glyph unicode="f" horiz-adv-x="933" d="M-25 74q6 -10 19.5 -19.5t28 -15.5t29 -10t22.5 -4h540l25 24l-221 49q-10 2 -15.5 20.5t-7.5 43t-3 48t-1 36.5v71q0 51 22.5 88t90.5 37q18 0 37.5 -32.5t37 -72.5t31 -75t17.5 -41v74l37 -25l24 49v379q-53 0 -72.5 -11t-22.5 -29.5t1 -38t-3 -38t-34 -29.5t-92 -11 q-47 0 -47 47v26q0 10 3 38t7 59.5t8 60.5t6 39q14 23 36 34t46.5 15t51 3t51.5 -1h22q14 0 32.5 -1t33.5 -1h22q6 -20 15.5 -65t21.5 -91.5t29.5 -81t40.5 -34.5q16 0 37.5 1t27.5 25v27q0 23 1 46.5t1 45.5v29v84q0 59 -5 111.5t-21 123.5q-35 0 -54.5 -13t-33 -31.5 t-25.5 -40t-35 -38.5h-28q-23 0 -46.5 -1t-46.5 -1h-26q-68 0 -121 13.5t-113 13.5h-12l25 -49q-8 -2 -31 -3t-31 -1q-33 0 -55.5 12t-44 27.5t-43 28t-51.5 12.5q-20 0 -42 -5.5t-22 -33.5v-13l25 -73v-25l49 25q12 -68 25.5 -128.5t24.5 -118.5t18.5 -120.5t7.5 -136.5 v-41q0 -31 -1 -63.5t-1 -63.5v-41q0 -33 -28 -51.5t-64.5 -27.5t-74 -13t-55.5 -6zM-20 0q0 -25 20 -25t20 25t-20 25t-20 -25zM233 614q0 23 3.5 39.5t9.5 10.5q12 -12 12 -50q0 -37 -12 -49q-6 -6 -9.5 10.5t-3.5 38.5zM307 479q0 29 3 49.5t9 12.5t8.5 -24.5t2.5 -37.5 q0 -20 -2 -36.5t-8.5 -24.5t-9.5 14.5t-3 46.5zM823 664q0 23 3.5 39t9.5 10q12 -12 12 -49t-12 -50q-6 -6 -9.5 10.5t-3.5 39.5z" />
<glyph unicode="g" horiz-adv-x="1105" d="M23 590q0 55 15 79.5t34.5 36t35 15.5t15.5 16v172q0 16 7 20.5t15 4.5q10 0 19.5 -2t15.5 -2q0 10 -3 24.5t-2 26.5t9.5 21.5t28.5 9.5q0 -16 4 -43t29 -35q8 2 25.5 7t36 8t35.5 6t26 3q23 0 83 1.5t126 1.5t126 -1.5t82 -1.5q12 18 36 40t51.5 40.5t56 30.5t53.5 12 q6 0 12 -9t13 -15v-13v-12l-50 -221q0 -2 -1 -15.5t-1 -21.5t1 -21.5t1 -15.5q0 -4 4.5 -18t8.5 -31.5t8 -32t4 -16.5q0 -4 -8 -10t-17.5 -14.5t-16.5 -15.5t-7 -9q-8 -12 -6 -23.5t4 -20.5t-1 -16.5t-22 -13.5q-25 8 -36 41t-22 77t-24.5 92t-39 89t-69.5 67.5t-116 26.5 q-78 0 -127 -37.5t-78.5 -98t-43 -137.5t-16.5 -152q-1 -33 -1 -64q0 -42 2 -82q4 -70 6 -117l-25 -24q66 -43 137.5 -59.5t145.5 -16.5q10 0 43 1t43 1q12 4 25.5 25.5t25 47t18.5 50t7 37.5q0 33 -16.5 50t-40 26.5t-49 15.5t-44.5 18l-1 4t-1 6q0 4 1 9l1 6q2 6 12.5 15 t12.5 9h393q6 0 24.5 -9t24.5 -15l1 -5q1 -5 1 -7t-1 -6.5t-1 -6.5q-41 -18 -69.5 -32.5t-46 -34t-24.5 -50t-7 -79.5q0 -6 11 -24.5t13 -25.5v-12v-12q0 -6 -3 -20.5t-7 -30t-8 -28.5t-6 -19l-49 49q-4 -4 -14.5 -15.5t-21.5 -22.5t-22.5 -21.5t-15.5 -14.5l-5 -1 q-5 -1 -7 -1t-7 1l-6 1q-6 6 -15 23.5t-9 25.5q-68 -25 -133.5 -25.5t-136.5 -0.5h-29q-23 0 -46.5 1t-45.5 1h-27q-37 49 -81 65t-103 16q0 37 -17.5 70t-38 63.5t-38 59.5t-17.5 57v13l25 49q0 2 -2 12t-2 12h-25q0 12 5 20.5t10.5 15.5t10.5 15.5t5 22.5q0 6 -1 14.5 t-1 10.5l-49 -25q0 8 -1 36t-1 38zM72 774q0 2 1 7l1 5q2 6 10 14.5t14 10.5q0 -2 1 -6t1 -6t-1 -7l-1 -6q-2 -6 -10 -14t-14 -10q0 2 -1 6t-1 6zM127 467q0 -25 20 -25t21 25q-1 25 -21 25t-20 -25zM176 762q0 -25 21 -25q20 0 20 25q0 24 -20 24t-21 -24zM201 319 q0 -25 20 -24q20 0 21 24q-1 25 -21 25t-20 -25zM283 270q0 -23 3 -39t9 -10q12 12 12 49t-12 49q-6 6 -9 -10t-3 -39zM791 147q0 -25 20 -24q20 0 20 24q0 25 -20 25t-20 -25zM860 147h25l-25 123v-123zM922 651q0 -16 12 -13t12 13q0 9 -12 13q-12 2 -12 -13z" />
<glyph unicode="h" horiz-adv-x="1228" d="M25 98q45 4 80.5 10.5t62.5 20.5t41 41t14 74q0 14 -1 41.5t-1 33.5q-8 72 -9 147t-4 149.5t-10.5 148.5t-25.5 145q-20 6 -53 15.5t-45 33.5l24 25h443q6 6 23.5 15.5t25.5 9.5q6 0 24.5 -12.5t24.5 -12.5l-1 -15q-1 -14 -1 -34q-8 2 -35 2q-12 0 -41 -10.5t-45 -16.5 q-6 -2 -15 -10t-9 -14v-271q14 -4 48.5 -8t73.5 -7t74 -6t49 -3h15q23 0 47 14t37 35q0 8 1 48t1 87t1 87t1 48q0 43 -14.5 50.5t-41.5 7.5q-18 0 -36 12q39 14 81.5 20.5t85.5 8.5q29 1 56 1h27q40 -1 73 -1q18 0 40 -1t42.5 -7.5t33.5 -19.5t13 -38q-92 0 -131 -38 t-49 -98q-5 -32 -5 -68q0 -32 4 -68q9 -76 13 -154q-6 0 -15 -9t-9 -15q0 -16 16 -40t33 -34q-25 -6 -26 -24.5t-1 -35.5q0 -41 8.5 -85t27.5 -81.5t53 -64.5t85 -29l-24 -24q-16 0 -57.5 -8.5t-87.5 -17.5t-91 -16t-72 -7h-12q-6 2 -24.5 13t-24.5 11q-10 2 -42 6 t-67.5 8.5t-67.5 7.5t-44 3l221 73q16 4 21.5 33t5.5 62v37v28q0 10 -1 43t-1 43l-50 -24q0 6 -1 18t-1 19q0 29 3.5 46t23.5 40h-246q-27 0 -42 -15.5t-27.5 -36t-23.5 -41t-30 -30.5v-222q10 -6 38 -23.5t36 -25.5l1 -5t1 -7t-1 -6t-1 -6q-12 0 -33.5 -2t-43 -10.5 t-36 -22.5t-10.5 -39q-10 31 -37.5 42t-68.5 11q-39 0 -82 -3t-82 -3q-37 0 -63.5 10.5t-34.5 40.5zM307 344q0 -10 3 -18.5t9 -6.5q12 2 13 25q-1 21 -13 25q-6 2 -9 -6.5t-3 -18.5zM750 307q0 14 12 12q12 -4 12 -12q0 -10 -12 -13t-12 13zM889 492q0 -25 20 -25t21 25 q-1 24 -21 24t-20 -24zM897 332q0 -25 3 -47.5t9 -14t8.5 24.5t2.5 37q0 20 -2.5 36.5t-8.5 24.5t-9 -12.5t-3 -48.5z" />
<glyph unicode="i" horiz-adv-x="811" d="M14 1012q6 0 30 -1t30 -3q8 -4 40.5 -11.5t69.5 -16.5t70 -15.5t41 -6.5q2 0 29.5 9.5t44.5 15.5q6 2 24.5 13.5t24.5 11.5q4 0 15 -6.5t23.5 -14.5t22.5 -16t13 -13h294q-37 -45 -57 -58t-37.5 -15t-39 -3t-62.5 -22q-25 -12 -41.5 -52t-27.5 -95.5t-18 -119 t-10.5 -121.5t-4.5 -107.5t-1 -73.5q0 -14 1 -31.5t1 -38.5q0 -16 1.5 -31.5t1.5 -17.5l24 -25l25 50q2 -23 14 -40.5t26.5 -34t24.5 -31.5t10 -30q0 -2 -1 -6t-1 -6l-147 -49h-12h-13q-8 6 -25.5 23.5t-23.5 25.5q-16 -4 -58 -8t-89 -7t-89 -6t-59 -3q-10 0 -37.5 -1 t-35.5 -1v26q43 2 85 16.5t62 57.5q27 74 41 153.5t21.5 162.5t9.5 164t2 159q0 49 -17.5 73.5t-43 37t-55.5 17.5t-55.5 16.5t-43 35t-17.5 70.5zM319 270q0 -8 3.5 -27.5t6.5 -43t7 -45t8 -31.5q2 -6 10 -14.5t15 -10.5q0 10 1 43t1 43q0 53 -3 92t-24 93q-4 -6 -8 -20.5 t-7 -30t-6.5 -29t-3.5 -19.5zM356 455q0 -16 12.5 -13.5t12.5 13.5q0 8 -12 12q-12 2 -13 -12z" />
<glyph unicode="j" horiz-adv-x="813" d="M23 201q0 -47 26.5 -85t67.5 -63.5t89 -40t89 -14.5q45 0 78 9t62.5 25.5t59 39t70.5 51.5q55 202 55 404q0 69 -6 137q14 20 22.5 45.5t12.5 52t7 52.5t8 46q8 25 32.5 31t50 9t46 10.5t20.5 35.5q0 2 -1 7l-1 5q-2 6 -10 14.5t-15 10.5q-29 14 -52 35.5t-41.5 42 t-32 35t-21.5 14.5q-39 0 -62.5 -34t-35.5 -68h-13h-12q-6 2 -24.5 14t-24.5 10q-4 0 -11 -7t-15.5 -16.5t-14.5 -16.5t-8 -9h-12q-35 0 -59.5 13.5t-63.5 13.5q-23 0 -46.5 -3t-44 -12.5t-33 -27t-12.5 -45.5v-13q10 0 35 -3t52.5 -7t51 -8t33.5 -6q14 -4 20.5 -13.5 t7.5 -19.5t-1 -21.5t-2 -19.5q2 -41 6 -108.5t8 -134t7.5 -117t3.5 -58.5q0 -4 4 -18.5t8 -31.5t8 -31.5t4 -16.5v-25v-24q-2 6 -10 14t-14 10q-25 14 -65 36t-80 41.5t-69.5 32.5t-31.5 13h-74q-8 0 -13 -25.5t-8 -59.5t-4 -64.5t-1 -42.5zM29 172q0 25 20 25t21 -25 q0 -25 -21 -25q-20 0 -20 25zM197 147q-4 8 1 22.5t13 30t18.5 29t16.5 17.5q8 2 25.5 0t36 -8.5t35.5 -16.5t26 -24v-13v-12q-2 -6 -10.5 -24.5t-14.5 -24.5q-8 0 -30.5 -1t-30.5 -1q-4 0 -17.5 -1t-28 0t-26.5 7t-14 20zM250 25q0 24 20 24t21 -24q0 -25 -21 -25 q-20 0 -20 25zM446 1106q0 -25 21 -25q20 0 20 25q0 24 -20 24t-21 -24zM514 295v39t27 35v-25v-25q-2 -10 -10.5 -37.5t-14.5 -35.5q0 6 -1 24.5t-1 24.5zM589 884.5q-3 12.5 13 12.5q14 0 12 -12q-4 -12 -12 -13q-10 0 -13 12.5zM864 934q0 -25 21 -25q20 0 20 25 q0 24 -20 24t-21 -24z" />
<glyph unicode="k" horiz-adv-x="1165" d="M-55 1008q25 -31 50 -47.5t53 -27.5t57.5 -21.5t60.5 -26.5q14 -12 26.5 -48t20.5 -84t13 -104.5t9.5 -108t5.5 -92t1 -59.5q0 -78 -20.5 -146.5t-31.5 -144.5h-24q-33 0 -59.5 13.5t-59.5 13.5q0 -37 -17.5 -64.5t-17.5 -62.5q80 0 150.5 14.5t150.5 14.5q20 0 53 1h33 h35q35 -1 69 -7.5t56 -20.5q2 6 3 18.5t1 18.5q-1 43 -33 57q-18 8 -38 9q-15 0 -31 -5q-20 49 -23.5 80t-3.5 80v47q0 35 5 64.5t22 72.5q2 0 6 1t6 1q23 0 60.5 -23.5t72.5 -56.5q34 -34 58 -73q19 -31 19 -57q0 -7 -1 -13q4 8 22.5 17.5t26.5 7.5q10 -4 23.5 -17.5 t25 -30t18.5 -34t7 -29.5v-12l-74 74q7 -28 7 -45q0 -14 -5 -22q-10 -16 -27.5 -21t-34 -11t-16.5 -37q0 -2 1 -7l1 -5q2 -6 10.5 -14t14.5 -10q10 0 33.5 1t52.5 1t52.5 -1t33.5 -1q4 0 23.5 -12.5t25.5 -12.5q2 0 16.5 4t31 8t31.5 8.5t19 4.5q8 2 33 6t52.5 8t52 7 t35.5 3q0 2 1 6t1 6t-1 7l-1 6q-59 57 -122 110.5t-126.5 106.5t-125 108.5t-118.5 116.5l25 25l-50 49l123 123h-12h-12q-4 0 -14.5 -4t-22.5 -8.5t-23.5 -8.5t-13.5 -4q-6 0 -15.5 9.5t-9.5 15.5q53 14 83 28.5t54.5 30.5t53.5 37.5t80 50.5q20 10 54 14.5t68.5 9.5 t62.5 15t36 35l-25 24h-379q0 -23 21.5 -35t38.5 -14q-31 -35 -74 -76.5t-91 -78.5t-99.5 -61.5t-98.5 -24.5q0 12 -6 16t10 12q10 10 24.5 23.5t14.5 17.5v27v47v47v27q0 2 7.5 10t16.5 16.5t16 14.5t10 8q2 6 4 6t2 6q-72 0 -138.5 10.5t-132 21.5t-131 21.5t-133.5 10.5 q-8 0 -30.5 -1t-30.5 -1zM283 197q-1 33 30 49v-49h-30zM489 492q1 24 21 24q18 0 18 -24q0 -25 -18 -25q-20 0 -21 25zM535 467h24v-25zM559 614v25h25zM829 270h13q35 0 62.5 -23.5t27.5 -58.5q-35 0 -63 31t-40 51z" />
<glyph unicode="l" horiz-adv-x="1056" d="M20 967q29 0 64 -5.5t63 -27.5h295q4 18 37 29.5t72 17.5t75 8t46 2q0 -33 -13.5 -57.5t-36 -43t-50 -31.5t-56.5 -23q-23 -121 -49.5 -254t-26.5 -252q0 -49 24.5 -95.5t63.5 -82t88.5 -57t96.5 -21.5q55 0 86.5 19.5t50 50t29 68.5t22.5 77t29.5 72.5t52.5 56.5v-271 q2 6 10 14.5t15 10.5l5 1t7 1t6 -1t6 -1q-10 -18 -16 -39.5t-13.5 -42t-16.5 -38t-28 -27.5q-50 1 -97 1q-83 0 -155 -2q-114 -4 -222.5 -9t-219 -10t-239.5 -5v25q0 12 23.5 23t54 20.5t58 16.5t36.5 13q29 18 43 47t22 55.5t14.5 46t18.5 23.5v271l-25 49q0 -12 1 -44 t1 -67t-1 -66.5t-1 -43.5q0 -8 -9 -25.5t-15 -24.5q-6 55 -12.5 117t-9.5 126q-3 62 -5 126q-1 21 -1 42q0 41 3 81q-18 31 -51 44t-66.5 25.5t-58.5 30t-25 56.5zM246 762h24l-24 24v-24zM397 885q0 -25 21 -25q20 0 20 25q0 24 -20 24t-21 -24zM406 135q0 -25 3 -47t9 -14 t8 24.5t2 36.5t-2 37t-8 25t-9 -12.5t-3 -49.5zM515 73.5q3 -12.5 13 -12.5q9 1 13 13q2 12 -13 12q-16 0 -13 -12.5z" />
<glyph unicode="m" horiz-adv-x="1425" d="M0 946h221v70q8 0 39 -15.5t64.5 -34t61.5 -36t32 -21.5q0 12 18.5 30.5t30.5 18.5q55 0 81.5 -35.5t38 -85t14.5 -98.5t13 -75q8 -35 25.5 -77t38 -85t43 -85t41.5 -73q8 2 26.5 38t41 90t45 117.5t41 122t30.5 103.5t12 59v11q-14 8 -31.5 13t-32.5 11t-26.5 16.5 t-11.5 32.5h29q8 0 40.5 -4t69.5 -8t70 -8t41 -4t48 4t86 8t86 8t50 4h45q0 -35 -18.5 -47t-43 -18t-48 -16.5t-33.5 -40.5q-27 -70 -38 -155t-13 -172q-1 -44 -1 -85.5t1 -82.5q2 -81 2 -144h37v-95l13 -3q13 -3 23.5 -1t38 10.5t35.5 14.5v-72q-10 0 -36.5 -1t-36.5 -1 q-20 0 -72.5 -3t-112 -6t-112 -8t-72.5 -7l-49 24q8 14 31.5 27.5t50 24t45.5 16.5l20 6q33 14 42 18t7 9.5t-9 19.5t-7 51h-12q0 8 1 37t3 37q0 6 4 23.5t8 38t8 38t4 23.5q0 2 -8 9t-17 15.5t-16.5 14.5t-7.5 10q-2 6 11.5 24.5t13.5 24.5q0 2 1 25.5t1 36.5q0 8 -1 30.5 t-1 30.5l-25 -49q2 8 4 28.5t-1 42t-12 38t-28 16.5q-2 0 -6 -1t-6 -1q-23 -39 -45.5 -100.5t-45 -132t-47 -145.5t-53 -141.5t-60.5 -117.5t-68 -76q-6 6 -15.5 23.5t-9.5 25.5q0 12 -1 43t-1 66q0 37 1 68.5t1 43.5q-23 8 -27 31t2 43q-4 -8 -9 -21.5t-12 -25.5 t-17.5 -20.5t-22.5 -8.5q-6 0 -21.5 33t-37 82t-47 109.5t-50 115t-45 97.5t-33.5 57v-492q0 -29 12.5 -66.5t34 -72.5t53.5 -58.5t73 -23.5l-25 -24h-369q-6 0 -12 9t-12 15l-1 5t-1 7q0 23 24.5 29t55 15.5t58.5 33t36 82.5v49q0 35 1 74t1 74v49v63q0 39 -1 79t-1 69v35 q-4 100 -16 138t-36 46q-15 5 -36 5q-13 0 -29 -2q-11 -1 -23 -1q-34 0 -81 10q-8 2 -17.5 15.5t-7.5 21.5zM545 319q0 -25 20 -24q20 0 21 24q-1 25 -21 25t-20 -25zM569 369q0 -25 21 -25q20 0 20 25q0 24 -20 24t-21 -24zM889 860q0 25 20 25t21 -25q0 -25 -21 -24 q-20 0 -20 24zM1069 750q0 -16 3 -29.5t9 -7.5q12 12 13 37q-1 24 -13 36q-6 6 -9 -7t-3 -29zM1130 270h25v25z" />
<glyph unicode="n" horiz-adv-x="1155" d="M20 948q0 -2 2 -7l1 -5q12 -12 43.5 -26.5t65.5 -31t60.5 -33t26.5 -32.5v-541q0 -37 -21.5 -67.5t-52 -55t-64.5 -43t-58 -30.5v-25h368l49 49q-31 -10 -61.5 -3t-56 24.5t-41 44t-15.5 55.5q0 14 3 57.5t7.5 97.5t10.5 114.5t12 109.5t10 82t8 33h25l18 -13 q19 -14 42.5 -33.5t48 -41t38.5 -35.5q25 -23 66 -69t88 -106.5t95 -128t87 -131t61 -117.5q21 -50 21 -81v-6q2 0 10.5 -1t14.5 -1q4 0 14 1l10 1q2 0 12.5 12t12.5 12q4 0 23.5 -11t25.5 -13h12h13q-51 47 -74 123t-29 160q-4 50 -4 99q0 33 2 66q4 82 4 144 q0 104 12.5 202.5t12.5 202.5q23 0 44 -7t40.5 -8t36 8t28.5 42q-8 2 -29.5 7t-45 8.5t-45 6.5t-27.5 3t-25.5 -12.5t-23.5 -12.5q-8 -2 -33 -6t-52.5 -8t-53 -7t-33.5 -3v-25v-25q0 -6 3 -19t7 -28.5t7 -30t7 -20.5q14 8 20.5 24.5t10.5 33t10 29.5t21 13q2 0 7 -1l5 -1 q4 -4 11.5 -21.5t13.5 -27.5v-12v-12l-25 -74v-12v-13q2 -4 10.5 -23.5t14.5 -25.5v-270q-49 35 -88 85t-75 104.5t-74 108.5t-83 95q35 -2 43 12.5t8 34.5q0 18 -34.5 44t-77.5 49.5t-83 40t-52 16.5q-6 0 -25.5 -12.5t-24.5 -12.5q-18 -2 -59 -6t-88 -8t-88 -7t-59 -3 q0 -2 -1.5 -6.5t-1.5 -6.5zM272 887q1 24 21 24q18 0 18 -24q0 -25 -18 -25q-20 0 -21 25zM305 358q0 -14 12.5 -12t12.5 12q-1 9 -13 13q-12 2 -12 -13zM739 346q1 25 21 25q18 0 18 -25t-18 -24q-20 0 -21 24zM764 322q0 24 20 24q18 0 19 -24q0 -25 -19 -25q-20 0 -20 25 zM788 297q1 25 21 25q18 0 18 -25t-18 -25q-20 0 -21 25z" />
<glyph unicode="o" horiz-adv-x="1056" d="M23 414v28q0 106 21.5 186.5t65.5 141.5t114.5 106.5t168.5 81.5q16 6 44 15.5t30 9.5q115 0 217 -37t180 -104.5t123 -165.5t45 -221q0 -92 -33.5 -161t-89 -122t-126 -94t-144.5 -78h-10q-14 0 -55.5 7t-95.5 18.5t-114.5 26t-112.5 27.5t-88 24.5t-40 19.5 q-14 20 -21.5 45t-16.5 48.5t-22 44t-38 34.5v27q0 23 -1 46t-1 46zM86 627q0 -16 12.5 -13.5t12.5 13.5q-1 8 -13 12q-12 2 -12 -12zM176 172q0 -25 21 -25q20 0 20 25t-20 25t-21 -25zM184 381q0 -37 3 -66.5t9.5 -19.5t8.5 33.5t2 52.5t-2 52.5t-8 33.5t-9.5 -19.5 t-3.5 -66.5zM201 270q0 -25 20 -24q20 0 21 24q-1 25 -21 25t-20 -25zM233 332q0 -16 12.5 -13t12.5 13q0 8 -12 12q-12 2 -13 -12zM233 430q0 -16 12.5 -13t12.5 13q0 8 -12 12q-12 2 -13 -12zM293 555q0 -16 1 -55t5 -87t12 -99.5t21.5 -93.5t34 -69.5t51.5 -27.5h221 q10 0 34.5 41t49.5 92t44 99t19 63q0 10 -1 37.5t-3 59.5t-4 60.5t-4 38.5v-147q-8 55 -18.5 131t-36 145.5t-73.5 118.5t-130 49q-66 0 -108.5 -37.5t-68.5 -93t-36 -117t-10 -108.5zM737 836l25 24h-25v-24zM741 811q0 -25 21 -25q20 0 20 25t-20 25t-21 -25zM786 123 l25 24h-25v-24zM836 369q12 29 20 60.5t8 62.5h-28v-123z" />
<glyph unicode="p" horiz-adv-x="862" d="M-29 -8q0 47 29 63.5t65.5 22.5t69.5 12t39 33q18 78 22.5 172t4.5 182v113v49q0 35 -1 74t-1 73v50q2 35 -25 44t-60.5 15t-62 22.5t-28.5 65.5h618q6 6 23.5 15.5t25.5 9.5q6 0 15.5 -9.5t9.5 -15.5q0 -8 -9.5 -25.5t-15.5 -23.5q41 -10 69.5 -33.5t46 -56.5t26 -70 t8.5 -74q0 -70 -41 -119t-100.5 -81.5t-129 -52t-125.5 -29.5q-2 -8 -6 -33t-8 -52.5t-7 -53t-3 -33.5q0 -2 -1 -18.5t-1 -22.5q0 -43 29.5 -68.5t70.5 -25.5v-37h123q2 25 12.5 55.5t44.5 30.5q0 -31 -4 -69t-28 -66q-55 -10 -123 -17.5t-139.5 -10.5t-144.5 -4t-138 -1 h-150zM272 541l50 24h-50v-24zM272.5 368.5q1.5 -12.5 12.5 -12.5q8 1 12 13q2 12 -12 12t-12.5 -12.5zM303 639q0 -25 19 -25q20 0 20 25t-20 25q-18 0 -19 -25zM420 600q0 -29 21.5 -33t41.5 -4q35 0 56.5 13.5t34 35t16.5 48t4 55.5v73q0 47 -27 72l-61 -98v139l-22 -4 q-23 -4 -40 -12q-4 -6 -14 -23.5t-10 -25.5q0 -6 12 -24.5t12 -25.5q0 -6 -4 -31.5t-8 -54t-8 -54t-4 -32.5v-14zM469 467q2 -12 12 -12q9 0 13 12q2 12 -13 12q-14 0 -12 -12zM567.5 147.5q-2.5 12.5 12.5 12.5q14 -1 12 -13q-4 -12 -12 -12q-10 0 -12.5 12.5zM688 602 q0 -2 1 -6t1 -6l25 49q-4 -2 -13.5 -10t-11.5 -15l-1 -5q-1 -5 -1 -7z" />
<glyph unicode="q" horiz-adv-x="1048" d="M20 403q20 -41 39 -97t40.5 -113.5t49 -106.5t68.5 -76q45 -31 70.5 -38t42 -6t28 4t25.5 -5t37.5 -36.5t66.5 -90.5q4 -8 35 -18t75 -21.5t95 -21.5t97.5 -19.5t80 -14.5t43.5 -5q31 0 61 1t54 25l-24 25q2 4 10 13.5t14 11.5t23.5 6t37 8t38 7t24.5 3l-25 25h-344 q-20 0 -42.5 14t-41 35.5t-31 45.5t-12.5 42q0 14 22.5 25.5t53.5 21.5t59.5 18.5t40.5 18.5q43 33 75 79t54.5 100t34 110.5t11.5 107.5q0 8 -1 25.5t-1 19.5q-33 88 -77 169t-103.5 142.5t-136.5 97.5t-175 36q-82 0 -147.5 -36t-123 -79t-110.5 -78q-46 -31 -97 -31 q-7 0 -14 1v-345zM213 84q0 4 2 13t2 12q29 -14 55.5 -31t26.5 -51q-35 0 -60.5 9t-25.5 48zM221 748q1 24 21 24q18 0 18 -24q0 -25 -18 -25q-20 0 -21 25zM238 354q0 49 10 96.5t21.5 95.5t18.5 98q4 32 4 65q0 19 -1 39q4 10 20.5 28.5t35 38t37.5 35.5t30 20q2 0 25.5 1 t37.5 1q66 0 121 -30.5t96 -80.5t64.5 -114.5t23.5 -130.5v-39q0 -14 -3 -49t-7 -74t-8 -73.5t-6 -49.5l-49 99q-8 -18 -14.5 -59.5t-16.5 -83.5t-25.5 -72.5t-42.5 -30.5h-221q-33 0 -60.5 33t-48 77t-31.5 89.5t-11 70.5zM319 -39q0 -25 21 -24q18 0 18 24q0 25 -18 25 q-20 0 -21 -25zM516 944q1 25 21 25q18 0 18 -25t-18 -24q-20 0 -21 24zM836 870q0 -25 20 -24q18 0 18 24q0 25 -18 25q-20 0 -20 -25zM860 35q0 -25 21 -25q18 0 18 25q0 24 -18 24q-20 0 -21 -24zM1016 391q0 -16 12 -13t12 13q0 8 -12 12q-12 2 -12 -12z" />
<glyph unicode="r" horiz-adv-x="1290" d="M-2 1012q0 -29 18.5 -38t40.5 -16q6 -4 31 -8t53.5 -7t54 -6t33.5 -3l50 -98l3 -60q3 -61 6 -143t7 -170t8 -144v-40q0 -47 -10 -90.5t-10 -92.5q-27 0 -67 -1t-81 -8t-75.5 -21.5t-51.5 -40.5h21q16 0 33.5 -1t33.5 -1h23q141 0 278.5 17t278.5 17q0 29 -23.5 38 t-52.5 13.5t-52.5 10.5t-23.5 28v320h74q2 0 14.5 -16.5t27.5 -40t30.5 -49t25.5 -42.5l123 -245q2 -6 10.5 -14.5t14.5 -10.5q10 0 33.5 1t52.5 1t52.5 -1t33.5 -1q12 0 27.5 -3t28.5 -10t23.5 -18.5t10.5 -29.5h82l24 37h177q0 12 -7.5 29.5t-21.5 19.5q-74 10 -116 14 t-72.5 17.5t-58.5 44t-73 96.5l-49 -25l-123 123v25q4 -6 23.5 -14.5t26.5 -10.5h12h12q-6 6 -21.5 23.5t-31 37t-28.5 37t-17 25.5l-2 5t-2 7t2 6t2 7q39 16 82 40.5t76.5 55t56 68.5t22.5 85q0 74 -32.5 120t-85 74t-119 41t-134 20.5t-130 14.5t-105.5 21q2 -23 -2 -33 t-13 -13t-22 -3h-20q-104 0 -206.5 14.5t-213.5 14.5zM356 246q1 24 21 24q18 0 18 -24q0 -25 -18 -25q-20 0 -21 25zM356 295q1 24 21 24q18 0 18 -24q0 -25 -18 -25q-20 0 -21 25zM389 381q0 14 12 12q12 -4 13 -12q0 -10 -12.5 -13t-12.5 13zM449.5 909.5 q-3.5 12.5 13.5 12.5q14 -1 12 -13q-6 -12 -12 -12q-10 0 -13.5 12.5zM500 614q4 31 16 50.5t25.5 35t23.5 32t10 42.5q0 20 -5 37.5t-11 35t-11 35t-5 40.5l46 -4q46 -3 100 -10t99.5 -19t45.5 -33v-197h53q0 -35 -35 -57t-81 -36.5t-92 -20.5t-69 -6q-12 0 -32.5 3t-39 10 t-30.5 22t-8 40zM769 491.5q-3 12.5 13 12.5q15 0 13 -12q-6 -12 -13 -13q-10 0 -13 12.5zM967 295l24 -25v25h-24zM995 197q1 24 21 24q18 0 18 -24q0 -25 -18 -25q-20 0 -21 25zM1020 172q0 25 20 25q18 0 19 -25q0 -25 -19 -25q-20 0 -20 25z" />
<glyph unicode="s" horiz-adv-x="761" d="M20 475q41 0 67 -25.5t43 -65.5t31.5 -85t34 -85t48 -65.5t75.5 -25.5q2 0 12.5 11t12.5 13h10h15q6 0 23.5 -4t38 -8t37.5 -8t24 -4q16 6 41.5 31.5t31.5 42.5q7 21 7 40q0 28 -16 51q-28 38 -80 71.5t-117.5 66.5t-123 74t-97.5 95t-40 130q0 51 17.5 98t50.5 82 t78 56.5t98 21.5q33 0 64.5 -8t62.5 -17.5t61.5 -16.5t59.5 -7q10 0 23.5 27.5t28.5 59.5t29.5 59.5t26.5 27.5q20 0 28.5 -11.5t11.5 -26.5t2 -31.5t-1 -28.5q0 -88 -22.5 -172t-28.5 -174q-2 0 -6 -1t-6 -1q-18 0 -42 43t-58.5 94t-85 94t-123.5 43q-25 0 -38.5 -6 t-23.5 -19.5t-23.5 -32t-35.5 -42.5l-1 -6q-1 -5 -1 -7t1 -7l1 -5q27 -45 53.5 -75.5t57 -55.5t69.5 -45.5t90 -44.5q20 10 41 -9.5t42.5 -44t43 -42t45.5 -2.5q35 -57 44 -102.5t9 -104.5q0 -12 -1 -37t-3 -27l-147 -172q-6 6 -23.5 15.5t-25.5 9.5q-4 0 -14.5 -4 t-22.5 -8.5t-23.5 -8.5t-13.5 -4t-21.5 -1t-29.5 -1t-27.5 1t-19.5 1q-16 2 -42 10.5t-49.5 16.5t-39.5 15l-17 7v25h-74l-49 -123q-6 2 -14 10t-10 15v10v14q0 10 3 38t7 59.5t8 60.5t6 39q-27 8 -42 35.5t-23 62.5t-10.5 71t-2.5 60zM127 688q0 -25 20 -24q20 0 21 24 q-1 25 -21 25t-20 -25zM618 74q1 24 21 24t20 -24q0 -25 -20 -25t-21 25z" />
<glyph unicode="t" horiz-adv-x="1032" d="M23 911q0 29 8 42.5t43 29.5q20 -29 50 -40t60 -11q29 0 65 13t70.5 28.5t61.5 29t37 13.5v-78q23 0 32 -2t17 -2q10 0 19.5 4t29.5 20h418q10 0 36.5 -9t37.5 -15l1 -4t1 -6q0 -37 -5.5 -81t-15.5 -88t-23.5 -87t-31.5 -78q-12 43 -31.5 80t-19.5 80q0 14 4 23t10 16.5 t10 14.5t4 19q0 18 -9 26.5t-22.5 11.5t-27.5 2t-27 -1q-47 0 -79.5 -3t-81.5 -23q-6 -70 -11.5 -131.5t-8.5 -120t-4 -115.5t-1 -121q0 -76 15.5 -142.5t58.5 -131.5q2 14 13 19t26.5 7t29 1t17.5 -1t17 1t28.5 -1t27 -7t13.5 -19q-8 -12 -25.5 -24.5t-38 -23t-37 -17.5 t-22.5 -9h-10h-15l-221 25h-51q-53 0 -104.5 -12.5t-104.5 -12.5q-18 0 -29.5 12.5t-20.5 24.5t-21.5 18t-37.5 -6q0 6 9.5 15.5t15.5 9.5q8 0 25.5 -2t36 -3t36 -3.5t25.5 -2.5v56q59 0 100 30.5t47 96.5q2 28 2 56q0 42 -4 86q-6 72 -15 147t-18.5 148t-9.5 142 q-10 0 -35.5 2t-53 3t-52.5 3.5t-35 2.5q-31 -6 -42 -15.5t-11 -34.5q0 -23 11 -37t42 -12q-39 -12 -58.5 -40.5t-34.5 -59.5t-33.5 -53.5t-57.5 -22.5q0 6 1 24.5t2 38t3 38t6 26.5q0 2 7 16.5t16.5 32t17.5 31.5t8 18q0 10 -12 24.5t-25.5 31t-25.5 34t-12 35.5zM492 541 q0 -6 12 -24.5t12 -24.5q0 -10 1 -34t1 -52q0 -29 -1 -53t-1 -34l49 -24v278q-4 0 -15 -1t-24.5 -4t-23.5 -10t-10 -17zM540 639q3 -12 13 -12q8 0 12 12q2 12 -12 12q-16 0 -13 -12zM602 135q0 -16 12.5 -12t12.5 12q-1 8 -13 12q-12 2 -12 -12zM618 74q0 -25 21 -25 q20 0 20 25q0 24 -20 24t-21 -24zM848 823q0 15 12 13q12 -4 12 -13q0 -8 -12 -12t-12 12zM938 492q0 24 20 24t21 -24q0 -25 -21 -25q-20 0 -20 25z" />
<glyph unicode="u" horiz-adv-x="1107" d="M33 944q0 -2 1 -7l1 -5q10 -23 34.5 -30t49.5 -7q14 0 16 2t0 5t-3 5t5 2l37 -49v-639q6 -6 19.5 -24.5t17.5 -24.5q2 -4 10 -14.5t15.5 -22.5t14.5 -23.5t9 -13.5q6 -2 25.5 11.5t23.5 13.5q12 0 18.5 -10.5t7.5 -22.5t0 -24.5t-1 -16.5q14 -4 45 -12t64.5 -16.5 t64.5 -14.5t47 -6q33 0 78 16.5t91 41t87 55t63 59.5q2 14 7.5 49t8.5 74t6 73.5t3 49.5v14q0 29 -13.5 47.5t-13.5 46.5q0 92 2.5 151.5t20.5 101.5t59 76t117 79q6 2 14.5 10t10.5 14q-12 2 -40 7.5t-59.5 8.5t-59.5 6t-38 3h-37h-37l25 -25q-4 0 -23.5 -1t-25.5 -1 q-10 0 -28.5 1t-20.5 1q-4 0 -23.5 12.5t-26.5 12.5q-20 0 -23 -19.5t-3 -31.5q0 -6 1 -14l1 -9q35 -35 49 -35q14 -2 23.5 -1t18.5 -6t21.5 -30.5t34.5 -74.5v-39q0 -29 1 -60.5t1 -60.5v-37q0 -67 1 -151v-8q0 -80 -17 -152q-18 -76 -68.5 -128t-150.5 -52q-55 0 -89 43 t-52.5 109.5t-23.5 147.5t-5 156q0 80 4 144.5t4 97.5q0 20 1 53t1 35l74 74l-25 24q-20 0 -69.5 -1t-102.5 -1t-102 1t-70 1q-4 0 -2 11.5t-2 11.5q-8 0 -21.5 -3t-27.5 -7t-27.5 -8.5t-21.5 -6.5q0 -2 -1 -6t-1 -6zM199 381q0 16 12 12t12 -12q0 -10 -12 -13t-12 13z M266 147q1 25 19 25q20 0 20 -25t-20 -24q-18 0 -19 24zM283 393q0 23 5 38t21 36v-148q-16 20 -21 35.5t-5 38.5zM291 74q0 -25 18 -25q20 0 21 25q-1 24 -21 24q-18 0 -18 -24zM291 221q0 25 18 25q20 0 21 -25q0 -25 -21 -24q-18 0 -18 24zM291 516q0 25 18 25 q20 0 21 -25q0 -25 -21 -24q-18 0 -18 24zM315 197q1 24 19 24q20 0 20 -24q0 -25 -20 -25q-18 0 -19 25zM389 1008q0 -25 19 -25q20 0 20 25q0 24 -20 24q-18 0 -19 -24zM905 909q1 25 19 25q20 0 20 -25t-20 -24q-18 0 -19 24zM1034 872q0 -16 12.5 -12t12.5 12 q0 9 -12 13t-13 -13z" />
<glyph unicode="v" horiz-adv-x="1001" d="M-125 1032q23 -29 51.5 -45t59 -28.5t59.5 -29t51 -44.5q51 -68 88 -147t64.5 -164t52.5 -168.5t53 -159.5v73q14 0 34 -32.5t36 -74.5t28.5 -83t12.5 -55q0 -6 -11.5 -24.5t-13.5 -24.5v-13v-12q27 -12 54.5 -5t45 26.5t19.5 47t-20 54.5q68 203 153.5 389t190.5 373 q6 2 26.5 15t43 30.5t40 38t17.5 39.5h-324l-24 -25q6 -23 26.5 -28t42 -11t38.5 -19.5t17 -52.5q0 -8 -1 -21t-1 -15l-196 -418h-25l-74 123q-25 43 -28.5 98t-11 109.5t-29 98.5t-78.5 62l98 49q4 6 14.5 14.5t10.5 10.5q0 6 -10.5 24.5t-14.5 24.5l-4 1t-8 1q-2 0 -7 -1 l-5 -1q-6 -2 -14.5 -10t-10.5 -14h-22q-16 0 -34 -1t-32 -1h-22q-88 0 -173 13t-171 13h-62zM297 934q0 24 20 24q18 0 19 -24q0 -25 -19 -25q-20 0 -20 25zM330 504q0 14 12 12q12 -4 12 -12q0 -10 -12 -13.5t-12 13.5zM494 344q0 25 20 25q18 0 18 -25t-18 -25 q-20 0 -20 25zM494 418q0 24 20 24q18 0 18 -24q0 -25 -18 -25q-20 0 -20 25z" />
<glyph unicode="w" horiz-adv-x="1335" d="M-178 1018q0 4 3 13t3 11l197 -24l-25 -25q2 -14 16.5 -20t30.5 -7t31.5 0t19.5 1h19q12 0 24.5 1t20.5 1h10q4 0 23.5 12t25.5 12q16 0 50 -13t48 -36l-24 -24l49 -25l-49 -49q10 -4 25.5 -48t31 -98.5t26.5 -104.5t15 -69q16 8 28.5 -2t20.5 -22l50 -99q25 18 47 54.5 t38.5 78.5t26.5 81.5t10 68.5q0 37 -12 77t-35.5 75.5t-55.5 64.5t-69 41q0 4 9.5 23.5t15.5 25.5h10q39 0 91.5 -3t108.5 -9t110.5 -15.5t97.5 -21.5q4 -2 13 -11t11 -13q-31 12 -46 7t-23.5 -18.5t-9.5 -30t-1 -28.5q0 -57 26 -117.5t53 -120.5q28 -58 46 -118 q10 -33 11 -65q0 -26 -7 -50l25 24q10 70 22.5 120t30 92t41 84t53.5 98l2 5q1 5 1 7t-1 7l-2 5q-4 2 -18 16.5t-31.5 31t-32 31.5t-16.5 20l-1 5q-1 5 -1 7t1 7l1 5q4 4 11.5 14.5t13.5 10.5h319q-4 -6 -18.5 -21.5t-29.5 -31t-29.5 -29t-20.5 -17.5q-6 -2 -18.5 4.5 t-14.5 6.5q0 -31 -13 -101.5t-33.5 -145.5t-45.5 -135.5t-47 -70.5v74q-41 -70 -58.5 -157t-36 -173t-50 -163t-101.5 -122q2 15 2 33q0 46 -11 112q-15 92 -46 185.5t-74 173.5t-92 111q-18 -18 -38.5 -70.5t-42 -119t-44 -138.5t-45.5 -132t-45.5 -99t-44.5 -39 q0 53 -22.5 152.5t-60.5 216t-88 236.5t-106 215q-56 96 -114 152q-48 47 -92 46q-9 0 -19 -2q18 25 11 36t-21 18t-29.5 16t-15.5 28zM246 588q0 -29 10 -64t39 -47v12q0 29 -10.5 63t-38.5 48v-12zM299 575q0 -25 20 -24q18 0 19 24q-1 25 -19 25q-20 0 -20 -25zM319 305 h29q0 33 -29 49v-49zM342 477q0 -29 10 -61.5t25.5 -65.5t33 -63.5t31.5 -55.5l6.5 19.5t8.5 29t7 30t3 20.5v14v10l-123 148q0 -2 -1 -11.5t-1 -13.5zM367 231q0 -10 1 -23t5 -24.5t11 -19.5t22 -8q2 0 6 1t6 1l-49 98q0 -2 -1 -11.5t-1 -13.5zM627 440q0 15 12 13 q12 -4 12 -13q0 -10 -12 -13t-12 13zM1055 551q0 -6 1 -14.5t1 -10.5q16 20 21 36t5 38q0 4 -1 13.5t-1 11.5q-16 -20 -21 -36t-5 -38z" />
<glyph unicode="x" horiz-adv-x="1191" d="M-74 49q0 18 42 28.5t97.5 25t110.5 35t82 59.5q12 18 38 51t50.5 72.5t43 81.5t18.5 79q0 84 -40 170t-85 160h-13h-12q-6 -2 -24.5 -10t-24.5 -15q6 6 15 23.5t9 26.5q0 31 -34.5 45t-76.5 23t-77 22.5t-35 44.5q0 23 23.5 39t53.5 26.5t58.5 15.5t38.5 5q2 0 11.5 -4 t19.5 -10.5t19.5 -14.5t9.5 -16q-43 0 -82 -4t-76 -25q127 -15 257 -23q72 -4 144 -5q58 0 115 3q-10 -18 -26.5 -23t-33 -8t-28.5 -11.5t-12 -28.5q0 -6 15 -39t36.5 -72t42 -71.5t31.5 -40.5q29 23 65.5 68.5t57.5 86.5q18 23 24 41q8 16 -3 39l-11 23h-84v36q0 2 13 6.5 t32.5 8.5t41 7t36.5 3h16q16 0 39 1t45 1h35h27q20 0 40.5 -1t40.5 -1h27q6 0 24.5 -9t24.5 -16l1 -5t1 -7t-1 -6t-1 -6q-61 -37 -114.5 -65.5t-102.5 -59.5t-93 -71t-83 -99l-49 -49l-1 -5q-1 -5 -1 -7t1 -8l1 -5l74 -73q2 -4 13 -27t23.5 -48.5t22.5 -47t14 -25.5 q23 -35 54.5 -56.5t61.5 -45t50.5 -54t20.5 -82.5h-54q-43 0 -84 -17t-49 -64q-2 14 -13 19t-24.5 7t-27 1t-19.5 -1q-49 0 -89 -14t-87 -14q0 27 13.5 44t34 28t44 17.5t45.5 10.5q-10 29 -29.5 53.5t-43.5 44.5q6 0 15 9.5t9 15.5q0 14 -10 35.5t-24.5 41t-32 34 t-31.5 14.5q-35 0 -54.5 -20.5t-43.5 -55.5q-8 -10 -25.5 -38t-36 -58.5t-36 -59t-25.5 -41.5h131q0 -6 -3 -12t-5 -12q-4 -4 -14.5 -15.5t-21.5 -22.5t-22.5 -21.5t-15.5 -14.5v49h-455zM238 762q0 24 20 24t21 -24q0 -25 -21 -25q-20 0 -20 25zM379 307q0 -2 1 -6t1 -6 q6 2 14 10t11 14l1 5q1 6 1 8t-1 6t-1 6q-6 -2 -14.5 -10t-10.5 -15l-1 -5q-1 -5 -1 -7zM410 909q0 -25 20 -24q20 0 21 24q-1 25 -21 25t-20 -25zM434 885q0 -25 21 -25q20 0 20 25q0 24 -20 24t-21 -24zM455 516h24v25h-24v-25zM459 467q0 -25 20 -25t21 25q-1 25 -21 25 t-20 -25zM502 270q0 6 1 14.5t1 10.5l74 -123q4 -16 4 -25h-29l-7 11q-7 12 -16.5 27.5t-16.5 33t-9 27.5q0 2 -1 10t-1 14zM508 418q0 -25 20 -25t21 25q-1 24 -21 24t-20 -24zM582 246q0 24 20 24t21 -24q0 -25 -21 -25q-20 0 -20 25zM827 172q0 -25 21 -25q20 0 20 25 t-20 25t-21 -25zM877 74q0 24 20 24t21 -24q0 -25 -21 -25q-20 0 -20 25zM1044 39v59h25h25q10 -2 37.5 -10t35.5 -14q0 -6 -9 -15.5t-15 -9.5t-20.5 -2t-30 -4t-28.5 -3t-20 -1zM1118 1007.5q-4 12.5 12 12.5q15 0 13 -12q-4 -12 -13 -13q-8 0 -12 12.5z" />
<glyph unicode="y" horiz-adv-x="1116" d="M-20 1008h122q-4 6 -12 24.5t-12 24.5v12v12q39 -23 66.5 -41t55 -30.5t62.5 -19.5t90 -7h21q6 2 25.5 13.5t23.5 11.5t13 -12.5t11 -12.5q6 0 21.5 -2t33 -4t32 -3t20.5 -1q0 -14 -9 -23.5t-20.5 -17.5t-20.5 -18.5t-9 -26.5q0 -33 9 -69t23.5 -71.5t33 -69.5t34.5 -63 l49 25q0 -2 2 -6t2 -6t-2 -7l-2 -6q-2 -6 -10 -14t-15 -10q4 0 7.5 -1t5.5 -1q18 0 31.5 11t22.5 26.5t17.5 33t14.5 29.5l98 148q-16 6 -20 13t-3 15t4 17.5t3 19.5q-23 0 -36 -3t-24.5 -7t-25 -7t-33.5 -3q0 68 61 102h21q14 0 29.5 1t27.5 1h21h26t31.5 -1t26.5 -1h14 q23 -4 56.5 -7t64.5 -6t53.5 -6t22.5 -6v-24l-123 -74v14q-16 0 -33.5 -15t-33 -36.5t-30 -45t-26.5 -40.5q-18 -27 -48 -71.5t-57.5 -89t-47.5 -76.5l-19 -33q0 -4 -1 -23.5t-3 -45t-3 -51t-1 -40.5q0 -10 1 -32.5t3 -47t3 -48t1 -32.5q31 -6 63.5 -17t60 -28.5t48 -43 t24.5 -58.5q-2 0 -10 -1t-14 -1q-14 0 -27.5 3t-21.5 24h-320l-24 -50v25q0 2 -16.5 6t-40 8t-49 7.5t-42.5 3.5q-10 0 -36.5 1t-57.5 3t-57.5 3t-34.5 1q0 35 20.5 49t50 21.5t63.5 11.5t62.5 15t47.5 38q16 24 16 68v10l24 -25q6 8 14.5 36t10.5 38v12q0 25 -13.5 64 t-32.5 80t-41 78.5t-36 60.5q-14 20 -39.5 63t-53.5 86t-50.5 78t-28.5 43q-23 31 -52.5 42t-59 20.5t-53 26t-31.5 59.5zM330 1081q0 25 18 25q20 0 21 -25q0 -25 -21 -24q-18 0 -18 24zM360 1044q1 17 13 13t12 -13q0 -8 -12.5 -12t-12.5 12zM379 344q0 25 18 25 q20 0 21 -25q0 -25 -21 -25q-18 0 -18 25zM403 319q1 25 19 25q20 0 20 -25t-20 -24q-18 0 -19 24zM532 528q0 -16 12.5 -13t12.5 13q0 9 -12 13t-13 -13zM666 528q0 -2 1 -6t1 -6q8 6 26.5 23.5t22.5 25.5l2 5q2 5 2 8q0 2 -2 6t-2 6q-6 -6 -24.5 -23.5t-24.5 -25.5l-1 -5 q-1 -6 -1 -8zM674 0q0 25 18 25q20 0 21 -25q0 -25 -21 -25q-18 0 -18 25zM766 713q4 0 7 -1t5 -1q4 0 8 1l5 1q6 2 13 20.5t11 28.5v12v12z" />
<glyph unicode="z" horiz-adv-x="1081" d="M25 74v24q0 10 16 25.5t38.5 29t48.5 20.5t44 -1q53 92 100 164t93.5 136.5t95.5 128t104 136.5q18 25 22.5 41.5t2.5 32.5t-6 38.5t-4 57.5q-2 0 -7.5 1t-7.5 1l-147 -49q-2 0 -12.5 -1t-12.5 -1v16q-59 0 -85.5 -16t-38 -41.5t-14.5 -55.5t-11 -55.5t-29.5 -42 t-71.5 -16.5q0 27 8.5 50.5t19.5 47t19.5 45t8.5 44.5q0 37 -17.5 62.5t-37 48t-37 44t-17.5 51.5q68 0 128.5 -13t121.5 -28.5t124.5 -28t137.5 -12.5q111 0 217.5 13.5t216.5 13.5q0 -29 -22.5 -48t-53 -35.5t-59.5 -32t-41 -33.5l-221 -369v49q14 25 35.5 63.5t43 83 t40 90.5t28.5 83v12v12q-6 -2 -14 -10t-10 -14q-12 -23 -38 -71t-53.5 -99.5t-50 -94.5t-30.5 -55q-4 -12 -22.5 -56t-39 -93.5t-38 -92.5t-23.5 -53l-25 -49l-1 -9t-1 -16q0 -6 1 -14t1 -10l271 -25q16 -2 34.5 20.5t38 58.5t39 78t40 79t41 61.5t40.5 24.5q29 0 34 -20.5 t5 -41.5q0 -16 -1 -73.5t-9 -122t-26.5 -114.5t-51.5 -50q-2 0 -7 1l-5 1q-10 6 -38 23.5t-36 25.5q-25 0 -73 -1t-113 -1h-133h-134q-66 0 -113.5 1t-72.5 1q-16 0 -42 3t-49.5 7t-39.5 8.5t-16 6.5zM127 123q0 -25 20 -25t21 25q-1 24 -21 24t-20 -24zM184 750 q0 -16 12.5 -13.5t12.5 13.5q0 8 -12 12q-12 2 -13 -12zM318.5 1032q-3.5 12 13.5 12q14 0 12 -12q-4 -12 -12 -12q-10 0 -13.5 12zM344 369q53 39 86 100.5t62 120.5q-53 -37 -89 -99.5t-59 -121.5zM489 479q0 -2 1.5 -6t1.5 -6q6 2 14 10t10 15l1 5q1 5 1 7t-1 6t-1 6 q-6 -2 -14 -10t-10 -14l-2 -6q-1 -5 -1 -7zM594 639q0 -25 20 -25t21 25q-1 25 -21 25t-20 -25zM637 750q0 -2 1 -6.5t1 -6.5q20 12 30.5 33t18.5 41q-8 -6 -25.5 -23.5t-23.5 -25.5l-1 -5q-1 -5 -1 -7zM883 233q0 -6 1 -18t1 -18q25 6 25.5 31.5t0.5 41.5q0 6 -1 24.5 t-1 24.5q-20 -23 -23 -40t-3 -46zM1036 934q1 24 21 24t20 -24q0 -25 -20 -25t-21 25z" />
<glyph unicode="{" horiz-adv-x="585" d="M-41 946q0 -6 2 -6t4 -6q2 -2 10.5 -8t16.5 -14.5t15 -16.5t7 -10v-27v-47v-47q0 -23 14.5 -40t24.5 -28q14 -10 9 -12t-5 -16q0 -94 1 -143.5t3 -84t3.5 -72.5t1.5 -110q0 -49 -3.5 -80t-23.5 -80q-37 10 -52.5 -9t-15.5 -62q0 -4 1 -17.5t3 -19.5q45 29 108.5 38 t102.5 -1q35 -10 74 -30t80 -38t82 -32.5t82 -14.5q0 35 -17.5 62.5t-17.5 64.5l-125 12l-35 47q-10 76 -30.5 144.5t-20.5 146.5q0 27 3 101.5t11.5 157.5t23.5 151.5t38 85.5q31 16 60.5 26.5t57 20.5t53 27.5t50.5 48.5q-8 0 -30.5 1t-30.5 1q-68 0 -133.5 -10.5 t-131 -21.5t-133 -21.5t-137.5 -10.5zM186 197v49q31 -16 31 -49h-31z" />
<glyph unicode="|" horiz-adv-x="331" d="M27 1120l79 -104q-2 -12 -4 -48t-4 -83t-4 -99.5t-3 -98.5t-2 -79t-1 -39q0 -35 3 -106.5t4 -159.5t-2 -184t-15 -178q-14 -4 -15 -37v-43h-26l182 -13q8 0 11 7.5t8 7.5q-10 18 -8.5 31.5t6 21.5t8.5 12t0 6h-2q-6 -4 -8.5 11.5t-8.5 21.5q6 117 10.5 249t9.5 260 t10 245t12 207t17.5 144t24.5 56l-30 23q-8 -4 -46 -4h-65q-18 0 -26.5 3t-13.5 8t-10 8t-16 3l-6 -2q-2 -2 -11 -14t-13 -12q-14 -8 -19.5 -11.5t-25.5 -9.5z" />
<glyph unicode="}" horiz-adv-x="585" d="M-39 1008q8 0 30.5 1t31.5 1q68 0 133 -10.5t130.5 -21.5t132 -21.5t138.5 -10.5q0 -6 -2 -6t-4 -6q-2 -2 -10.5 -8t-16.5 -14.5t-15 -16.5t-7 -10v-27v-47v-47q0 -23 -14.5 -40t-24.5 -28q-8 -4 -9 -7t0 -5l3 -6t2 -10q0 -94 -1 -143.5t-3 -84t-3 -72.5t-1 -110 q0 -49 3 -80t23 -80q37 10 52.5 -9t15.5 -62q0 -4 -1 -17.5t-3 -19.5q-45 29 -108.5 38t-102.5 -1q-35 -10 -74 -30t-80 -38t-83 -32.5t-81 -14.5q0 35 17.5 62.5t17.5 64.5l125 12l35 47q10 76 30.5 144.5t20.5 146.5q0 27 -3 101.5t-11 157.5t-23.5 151.5t-38.5 85.5 q-31 16 -60.5 26.5t-57 20.5t-53 27.5t-50.5 48.5zM299 197h31v49q-31 -16 -31 -49z" />
<glyph unicode="~" horiz-adv-x="942" d="M-1 344q1 2 16.5 5t19.5 3q14 -4 38.5 26t67.5 77t108.5 106.5t160.5 114.5v-8q-2 -2 -12 -10l-9 -7q0 -16 21 -37q51 -16 73 -32v6q14 -20 27.5 -40t28.5 -36q0 -4 2 -4l65 -2l111 110l92 37q39 4 56.5 2t20.5 -7t-2 -9t-10 -4q-37 -29 -81.5 -71t-86.5 -83t-75 -74.5 t-45 -48.5l-4 -2q20 -10 18 -20t-17.5 -17.5t-39 -10.5t-43.5 1v8l6 6l14 11q0 12 -20 39q-12 2 -34 19.5t-47.5 38t-55 35.5t-60.5 15l-188 -110v-13q-72 -12 -94.5 -14t-21.5 0zM41 262q0 -14 12.5 -12t12.5 12q-1 8 -13 12q-12 8 -12 -12zM332 524q0 -10 10 -10 q-2 2 -3 6t-7 6v-2zM565 475q2 -6 5 -10t8 -8v6q0 2 -13 12zM692 471l25 25h-25v-25zM698 446q0 -25 19 -24q20 0 20 24q0 25 -20 25q-18 0 -19 -25z" />
<glyph horiz-adv-x="421" />
<glyph unicode="&#xa1;" horiz-adv-x="649" d="M14 430q-4 37 2.5 79t6.5 71q0 2 1 6t1 6l63 8h12h13q8 -6 26.5 -21.5t22.5 -21.5q33 -6 77 6t80.5 18.5t57 -9t6.5 -78.5q-27 -61 -36 -90t-10 -51.5t3 -52.5t4 -95q0 -45 17.5 -66.5t43 -32t55 -15.5t55.5 -14t43 -29.5t17 -61.5q-6 0 -29.5 1t-29.5 3q-8 2 -41 9 t-69.5 15.5t-69.5 13.5t-41 5q-2 0 -29.5 -9.5t-44.5 -13.5q-6 0 -24.5 -10t-24.5 -10t-16.5 5t-22.5 13t-22.5 14.5t-12.5 10.5q-43 12 -53 39.5t-4 69.5t17.5 94.5t11.5 111.5q0 14 -2 26.5t-2 33.5q0 16 -1.5 27t-1.5 16l-24 20zM66 907q0 41 34.5 64.5t71.5 40.5h2 q4 0 25.5 -3t45 -8.5t43 -10.5t21.5 -7q6 -10 9.5 -20.5t17.5 -18.5v-8v-18v-9q0 -49 -21.5 -75.5t-72.5 -42.5l-13.5 -4.5t-9.5 -2.5q-66 0 -109.5 33t-43.5 90zM113 899h10v27q-10 -8 -10 -27zM125 979h10v4zM135 823q0 -8 2 -8q10 0 10 8t-10 8q-2 0 -2 -8zM137 813h10v2 zM174 238q0 -5 12 -13q12 -4 13 13q0 16 -12.5 13t-12.5 -13zM184 508q0 -53 2 -92t25 -92q2 8 7 22t8 28.5t6.5 28t3.5 19.5q0 8 -3.5 27.5t-6.5 43t-8 44t-7 32.5q-2 6 -10 14.5t-15 10.5q0 -10 -1 -43t-1 -43zM274 909q6 -4 7 4q0 4 -3 2l-4 -2v-4zM274 934q6 0 7 2 q0 2 -2 2q-4 0 -5 -2v-2zM279 950q0 -6 4 -6q8 0 8 6t-8 6q-4 0 -4 -6zM285 973q0 -6 6 -6t6 6t-6 6t-6 -6zM287 924q0 -17 4 -19q2 -4 2 4v15q0 20 -2 20q-4 -2 -4 -20zM315 864q2 0 2 4v2q-2 0 -2 -2v-4z" />
<glyph unicode="&#xa2;" horiz-adv-x="1032" d="M23 504q0 -55 26.5 -127t69.5 -140.5t95 -121t105 -66.5q4 -4 18.5 -2t31 6t31 7t18.5 3v-38q0 -8 12 -12.5t30.5 -7.5t40 -5t40.5 -2q-2 -16 -3 -31.5t-6 -32.5q-14 -8 -14 -36v-45h-26l182 -13q8 0 11 7.5t7 7.5q-10 18 -8 31.5t6 22.5t8 13t0 4h-2q-6 -2 -8 12.5 t-8 22.5v27q0 14 4 24q68 23 131.5 57.5t142.5 53.5l7.5 37.5t8.5 60.5t6 60.5t3 37.5q0 6 1 24.5t1 25.5h-27q-31 -127 -94 -180.5t-176 -63.5q4 100 6 204.5t5 203t6.5 186.5t7.5 158q92 -20 150.5 -93t70.5 -170l49 50l4 28q4 29 8 68t7.5 80t5.5 69v13q0 10 1 21t1 26 v80q0 31 -27 57q0 -6 -3 -21.5t-9 -32t-17.5 -28.5t-27.5 -12q0 -41 -27 -59.5t-63 -18.5q-31 0 -59.5 5t-59.5 9q6 55 14 89t21 36l-31 23q-8 -2 -45 -2h-66q-18 0 -26.5 3t-13.5 8t-10 8t-15 3l-6 -2q-2 -4 -11.5 -16.5t-13.5 -12.5q-14 -6 -19.5 -10t-25.5 -8l80 -106v-3 q-98 -8 -201.5 -38.5t-175.5 -83.5q6 -10 -16.5 -49t-52 -89.5t-55 -103.5t-25.5 -90zM98 762l25 24h-25v-24zM120 373.5q-1 21.5 0 43.5t1 36q0 57 1 107t25 104v-369q-14 14 -20 35.5t-7 43zM201 811q0 25 20 25t21 -25q0 -25 -21 -25q-20 0 -20 25zM262 172q0 16 5 41 t28 33q6 -6 14 -24.5t10 -24.5q4 -16 5 -25h-62zM343 123q-3 12 13 12q15 0 13 -12q-4 -12 -13 -12q-10 0 -13 12zM344 518q0 51 13.5 104.5t39 99.5t62.5 83t84 57v-92v-94v-76v-37q0 -27 1 -74t3 -105t3 -126t-1 -137q-74 6 -115 45t-61.5 95t-24.5 123.5t-4 133.5z M913 762q1 24 21 24t20 -24q0 -25 -20 -25t-21 25zM963 541q0 -25 20 -25t21 25q-1 24 -21 24t-20 -24z" />
<glyph unicode="&#xa3;" horiz-adv-x="983" d="M8 961q16 -2 53 -6.5t74 -13.5t65.5 -27.5t28.5 -51.5v-41q0 -29 1 -62.5t1 -62.5v-43q0 -74 -7 -136t-18 -120.5t-24.5 -119t-25.5 -127.5l-50 24v-24l-24 -74v-13q0 -29 21.5 -33.5t41.5 -4.5q29 0 51.5 12t43 27.5t44 28.5t56.5 13q6 0 29.5 -2t31.5 -4l-24 -49h12 q59 0 111.5 13.5t122.5 13.5h26q23 0 46.5 -1t43.5 -1h31q20 -16 33.5 -38t27 -40t33 -31.5t54.5 -13.5q14 72 20 124t6 111v84v31q0 20 -1 44t-1 46v27q-6 25 -28.5 25.5t-39.5 0.5q-23 0 -40 -34.5t-29 -80.5t-20.5 -91t-14.5 -66h-22q-16 0 -34 -1t-34 -1h-21 q-25 0 -51 -1t-51 3t-46.5 15.5t-35.5 33.5q-2 12 -6 40t-8 59.5t-7 59.5t-3 38v26q0 47 45 48q66 0 93 -11.5t34.5 -30t3.5 -38t-1 -38t22.5 -29.5t72.5 -11v379l-25 49l-37 -25v74q-4 -6 -17 -42t-31.5 -76t-38 -71.5t-35.5 -31.5q-70 0 -92.5 37t-22.5 88v71q0 12 1 36 t4 48.5t8 43t16 20.5l221 49l-25 25h-541q-16 0 -51 -13t-47 -36zM12 1034q1 -24 21 -24q18 0 18 24q0 25 -18 25q-20 0 -21 -25zM266 420q0 23 3 39t10 10q12 -12 12 -49q0 -33 -12 -49q-6 -4 -9.5 11t-3.5 38zM340 555q0 25 3 47.5t9 13.5q4 -8 6 -24.5t2 -36.5t-2 -36.5 t-6 -24.5q-6 -8 -9 12t-3 49zM856 371q0 23 3 39t9 10q12 -12 13 -49q-1 -33 -13 -49q-6 -4 -9 11t-3 38z" />
<glyph unicode="&#xa4;" horiz-adv-x="1191" d="M-74 49q0 18 42 28.5t97.5 25t110.5 35t82 59.5q14 16 41 57q-20 33 -32.5 76t-18.5 83t-8 72.5t-2 46.5q0 43 19 100.5t67 104.5q-10 20 -20.5 38t-20.5 36h-25q-6 -2 -21.5 -9t-25.5 -14q8 10 15 24.5t7 23.5q0 31 -34.5 45t-76.5 23t-77 22.5t-35 44.5q0 23 23.5 39 t53.5 26.5t58.5 15.5t38.5 5q2 0 11.5 -4t19.5 -10.5t19.5 -14.5t9.5 -16q-43 0 -82 -4t-76 -25q127 -16 257 -23.5t259 -1.5q-10 -18 -26.5 -23t-33 -8t-28.5 -11.5t-12 -28.5q0 -14 26 -68q10 2 33 2q53 0 95 -9t77 -26q4 10 8 17.5t9 15.5q18 23 24 41q8 16 -3 39l-11 23 h-84v36q0 2 13 6.5t32.5 8.5t41 7t36.5 3h16q16 0 39 1t45 1h62q20 0 40.5 -1t40.5 -1h27q6 0 24.5 -9t24.5 -16l1 -5t1 -7t-1 -6t-1 -6q-92 -55 -169 -94t-142 -103q33 -31 53.5 -67.5t33.5 -74.5t21.5 -74t16.5 -62v121q4 -10 7 -33t6 -48.5t4 -49t1 -31.5 q0 -10 -25.5 -46t-60.5 -77q25 -18 50.5 -35.5t47 -38t35 -48.5t13.5 -67h-54q-16 0 -31.5 -2t-29.5 -6h2q20 0 21 -24q0 -25 -21 -25q-20 0 -20 25q0 12 8 20q-25 -8 -41.5 -24.5t-20.5 -44.5q-2 14 -13 19t-24.5 7t-27 1t-19.5 -1q-49 0 -89 -14t-87 -14q0 27 13.5 44 t34 28t44 17.5t45.5 10.5q-6 16 -13 29.5t-19 27.5h-95q0 -4 5 -8q4 -16 4 -25h-29q-2 0 -8 9.5t-15 23.5h-112q-14 0 -35 4q-16 -29 -30.5 -52t-20.5 -34h131q0 -6 -3 -12t-5 -12q-4 -4 -14.5 -15.5t-21.5 -22.5t-22.5 -21.5t-15.5 -14.5v49h-455zM238 762q0 24 20 24 t21 -24q0 -25 -21 -25q-20 0 -20 25zM406 504q0 -10 2 -37t10 -55.5t26.5 -50t49.5 -21.5h157q8 0 25.5 15.5t36 34t32 36.5t13.5 25q0 10 -3 37.5t-7 37.5v-57q-6 20 -13.5 49t-26 55.5t-52 45t-91.5 18.5q-47 0 -77.5 -14.5t-49 -35t-25.5 -43t-7 -40.5zM410 909 q0 -25 20 -24h4q0 -25 21 -25q20 0 20 25t-20 24h-4q0 25 -21 25q-20 0 -20 -25zM434 885q16 4 17 24q-17 -4 -17 -24zM827 172q0 -25 21 -25q20 0 20 25t-20 25t-21 -25zM1044 39v59h50q10 -2 37.5 -10t35.5 -14q0 -6 -9 -15.5t-15 -9.5t-20.5 -2t-30 -4t-28.5 -3t-20 -1z M1118 1007.5q-4 12.5 12 12.5q15 0 13 -12q-4 -12 -13 -13q-8 0 -12 12.5z" />
<glyph unicode="&#xa5;" horiz-adv-x="1116" d="M-20 1008q8 -43 31.5 -59.5t53 -26t59.5 -20.5t52 -42q6 -8 28.5 -43t50.5 -78t53.5 -86t39.5 -63q4 -8 11.5 -17.5t11.5 -19.5q-33 0 -66 1t-59.5 5t-43 12.5t-18.5 20.5l-24 -23q2 -6 3 -25.5t3 -44t3 -48t1 -35.5l2 -6q2 -2 4 -2q4 0 5 -1l1 -1q8 -10 11.5 -14.5 t7.5 -14.5l133 41l-19 16q0 6 31 6h84q16 -39 28.5 -74.5t12.5 -58.5v-12h-61q-37 0 -75 1t-71 4t-54.5 11t-23.5 23l-24 -23q2 -6 4 -26.5t3 -45t2 -48t1 -35.5l2 -6h8q2 0 2 -5q8 -8 11.5 -11t9.5 -19l131 43l-19 18q0 4 31 4q16 0 43 1t72 -1q0 -12 -2 -18t-4 -10 l-285 -189q8 0 34.5 -1t57.5 -3t57.5 -3t36.5 -1q16 0 42 -3t49.5 -7t40 -8.5t16.5 -6.5v-24l24 49h168q-14 -2 -14 -25q0 -25 18 -24q20 0 21 24q0 20 -14 25h141q8 -20 21.5 -23.5t27.5 -3.5q6 0 14.5 1t10.5 1q-4 33 -24.5 58.5t-48.5 44t-60.5 29t-63.5 16.5 q0 8 -1 30.5t-5 51.5q18 -2 34.5 -3t39.5 -5q4 -10 19 -9.5t36 0.5h31l37 7l-7 161v4q0 4 -7 6.5t-7 6.5q-23 -8 -35 -14.5t-17 -11.5t-6 -9t-1 -6q2 -4 -15 -4q-14 0 -22 -4l-92 6v22q0 16 1 49t3 62q18 -2 36.5 -3t41.5 -5q6 -6 21 -7.5t36 -1.5h29l36 7l-4 161v4 q0 4 -8 6.5t-8 8.5q-45 -16 -50 -26.5t-7 -16.5q2 -4 -15 -4q-14 0 -22 -2l-37 2q14 25 31.5 51t35 53t33 51.5t27.5 41t26.5 40t30 45t32.5 36.5t34 15v-14l123 74v24q0 2 -22.5 5.5t-53.5 6.5t-64.5 6t-56.5 7h-14q-10 0 -25.5 1t-32.5 1h-26h-21q-12 0 -27.5 -1t-29.5 -1 h-21q-61 -35 -61 -102q20 0 33.5 3t25 7t24.5 7t36 3q0 -10 -3 -19.5t-4 -17.5t3 -15t20 -13l-98 -148q-6 -12 -14.5 -29.5t-17.5 -33t-22.5 -26.5t-31.5 -11q-2 0 -5 1t-8 1q6 2 14.5 10t10.5 14l2 6q2 5 2 7t-2 6t-2 6l-49 -25q-16 29 -34.5 63t-33 69.5t-23.5 71.5t-9 69 q0 16 9 26.5t20.5 18.5t20.5 17t9 24q-6 0 -20.5 1t-32 3t-32.5 4t-22 2q-2 0 -11 12.5t-13 12.5t-23.5 -11.5t-25.5 -13.5h-21q-55 0 -90 7t-62.5 19.5t-55 31t-66.5 40.5v-24q4 -6 12 -24.5t12 -24.5h-122zM330 1081q0 -25 18 -24q20 0 21 24q-1 25 -21 25q-18 0 -18 -25z M360 1044q0 -16 12.5 -12t12.5 12q0 9 -12 13t-13 -13zM432 256v2h2q6 6 14.5 10t20.5 11v-13q-21 -10 -35 -10h-2zM674 545q8 12 22.5 25.5t20.5 19.5q0 -2 2 -6t2 -6t-2 -8l-2 -5q-4 -8 -17 -20h-26zM766 713l49 73v-24q-4 -10 -11 -28.5t-13 -20.5l-5 -1q-4 -1 -8 -1 q-2 0 -5 1t-7 1z" />
<glyph unicode="&#xa6;" horiz-adv-x="331" d="M14 1073l80 -104q-4 -18 -5 -79t-1 -128v-125v-68q0 -35 3 -106.5t4 -159.5t-2 -184t-15 -178q-14 -4 -15 -37v-43h-26l182 -13q8 0 11 7.5t8 7.5q-10 18 -8.5 31.5t6 21.5t8.5 12t0 6h-2q-6 -4 -8.5 11.5t-8.5 21.5q6 117 9.5 245t6.5 251t7 234.5t10 195.5t15.5 135 t23.5 53l-31 23q-8 -2 -45 -2h-65q-18 0 -26.5 3t-13.5 7t-10.5 7t-15.5 3l-6 -2q-2 -2 -11.5 -14t-13.5 -12q-14 -8 -19 -11.5t-26 -9.5z" />
<glyph unicode="&#xa7;" horiz-adv-x="1191" d="M-113 -37q0 18 48.5 42t111 53.5t123.5 64.5t88 74q14 16 41 57q-20 33 -32.5 76t-18.5 83t-8 72.5t-2 46.5q0 43 19 100.5t67 104.5q14 14 35.5 31.5t49 31t58.5 20.5t61 -1q8 -4 15.5 -1t17.5 3q53 0 95 -9t77 -26q4 10 8 17.5t9 15.5q18 23 24 41q4 10 12.5 40 t14.5 52.5t6 26.5h-84v37q0 2 13.5 6t32.5 8t40.5 7t36.5 3h16q16 0 39 1t45 1h62q20 0 39.5 -1t42.5 -1h26q4 0 23.5 -10t25.5 -14l1 -5t1 -7v-9q0 -4 -2 -4q-68 -23 -117 -55.5t-86.5 -69.5t-69.5 -74.5t-65 -68.5q33 -31 51.5 -65.5t27.5 -69.5t13.5 -69t12.5 -60v121 q4 -10 7 -33t6 -48.5t4 -49t1 -31.5q0 -6 -8 -29.5t-22.5 -53.5t-35 -56.5t-44.5 -34.5l-172 -64h-95q0 -4 5 -8q4 -16 4 -25h-29q-2 0 -8 9.5t-15 23.5h-112q-14 0 -35 4q-8 -14 -22.5 -40.5t-29 -54.5t-25.5 -49.5t-13 -27.5h129q0 -6 -2 -12l-4 -12q-4 -4 -14.5 -15.5 t-21.5 -22.5t-22.5 -21.5t-15.5 -14.5v49h-455zM406 504q0 -10 2 -37t10 -55.5t26.5 -50t49.5 -21.5h157q8 0 25.5 15.5t36 34t32 36.5t13.5 25q0 10 -3 37.5t-7 37.5v-57q-6 20 -13.5 49t-26 55.5t-52 45t-91.5 18.5q-47 0 -77.5 -14.5t-49 -35t-25.5 -43t-7 -40.5z M1165.5 1065q-4.5 12 12.5 12q16 0 12 -12t-12 -12t-12.5 12z" />
<glyph unicode="&#xa8;" horiz-adv-x="759" d="M41 944q16 -8 19 -18.5t10 -20.5q2 -4 21.5 -9t43 -9t45 -8.5t25.5 -4.5h2q37 16 70.5 40t33.5 67q0 57 -43 90t-108 33q-2 0 -9.5 -3t-13.5 -5q-51 -16 -73.5 -42t-22.5 -75v-8v-21v-6zM61 1018v2q0 2 2 2v-2q0 -2 -2 -2zM82 913q0 9 6 9t6 -9q0 -4 -6 -4t-6 4zM86 963 v16q0 6 2 4t2 -20q0 -16 -2 -19q-2 0 -2 19zM88 936q0 8 8 8q4 0 4 -8q0 -4 -4 -4q-8 0 -8 4zM98 950q0 4 4 4v-4q0 -2 -2 -2t-2 2zM98 973q0 10 4 6v-6l-2 -1t-2 1zM231 1065q1 6 11 6q2 0 2 -6q0 -8 -2 -8q-10 0 -11 8zM231 1071v2h11zM244 905v4h10zM256 961v26h10 q0 -10 -3 -15t-7 -11zM453 944q14 -8 17 -18.5t9 -20.5q2 -4 22.5 -9t44 -9t44 -8.5t24.5 -4.5h2q37 16 72 40t35 67q0 57 -44 90t-110 33q-2 0 -9 -3t-11 -5q-53 -16 -74.5 -42t-21.5 -75v-8v-21v-6zM471 1018v2q0 2 4 2v-2q0 -2 -4 -2zM492 913q0 9 8 9q4 0 4 -9 q0 -4 -4 -4q-8 0 -8 4zM496 963v16q0 6 4 4q2 -2 2 -20q0 -16 -2 -19q-4 0 -4 19zM500 936q0 8 6 8t6 -8q0 -4 -6 -4t-6 4zM508 950q0 4 6 4v-4q0 -2 -2 -2q-4 0 -4 2zM508 973q0 12 6 6v-6l-3 -1q-3 -1 -3 1zM641 1065q0 6 10 6q2 0 2 -6q0 -8 -2 -8q-10 0 -10 8zM641 1071 v2h10zM653 905v4h11zM666 961v26h10q0 -16 -10 -26z" />
<glyph unicode="&#xa9;" horiz-adv-x="2840" d="M8 618l19 -81l211 -80l-113 -80q2 -61 59 -62l295 -49l-53 -47v-61l475 -35l-8 -78l53 -31l455 62l2 -92l57 -21l344 160l115 -94l94 16l172 174q63 -29 107.5 -46t81.5 -17q45 0 69 30l15 191l182 -33q53 14 53 72v12q0 14 -4 14l-111 123h162l33 66q2 4 2 6v2 q0 45 -246 119q129 12 129 92l-2 10q0 10 -4 10l-368 84q78 12 73 90l-39 35h-438l12 97l-131 14l-362 -64l-19 13l17 51l-70 47l-330 -143l-170 96q-41 -18 -91 -63.5t-118 -122.5l-204 55h-17q-41 0 -60.5 -52.5t-14.5 -168.5l-213 18l-19 -98l115 -109zM61 586l238 14 l-131 145l-21 64l236 -14l31 221q121 -74 180 -74q14 0 43 12l194 185l150 -95l324 146l38 -14l21 -97l477 60l-37 -107h496l-139 -100l422 -76l18 -31h-18l-183 -51l299 -125l25 -31l-240 -18q80 -74 118 -121t38 -71q2 -12 -2 -13l-244 33l-6 -227l-240 65l-178 -190 l-168 94l-362 -156l14 62l-55 63l-455 -78l51 109l-516 16l146 95l-443 86l197 75zM471 432l74 25l8 276l-61 -12zM592 563q0 -23 2 -22q37 -125 129 -125q10 0 63 12v47q-37 -6 -65 -6q-68 0 -68 51q-2 70 43 119q39 39 82 39q12 0 20.5 -1t20.5 -9l2 67 q-236 -27 -229 -157v-15zM856 483q18 -45 111 -45q12 0 26.5 1t28.5 3q92 0 117 197q-33 90 -133 90h-23h-14q-119 -68 -113 -246zM911 563v15q37 90 97 90q39 0 59 -39q10 -4 11 -12.5t3 -18.5q0 -43 -26 -84q-43 -20 -86 -20q-25 0 -40.5 15t-17.5 54zM1169 717l21 -285 l51 10l-8 136q125 -136 203 -136l-11 275l-53 16l-6 -196zM1497 451l72 18l12 276l-61 -12zM1630 463h64q41 70 80 69q39 0 77 -69l43 -10l-12 209q-20 88 -90 88q-10 0 -19.5 -2.5t-23.5 -2.5q-53 -72 -84 -142.5t-35 -139.5zM1722 590l64 94l43 -94h-107zM1937 729 l19 -278l47 2l-4 137q121 -137 199 -137l-11 276l-57 16l-4 -194zM2249 422l41 -31l47 41l-49 21zM2273 532l54 -12l28 209l-80 16z" />
<glyph unicode="&#xaa;" horiz-adv-x="696" d="M-39 539h27q23 0 26.5 7t20.5 7q10 0 23.5 -12.5t23.5 -14.5h6h8l121 13h12q10 0 19.5 2t9.5 16t-11 19.5t-23.5 8.5t-24 8t-11.5 19v6q4 10 14.5 35t14.5 35q6 -2 21.5 -4t32 -4t31.5 -4t22 -2q4 0 20 -3t32.5 -10.5t27 -17.5t2.5 -25l-54 -106l5 -5t10 -7h6q25 0 39 13 t34 13q18 0 20.5 -15t20.5 -15t26.5 9t35.5 9q23 0 43 -7t45 -7h12q4 0 20.5 4t20.5 8l-53 41v12l-70 82q8 10 -4 20.5t-28.5 20.5t-32 21.5t-15.5 25.5v6l15 29v6q0 8 -11.5 18.5t-23.5 22.5t-23.5 29.5t-11.5 42.5q0 23 7 30t7 25v14q-41 4 -53 19.5t-16 36t-12.5 45 t-40.5 47.5l-4 1q-5 1 -9 1t-8 -1t-6 -1q4 -2 8 -12.5t6 -14.5v-6q0 -29 -7 -45t-16 -30.5t-17.5 -29t-12.5 -36.5q0 -4 6 -14.5t6 -12.5t-4 -9t-8 -14.5t-9 -13.5l-5 -6q-6 -10 -13.5 -30.5t-15.5 -43t-18.5 -41t-20.5 -20.5q-6 0 -19.5 -2t-27.5 -4t-27.5 -4t-19.5 -2 q10 -10 16 -25.5t17 -15.5h8l27 14v-2h2q0 -66 -21.5 -84t-51.5 -20t-62.5 -5.5t-55.5 -37.5zM69 674q3 -6 7 -6q6 0 6 6q2 6 -8 6q-8 0 -5 -6zM123 580.5q-2 7.5 8 7.5q4 0 5 -3t-1 -5q0 -6 -4 -7q-6 0 -8 7.5zM231 727q8 35 22.5 69t43.5 54q29 -16 45 -52t16 -71h-127z M381 1024q0 -12 12 -12q10 0 10 12q0 16 -10 16q-12 0 -12 -16zM432 553v12l14 -12h-14zM514 662v6v6q4 0 8 -5t6 -7v-9v-6q-4 2 -8 6t-6 9zM530 635q1 12 11 12q12 0 12 -12q0 -16 -12 -17q-10 0 -11 17zM549 612q0 12 6 6q8 0 8 -6q0 -4 -7 -6t-7 6zM555 457h39v14z M557 592q0 14 10 14q12 0 13 -14q0 -12 -13 -12q-10 0 -10 12zM573 580q1 12 9 12q10 0 10 -12q0 -14 -10 -15q-8 0 -9 15z" />
<glyph unicode="&#xab;" horiz-adv-x="815" d="M25 453.5q-2 -23.5 2 -47.5h2h6q2 2 6 7l12 15q6 0 23.5 -10t36 -25.5t32 -32t13.5 -28.5h-31q31 -27 64.5 -49.5t68.5 -47t66.5 -56.5t56.5 -77q-4 133 -20.5 195.5t-38 90.5t-44 35t-36.5 30l-2 71l114 197h15q12 74 14 99.5t1 24.5t-5 -16.5t-4 -19.5 q-147 -197 -301 -317q-12 20 -22.5 18t-18.5 -17.5t-10 -39zM156 475q0 14 8 14q10 0 10 -14q0 -18 -10 -18q-8 0 -8 18zM184 475q0 14 9 14q12 0 12 -14q0 -18 -12 -18q-8 0 -9 18zM224 320.5q1 11.5 7 11.5l7 -13q0 -10 -7 -10q-8 0 -7 11.5zM401 463.5q-2 -23.5 2 -47.5 h3h4q4 2 8 7l12 15q6 0 22.5 -10t35 -25.5t31.5 -32t13 -28.5h-28q29 -27 63.5 -49.5t68.5 -47t66.5 -56t57.5 -76.5q-4 133 -20.5 195.5t-38 90t-44 34.5t-39.5 30l-2 69l117 197h15q12 76 14 100.5t0 24.5t-6 -15.5t-4 -19.5q-74 -98 -148 -178t-151 -139q-12 20 -23.5 18 t-19 -17.5t-9.5 -39zM530 483q0 16 11 17q10 -1 10 -17t-10 -16t-11 16zM561 483q0 16 6 17q13 -1 13 -17t-13 -16q-6 0 -6 16zM601 330.5q1 11.5 5 11.5l8 -12q0 -10 -8 -11q-6 0 -5 11.5z" />
<glyph unicode="&#xac;" horiz-adv-x="1114" d="M29 598l22 31q4 -23 22.5 -36t48.5 -19.5t65.5 -8.5t72.5 -2l451 6h22q12 0 17 -2l198 -24q8 6 22.5 8t12.5 6q2 8 9 26.5t50 41.5q0 -6 7.5 -9.5t7.5 -11.5v-2l-21 -512l-14 -27l-121 7q-6 0 -5 33.5t6 79.5t10.5 94.5t5.5 74.5q0 39 -17 56q-111 18 -227.5 19t-217 -6 t-170 -16.5t-87.5 -9.5q-29 0 -29 -6l-133 -24q0 20 -2 53t-2 69v66q0 37 -4 45zM281 508h2q12 0 57 29l-6 14q-37 -20 -51 -39h-2v-4z" />
<glyph unicode="&#xad;" horiz-adv-x="634" d="M29 598l22 31q4 -23 22.5 -36t48.5 -19.5t65.5 -8.5t72.5 -2l131 2h23q12 0 16 -2l16 -14q8 4 22.5 6t12.5 8q2 8 9.5 25.5t50.5 40.5q0 -4 7 -8.5t7 -10.5v-4v-248l-14 -26h-27q-20 0 -34.5 1t-20.5 13q-84 14 -130 23.5t-69.5 15.5t-31 8t-11.5 2h-18q-29 0 -29 -6 l18 -29l-104 -77q-6 20 -9 25l-12 20q0 4 -12 12t-14 12l-2 6q0 20 -1 56.5t-1 72.5v66q0 37 -4 45zM281 508h2q12 0 57 29l-6 14q-37 -20 -51 -39h-2v-4z" />
<glyph unicode="&#xae;" horiz-adv-x="2600" d="M20 365l95 36l4 455l-80 -20zM176 567q0 -4 2 -12t6 -18q43 -205 172 -205q20 0 40 2t42 20v76q-12 -4 -32.5 -7t-51.5 -3q-92 0 -96 92q0 49 11.5 94t45.5 86q49 68 111 68q27 0 45 -10l8 114q-309 -55 -303 -266v-31zM526 446q33 -80 152 -79q18 0 33.5 2t36.5 8 q59 0 100 77.5t53 237.5q-41 164 -184 164h-17q-4 0 -24 -10q-162 -113 -150 -400zM606 600q49 145 123 145q41 0 84 -61q6 -12 10 -25.5t4 -29.5q0 -31 -4 -65t-26 -64q-72 -47 -117 -47q-37 0 -52.5 29.5t-17.5 82.5zM944 825l29 -460l63 12l-6 223q164 -223 275 -223 l-17 450l-80 29v-319zM1386 383l99 33l6 454l-80 -14zM1559 416h90q53 98 104 98q59 0 105 -98l49 -21l-17 340q-31 150 -116 150q-31 0 -54 -17q-76 -115 -116.5 -226.5t-44.5 -225.5zM1683 618l82 154l58 -154h-140zM1968 846l23 -463l63 12l-10 223q90 -121 155.5 -175 t118.5 -54l-16 457l-68 24l-10 -317zM2380 348l57 -55l72 72l-68 30zM2419 514l65 -8l43 340l-104 24z" />
<glyph unicode="&#xaf;" d="M33 1067v66q0 16 3 15t1 5q25 -20 86 -15t137 5l131 2h23q12 0 16 -2l199 -25q8 6 22.5 8t12.5 7q2 8 13 14t52 29q0 -6 8 -9.5t8 -11.5v-2l5 -207l-15 -26h-26q-23 0 -36.5 1t-19.5 13q-111 18 -188.5 27.5t-131.5 12.5t-86 2t-48 -1q-29 0 -29 -6l18 -27l-114 -33 q-4 10 -4 13v4l-1 1t-6 7q0 6 -12 1t-14 -3l-2 6q0 23 -1 57.5t-1 71.5zM281 1090h2q16 0 57 26l-6 14q-37 -20 -51 -38h-2v-2z" />
<glyph unicode="&#xb0;" horiz-adv-x="372" d="M57 946q14 -8 17.5 -18t9.5 -21q2 -4 21.5 -9t43 -9t45 -8t25.5 -4h2q37 16 72 39.5t35 66.5q0 57 -44 90t-110 33q-6 0 -22 -8q-51 -16 -73 -42t-22 -75v-8v-19v-8zM76 1020v2q0 2 2 2v-2q0 -2 -2 -2zM96 918q0 6 6 6t7 -6q0 -6 -7 -7q-6 0 -6 7zM100 967v14q0 6 2 4 q4 -2 4 -18q0 -18 -4 -21q-2 0 -2 21zM102 938q1 8 9 8q4 0 4 -8q0 -4 -4 -4q-8 0 -9 4zM113 954q0 2 6 2v-2q0 -4 -4 -4q-2 0 -2 4zM113 975q0 8 6 6v-6l-3 -1t-3 1zM246 1067q0 6 10 6q2 0 2 -6q0 -8 -2 -8q-10 0 -10 8zM246 1073v4h10zM258 907v4h10zM270 963v28h11 q0 -18 -11 -28z" />
<glyph unicode="&#xb1;" horiz-adv-x="788" d="M25 270l22 29q4 -20 22.5 -32.5t48 -18.5t65.5 -8t73 -2l129 4h23q12 0 18 -4l199 -21q8 4 22.5 6t11.5 8q2 4 9.5 20.5t48.5 39.5q0 -4 8 -7t8 -12v-2v-229l-16 -25h-27q-20 0 -34.5 1t-18.5 16q-111 16 -187.5 26.5t-128 16.5t-81 8t-45.5 2q-31 0 -31 -8l20 -25 l-106 -69q-4 18 -7 23t-12 16q0 4 -12 11t-14 11l-4 6q0 18 -1 51t-1 68v61q0 31 -2 39zM35 788l22 31q2 -20 21.5 -32.5t48.5 -18.5t64.5 -8t74.5 -2h58q4 25 5 41t1 26q0 27 -6 27l34 6l-77 98q20 4 25 6.5t18 10.5q6 0 14 11t10 13l8 2q10 0 14.5 -3t9.5 -6t13 -6t27 -3 h67h27q12 0 16 2l33 -22q-23 -2 -36 -19.5t-20 -43.5t-9 -59.5t-2 -66.5v-22l139 -15q6 4 21.5 6t11.5 7q4 8 11 24t48 37q0 -6 7 -9t7 -9v-230l-14 -24h-27h-34t-19 14q-47 4 -84 11t-71 13l-21 -143q6 -8 8 -21.5t8 -9.5h2q4 -2 0 -5t-8 -11t-6 -19.5t8 -29.5q-4 0 -7 -7 t-11 -7l-182 12l-27 12v43q0 10 2 19.5t12 11.5q10 53 17.5 97t15.5 81q-74 6 -98 6q-31 0 -31 -6l21 -25l-107 -71q-4 18 -8 23t-10 16q0 6 -12.5 13t-16.5 9l-2 6q0 18 -1 51t-1 68v60q0 35 -2 40zM274 188h5q4 0 19 7.5t36 17.5l-4 16q-18 -12 -31.5 -19t-19.5 -17h-5v-5 zM283 653h2q4 0 13 3t19 8q2 8 2 20q-10 -10 -19 -16t-15 -13h-2v-2z" />
<glyph unicode="&#xb2;" horiz-adv-x="434" d="M27 721q0 31 6 55.5t24 57.5q14 -8 26.5 1t24 22t22.5 24.5t22 5.5q57 27 88.5 50.5t62.5 72.5v6v6q-27 29 -35 43t-32 14q-41 0 -69 -23.5t-47.5 -53t-31.5 -53t-25 -23.5h-6q-2 25 -4 39t-5 25t-5 25.5t-2 39.5q0 10 1 31.5t24 21.5q16 0 25 -15.5t20 -15.5 q35 0 68.5 13.5t68.5 13.5q59 0 96 -43t37 -100q0 -61 -45 -98.5t-97.5 -65t-90 -55t-23.5 -70.5q4 -8 18.5 -22.5t24.5 -18.5q2 0 11 2t20.5 4t20.5 4t13 2h9h6q0 -2 5 -7t7 -5q39 0 50.5 17.5t15.5 38t12 37.5t43 17q0 -14 5 -21t9 -10t2 -4l-16 -8q2 -6 4 -22.5t4 -33.5 t4 -31.5t2 -20.5v-8v-7l-6 -6t-8 -6l-64 12l-288 -12v123l-1 14q-1 13 -1 21zM344 942q0 -16 10 -16q12 0 13 16q-1 12 -13 12q-10 0 -10 -12z" />
<glyph unicode="&#xb3;" horiz-adv-x="526" d="M29 1079q29 10 70.5 18.5t64.5 8.5q4 0 14 -5t15 -7l180 4q12 -20 30.5 -25.5t36 -9.5t29.5 -16.5t12 -49.5v-6l-26 -43v-4v-8q4 -10 14 -14q-20 -2 -30.5 -16.5t-10.5 -31.5q0 -18 10.5 -27t23.5 -15.5t26.5 -12.5t19.5 -18l-12 -15v-94q-4 12 -15 13l-4 4 q-14 0 -17 -7.5t-3 -17.5t2 -18.5t-4 -14.5q-2 -2 -19.5 -5t-19.5 -7q-8 -6 -15.5 -18.5t-15.5 -20.5l-88 -6q-4 0 -13.5 -11.5t-19.5 -23.5t-22.5 -23.5t-24.5 -11.5v51h8q12 0 26.5 4.5t18.5 14.5h-26q-29 0 -50.5 -7t-50.5 -7q-6 0 -23.5 2t-35.5 7t-32.5 11t-14.5 14 q0 2 1 3t1 6q35 0 51 -4.5t29 10.5q16 -2 32.5 -3t32.5 -1q47 0 82 3t41 3h8t7 4l12 86q2 2 15 32.5t7 53.5q0 2 -8 2h-2v2q2 6 -29 6t-69.5 -2t-73.5 -4t-39 0q-8 4 -10 10t-2 13q0 4 1 9l1 5q80 10 123 19.5t63.5 18.5t25.5 17t9 19h-39q6 6 20.5 21t18.5 20l1 3t1 5 q0 8 -5 20.5t-13 25.5t-18.5 24.5t-18.5 15.5q0 -2 -4 -12.5t-8 -14.5q0 2 13 -2l13 -4h-4q-10 10 -14 26.5t-21 16.5h-8l-86 -14l-22 -29q0 20 -11.5 28.5t-27 10.5t-33 0t-29.5 -2q-16 0 -22 18zM336 1030q0 -12 10 -12q12 0 12 12q0 14 -12 14q-10 0 -10 -14zM360 868h13 q4 2 14 6.5t14 8.5h-12q-4 -2 -14 -6.5t-15 -8.5zM381 674q0 -8 6 -7t6 7q0 4 -8 6q-4 8 -4 -6zM401 705l27 43h-6h-6q-4 -2 -7 -12.5t-8 -14.5v-16z" />
<glyph unicode="&#xb4;" horiz-adv-x="415" d="M35 745q2 -23 14 -33t30.5 -15t39 -8t39.5 -9h2q18 8 53 35.5t69.5 63.5t60.5 71t26 57q0 57 -35 70.5t-101 13.5q-2 0 -9 -3t-13 -5q-51 -16 -73.5 -42t-22.5 -77v-6l-80 -106v-7zM41 727q8 -10 3 -9t-3 9zM41 741q0 9 8 9q4 0 4 -9q0 -4 -4 -4q-8 0 -8 4zM41 750l19 13 q18 13 40.5 31.5t41 35t18.5 20.5v14q0 8 2 6t2 -20q2 -4 -17.5 -20.5t-43 -34t-43.5 -31.5zM51 758q0 2 6 2v-2q0 -4 -4 -4q-2 0 -2 4zM135 905v2q0 2 2 2v-2q0 -2 -2 -2zM172 860q0 12 4 4v-4l-2 -1q-2 -1 -2 1zM197 711v4h10zM303 975q0 8 8 8q4 0 4 -8q0 -6 -4 -6 q-8 0 -8 6zM303 983v2h8zM322 913q0 -10 5 -22t1 -19v27z" />
<glyph unicode="&#xb5;" horiz-adv-x="1107" d="M33 944q0 -2 1 -7l1 -5q10 -23 34.5 -30t49.5 -7q14 0 16 2t0 5t-3 5t5 2l37 -49v-639q2 -2 6 -31.5t9.5 -74.5t10.5 -95.5t10 -95.5t8 -74.5t5 -31.5t10.5 -13.5t15.5 -23.5t14 -23.5t9 -13.5q6 -2 25.5 11.5t24.5 13.5q12 0 16 45t3 99t-4 97t-3 39q14 -4 45 -12 t64.5 -16.5t64.5 -14.5t47 -6q33 0 78 16.5t91 41t87 55t63 59.5q2 14 7.5 49t8.5 74t6 73.5t3 49.5v14q0 29 -13.5 47.5t-13.5 46.5q0 92 2.5 151.5t20.5 101.5t59 76t117 79q6 2 14.5 10t10.5 14q-12 2 -40 7.5t-59.5 8.5t-59.5 6t-38 3h-37h-37l25 -25q-4 0 -23.5 -1 t-25.5 -1q-10 0 -28.5 1t-20.5 1q-4 0 -23.5 12.5t-26.5 12.5q-20 0 -23 -19.5t-3 -31.5q0 -6 1 -14l1 -9q35 -35 49 -35q14 -2 23.5 -1t18.5 -6t21.5 -30.5t34.5 -74.5v-39q0 -29 1 -60.5t1 -60.5v-37q0 -66 1 -150.5t-17 -160.5t-68.5 -128t-150.5 -52q-55 0 -89 43 t-52.5 109.5t-23.5 147.5t-5 156q0 80 4 144.5t4 97.5q0 20 1 53t1 35l74 74l-25 24q-20 0 -69.5 -1t-102.5 -1t-102 1t-70 1q-4 0 -2 11.5t-2 11.5q-8 0 -21.5 -3t-27.5 -7t-27.5 -8.5t-21.5 -6.5q0 -2 -1 -6t-1 -6zM199 381q0 16 12 12t12 -12q0 -10 -12 -13t-12 13z M279 -207q0 25 18 25l20 -25q0 -25 -20 -24q-18 0 -18 24zM283 393q0 23 5 38t21 36v-148q-16 20 -21 35.5t-5 38.5zM291 221q0 25 18 25q20 0 21 -25q0 -25 -21 -24q-18 0 -18 24zM291 516q0 25 18 25q20 0 21 -25q0 -25 -21 -24q-18 0 -18 24zM303 -281q0 -25 19 -24 q2 0 4 26.5t3 67.5t1 90v90v70v35t0 -19v-59v-80q0 -45 -1 -83t-3 -63.5t-4 -25.5q-18 0 -19 -25zM315 197q1 24 19 24q20 0 20 -24q0 -25 -20 -25q-18 0 -19 25zM389 1008q0 -25 19 -25q20 0 20 25q0 24 -20 24q-18 0 -19 -24zM905 909q1 25 19 25q20 0 20 -25t-20 -24 q-18 0 -19 24zM1034 872q0 -16 12.5 -12t12.5 12q0 9 -12 13t-13 -13z" />
<glyph unicode="&#xb6;" horiz-adv-x="1005" d="M-242 -90q0 12 7.5 28.5t23.5 20.5q74 10 116 14t71.5 17.5t58 44.5t74.5 96l49 -25l75 238v25q-6 -6 -24.5 -14.5t-24.5 -10.5h-12h-12q6 6 20.5 23.5t29.5 37t29.5 37t18.5 25.5l1 5t1 7t-1 6t-1 7q-41 16 -83 40.5t-77 55t-56.5 68.5t-21.5 85q0 74 33 120t85 74 t119 41t134.5 20.5t130 14.5t105.5 21q-4 -23 0 -33t13 -13t22 -3h22q104 0 206.5 14.5t213.5 14.5q0 -29 -18.5 -38t-41.5 -16q-8 -4 -32.5 -8t-52 -7t-53 -6t-34.5 -3l-49 -98l-3 -60q-3 -61 -6 -143t-8 -170t-7 -144v-40q0 -47 10 -90.5t10 -92.5q27 0 66 -1t80 -8 t75.5 -21.5t53.5 -40.5h-23q-14 0 -32.5 -1t-32.5 -1h-23q-141 0 -278.5 17t-278.5 17q0 29 23.5 38t52 13.5t52.5 10.5t24 28l24 586l-156 12q-2 0 -3 -28.5t-4 -71.5t-6 -95t-7 -99.5t-9 -84t-11 -47.5l-76 -360q-2 -6 -11.5 -14.5t-13.5 -10.5q-10 0 -33.5 1.5t-52.5 1.5 t-52.5 -1.5t-33.5 -1.5q-12 -2 -28.5 -5t-30 -10t-23.5 -18.5t-10 -27.5h-80l-24 37h-179zM88 57q0 -25 21 -24q18 0 18 24q0 25 -18 25q-20 0 -21 -25zM113 82q0 -25 20 -25q18 0 19 25q-1 24 -19 24q-20 0 -20 -24zM158 156v24h24zM307 492q2 -12 12 -13q10 0 13.5 12.5 t-13.5 12.5q-16 0 -12 -12zM627 909q2 -12 12 -12t13 12.5t-13 12.5q-16 -1 -12 -13zM688 381q0 -10 12.5 -13t12.5 13q-1 14 -13 12q-12 -4 -12 -12zM705 246q0 -25 20 -25t20 25q0 24 -20 24t-20 -24zM705 295q0 -25 20 -25t20 25q0 24 -20 24t-20 -24z" />
<glyph unicode="&#xb7;" horiz-adv-x="323" d="M27 489v7v20v8q0 49 21.5 75t74.5 42q6 2 13 5t9 3q66 0 109 -32.5t43 -90.5q0 -43 -34 -66.5t-70 -39.5h-5q-4 0 -24.5 4t-44 8t-44 9t-22.5 10q-4 10 -7 20t-19 18zM47 563q2 0 2 2v2q-2 0 -2 -2v-2zM66 459q0 -4 8 -4q4 0 4 4q0 8 -4 8q-8 0 -8 -8zM72 508 q0 -18 2 -19q2 2 2 19q0 18 -2 20t-2 -4v-16zM74 481q0 -4 8 -4q4 0 4 4q0 8 -4 8q-8 0 -8 -8zM84 496q0 -2 2 -2t2 2v4q-4 0 -4 -4zM84 518q0 -2 2 -1l2 1v6q-4 4 -4 -6zM217 610q0 -8 8 -8q4 0 4 8q0 6 -4 6q-8 0 -8 -6zM217 616l8 2h-8v-2zM229 451l9 4h-9v-4zM242 506 q8 10 8 26h-8v-26z" />
<glyph unicode="&#xb8;" horiz-adv-x="245" d="M-324 -322q0 8 29 23q55 29 94 46t64.5 26.5t43 12.5t30.5 3l51 -6h14l45 86l49 129h-14q-41 4 -47 10t8 12.5t37.5 11.5t44 4t27 -9.5t-16.5 -24.5q-10 -41 -12 -77t-2 -70l2 -115q6 0 8 1t4 1q14 0 15 -14q0 -16 -17.5 -39t-46.5 -37h-2l-2 4v4v10l2 13q-6 8 -30.5 13 t-53.5 5q-35 0 -49 -10l20 -23q-6 2 -14 2h-18h-37l-168 -2q-57 0 -58 10zM-109 -272q2 -2 7 -2q12 0 12 14v2l-4 -1l-12 -3q-2 -10 -3 -10zM23 -199q0 -2 1 -4l1 -2q2 -2 4 -2q6 0 16 10l6 9q0 6 -10 6q-6 0 -8 -2q-10 -10 -10 -15zM41 -217q0 -6 4 -8h2q8 0 15.5 7t7.5 13 q-4 4 -9 4q-2 0 -4 -2t-8 -4q-8 -4 -8 -10z" />
<glyph unicode="&#xb9;" horiz-adv-x="409" d="M35 1110q0 -39 19.5 -50t44 -17.5t44 -18.5t19.5 -53q0 -86 -6 -178.5t-35 -169.5q-10 -25 -34 -33t-48 -10v-15h43q8 0 31.5 2t49 4t48.5 4.5t33 4.5l26 -27h9h6l80 27q0 2 1 4t1 4q0 16 -19.5 32.5t-23.5 41.5l-13 -27l-14 12q0 2 -1 10.5t-1 18.5v37q0 20 4 63t9 91 t9.5 91t4.5 66q0 12 11 14t16 3t-4 8.5t-48 31.5q-4 2 -18.5 14.5t-20.5 12.5q-4 0 -14.5 -6t-14.5 -8q-8 -4 -22 -8.5t-19 -4.5q-4 0 -22.5 3t-39 8.5t-38.5 9.5t-22 6q-2 0 -14.5 1t-16.5 1zM201 702q0 8 6 27t10 25q12 -29 13 -50.5t1 -50.5q0 -4 -1 -22.5t-1 -24.5 q-10 10 -12 16.5t-5 17.5t-5 23.5t-4 23.5t-2 15zM223 803q0 8 6 8q6 -4 7 -8q0 -4 -6.5 -7t-6.5 7z" />
<glyph unicode="&#xba;" horiz-adv-x="581" d="M14 725v14v49v19q0 117 47.5 180.5t157.5 104.5q8 2 23.5 7t17.5 5q63 0 119.5 -20.5t98.5 -57.5t66.5 -91t24.5 -122q0 -51 -18.5 -89t-49 -66.5t-69.5 -51t-78 -43.5h-6q-10 0 -53 8.5t-91 19.5t-88 22.5t-44 17.5q-16 23 -23.5 50.5t-34.5 43.5zM49 907q0 -8 7 -7t7 7 q0 2 -6 6q-4 4 -6 1t-2 -7zM100 655q0 -12 11 -12q10 0 10 12q0 17 -10 17t-11 -17zM102 772q0 -20 2 -36.5t6.5 -10.5t4.5 18v29v29q0 14 -4 20q-4 4 -6.5 -12t-2.5 -37zM113 713q0 -14 12 -15q10 0 10 15q0 12 -10 12q-12 0 -12 -12zM131 745q0 -8 7 -7t7 7q0 5 -8 7 q-6 2 -6 -7zM131 799q0 -8 7 -6t7 6q0 2 -8 8q-6 2 -6 -8zM162 868q0 -14 2 -53t9 -80t21.5 -72.5t38.5 -31.5h121q6 0 18.5 22.5t27 51t24.5 55t10 35.5q0 6 -1 20t-2 31.5t-2 32t-1 20.5v-78q-4 29 -10 71t-20.5 80t-40 65.5t-70.5 27.5q-37 0 -61.5 -21.5t-38 -52 t-19.5 -64.5t-6 -59zM408 1022l12 14h-12v-14zM410 1010q0 -14 10 -15q12 0 12 15q0 12 -12 12q-10 0 -10 -12zM434 631l17 12h-17v-12zM463 764q6 16 11 34.5t5 35.5h-16v-70z" />
<glyph unicode="&#xbb;" horiz-adv-x="815" d="M25 829.5q-2 24.5 0 24.5t6 -15.5t4 -19.5q74 -98 147.5 -178t151.5 -139q12 20 23.5 18t18.5 -17.5t9 -39t-2 -47.5h-2h-4q-4 2 -8 7l-13 15q-6 0 -22.5 -10t-34.5 -25.5t-31.5 -32t-13.5 -28.5h29q-29 -27 -64 -49.5t-68.5 -47t-66.5 -56t-57 -76.5q4 133 20 195.5 t37.5 90t44.5 34.5t39 30l2 69l-117 197h-14q-12 76 -14 100.5zM172 330q0 -10 8 -11q6 0 5 11.5t-5 11.5zM207 483q0 -16 12 -16q6 0 6 16t-6 17q-12 -1 -12 -17zM236 483q0 -16 10 -16t10 16t-10 17q-10 -1 -10 -17zM400 845q1 -1 5.5 -16.5t4.5 -19.5q147 -197 301 -317 q12 20 22 18t18.5 -17.5t10.5 -39t-2 -47.5h-2h-6q-2 2 -6 7l-13 15q-6 0 -23.5 -10t-36 -25.5t-31.5 -32t-13 -28.5h30q-31 -27 -64.5 -49.5t-68 -47t-66.5 -56.5t-57 -77q4 133 20.5 195.5t38 90.5t43 35t38.5 30l2 71l-115 197h-14q-12 74 -14.5 99.5t-1.5 24.5zM549 319 q0 -10 6 -10q8 0 7 11.5t-7 11.5zM582 475q0 -18 12 -18q8 0 8 18q0 14 -8 14q-12 0 -12 -14zM612 475q0 -18 11 -18q8 0 8 18q0 14 -8 14q-11 0 -11 -14z" />
<glyph unicode="&#xbc;" horiz-adv-x="1392" d="M20 1040q4 0 16.5 -2t14.5 -2q4 -2 22.5 -6t39 -9t39 -8t22.5 -3q2 0 17.5 4t21.5 8q4 2 15.5 8t15.5 6t19.5 -12t19.5 -14q39 -25 48 -32t4 -8t-16.5 -2t-11.5 -14q0 -23 -4 -66.5t-9 -91.5t-9 -91t-4 -64v-37q0 -10 1 -18t1 -11l14 -12l12 27q4 -25 23.5 -41.5 t19.5 -32.5q0 -2 -2 -3t-2 -5l-78 -27h-8h-6l-27 27q-10 -2 -32.5 -4t-49 -4t-50 -4t-31.5 -2h-41v14q25 4 47 11t34 32q29 78 35 170t6 178q0 41 -19 53.5t-44 18.5t-44.5 17t-19.5 52zM51 98q51 2 100.5 43t94.5 94.5t82 107.5t63 85l373 457q0 6 -9.5 14t-15.5 10 q-10 2 -32.5 7.5t-44.5 37.5l28 15q8 0 22.5 10t20.5 4h424l25 -25q-6 -12 -26.5 -24t-43 -23.5t-44 -18.5t-34.5 -9q-156 -162 -261 -280t-173 -198.5t-102.5 -130t-49 -77t-12.5 -37.5t8 -13l72 -81q-25 0 -37 -5.5t-35 -11.5q-4 0 -23.5 -11t-25.5 -13h-12q-27 0 -72 7 t-91 16t-86 17.5t-58 8.5zM186 631q0 -4 2 -15.5t4.5 -23.5t4.5 -23.5t4 -17.5q4 -4 7 -8t5 -6q0 4 2 22.5t2 22.5q0 31 -1 52t-15 50q-4 -8 -9.5 -26.5t-5.5 -26.5zM209 733q0 -10 6 -8t6 8q0 4 -8 6q-4 0 -4 -6zM336 332q0 -45 10 -62q6 -8 9 14.5t3 47.5h-22zM795 545 l12 16l186 -6q4 4 12.5 -1t12.5 -5l14 -10q-10 -16 -23.5 -19.5t-17.5 -3.5q-4 -2 -10 -6t-6 -8v-150q8 -2 27.5 -4t41 -4t40 -3t26.5 -1h10q10 0 23.5 8t21.5 19q0 8 1 26.5t1 26.5q0 35 -8 71.5t-26 65.5q41 4 80.5 8t80.5 4q23 0 47.5 -4t24.5 -33q-51 0 -72.5 -20 t-26.5 -53t0 -75t7 -85q-4 0 -8 -5t-4 -9q0 -8 8 -21.5t18 -17.5q-14 -4 -14 -15v-20q0 -23 4 -47.5t14.5 -45t28.5 -33.5t47 -15l-14 -17q-10 0 -32 -4t-47.5 -9t-51 -9t-39.5 -4h-4q-4 2 -14.5 8t-12.5 6q-6 2 -24.5 4t-38 4t-37 3t-23.5 1l123 43q8 2 11 18.5t3 32.5v21 v16q0 4 -1 22.5t-1 24.5l-26 -14v21q0 16 2 25t12 22l-268 -2l-11 221q-12 4 -42.5 16t-36.5 25zM1118 184q0 10 8 4q4 0 4 -4q0 -6 -6 -8t-6 8zM1194 285q0 -12 12 -13q10 0 11 13q-1 14 -11 14q-12 0 -12 -14zM1200 197q0 -12 1 -24.5t5 -8.5q2 4 4 13t2 20q0 10 -2 20 t-4 14q-4 4 -5 -7t-1 -27z" />
<glyph unicode="&#xbd;" horiz-adv-x="1226" d="M20 1040q4 0 16.5 -2t14.5 -2q4 -2 22.5 -6t39 -9t39 -8t22.5 -3q2 0 17.5 4t21.5 8q4 2 15.5 8t15.5 6t19.5 -12t19.5 -14q39 -25 48 -32t4 -8t-16.5 -2t-11.5 -14q0 -23 -4 -66.5t-9 -91.5t-9 -91t-4 -64v-37q0 -10 1 -18t1 -11l14 -12l12 27q4 -25 23.5 -41.5 t19.5 -32.5q0 -2 -2 -3t-2 -5l-78 -27h-8h-6l-27 27q-10 -2 -32.5 -4t-49 -4t-50 -4t-31.5 -2h-41v14q25 4 47 11t34 32q29 78 35 170t6 178q0 41 -19 53.5t-44 18.5t-44.5 17t-19.5 52zM51 98q51 2 100.5 43t94.5 94.5t82 107.5t63 85l373 457q0 6 -9.5 14t-15.5 10 q-10 2 -32.5 7.5t-44.5 37.5l28 15q8 0 22.5 10t20.5 4h424l25 -25q-6 -12 -26.5 -24t-43 -23.5t-44 -18.5t-34.5 -9q-156 -162 -261 -280t-173 -198.5t-102.5 -130t-49 -77t-12.5 -37.5t8 -13l72 -81q-25 0 -37 -5.5t-35 -11.5q-4 0 -23.5 -11t-25.5 -13h-12q-27 0 -72 7 t-91 16t-86 17.5t-58 8.5zM186 631q0 -4 2 -15.5t4.5 -23.5t4.5 -23.5t4 -17.5q4 -4 7 -8t5 -6q0 4 2 22.5t2 22.5q0 31 -1 52t-15 50q-4 -8 -9.5 -26.5t-5.5 -26.5zM209 733q0 -10 6 -8t6 8q0 4 -8 6q-4 0 -4 -6zM336 332q0 -45 10 -62q6 -8 9 14.5t3 47.5h-22zM811 168 q0 31 5 55.5t24 57.5q14 -8 26.5 1t24.5 22t23.5 24.5t21.5 5.5q57 27 89 50.5t60 72.5v6v6q-25 29 -33 43t-32 14q-41 0 -68.5 -23.5t-47 -53t-33 -53t-23.5 -23.5h-8q0 25 -3 39t-5.5 25.5t-4.5 25.5t-2 39q0 10 1 31.5t24 21.5q16 0 25.5 -15.5t19.5 -15.5 q33 0 67.5 13.5t69.5 13.5q59 0 96 -43t37 -100q0 -61 -45 -98.5t-97 -65t-90 -55t-24 -70.5q4 -8 17.5 -22.5t23.5 -18.5q6 0 34 6t34 6h6h8q0 -2 5 -7t7 -5q39 0 50.5 17.5t15.5 38t12 37.5t43 17q0 -14 5.5 -21t9.5 -10t2 -4t-17 -8q2 -6 4 -22.5t4.5 -33.5t4.5 -31.5 t2 -20.5v-8v-6l-6.5 -6.5t-8.5 -6.5l-63 13l-289 -13v123l-1 13q-1 14 -1 22zM1128 389q0 -16 11 -16q12 0 12 16q0 12 -12 12q-10 0 -11 -12z" />
<glyph unicode="&#xbe;" horiz-adv-x="1470" d="M29 1006q29 10 70.5 18t64.5 8q4 0 14 -5t15 -7l180 4q12 -20 30.5 -25.5t36 -9.5t29.5 -16t12 -49v-6l-26 -44v-4v-8q4 -10 14 -14q-20 -2 -30.5 -16.5t-10.5 -30.5q0 -18 10.5 -27.5t23.5 -15.5t26.5 -12.5t19.5 -18.5l-12 -14v-95q-4 12 -15 13l-4 4q-14 0 -17 -7 t-3 -18q0 -10 2 -18t-4 -14q-2 -2 -19.5 -5.5t-19.5 -7.5q-8 -6 -15.5 -18t-15.5 -21l-88 -6q-4 0 -13.5 -11t-19.5 -23.5t-22.5 -23.5t-24.5 -11v51h8q12 0 26.5 4t18.5 14h-26q-29 0 -50.5 -7t-50.5 -7q-6 0 -23.5 2t-35.5 7t-32.5 11t-14.5 15q0 2 1 3t1 5q35 0 51 -4 t29 10q16 -2 32.5 -3t32.5 -1q47 0 82 3t41 3h8t7 4l12 86q2 2 15 33t7 53q0 2 -8 2h-2v2q2 6 -29 6t-69.5 -2t-73.5 -4t-39 0q-8 4 -10 10.5t-2 12.5q0 4 1 9l1 5q80 10 123 19.5t63.5 18.5t25.5 17.5t9 18.5h-39q6 6 20.5 21.5t18.5 19.5l1 3t1 5q0 8 -5 20.5t-13 25.5 t-18.5 24.5t-18.5 15.5q0 -2 -4 -12t-8 -15q0 2 13 -2l13 -4h-4q-10 10 -14 26.5t-21 16.5h-8l-86 -14l-22 -29q0 20 -11.5 28.5t-27 10.5t-33 0t-29.5 -2q-16 0 -22 19zM127 98q51 2 101.5 43t94.5 94.5t80.5 107.5t63.5 85l373 457q0 6 -9.5 14t-15.5 10q-10 2 -32.5 7.5 t-45.5 37.5l29 15q8 0 22.5 10t20.5 4h424l24 -25q-6 -12 -26.5 -24t-43 -23.5t-44 -18.5t-33.5 -9q-156 -162 -261.5 -280t-173 -198.5t-102 -130t-49 -77t-12.5 -37.5t8 -13l72 -81q-23 0 -36 -5.5t-36 -11.5q-4 0 -23.5 -11t-25.5 -13h-12q-27 0 -71 7t-91 16t-87 17.5 t-58 8.5zM336 956q0 -12 10 -12q12 0 12 12q0 15 -12 15q-10 0 -10 -15zM360 795h13q4 2 14 6t14 8h-12q-4 -2 -14 -6t-15 -8zM381 600q0 -8 6 -7t6 7q0 4 -8 6q-4 8 -4 -6zM401 631l27 43h-6h-6q-4 -2 -7 -12.5t-8 -14.5v-16zM414 332q0 -20 2 -36.5t6 -25.5q6 -8 9 14.5 t3 47.5h-20zM870 545l13 16l186 -6q4 4 12.5 -1t12.5 -5l14 -10q-10 -16 -23.5 -19.5t-17.5 -3.5q-14 -4 -14 -14v-150q8 -2 26.5 -4t40 -4t41 -3t27.5 -1h8q12 0 24.5 8t20.5 19q0 8 1 26.5t1 26.5q0 35 -8 71.5t-27 65.5l82 8t82 4q20 0 45 -4t25 -33q-51 0 -72.5 -20 t-27 -53t0 -75t7.5 -85q-2 0 -7.5 -5t-5.5 -9q0 -8 8.5 -21.5t18.5 -17.5q-12 -4 -13 -14.5t-1 -20.5q0 -23 4 -47.5t14 -45t29.5 -33.5t48.5 -15l-16 -17q-10 0 -32 -4t-47.5 -9t-50 -9t-38.5 -4h-7q-4 2 -14 8t-12 6q-6 2 -23.5 4t-38 4t-38 3t-23.5 1l123 43q8 2 11 18.5 t3 32.5v21v16q0 4 -1 22.5t-1 24.5l-27 -14v21q0 16 2.5 25t12.5 22l-268 -2l-11 221q-12 4 -41.5 16t-38.5 25zM1194 184q0 10 8 4q4 0 4 -4q0 -6 -6 -8t-6 8zM1270 285q0 -12 12 -13q10 0 10 13q0 14 -10 14q-12 0 -12 -14zM1276 197q0 -12 1 -24.5t5 -8.5q6 8 6 33 q0 24 -6 34q-4 4 -5 -7t-1 -27z" />
<glyph unicode="&#xbf;" horiz-adv-x="761" d="M35 346q0 70 32.5 114t83 70.5t108.5 44t108.5 35t83 42t32.5 65.5q0 14 -6 37h148q2 -2 3 -25.5t1 -38.5q0 -31 1 -45t-2 -24.5t-10.5 -24.5t-25.5 -43q-25 14 -41 1t-31.5 -32.5t-31 -35t-35.5 -5.5q-51 -25 -90 -45t-70 -44.5t-57.5 -55.5t-53.5 -76l-1 -5t-1 -7t1 -7 l1 -5q23 -25 36 -43.5t24.5 -32t25 -19.5t35.5 -6q72 0 120 36t82 79t55.5 79t41.5 36q2 0 6 -2.5t6 -2.5q2 -43 10.5 -72.5t16.5 -55t14.5 -55.5t6.5 -75l-44 -98q-4 -12 -17 0t-28.5 31.5t-31 37t-25.5 17.5q-59 0 -115.5 -1t-121.5 -1q-53 0 -98.5 21.5t-78 56.5t-50 82 t-17.5 98zM63 383q1 -25 21 -25q18 0 18 25t-18 25q-20 0 -21 -25zM410 979q0 39 28.5 58.5t57.5 33.5h4q2 0 18.5 -3t36.5 -7t36.5 -8t18.5 -6q4 -10 6.5 -19.5t14.5 -17.5v-4v-19v-6q0 -76 -76 -100q-12 -8 -18 -9q-51 0 -89 28t-38 79zM451 973h6v24q-6 -16 -6 -24z M459 1042h10v5zM469 897h10v2zM469 899q10 0 10 8q0 6 -10 6v-6v-8zM582 981q6 -4 6 4q0 2 -3 1l-3 -1v-4zM582 1006h6q0 2 -2 2q-4 0 -4 -2zM586 1012l2 -2q4 0 4 8q0 4 -4 4l-1 -1q-1 -1 -1 -3v-6zM590 1036q0 -4 2 -4q8 0 8 4q0 6 -8 6l-1 -1q-1 -1 -1 -5zM592 979 q2 -4 2 16q0 14 -2 15v-15v-16zM614 944q2 0 2 2v2q-2 0 -2 -2v-2z" />
<glyph unicode="&#xc0;" horiz-adv-x="1527" d="M-223 47q35 55 82 73.5t98 22.5t99 5.5t87 21.5t62.5 70.5t23.5 152.5q-4 0 -4 4q0 2 -2 2l-63 -32l-6 -1q-7 -1 -13 -1q-12 0 -22 11t-18.5 27.5t-17.5 33t-20 26.5q12 0 45 4t69 9t66.5 10.5t43.5 9.5q25 6 48 48t43.5 94t38 103.5t29.5 73.5q2 2 12.5 15.5t23 30 t21.5 31.5t9 19q0 8 -16.5 32t-16.5 32q10 53 30.5 88t42 67.5t38 73.5t16.5 107v14q-2 10 -12 32.5t-19 33.5q2 0 12.5 2t18.5 2q10 0 20.5 -2t12.5 -2q51 -35 74.5 -73t33 -75t14.5 -71.5t20.5 -61.5t47 -46.5t97.5 -25.5q0 -2 2 -12t2 -20q0 -23 -6 -36.5t-13.5 -25.5 t-13.5 -26.5t-6 -38.5q0 -61 25.5 -102.5t56.5 -72t56.5 -53t25.5 -45.5v-14l-33 -66v-14q0 -33 37 -59.5t77 -51t67.5 -48t10.5 -50.5l160 -190v-33l127 -96q-4 -4 -17.5 -9.5t-28.5 -9.5t-29.5 -8t-20.5 -4h-31q-57 0 -104 16.5t-107 16.5q-29 0 -46 -6.5t-31.5 -12.5 l-29 -12t-36.5 -6q-23 0 -31 11t-14 23.5t-15.5 23.5t-29.5 11q-25 0 -45.5 -10t-40 -22.5t-42 -22.5t-50.5 -10h-17q-10 8 -22.5 18.5t-10.5 12.5l129 256q18 33 -5 56t-62 38.5t-77 24t-48 8.5q-12 0 -49 4t-79 9t-79 10t-49 9q-4 -10 -13.5 -32.5t-18.5 -47t-18 -47 t-14 -32.5v-17q0 -35 26 -46t55.5 -19t55 -19.5t25.5 -42.5q0 -37 -21.5 -43t-47.5 -6h-29l-287 -31h-18h-15q-10 4 -25 14.5t-30.5 21.5t-30 20.5t-24.5 9.5q-18 0 -28.5 -6t-20.5 -12.5t-23.5 -12.5t-40.5 -6q-8 0 -31.5 1t-31.5 1zM31 367.5q-6 15.5 14 15.5t18 -16 q-2 -14 -16 -15q-10 0 -16 15.5zM160 143.5q4 -16.5 16 -16.5q11 0 17 16q4 16 -17 17q-20 0 -16 -16.5zM416 496h301q0 37 -10.5 79.5t-29 81.5t-45 73t-57.5 52q-35 -23 -59 -56.5t-43.5 -72.5t-33 -80t-23.5 -77zM436 1737q0 74 45 90t131 16q4 0 13.5 -3t15.5 -5 q68 -23 96.5 -56.5t28.5 -99.5v-8l106 -137v-10q-4 -29 -20 -43.5t-38.5 -20.5t-49.5 -10t-51 -10h-4q-25 10 -70 47t-90 83t-79 92t-34 75zM490.5 1714.5q-7.5 -18.5 1.5 -24.5v34l6 19q0 -10 -7.5 -28.5zM508 1823q0 -6 4 -6q12 0 12 6q0 12 -12 12q-4 0 -4 -12zM512 1837 l12 -2v2h-12zM649 1485l10 -4v4h-10zM686 1675l3 -2q3 -2 3 2q0 10 -6 4v-4zM702 1661q0 -6 25 -26.5t54.5 -43t55 -41t25.5 -20.5l-24 18q-23 17 -52.5 40.5t-53 45t-23.5 27.5v18q0 11 -4 9q-2 -4 -3 -27zM737 1737q0 -6 2 -6v6q0 2 -2 2v-2zM772 1198q0 33 27 33t26 -33 q0 -33 -26 -33q-27 0 -27 33zM844 1538q0 -2 2 -2q4 0 4 2q0 6 -6 6v-6zM846 1520q0 -4 6 -4q10 0 10 4q0 10 -10 10q-6 0 -6 -10zM858 1490q6 1 4 11q-10 -12 -4 -11zM895 80h31l-31 33v-33zM1083 352q0 -4 1 -10l1 -6q4 -8 14.5 -19.5t18.5 -13.5q0 2 1 8t1 8t-1 9l-1 8 q-2 8 -12 18.5t-21 12.5q0 -2 -1 -7.5t-1 -7.5zM1124 272q0 -33 27 -32q27 0 27 32q0 31 -27 31t-27 -31zM1165 223q0 -20 16.5 -16t16.5 16q0 13 -16 17t-17 -17zM1182 -143l96 30v-30h-96zM1188 176q0 -33 26 -33q27 0 27 33q0 31 -27 31t-26 -31zM1219 143q0 -31 26 -30 q27 0 27 30q0 33 -27 33t-26 -33z" />
<glyph unicode="&#xc1;" horiz-adv-x="1503" d="M-246 47q6 0 31 -1t35 -1q25 0 38 6t22 12.5t19.5 12.5t30.5 6q10 0 24.5 -9.5t30 -20.5t31 -21.5t27.5 -14.5h10h21l288 31h27q29 0 50.5 6t21.5 43q0 31 -25.5 42.5t-55.5 19.5t-55.5 19t-25.5 46v17q2 10 11 32.5t19.5 47t19.5 47l13 32.5q12 -4 49.5 -9t78 -10 t77.5 -9t51 -4q8 0 46 -8.5t77 -24t62.5 -39t5.5 -55.5l-127 -256q-4 -2 8 -12.5t23 -18.5h16q29 0 51.5 10t43 22.5t40 22.5t43.5 10q20 0 29.5 -11t15.5 -23.5t14.5 -23.5t28.5 -11q23 0 38.5 6t29.5 12t30.5 12.5t45.5 6.5q59 0 108 -16.5t105 -16.5h32q6 0 19.5 4t29 8 t29 9.5t19.5 9.5l-129 96v33l-160 190q16 27 -11.5 50.5t-67.5 48t-76 51t-36 59.5v14l31 66v14q0 23 -25.5 45.5t-56 53t-56.5 71.5t-26 103q0 25 6.5 39t13.5 26t13 25.5t6 36.5q0 10 -1 20t-1 12q-66 6 -98.5 25.5t-48 46.5t-20.5 61.5t-15 71.5t-32.5 75t-72.5 73 q-4 0 -15 2t-17 2q-8 0 -18.5 -2t-14.5 -2q6 -10 17.5 -33t15.5 -33v-14q0 -66 -16.5 -107t-38 -73.5t-43 -67.5t-29.5 -88q0 -8 15 -31.5t15 -32.5q0 -4 -9 -19t-20 -31.5t-21.5 -30t-12.5 -15.5q-14 -23 -31.5 -74t-38 -103t-43 -94t-47.5 -48q-12 -4 -44 -9.5 t-66.5 -10.5t-67.5 -9t-45 -4q10 -10 18.5 -26.5t15.5 -33t17 -27.5t23 -11q8 0 15 1l7 1l64 32q2 0 2 -2q0 -4 2 -4q0 -102 -23.5 -152.5t-62.5 -70.5t-88 -21.5t-99.5 -5.5t-97.5 -22.5t-82 -73.5zM10 367.5q6 -15.5 17 -15.5q8 1 16 15q2 16 -23 16q-16 0 -10 -15.5z M138.5 143.5q-5.5 16.5 15.5 16.5q20 -1 16 -17q-6 -16 -16 -16t-15.5 16.5zM340 1544q4 -29 20.5 -43t40 -20t49 -10.5t50.5 -12.5h6q25 10 70 47t90 83t78.5 92t33.5 75q0 74 -46 91.5t-130 17.5q-4 0 -14 -4.5t-17 -6.5q-68 -23 -96.5 -56.5t-28.5 -98.5v-8l-106 -138v-8 zM352 1520q10 -12 3 -11t-3 11zM352 1538q0 12 10 12q4 0 5 -12q0 -4 -5 -4q-10 0 -10 4zM352 1550q0 -2 23.5 15.5t53.5 41t53.5 45t23.5 27.5v19q0 12 2 8q4 -2 4 -27q0 -6 -24.5 -26.5t-54.5 -43t-55 -41.5zM365 1561q0 2 6 2v-2q0 -6 -4 -7q-2 0 -2 7zM393 496 q18 76 55 157.5t105 128.5q33 -18 58.5 -52t44 -73t27.5 -82t9 -79h-299zM473 1751v4q0 2 4 2v-2q0 -4 -4 -4zM522 1694q0 16 4 4v-4l-2 -2q-2 -2 -2 2zM553 1499v4h12zM690 1843q0 10 12 10q2 0 3 -10q0 -8 -3 -8q-12 0 -12 8zM690 1853v2h12zM717 1763q0 -12 6 -28.5 t-2 -24.5v33zM752 1198q0 -33 26 -33q23 0 23 33t-23 33q-27 0 -26 -33zM872 80v33l33 -33h-33zM1059 352q0 2 3 7.5t3 7.5q6 -2 17.5 -12.5t15.5 -18.5l1 -7t1 -10q0 -2 -1 -8t-1 -8q-10 2 -20.5 13.5t-12.5 19.5l-3 6q-3 6 -3 10zM1102 272q-1 31 26 31q25 0 25 -31 q0 -33 -25 -32q-27 0 -26 32zM1145 223q0 21 16 17t17 -17q0 -12 -16.5 -16t-16.5 16zM1161 -143h96v30zM1165 176q0 31 27 31q25 0 25 -31q0 -33 -25 -33q-27 0 -27 33zM1198 143q0 33 27 33q25 0 24 -33q0 -31 -24 -30q-27 0 -27 30z" />
<glyph unicode="&#xc2;" horiz-adv-x="1515" d="M-238 47h15q8 0 18 -1t21 -1h10q27 0 41 6t23.5 12.5t19.5 12.5t29 6q10 0 25.5 -9.5t30.5 -20.5t29.5 -21.5t26.5 -14.5h12h19l289 31h28q27 0 48.5 6t21.5 43q0 31 -25.5 42.5t-56.5 19.5t-56.5 19t-25.5 46v17q4 10 14.5 32.5t20.5 47t18.5 47t12.5 32.5q12 -4 49 -9 t79 -10t77.5 -9t48.5 -4q10 0 48 -8.5t76.5 -24t62.5 -39t5 -55.5l-127 -256q-4 -2 8.5 -12.5t22.5 -18.5h16q29 0 51.5 10t43 22.5t40 22.5t43.5 10q23 0 31 -11t14.5 -23.5t14.5 -23.5t31 -11t38 6t28 12t31.5 12.5t47.5 6.5q57 0 106.5 -16.5t102.5 -16.5h33q6 0 19 4 t28.5 8t29 9.5t19.5 9.5l-129 96v33l-160 190q16 27 -11.5 50.5t-67.5 48t-75.5 51t-35.5 59.5v14l30 66v14q0 23 -25.5 45.5t-55 53t-55 71.5t-25.5 103q0 25 6 39t12 26t12 25.5t6 36.5q0 10 -1 20t-1 12q-66 6 -98.5 25.5t-46.5 46.5t-19.5 61.5t-15.5 71.5t-33.5 75 t-74.5 73q-2 0 -12.5 2t-18.5 2q-6 0 -17.5 -2t-15.5 -2q8 -10 19.5 -33t13.5 -33v-14q0 -66 -16.5 -107t-38 -73.5t-43 -67.5t-31.5 -88q0 -8 16.5 -31.5t16.5 -32.5q0 -4 -9.5 -19t-19.5 -31.5t-21.5 -30t-13.5 -15.5q-12 -23 -29.5 -74t-38 -103t-44 -94t-48.5 -48 q-12 -4 -43.5 -9.5t-66.5 -10.5t-68 -9t-45 -4q10 -10 18.5 -26.5t16.5 -33t18.5 -27.5t22.5 -11q10 0 14 1l4 1l66 32q2 0 2 -2q0 -4 6 -4q0 -102 -23.5 -152.5t-63.5 -70.5t-89 -21.5t-99 -5.5t-98.5 -22.5t-83.5 -73.5zM19 367.5q6 -15.5 16 -15.5q10 1 16 15 q2 16 -18 16t-14 -15.5zM147.5 143.5q-2.5 16.5 14.5 16.5q20 -1 16 -17t-16 -16t-14.5 16.5zM172 1484q-2 -3 29.5 -1t128.5 18v17l250 141l92 -2q20 -14 29.5 -30.5t21.5 -34t33.5 -34t64.5 -29.5t116 -21.5t187 -10.5q-57 27 -99 63.5t-74.5 76.5t-61.5 80t-62 75v-35 q-16 0 -37.5 15.5t-42 35t-34 39t-13.5 27.5l12 11q13 11 17 13v5v4q-31 6 -62.5 3t-52 -12.5t-22.5 -22.5t26 -26q-80 -94 -178 -180t-221 -172q-6 0 -25.5 -5t-21.5 -8zM401 496q10 37 23.5 77.5t33 79.5t45 72.5t58.5 56.5q33 -18 59.5 -52t45 -73t27.5 -82t9 -79h-301z M623 1712q0 10 18 10q25 0 25 -10q0 -14 -25 -14q-18 0 -18 14zM623 1747q0 10 18 10q25 0 25 -10t-25 -10q-18 0 -18 10zM762 1198q0 -33 22 -33q27 0 27 33t-27 33q-23 0 -22 -33zM827 1671q0 6 15.5 8t15.5 -8q0 -8 -14 -8l-12 6zM881 80v33l32 -33h-32zM1071 352 q0 2 1 7.5t1 7.5q8 -2 18.5 -12.5t12.5 -18.5l2 -7t2 -10q0 -2 -2 -8t-2 -8q-4 2 -16.5 13.5t-14.5 19.5l-1 6q-1 6 -1 10zM1112 272q0 31 25 31q27 0 26 -31q0 -33 -26 -32q-25 0 -25 32zM1153 223q0 21 16 17q14 -2 15 -17q0 -12 -15.5 -16t-15.5 16zM1169 -143h95v30z M1178 176q-1 31 22 31q27 0 27 -31q0 -33 -27 -33q-23 0 -22 33zM1208 143q0 33 25 33q27 0 27 -33q0 -31 -27 -30q-25 0 -25 30z" />
<glyph unicode="&#xc3;" horiz-adv-x="1529" d="M-221 47q35 55 83 73.5t98 22.5t99.5 5.5t88 21.5t62 70.5t23.5 152.5q-4 0 -4 4q0 2 -4 2l-63 -32l-5 -1t-14 -1q-12 0 -22 11t-18.5 27.5t-16.5 33t-20 26.5q12 0 44.5 4t68.5 9t68 10.5t44 9.5q25 6 48 48t43.5 94t38 103.5t30.5 73.5q2 2 13 15.5t21.5 30t19.5 31.5 t9 19q0 8 -16.5 32t-16.5 32q10 53 32 88t43.5 67.5t37.5 73.5t16 107v14q-4 10 -14 32.5t-18 33.5q2 0 14 2t18 2q8 0 18.5 -2t12.5 -2q51 -35 74.5 -73t34 -75t14.5 -71.5t19.5 -61.5t48 -46.5t98.5 -25.5q0 -2 1 -12t1 -20q0 -23 -6 -36.5t-12.5 -25.5t-12.5 -26.5 t-6 -38.5q0 -61 25.5 -102.5t55.5 -72t55.5 -53t25.5 -45.5v-14l-33 -66v-14q0 -33 37 -59.5t77 -51t67.5 -48t11.5 -50.5l159 -190v-33l127 -96q-4 -4 -17 -9.5t-28.5 -9.5t-29 -8t-19.5 -4h-33q-53 0 -102 16.5t-109 16.5q-29 0 -46 -6.5t-30.5 -12.5t-29 -12t-37.5 -6 q-23 0 -31 11t-14 23.5t-14.5 23.5t-30.5 11q-25 0 -44.5 -10t-40 -22.5t-43 -22.5t-50.5 -10h-17q-10 8 -22 18.5t-10 12.5l129 256q18 33 -5.5 56t-62.5 38.5t-77 24t-48 8.5q-12 0 -49 4t-79 9t-79 10t-49 9q-2 -10 -11 -32.5t-19.5 -47t-19.5 -47l-13 -32.5v-17 q0 -35 25.5 -46t56 -19t56 -19.5t25.5 -42.5q0 -37 -21.5 -43t-47.5 -6h-31l-287 -31h-18h-14q-10 4 -25.5 14.5t-31 21.5t-30 20.5t-24.5 9.5q-18 0 -28.5 -6t-19.5 -12.5t-23.5 -12.5t-41.5 -6q-6 0 -30.5 1t-32.5 1zM34 367.5q-7 15.5 13 15.5q25 0 19 -16 q-2 -14 -15 -15q-10 0 -17 15.5zM119 1475q2 2 21.5 6t25.5 4q18 -4 50 33.5t88 100t142 138.5t209 150v-9q-4 -2 -17 -13l-13 -11q0 -12 30 -47q59 -14 97 -41v6q16 -27 33.5 -51.5t33.5 -46.5q0 -4 6 -4l86 -2l144 143l116 49q51 6 75 3t28 -10t-2 -13.5t-12 -6.5 q-47 -37 -105.5 -90t-114 -106t-99.5 -97t-60 -63l-2 -6q27 -12 23.5 -25.5t-24 -22.5t-50 -13.5t-58.5 2.5v8q2 4 8 9l21 15q0 6 -9.5 19.5t-19.5 32.5q-16 2 -43 24.5t-60.5 49t-72.5 47t-80 20.5l-242 -146v-14q-94 -16 -124.5 -20t-28.5 -2zM163 143.5q3 -16.5 15 -16.5 q13 0 17 16t-17 17q-18 0 -15 -16.5zM418 496h301q0 37 -9.5 79.5t-27.5 81.5t-44.5 73t-59.5 52q-33 -23 -58.5 -56.5t-45 -72.5t-33 -80t-23.5 -77zM553 1710q0 -14 12 -14q-4 2 -5 8t-7 8v-2zM778 1198q0 33 23 33q27 0 26 -33q0 -33 -26 -33q-23 0 -23 33zM858 1645 q2 -12 14 -21v6q0 2 -5 6t-9 9zM897 80h33l-33 33v-33zM1085 352q0 -4 3 -10l2 -6q2 -8 13 -19.5t17 -13.5q0 2 2 8t2 8t-2 9l-2 8q-2 8 -12 18.5t-18 12.5q0 -2 -2.5 -7.5t-2.5 -7.5zM1128 272q0 -33 25 -32q27 0 27 32q0 31 -27 31q-25 0 -25 -31zM1169 223 q0 -20 15.5 -16t15.5 16q0 15 -16 17q-14 4 -15 -17zM1184 -143l96 30v-30h-96zM1192 176q0 -33 25 -33q27 0 26 33q1 31 -26 31q-25 0 -25 -31zM1225 143q0 -31 24 -30q27 0 27 30q0 33 -27 33q-25 0 -24 -33z" />
<glyph unicode="&#xc4;" horiz-adv-x="1511" d="M-240 47q8 0 32 -1t32 -1q27 0 40 6t23.5 12.5t20.5 12.5t29 6q10 0 24 -9.5t29.5 -20.5t31 -21.5t25.5 -14.5h14h19l287 31h30q27 0 47.5 6t20.5 43q0 31 -25.5 42.5t-55.5 19.5t-55.5 19t-25.5 46v17q4 10 13.5 32.5t18.5 47t18 47t14 32.5q12 -4 49 -9t79 -10t78.5 -9 t49.5 -4q10 0 48 -8.5t76.5 -24t62.5 -39t5 -55.5l-129 -256q-2 -2 10.5 -12.5t22.5 -18.5h16q29 0 51.5 10t43 22.5t40 22.5t43.5 10q20 0 29.5 -11t16 -23.5t14.5 -23.5t31 -11t38 6t28 12t30.5 12.5t46.5 6.5q59 0 107.5 -16.5t103.5 -16.5h33q6 0 19 4t28.5 8t29 9.5 t17.5 9.5l-127 96v33l-160 190q16 27 -11.5 50.5t-67.5 48t-76.5 51t-36.5 59.5v14l32 66v14q0 23 -25.5 45.5t-55 53t-55 71.5t-25.5 103q0 25 6 39t12 26t12 25.5t6 36.5q0 10 -1 20t-1 12q-66 6 -98.5 25.5t-47.5 46.5t-19.5 61.5t-14.5 71.5t-33.5 75t-74.5 73 q-2 0 -12.5 2t-18.5 2q-10 0 -20.5 -2t-12.5 -2q8 -10 18.5 -33t14.5 -33v-14q0 -66 -16.5 -107t-38 -73.5t-43 -67.5t-31.5 -88q0 -8 16.5 -31.5t16.5 -32.5q0 -4 -9.5 -19t-20.5 -31.5t-21.5 -30t-12.5 -15.5q-12 -23 -29.5 -74t-38 -103t-44 -94t-48.5 -48 q-12 -4 -43.5 -9.5t-67.5 -10.5t-69 -9t-45 -4q12 -10 20.5 -26.5t16.5 -33t18.5 -27.5t22.5 -11q6 0 12 1l6 1l64 32q4 0 4 -2q0 -4 2 -4q0 -102 -23.5 -152.5t-62.5 -70.5t-87 -21.5t-99.5 -5.5t-98.5 -22.5t-82 -73.5zM16 367.5q7 -15.5 17 -15.5q4 0 8 3.5t6 11.5 q6 16 -18 16q-20 0 -13 -15.5zM143.5 143.5q-4.5 16.5 16.5 16.5q20 -1 16 -17q-6 -16 -16 -16q-12 0 -16.5 16.5zM197 1583q20 -10 24 -23.5t12 -25.5q2 -4 28 -10t56.5 -12.5t58 -10.5t34.5 -4h2q49 20 93 51t44 84q0 74 -56.5 117t-140.5 43q-4 0 -13 -3t-17 -5 q-66 -23 -95.5 -56.5t-29.5 -97.5v-12v-23v-12zM223 1679v4q0 5 2 5v-5q0 -4 -2 -4zM250 1546q0 8 8 8t8 -8t-8 -8t-8 8zM256 1610v20q0 10 2 4q2 -2 2 -24q0 -23 -2 -27q-2 0 -2 27zM258 1577q0 6 10 6q6 0 6 -6q0 -8 -6 -8q-10 0 -10 8zM272 1595q0 2 4 2v-2q0 -4 -2 -4 t-2 4zM272 1624q0 10 4 6v-6l-2 -2q-2 -2 -2 2zM399 496q10 37 23.5 77.5t33 79.5t44 72.5t59.5 56.5q33 -18 58.5 -52t44 -73t28.5 -82t10 -79h-301zM444 1741q1 10 15 10q2 0 2 -10t-2 -10q-14 0 -15 10zM444 1751v4h15zM461 1534v4h12zM477 1608v34h12q0 -23 -12 -34z M731 1583q18 -10 22.5 -23.5t12.5 -25.5q4 -4 29.5 -10t56.5 -12.5t57.5 -10.5t32.5 -4h2q49 20 94 51t45 84q0 74 -57 117t-141 43q-4 0 -13.5 -3t-13.5 -5q-70 -23 -98.5 -56.5t-28.5 -97.5v-12v-23v-12zM756 1198q0 -33 26 -33q27 0 27 33t-27 33t-26 -33zM756 1679v4 q0 5 6 5v-5q0 -4 -6 -4zM782 1546q1 8 11 8q6 0 6 -8t-6 -8q-10 0 -11 8zM788 1610v20q1 10 5 4q4 -2 4 -24q0 -23 -4 -27q-4 0 -5 27zM793 1577q0 6 8 6t8 -6q0 -8 -8 -8t-8 8zM805 1595q0 2 6 2v-2q0 -4 -2 -4q-4 0 -4 4zM805 1624q0 12 6 6v-6l-3 -2q-3 -2 -3 2zM879 80 v33l32 -33h-32zM977 1741q0 10 14 10q2 0 2 -10t-2 -10q-14 0 -14 10zM977 1751v4h14zM993 1534v4h13zM1010 1608v34h12q0 -25 -12 -34zM1067 352q0 2 2 7.5t2 7.5q8 -2 18.5 -12.5t12.5 -18.5l1 -7t1 -10q0 -2 -1 -8t-1 -8q-8 2 -18.5 13.5t-12.5 19.5l-2 6q-2 6 -2 10z M1108 272q0 31 27 31t26 -31q0 -33 -26 -32q-27 0 -27 32zM1151 223q0 12 3 15.5t11 1.5q16 -2 17 -17q0 -12 -15.5 -16t-15.5 16zM1165 -143h97v30zM1171 176q0 31 27 31t27 -31q0 -33 -27 -33t-27 33zM1204 143q0 33 27 33t26 -33q0 -31 -26 -30q-27 0 -27 30z" />
<glyph unicode="&#xc5;" horiz-adv-x="1515" d="M-238 47h15q8 0 18 -1t21 -1h10q27 0 41 6t23.5 12.5t19.5 12.5t29 6q10 0 25.5 -9.5t30.5 -20.5t29.5 -21.5t26.5 -14.5h12h19l289 31h28q27 0 48.5 6t21.5 43q0 31 -25.5 42.5t-56.5 19.5t-56.5 19t-25.5 46v17q4 10 14.5 32.5t20.5 47t18.5 47t12.5 32.5q12 -4 49 -9 t79 -10t77.5 -9t48.5 -4q10 0 48 -8.5t76.5 -24t62.5 -39t5 -55.5l-127 -256q-4 -2 8.5 -12.5t22.5 -18.5h16q29 0 51.5 10t43 22.5t40 22.5t43.5 10q23 0 31 -11t14.5 -23.5t14.5 -23.5t31 -11t38 6t28 12t31.5 12.5t47.5 6.5q57 0 106.5 -16.5t102.5 -16.5h33q6 0 19 4 t28.5 8t29 9.5t19.5 9.5l-129 96v33l-160 190q16 27 -11.5 50.5t-67.5 48t-75.5 51t-35.5 59.5v14l30 66v14q0 23 -25.5 45.5t-55 53t-55 71.5t-25.5 103q0 25 6 39t12 26t12 25.5t6 36.5q0 10 -1 20t-1 12q-66 6 -98.5 25.5t-46.5 46.5t-19.5 61.5t-15.5 71.5t-33.5 75 t-74.5 73q-2 0 -12.5 2t-18.5 2q-6 0 -17.5 -2t-15.5 -2q8 -10 19.5 -33t13.5 -33v-14q0 -66 -16.5 -107t-38 -73.5t-43 -67.5t-31.5 -88q0 -8 16.5 -31.5t16.5 -32.5q0 -4 -9.5 -19t-19.5 -31.5t-21.5 -30t-13.5 -15.5q-12 -23 -29.5 -74t-38 -103t-44 -94t-48.5 -48 q-12 -4 -43.5 -9.5t-66.5 -10.5t-68 -9t-45 -4q10 -10 18.5 -26.5t16.5 -33t18.5 -27.5t22.5 -11q10 0 14 1l4 1l66 32q2 0 2 -2q0 -4 6 -4q0 -102 -23.5 -152.5t-63.5 -70.5t-89 -21.5t-99 -5.5t-98.5 -22.5t-83.5 -73.5zM19 367.5q6 -15.5 16 -15.5q10 1 16 15 q2 16 -18 16t-14 -15.5zM147.5 143.5q-2.5 16.5 14.5 16.5q20 -1 16 -17t-16 -16t-14.5 16.5zM401 496q10 37 23.5 77.5t33 79.5t45 72.5t58.5 56.5q33 -18 59.5 -52t45 -73t27.5 -82t9 -79h-301zM492 1616q18 -10 22 -24.5t12 -26.5q4 -4 30 -10.5t56.5 -12.5t57 -10 t32.5 -4h3q49 20 94 51t45 84q0 76 -57.5 118t-141.5 42q-4 0 -13 -2t-14 -4q-70 -23 -98 -57t-28 -99v-10v-25v-10zM516 1712v2q0 6 6 6v-6q0 -2 -6 -2zM543 1579q0 8 10 8q6 0 6 -8t-6 -8q-10 0 -10 8zM549 1642v19q0 10 4 6t4 -25q0 -25 -4 -26q-4 0 -4 26zM553 1608 q0 8 8 8t8 -8t-8 -9q-8 0 -8 9zM565 1626q0 4 6 4v-4q0 -2 -2 -2q-4 0 -4 2zM565 1657q0 10 6 4v-4l-3 -2q-3 -2 -3 2zM737 1774q1 10 15 10q2 0 2 -10t-2 -11q-14 0 -15 11zM737 1784v2h15zM754 1565v6h12zM762 1198q0 -33 22 -33q27 0 27 33t-27 33q-23 0 -22 -33z M770 1640v35h12q0 -25 -12 -35zM881 80v33l32 -33h-32zM1071 352q0 2 1 7.5t1 7.5q8 -2 18.5 -12.5t12.5 -18.5l2 -7t2 -10q0 -2 -2 -8t-2 -8q-4 2 -16.5 13.5t-14.5 19.5l-1 6q-1 6 -1 10zM1112 272q0 31 25 31q27 0 26 -31q0 -33 -26 -32q-25 0 -25 32zM1153 223 q0 21 16 17q14 -2 15 -17q0 -12 -15.5 -16t-15.5 16zM1169 -143h95v30zM1178 176q-1 31 22 31q27 0 27 -31q0 -33 -27 -33q-23 0 -22 33zM1208 143q0 33 25 33q27 0 27 -33q0 -31 -27 -30q-25 0 -25 30z" />
<glyph unicode="&#xc6;" horiz-adv-x="2103" d="M-207 45q35 53 82 71.5t97.5 22.5t99.5 5t88 21.5t62.5 71t23.5 152.5q-4 0 -4 4t-2 4l-64 -32l-6 -1q-6 -2 -12 -2q-12 0 -22.5 11.5t-18.5 28t-17.5 33t-19.5 26.5q12 0 45 3t68.5 8t66.5 10t43 10q25 6 48.5 48t44 95t38 103t29.5 73q2 2 12 16.5t21.5 30.5t20.5 30.5 t9 18.5q0 2 -5 11.5t-10 19.5t-10 19.5t-5 13.5q10 55 30.5 89t42 66.5t38 73.5t16.5 107v16q-2 6 -12.5 30.5t-18.5 32.5q2 0 12 3.5t19 3.5q8 0 18 -3.5t14 -3.5q51 -35 75 -72.5t33 -75.5t14 -71.5t20.5 -60.5t47.5 -45.5t97 -24.5q0 -4 1 -15t1 -17q0 -23 -6 -36.5 t-12 -25.5t-12.5 -26.5t-6.5 -38.5q0 -61 25.5 -103.5t56.5 -72t56.5 -52t25.5 -45.5v-16l-33 -64v-16q0 -27 21.5 -47.5t52.5 -40.5v506q6 10 17.5 32.5t15.5 32.5v15q0 78 -23.5 112.5t-58.5 55t-73 39t-68 65.5q-8 2 -9 16h105l862 -16l96 160h31q8 0 15.5 -20.5 t11.5 -51.5t6 -64.5t2 -58.5v-45v-22t-1 -34t-1 -34v-23q-39 0 -57.5 -22.5t-31 -54t-23.5 -63.5t-32 -50v190l-49 -63l-63 129h-277q0 -6 4.5 -19.5t9.5 -29t7 -28.5t0 -19q0 -4 -9.5 -13.5l-20.5 -20.5t-21.5 -19.5t-12.5 -10.5q-20 -20 -31.5 -65t-21.5 -89t-26.5 -76 t-47.5 -26l31 -33q2 -2 28.5 1.5t62.5 8.5t73 11t59 12q23 4 36 27.5t21.5 57.5t10.5 71t2 67v64h59q4 0 9.5 -21.5t10.5 -52t8 -63.5t3 -54q0 -10 -4 -32.5t-8 -47t-10.5 -47t-8.5 -32.5l-32 30q-8 0 -19.5 -11t-11.5 -19q0 -33 10 -68t21.5 -71.5t21.5 -74.5t10 -75v-64 q-27 35 -39 89.5t-28.5 106.5t-46 89t-90.5 37q-47 0 -77 -14.5t-71 -14.5v-229l64 33q-14 -43 -7 -90t29.5 -85t60 -62.5t84.5 -24.5q12 0 33 3t25 3l223 223q0 -2 1 -7t1 -9q0 -2 -1 -9l-1 -6q-16 -29 -31.5 -51t-29 -43.5t-21.5 -44.5t-8 -53h27q2 0 17 13t36.5 33.5 t46.5 45t45 47.5q14 16 25.5 28.5t19.5 24.5q8 10 15.5 34t11.5 52.5t7 56t3 48.5h35q0 -43 -7.5 -86t-15.5 -84t-15 -83t-7 -85q0 -23 4 -45.5t33 -32.5q-35 -35 -108 -42t-161 -10t-178 -11.5t-160 -45.5l54 -36q-6 -4 -19.5 -9.5t-29 -9.5t-29 -8t-19.5 -6h-30 q-57 0 -104.5 17.5t-106.5 17.5q-29 0 -46.5 -6.5t-32 -12.5t-28.5 -12t-37 -6t-32 11t-15 23.5t-14 23.5t-31 11q-25 0 -44 -10t-39.5 -23.5t-43 -23.5t-51.5 -10h-14q-10 6 -22.5 18.5t-10.5 14.5l127 256q18 31 -5.5 55t-61.5 39.5t-75.5 24t-48.5 8.5q-12 0 -49 3t-79 8 t-78.5 11t-49.5 10l-13 -32.5t-18.5 -48t-18.5 -48t-13 -30.5v-17q0 -35 25.5 -47t55 -19.5t55.5 -18.5t26 -44q0 -35 -21.5 -41t-48.5 -6h-29l-286 -33h-33q-10 2 -25.5 13.5t-31 23.5t-29.5 21.5t-27 9.5q-18 0 -28.5 -6t-19.5 -12.5t-22.5 -12.5t-39.5 -6q-8 0 -32 1 t-32 1zM48 364.5q-1 6.5 1 11.5t12 5q23 0 19 -16t-17 -17q-4 0 -9 5t-6 11.5zM176.5 141.5q3.5 -16.5 16.5 -16.5q10 0 14 16q8 16 -14 17q-20 0 -16.5 -16.5zM432 492h299q0 39 -10 80.5t-28.5 81.5t-44 74t-56.5 52q-70 -47 -104.5 -129t-55.5 -159zM788 1196q0 31 27 31 t27 -31q0 -33 -27 -33t-27 33zM911 78h4v2q0 16 7 18l-11 11v-31zM1100 348q0 -2 1 -9l1 -7q0 -2 2 -6t8 -9v39q-4 6 -8 6l-2 3q0 -2 -1 -7.5t-1 -9.5zM1178 383l6 -10l57 106v383h-33q-10 -70 -16 -122t-9 -98t-4 -92t-1 -104v-63zM1198 -147l96 32v-32h-96zM1219 346 q27 -27 12 -45l10 -14q23 0 23 32q0 33 -23 33q-4 0 -8 -2t-14 -4zM1235 141q23 4 22 31q-22 -4 -22 -31zM1432 0h32l-14 12q-8 -2 -10 -6t-8 -6zM1927 432q1 20 17 14q16 -4 16 -14q0 -12 -16.5 -16t-16.5 16z" />
<glyph unicode="&#xc7;" horiz-adv-x="1341" d="M29 655q0 47 30.5 111.5t67.5 126t67.5 114t30.5 74.5l-2 4q53 43 125 74t149.5 50.5t155.5 29.5t146 10q76 0 144.5 -17.5t141.5 -17.5q49 0 84 24t35 77q20 0 34.5 16.5t23 38t12.5 42t4 26.5q35 -35 35 -74v-104l-2 -62v-16q-2 -35 -7.5 -89.5t-10.5 -105.5t-10 -88 l-5 -37l-64 -63q-10 74 -39.5 137t-77.5 111.5t-111.5 76t-139.5 27.5q-94 0 -169 -43t-126 -111.5t-78 -153.5t-27 -169q0 -86 6.5 -178.5t36 -167t90 -122.5t169.5 -48q111 0 192.5 12t141 48t99.5 98.5t64 162.5h35l-2 -63q0 -12 -3 -49t-8 -79t-11.5 -79t-10.5 -49 q-61 -16 -113.5 -39t-102.5 -46.5t-101 -43t-109 -29.5q-10 -53 -14 -98t-4 -92l4 -150q8 0 10 1t4 1q23 0 23 -18q0 -20 -24.5 -50t-61.5 -49h-2l-2 7v4v13l2 15q-6 10 -40 17.5t-69 7.5q-47 0 -65 -12l26 -31q-8 4 -20 4h-21h-49l-215 -4q-78 0 -78 14q0 8 37 29 q72 37 123 59.5t86 34.5t56.5 16.5t35.5 4.5l68 -9h20l56 113l65 168h-18q-12 0 -47 1t-71 4t-63.5 10t-27.5 20v49q-4 0 -18.5 -3t-31 -7t-35 -7.5t-30.5 -3.5q-8 0 -9 1t-3 1q-68 18 -137.5 87t-125 157t-90 182.5t-34.5 165.5zM127 991v31h33zM154 512q0 -37 6 -69.5 t33 -59.5v479q-27 -55 -31 -103t-4 -104v-67q0 -16 -2 -34.5t-2 -41.5zM260 1055q0 -33 27 -33t26 33q1 30 -26 30t-27 -30zM340 223h80q0 8 -1 15.5t-3 17.5q-4 8 -14.5 31.5t-18.5 31.5q-29 -10 -36 -42.5t-7 -53.5zM446 162q0 -18 17 -19q12 1 16 17v2q0 14 -16 14 t-17 -14zM504 -352q-2 -2 2 -2q2 -2 6 -2q14 0 14 18v2l-4 -1t-14 -3q-2 -10 -4 -12zM674 -258q0 -2 1 -5l1 -3q6 -2 8 -2q6 0 18 12l11 10q0 8 -13 8q-10 0 -14 -2q-12 -12 -12 -18zM700 -283q0 -8 2 -10h3q10 0 20 9.5t10 17.5q-4 6 -10 6q-4 0 -6 -3t-10 -5q-8 -6 -9 -15 zM1188 991q0 -33 26 -33q27 0 27 33q0 31 -27 31t-26 -31zM1251 702q0 33 27 33t27 -33q0 -31 -27 -30q-27 0 -27 30z" />
<glyph unicode="&#xc8;" horiz-adv-x="1214" d="M27 1294h100l864 -16l94 160h33q10 0 16.5 -20.5t10.5 -51.5t6 -64.5t2 -58.5v-45v-22t-1 -34t-1 -34v-23q-37 0 -56.5 -22.5t-31.5 -54t-23.5 -63.5t-33.5 -50v190l-48 -63l-63 129h-274q0 -6 4 -19.5t9 -29t7 -28.5t-2 -19q0 -4 -9 -13.5t-20.5 -20.5t-21.5 -19.5 t-13 -10.5q-20 -20 -30 -65t-21.5 -89t-29 -76t-48.5 -26l33 -33q2 -2 29 1.5t62.5 8.5t72.5 11t59 12q23 4 37.5 27.5t21.5 57.5t9 71t2 67v64h59q4 0 9.5 -21.5t10.5 -52t8 -63.5t3 -54q0 -10 -3 -32.5t-8 -47t-10 -47t-10 -32.5l-32 30q-8 0 -20.5 -11t-12.5 -19 q0 -33 10 -68t22.5 -71.5t22.5 -74.5t10 -75v-64q-25 35 -38 89.5t-29 106.5t-47 89t-92 37q-45 0 -75 -14.5t-71 -14.5v-229l64 33q-12 -43 -5 -90t29.5 -85t60.5 -62.5t85 -24.5q12 0 31.5 3t21.5 3l225 223q0 -2 1 -7t1 -9q0 -2 -1 -9l-1 -6q-14 -29 -30.5 -51 t-29.5 -43.5t-22.5 -44.5t-9.5 -53h27q4 0 20.5 13t38 33.5t45 45t43.5 47.5q14 16 25.5 28.5t19.5 24.5q8 10 14.5 34t11.5 52.5t8 56t3 48.5h37q0 -43 -7 -86t-15.5 -84t-15.5 -83t-7 -85q0 -23 3 -45.5t32 -32.5q-35 -37 -114 -44t-173 -9t-189.5 -14.5t-162.5 -59.5h32 l-32 33q-135 -10 -262 -1t-248 31q0 2 -2 8.5t-2 8.5q0 37 30.5 49t66.5 20.5t66.5 22.5t30.5 51v703q8 10 18.5 32.5t14.5 32.5v15q0 78 -23.5 112.5t-58.5 55t-73 39t-68 65.5q-6 2 -6 16zM287 352l65 127v383h-33q-10 -70 -16 -122t-10 -98t-5 -92t-1 -104v-94zM326 319 q0 -33 26 -32q27 0 27 32q0 33 -27 33t-26 -33zM412 1710q0 74 46 91.5t130 17.5q4 0 12 -4.5t18 -6.5q66 -23 93.5 -55.5t27.5 -95.5v-12l107 -138v-8q-4 -29 -20.5 -43t-39 -20t-49 -9.5t-51.5 -9.5h-2q-25 8 -70 44t-90 82t-78.5 92t-33.5 75zM465 1663v35l8 22 q0 -12 -6 -29.5t-2 -27.5zM481 1800q0 -10 4 -10q12 0 13 10q-1 8 -13 8q-4 0 -4 -8zM485 1810l13 -2v2h-13zM623 1458l14 -4v4h-14zM659 1649l5 -2q4 -2 4 2q-1 10 -9 8v-8zM676 1634q0 -6 24.5 -26.5t54 -43t55.5 -41t26 -20.5l-24 17q-24 18 -52.5 41.5t-52 45 t-23.5 27.5v23q0 6 -2 4q-6 -2 -6 -27zM713 1710q0 -4 4 -4v4q0 2 -4 2v-2zM817 1516q0 -4 2 -5q6 0 6 5q0 2 -8 2v-2zM819 1497q0 -8 8 -8t9 8q-1 6 -9 6t-8 -6zM834 1465q6 2 2 10q-8 -12 -2 -10zM1038 432q1 20 17 14q16 -4 16 -14q0 -12 -16.5 -16t-16.5 16z" />
<glyph unicode="&#xc9;" horiz-adv-x="1214" d="M27 1294q0 -14 6 -16q31 -47 68.5 -65.5t72.5 -39t58.5 -55.5t23.5 -112v-15q-4 -10 -14.5 -32.5t-18.5 -32.5v-703q0 -37 -30.5 -51t-66.5 -22.5t-66.5 -20.5t-30.5 -49q0 -2 2 -8t2 -9q121 -23 248 -31.5t262 1.5l32 -33h-32q68 47 163 59.5t189 14.5t173 9t114 44 q-29 10 -32 32.5t-3 45.5q0 43 7 85t15.5 83t15.5 84t7 86h-37q0 -23 -2 -48.5t-8 -58.5q-6 -31 -12.5 -51t-14.5 -34.5t-19.5 -26l-25.5 -25.5q-20 -23 -43.5 -47.5t-45 -45t-38 -33.5t-20.5 -13h-27q0 31 9.5 53.5t22.5 44t29.5 44t30.5 50.5l1 6q1 7 1 9q0 4 -1 9t-1 7 l-225 -223q-2 0 -21.5 -3t-31.5 -3q-47 0 -85 24.5t-60.5 62.5t-30 85t5.5 90l-64 -33v229q41 0 71 14.5t75 14.5q61 0 92 -37t47 -89t29.5 -106.5t37.5 -89.5v64q0 37 -10 75t-22.5 74.5t-22.5 71.5t-10 68q0 8 12.5 19t20.5 11l32 -30q4 10 9.5 32.5t10.5 47t8 47t3 32.5 q0 20 -3 53.5t-8 64t-10 52t-10 21.5h-59v-64q0 -31 -2 -67.5t-9 -70.5t-21.5 -57.5t-37.5 -27.5q-23 -6 -59.5 -12t-72 -11t-62.5 -8.5t-29 -1.5l-33 33q31 -6 48.5 26t29 76t21.5 89t30 65q2 2 12.5 10.5t22 19.5t20.5 20.5t9 13.5q4 6 2 19t-7 28.5t-9 29t-4 19.5h274 l63 -129l48 63v-190q23 18 34 50t23 63.5t31.5 54t56.5 22.5v23q0 16 1 33.5t1 34.5v22v45q0 25 -2 58.5t-6 64.5t-10.5 51.5t-16.5 20.5h-33l-94 -160l-864 16h-100zM287 352v94q0 57 1 103.5t5 92.5t10 98t16 122h33v-383zM326 319q-1 33 26 33t27 -33t-27 -32 q-27 0 -26 32zM461 1544q2 -29 19.5 -43t40 -20t49 -10.5t51.5 -12.5h2q25 10 69.5 47t89.5 83t79 92t34 75q0 74 -45 91.5t-131 17.5q-2 0 -11.5 -4.5t-17.5 -6.5q-66 -23 -95.5 -56.5t-29.5 -98.5v-8l-104 -138v-8zM469 1520q10 -12 3 -11t-3 11zM469 1538q0 12 10 12 q6 0 6 -12q0 -4 -6 -4q-10 0 -10 4zM469 1550q0 -2 23.5 15.5t53 41t53.5 45t24 27.5v19q0 12 2 8q4 -2 4 -27q2 -6 -22.5 -26.5t-55.5 -43t-57 -41.5zM481 1561q0 2 8 2v-2q0 -6 -4 -7q-4 0 -4 7zM592 1751v4q0 2 2 2v-2q0 -4 -2 -4zM639 1694q0 12 6 4v-4l-3 -2 q-3 -2 -3 2zM672 1499v4h12zM809 1843q0 10 10 10q6 0 6 -10q0 -8 -6 -8q-10 0 -10 8zM809 1853v2h10zM834 1763q0 -12 7 -28.5t1 -24.5v33zM1038 432q0 -20 16.5 -16t16.5 16q0 10 -16 14q-16 6 -17 -14z" />
<glyph unicode="&#xca;" horiz-adv-x="1214" d="M27 1294q0 -14 6 -16q31 -47 68.5 -65.5t72.5 -39t58.5 -55.5t23.5 -112v-15q-4 -10 -14.5 -32.5t-18.5 -32.5v-703q0 -37 -30.5 -51t-66.5 -22.5t-66.5 -20.5t-30.5 -49q0 -2 2 -8t2 -9q121 -23 248 -31.5t262 1.5l32 -33h-32q68 47 163 59.5t189 14.5t173 9t114 44 q-29 10 -32 32.5t-3 45.5q0 43 7 85t15.5 83t15.5 84t7 86h-37q0 -23 -2 -48.5t-8 -58.5q-6 -31 -12.5 -51t-14.5 -34.5t-19.5 -26l-25.5 -25.5q-20 -23 -43.5 -47.5t-45 -45t-38 -33.5t-20.5 -13h-27q0 31 9.5 53.5t22.5 44t29.5 44t30.5 50.5l1 6q1 7 1 9q0 4 -1 9t-1 7 l-225 -223q-2 0 -21.5 -3t-31.5 -3q-47 0 -85 24.5t-60.5 62.5t-30 85t5.5 90l-64 -33v229q41 0 71 14.5t75 14.5q61 0 92 -37t47 -89t29.5 -106.5t37.5 -89.5v64q0 37 -10 75t-22.5 74.5t-22.5 71.5t-10 68q0 8 12.5 19t20.5 11l32 -30q4 10 9.5 32.5t10.5 47t8 47t3 32.5 q0 20 -3 53.5t-8 64t-10 52t-10 21.5h-59v-64q0 -31 -2 -67.5t-9 -70.5t-21.5 -57.5t-37.5 -27.5q-23 -6 -59.5 -12t-72 -11t-62.5 -8.5t-29 -1.5l-33 33q31 -6 48.5 26t29 76t21.5 89t30 65q2 2 12.5 10.5t22 19.5t20.5 20.5t9 13.5q4 6 2 19t-7 28.5t-9 29t-4 19.5h274 l63 -129l48 63v-190q23 18 34 50t23 63.5t31.5 54t56.5 22.5v23q0 16 1 33.5t1 34.5v22v45q0 25 -2 58.5t-6 64.5t-10.5 51.5t-16.5 20.5h-33l-94 -160l-864 16h-100zM114 1495q-1 -2 30.5 1t127.5 20v14l252 141l88 -4q20 -12 29.5 -28.5t22 -33t34 -34t65.5 -30.5 t116.5 -22.5t187.5 -11.5q-57 29 -98 66t-75 77t-62.5 79.5t-61.5 74.5v-35q-16 0 -37.5 15.5t-42 36t-35 40t-14.5 27.5l13 10q14 9 18 13v6v2q-31 6 -62.5 3t-51 -11t-23 -21.5t23.5 -25.5q-80 -94 -178 -181.5t-221 -175.5q-6 0 -25.5 -5t-20.5 -7zM287 352v94 q0 57 1 103.5t5 92.5t10 98t16 122h33v-383zM326 319q-1 33 26 33t27 -33t-27 -32q-27 0 -26 32zM565 1724q0 12 21 13q20 0 20 -13q0 -12 -20 -12t-21 12zM565 1759q0 10 21 10q20 0 20 -10q0 -12 -20 -12t-21 12zM770 1683q0 8 14.5 9.5t14.5 -9.5q-1 -6 -15 -6q-4 2 -9 4 zM1038 432q0 -20 16.5 -16t16.5 16q0 10 -16 14q-16 6 -17 -14z" />
<glyph unicode="&#xcb;" horiz-adv-x="1214" d="M27 1294h100l864 -16l94 160h33q10 0 16.5 -20.5t10.5 -51.5t6 -64.5t2 -58.5v-45v-22t-1 -34t-1 -34v-23q-37 0 -56.5 -22.5t-31.5 -54t-23.5 -63.5t-33.5 -50v190l-48 -63l-63 129h-274q0 -6 4 -19.5t9 -29t7 -28.5t-2 -19q0 -4 -9 -13.5t-20.5 -20.5t-21.5 -19.5 t-13 -10.5q-20 -20 -30 -65t-21.5 -89t-29 -76t-48.5 -26l33 -33q2 -2 29 1.5t62.5 8.5t72.5 11t59 12q23 4 37.5 27.5t21.5 57.5t9 71t2 67v64h59q4 0 9.5 -21.5t10.5 -52t8 -63.5t3 -54q0 -10 -3 -32.5t-8 -47t-10 -47t-10 -32.5l-32 30q-8 0 -20.5 -11t-12.5 -19 q0 -33 10 -68t22.5 -71.5t22.5 -74.5t10 -75v-64q-25 35 -38 89.5t-29 106.5t-47 89t-92 37q-45 0 -75 -14.5t-71 -14.5v-229l64 33q-12 -43 -5 -90t29.5 -85t60.5 -62.5t85 -24.5q12 0 31.5 3t21.5 3l225 223q0 -2 1 -7t1 -9q0 -2 -1 -9l-1 -6q-14 -29 -30.5 -51 t-29.5 -43.5t-22.5 -44.5t-9.5 -53h27q4 0 20.5 13t38 33.5t45 45t43.5 47.5q14 16 25.5 28.5t19.5 24.5q8 10 14.5 34t11.5 52.5t8 56t3 48.5h37q0 -43 -7 -86t-15.5 -84t-15.5 -83t-7 -85q0 -23 3 -45.5t32 -32.5q-35 -37 -114 -44t-173 -9t-189.5 -14.5t-162.5 -59.5h32 l-32 33q-135 -10 -262 -1t-248 31q0 2 -2 8.5t-2 8.5q0 37 30.5 49t66.5 20.5t66.5 22.5t30.5 51v703q8 10 18.5 32.5t14.5 32.5v15q0 78 -23.5 112.5t-58.5 55t-73 39t-68 65.5q-6 2 -6 16zM143 1597v11v24v10q0 66 29 99t96 53q6 4 16.5 7t14.5 3q84 0 140.5 -43 t56.5 -116q0 -29 -13.5 -49.5t-33 -37t-44 -28.5t-49.5 -23h-2q-6 0 -32.5 5.5t-57.5 11.5t-56.5 12t-29.5 10q-6 12 -10.5 26.5t-24.5 24.5zM170 1694q2 0 2 2v2q-2 0 -2 -2v-2zM195 1561q0 -8 10 -9q6 0 6 9q0 8 -6 8q-10 0 -10 -8zM203 1624q0 -27 2 -27q2 2 2 27 q0 21 -2 25q-2 2 -2 -7v-18zM205 1587q0 -6 8 -6t8 6q0 10 -8 10t-8 -10zM219 1608q0 -4 2 -4t2 4v2q-4 0 -4 -2zM219 1634q0 -2 2 -1l2 1v8q-4 4 -4 -8zM287 352l65 127v383h-33q-10 -70 -16 -122t-10 -98t-5 -92t-1 -104v-94zM326 319q0 -33 26 -32q27 0 27 32 q0 33 -27 33t-26 -33zM389 1755q0 -12 12 -12q4 0 5 12q-1 8 -5 8q-12 0 -12 -8zM389 1763l12 4h-12v-4zM406 1546l12 6h-12v-6zM420 1618q10 10 12 18.5t2 20.5h-14v-39zM676 1597v11v24v10q0 66 29.5 99t95.5 53q8 4 17 7t13 3q84 0 140.5 -43t56.5 -116q0 -55 -44 -86 t-93 -52h-2q-6 0 -34 5.5t-58.5 11.5t-56 12t-27.5 10q-8 12 -12.5 26.5t-24.5 24.5zM702 1694q2 0 3 2v2q-2 0 -3 -2v-2zM729 1561q0 -8 8 -9q8 0 8 9q0 8 -8 8t-8 -8zM735 1624q0 -27 2 -27q2 2 2 27q0 21 -2 25q-2 2 -2 -7v-18zM737 1587q0 -6 11 -6q6 0 6 6q0 10 -6 10 q-10 0 -11 -10zM752 1608q0 -4 2 -4t2 4v2q-4 0 -4 -2zM752 1634q0 -2 2 -1l2 1v8q-4 4 -4 -8zM924 1755q0 -12 14 -12q2 0 2 12q0 8 -2 8q-14 0 -14 -8zM924 1763l14 4h-14v-4zM940 1546l12 6h-12v-6zM956 1618q12 18 13 39h-13v-39zM1038 432q1 20 17 14q16 -4 16 -14 q0 -12 -16.5 -16t-16.5 16z" />
<glyph unicode="&#xcc;" horiz-adv-x="1054" d="M18 1315q8 0 39 -1t39 -3q10 -4 52 -15.5t91.5 -22.5t91.5 -19.5t52 -8.5l11 4q12 4 27 9.5t31.5 10.5t26.5 9q8 2 32 17.5t32 15.5q6 0 20.5 -8.5t29.5 -19.5t28.5 -22.5t17.5 -15.5h383q-33 -39 -54.5 -58.5t-38 -28.5t-30.5 -10t-32.5 -2t-42 -6t-58.5 -22 q-31 -16 -53.5 -68.5t-36.5 -124t-23.5 -153.5t-13.5 -158.5t-5 -139t-1 -95.5q0 -18 2 -42t2 -50q0 -23 1 -42.5t1 -21.5l33 -30l30 63q4 -29 19.5 -52.5t33 -45t32 -41t14.5 -37.5q0 -2 -1 -8t-1 -9l-193 -63h-14h-17q-10 8 -32.5 30.5t-30.5 32.5q-23 -4 -77 -9 t-115.5 -10t-115.5 -8t-77 -3q-6 0 -19.5 -1t-29.5 -1q-14 0 -27.5 -1t-17.5 -1v34q55 2 109.5 21.5t80.5 75.5q33 96 52.5 199.5t29.5 210t12 213t2 208.5q0 63 -22.5 96t-55 48.5t-72.5 21.5t-73 20.5t-55.5 45t-22.5 92.5zM336 1722q0 74 45 91.5t131 17.5q2 0 11 -4 t18 -6q66 -23 95.5 -55.5t29.5 -98.5v-8l104 -139v-9q-4 -29 -20.5 -42t-39 -20t-49 -10t-51.5 -12h-4q-25 10 -69.5 47t-89 83.5t-78 91.5t-33.5 73zM389 1677v35l8 19q0 -12 -7 -28.5t-1 -25.5zM406 1810q0 -8 4 -8q10 0 10 8q0 11 -10 11q-4 0 -4 -11zM410 1823l10 -2v2 h-10zM416 352q0 -10 3 -35.5t8 -56.5t10 -58.5t9 -41.5q4 -8 14.5 -18.5t18.5 -14.5v23q0 16 1 33.5t1 33.5v23v63q0 29 -3 56.5t-10 56t-22 63.5q-8 -23 -19 -65t-11 -62zM463 592q0 -20 16.5 -16t16.5 16q-1 10 -17 14q-16 6 -16 -14zM545 1473l14 -7v7h-14zM586 1661 l3 -1q3 -1 3 1q0 8 -2 9t-4 -3v-6zM602 1649q-2 -6 22.5 -26.5t55.5 -44.5t56 -42l26 -18l-24 17q-25 17 -54 40.5t-53.5 45t-24.5 28.5v18q0 10 -2 8q-2 -4 -2 -26zM637 1722q0 -2 2 -2v2q0 2 -2 2v-2zM739 1528q0 -4 6 -4q2 0 3 4q-1 2 -9 2v-2zM745 1507q0 -6 7 -6 q10 0 10 6q0 11 -10 11q-6 0 -7 -11zM758 1478q6 1 4 11q-10 -12 -4 -11z" />
<glyph unicode="&#xcd;" horiz-adv-x="1054" d="M18 1315q0 -61 22.5 -92t55.5 -45.5t73 -20.5t72.5 -21.5t55 -48t22.5 -96.5q0 -102 -2 -208.5t-12 -213t-29.5 -210t-52.5 -199.5q-27 -55 -81 -74.5t-109 -22.5v-34q4 0 17 1t28 1q16 0 29.5 1t19.5 1q23 0 77 3t115.5 8t115.5 10t77 9q8 -10 30.5 -32.5t32.5 -30.5h17 h14l193 63q0 2 1 8.5t1 8.5q0 18 -14.5 37.5t-32 41t-32.5 45t-20 52.5l-30 -63l-33 30q0 2 -1 21.5t-1 42.5q0 27 -2 50t-2 42q0 33 1 95.5t5 139t13.5 158.5t23.5 153.5t36.5 124t53.5 68.5q35 16 58.5 21.5t42 6.5t32.5 2t30.5 10t38 28.5t54.5 58.5h-383 q-4 4 -17.5 15.5t-28.5 22.5t-29.5 19.5t-20.5 8.5q-8 0 -32 -15.5t-32 -17.5q-10 -4 -26.5 -9t-31.5 -10.5t-27 -9.5l-11 -4q-10 0 -52 8.5t-91.5 19.5t-91.5 22.5t-52 15.5q-8 2 -38.5 3t-39.5 1zM287 1561q4 -29 20.5 -43.5t40 -20.5t49 -10t49.5 -12h5q25 10 69.5 47 t88.5 83t78 91t34 73q0 37 -11.5 59.5t-34 34t-55 14.5t-75.5 3q-2 0 -11.5 -4t-17.5 -6q-66 -23 -94.5 -56.5t-28.5 -99.5v-8l-106 -137v-8zM299 1536q8 -12 2 -11t-2 11zM299 1554q0 11 6 11q8 0 8 -11q0 -4 -8 -4q-6 0 -6 4zM299 1565l23 17q24 17 52.5 41t52.5 45.5 t24 27.5v18q0 10 2 8q6 -2 6 -26q0 -6 -24.5 -26.5t-54.5 -43t-55.5 -41t-25.5 -20.5zM309 1577q0 2 8 2v-2q0 -6 -4 -6t-4 6zM416 352q0 20 11 62.5t19 64.5q14 -35 21.5 -63.5t10.5 -56t3 -56.5v-63v-23q0 -16 -1 -33.5t-1 -33.5v-23q-8 4 -18 14.5t-15 18.5 q-4 14 -9 41.5t-10 58.5t-8 56.5t-3 35.5zM418 1767v2q0 5 2 5v-5q0 -2 -2 -2zM463 592q0 20 16 14q16 -4 17 -14q0 -12 -16.5 -16.5t-16.5 16.5zM465 1710q0 16 8 4v-4l-4 -2q-4 -2 -4 2zM498 1516v4h14zM637 1858q0 12 12 12q2 0 2 -12q0 -8 -2 -9q-12 0 -12 9zM637 1870 v2h12zM659 1778q0 -10 7.5 -26.5t1.5 -27.5v35z" />
<glyph unicode="&#xce;" horiz-adv-x="1054" d="M18 1315q0 -61 22.5 -92t55.5 -45.5t73 -20.5t72.5 -21.5t55 -48t22.5 -96.5q0 -102 -2 -208.5t-12 -213t-29.5 -210t-52.5 -199.5q-27 -55 -81 -74.5t-109 -22.5v-34q4 0 17 1t28 1q16 0 29.5 1t19.5 1q23 0 77 3t115.5 8t115.5 10t77 9q8 -10 30.5 -32.5t32.5 -30.5h17 h14l193 63q0 2 1 8.5t1 8.5q0 18 -14.5 37.5t-32 41t-32.5 45t-20 52.5l-30 -63l-33 30q0 2 -1 21.5t-1 42.5q0 27 -2 50t-2 42q0 33 1 95.5t5 139t13.5 158.5t23.5 153.5t36.5 124t53.5 68.5q35 16 58.5 21.5t42 6.5t32.5 2t30.5 10t38 28.5t54.5 58.5h-383 q-4 4 -17.5 15.5t-28.5 22.5t-29.5 19.5t-20.5 8.5q-8 0 -32 -15.5t-32 -17.5q-10 -4 -26.5 -9t-31.5 -10.5t-27 -9.5l-11 -4q-10 0 -52 8.5t-91.5 19.5t-91.5 22.5t-52 15.5q-8 2 -38.5 3t-39.5 1zM60 1460q-1 -2 31 1t128 20v16l250 137l90 -2q20 -12 29.5 -28.5t22 -33 t34 -33.5t64.5 -30.5t115.5 -22.5t187.5 -11q-57 29 -98.5 65.5t-75 76.5t-62 80t-59.5 74v-32q-16 0 -39 15t-42.5 34.5t-33.5 39t-14 27.5l13 9q13 10 17 12v8v2q-33 6 -64.5 3t-51 -12t-21.5 -21.5t25 -26.5q-160 -184 -400 -354q-6 0 -25.5 -5.5t-20.5 -7.5zM416 352 q0 20 11 62.5t19 64.5q14 -35 21.5 -63.5t10.5 -56t3 -56.5v-63v-23q0 -16 -1 -33.5t-1 -33.5v-23q-8 4 -18 14.5t-15 18.5q-4 14 -9 41.5t-10 58.5t-8 56.5t-3 35.5zM463 592q0 20 16 14q16 -4 17 -14q0 -12 -16.5 -16.5t-16.5 16.5zM512 1690q0 8 18 8q23 0 23 -8 q0 -13 -23 -13q-18 0 -18 13zM512 1724q0 12 18 13q23 0 23 -13q0 -12 -23 -12q-18 0 -18 12zM717 1649q0 8 14 9t14 -9q0 -7 -14 -7q-8 2 -11 4z" />
<glyph unicode="&#xcf;" horiz-adv-x="1054" d="M18 1315q8 0 39 -1t39 -3q10 -4 52 -15.5t91.5 -22.5t91.5 -19.5t52 -8.5l11 4q12 4 27 9.5t31.5 10.5t26.5 9q8 2 32 17.5t32 15.5q6 0 20.5 -8.5t29.5 -19.5t28.5 -22.5t17.5 -15.5h383q-33 -39 -54.5 -58.5t-38 -28.5t-30.5 -10t-32.5 -2t-42 -6t-58.5 -22 q-31 -16 -53.5 -68.5t-36.5 -124t-23.5 -153.5t-13.5 -158.5t-5 -139t-1 -95.5q0 -18 2 -42t2 -50q0 -23 1 -42.5t1 -21.5l33 -30l30 63q4 -29 19.5 -52.5t33 -45t32 -41t14.5 -37.5q0 -2 -1 -8t-1 -9l-193 -63h-14h-17q-10 8 -32.5 30.5t-30.5 32.5q-23 -4 -77 -9 t-115.5 -10t-115.5 -8t-77 -3q-6 0 -19.5 -1t-29.5 -1q-14 0 -27.5 -1t-17.5 -1v34q55 2 109.5 21.5t80.5 75.5q33 96 52.5 199.5t29.5 210t12 213t2 208.5q0 63 -22.5 96t-55 48.5t-72.5 21.5t-73 20.5t-55.5 45t-22.5 92.5zM92 1624v8v27v8q0 66 29 98.5t98 55.5 q4 2 13.5 6t13.5 4q84 0 141 -43t57 -117q0 -55 -45 -86t-94 -51h-2q-6 0 -32.5 4t-57.5 10t-56.5 12.5t-29.5 10.5q-8 12 -12.5 27.5t-22.5 25.5zM117 1720q6 0 6 2v2q-6 0 -6 -2v-2zM143 1583q0 -4 11 -4q6 0 6 4q0 12 -6 12q-10 0 -11 -12zM150 1649q0 -25 4 -25 q4 2 4 25q0 22 -4 26q-4 2 -4 -8v-18zM154 1614q0 -6 8 -6t8 6q0 10 -8 10t-8 -10zM166 1632q0 -2 4 -2q2 0 2 2v2q-6 0 -6 -2zM166 1661q0 -2 3 -1l3 1v6q-2 4 -4 3t-2 -9zM338 1778q0 -8 14 -9q2 0 2 9q0 12 -2 12q-14 0 -14 -12zM338 1790l14 2h-14v-2zM354 1571l13 8 h-13v-8zM371 1645q12 14 12 34h-12v-34zM416 352q0 -10 3 -35.5t8 -56.5t10 -58.5t9 -41.5q4 -8 14.5 -18.5t18.5 -14.5v23q0 16 1 33.5t1 33.5v23v63q0 29 -3 56.5t-10 56t-22 63.5q-8 -23 -19 -65t-11 -62zM463 592q0 -20 16.5 -16t16.5 16q-1 10 -17 14q-16 6 -16 -14z M625 1624v8v27v8q0 66 28.5 98.5t98.5 55.5q8 2 17 6t11 4q84 0 140.5 -43t56.5 -117q0 -55 -44 -86t-91 -51h-6q-6 0 -33 4t-57.5 10t-56 12.5t-30.5 10.5q-6 12 -10 27.5t-24 25.5zM651 1720q4 0 4 2v2q-4 0 -4 -2v-2zM676 1583q0 -4 10 -4q6 0 6 4q0 12 -6 12 q-10 0 -10 -12zM684 1649q0 -25 2 -25q4 2 4 25q0 22 -4 26q-2 2 -2 -8v-18zM686 1614q0 -6 12 -6q4 0 4 6q0 10 -4 10q-12 0 -12 -10zM700 1632q0 -2 2 -2t3 2v2q-4 0 -5 -2zM700 1661q0 -2 2 -1l3 1v6q-4 8 -5 -6zM872 1778q0 -8 13 -9q4 0 4 9q0 12 -4 12q-12 0 -13 -12z M872 1790l13 2h-13v-2zM889 1571l10 8h-10v-8zM905 1645q10 14 10 34h-10v-34z" />
<glyph unicode="&#xd0;" horiz-adv-x="1423" d="M35 815q2 -8 2 -22v-37v-84q0 -49 3 -94.5t3 -71.5l2 -10q2 -4 18.5 -14.5t16.5 -18.5q10 -16 14 -22.5t12 -34.5l136 102l-23 35q0 10 37 10q12 0 22.5 -2t24.5 -6q-2 -96 -9 -191.5t-20 -226.5q-10 -29 -36.5 -40t-60.5 -17.5t-68.5 -13.5t-57.5 -23l31 -33h608 q8 8 33 18.5t31 14.5h30q4 -2 14.5 -7.5t20.5 -11.5t18.5 -10t12.5 -4q8 0 32.5 14.5t30.5 18.5q14 4 51 13t77 19.5t77 19.5t51 11q2 8 13.5 32t17.5 32q6 12 24.5 45t40 68.5t40 66.5t24.5 43l-33 33q39 12 60.5 31.5t32 44t11.5 52t1 58.5q0 14 -7.5 51t-19.5 85 t-26.5 100.5t-29.5 97.5t-29.5 78t-24.5 41q-35 25 -80 36t-89 24t-85 34.5t-66 64.5q-119 -6 -223.5 -0.5t-203.5 13.5t-199.5 16t-208.5 8q0 -20 13 -43.5t31.5 -46t35 -43t22.5 -33.5l31 66q31 -37 44 -84t17 -98t3 -104.5t-1 -100.5h-82q-49 0 -77.5 4t-45 14.5 t-23.5 28.5t-14 47zM250 692v6h2q6 8 21.5 17.5t31.5 21.5v-20q-43 -25 -53 -25h-2zM354 399q0 20 5.5 35.5t11.5 11.5q14 -6 14 -47t-14 -47q-6 -10 -11.5 8.5t-5.5 38.5zM371 766v129h41q0 -33 -2 -64.5t-9 -64.5h-30zM514 1038q0 23 5 40t11 7q14 -14 15 -47 q0 -33 -15 -47q-6 -10 -11 7.5t-5 39.5zM516 506q6 0 11.5 -3t13.5 -3q-2 -16 -5.5 -29.5t-5.5 -24.5q-4 -10 -7 7.5t-7 52.5zM516 754q4 29 7 42t7 3q2 -8 5.5 -20.5t5.5 -26.5zM545 367q0 20 16 16q8 -2 12.5 -4t4.5 -12t-16.5 -15.5t-16.5 15.5zM596 489q29 -6 58.5 -10 t64.5 -10q8 -16 25.5 -17t43.5 -1h37l19 34v326q0 10 -9.5 14t-9.5 11q-55 -29 -65 -52.5t-12 -31.5q4 -10 -16 -12.5t-30 -8.5l-100 14q2 51 5 108.5t6 110t6.5 93.5t5.5 61q33 33 71.5 34t81.5 1q72 0 113 -20.5t62.5 -55.5t32.5 -82t24 -100q10 -45 22 -70.5t24.5 -41 t23 -28t19.5 -29.5t14 -45t5 -75h-45q-6 -66 -20.5 -144.5t-45 -147t-84 -114.5t-139.5 -46q-6 0 -19 1t-28.5 2t-29 2t-17.5 1q-18 29 -33.5 68.5t-27 84.5t-19.5 90.5t-14 85.5zM1010 193l63 30q-2 -8 -13 -18t-20 -12l-6 -3q-6 -2 -10 -2q-2 0 -7 2.5t-7 2.5zM1184 463 q0 20 16 16t17 -16q0 -12 -16.5 -16.5t-16.5 16.5zM1184 623q0 23 5 40t11 9q16 -20 17 -49q0 -31 -17 -48q-6 -8 -11 8.5t-5 39.5zM1329 512v63q0 6 4 19.5t9.5 29t9.5 29t8 19.5v-66q0 -6 -4 -19.5t-8.5 -28.5t-9.5 -28.5t-9 -17.5z" />
<glyph unicode="&#xd1;" horiz-adv-x="1501" d="M27 1233q0 2 1 7t1 9q23 0 77 4t114.5 8.5t114.5 9.5t77 9q2 0 11 5t19.5 11.5t20.5 11.5t14 5q14 0 66.5 -21.5t109 -52.5t101.5 -63.5t45 -57.5q0 -27 -10.5 -45t-57.5 -16q59 -53 108.5 -123t96.5 -141.5t97 -137t114 -110.5v352q-8 8 -18.5 32.5t-12.5 31.5v16v16 l31 97v14v16q-8 12 -16.5 36t-14.5 28l-7 2q-7 2 -9 2q-18 0 -26.5 -16.5t-13.5 -39t-13.5 -44t-26.5 -31.5q-4 8 -9 26.5t-9.5 38t-8.5 37t-6 25.5v33v32q12 0 44 4t69 8.5t68.5 9.5t41.5 9q2 0 11.5 5t19.5 11.5t20.5 11.5t14.5 5q8 0 35.5 -4t58.5 -9.5t58.5 -10.5 t37.5 -9q-16 -41 -37.5 -53.5t-46 -10t-52 10.5t-58.5 8q0 -135 -15.5 -263t-15.5 -263q0 -53 -3 -120t-3 -138q0 -72 4 -146t18.5 -141.5t41 -125.5t71.5 -99h-14h-17q-4 0 -13 5t-19.5 11t-19.5 11t-11 5q-4 0 -17.5 -16t-15.5 -16l-13 -1q-13 -1 -20 -1q-8 0 -18 1t-12 1 q2 43 -28 112.5t-80 152.5t-111.5 171t-123 165.5t-115.5 139t-85 90.5q-18 18 -51 46t-63.5 52.5t-54.5 43.5l-24 18h-32q-4 0 -10.5 -42t-13.5 -107.5t-14 -143.5t-13.5 -149.5t-10.5 -127t-4 -73.5q0 -37 20.5 -72t52.5 -57.5t71.5 -30.5t80.5 4l-63 -65h-479v32 q31 16 74.5 40t83.5 55.5t69 71.5t29 89v703q0 20 -34 42.5t-79 43t-87 40t-56 34.5l-1 7t-1 9zM215 1469.5q2 3.5 20.5 7.5t24.5 4q18 -4 51 33.5t89.5 99t141.5 137.5t210 150v-11q-4 -2 -18 -11l-13 -9q0 -23 31 -49q66 -18 94 -43v8q16 -27 34.5 -52.5t34.5 -45.5 q0 -4 7 -5l84 -4l145 144l117 49q51 6 73.5 3t27.5 -9t-1 -12.5t-12 -6.5q-47 -37 -105.5 -91t-114 -107.5t-99.5 -97.5t-60 -62l-2 -4q27 -12 23.5 -25.5t-24 -24t-51 -14.5t-59.5 2v13q4 2 11 6l20 14q0 8 -9 21.5t-22 29.5q-16 4 -42.5 26.5t-60.5 48.5t-72 46.5 t-79 20.5l-243 -146v-14q-94 -16 -124 -19.5t-28 0zM354 1153q0 -33 27 -33q25 0 25 33q0 18 -6.5 24.5t-18.5 6.5t-19.5 -6.5t-7.5 -24.5zM397 465q1 22 15 16q16 -4 16 -16q0 -10 -15.5 -13t-15.5 13zM649 1704q0 -14 10 -14q-2 4 -3 9t-7 7v-2zM952 1640q6 -14 17 -24v8 q0 2 -5.5 6t-11.5 10zM961 451q0 -33 26 -33q25 0 25 33q0 30 -25 30q-27 0 -26 -30zM993 418q0 -33 27 -33q25 0 24 33q1 33 -24 33q-27 0 -27 -33zM1024 385q0 -31 27 -31q25 0 24 31q1 33 -24 33q-27 0 -27 -33z" />
<glyph unicode="&#xd2;" horiz-adv-x="1374" d="M29 539v36q0 137 27.5 242t86 183.5t149.5 138t220 106.5q10 4 25.5 10.5t31 11.5t26.5 8l11 3q150 0 283 -47t233.5 -136t159.5 -216t59 -287q0 -121 -44 -210t-116.5 -158.5t-163.5 -123t-186 -100.5h-14q-18 0 -71.5 9t-124 23.5t-149.5 33t-145.5 36t-113.5 34 t-53 24.5q-18 27 -28.5 58.5t-22 61t-28.5 57.5t-48 46v35q0 31 -2 61.5t-2 59.5zM113 815q0 -20 15 -16t15 16q0 10 -16 16q-8 2 -11 -1t-3 -15zM229 223q0 -31 27 -30q27 0 27 30q0 33 -27 33t-27 -33zM240 496q0 -25 1 -47.5t3 -39t5 -24.5t7 -2q8 12 10 44t2 69t-2 68.5 t-10 41.5q-8 12 -12 -25.5t-4 -84.5zM260 352q0 -33 27 -33t26 33q1 31 -26 31t-27 -31zM303 432q0 -20 16.5 -16t16.5 16q-1 10 -17 14q-16 6 -16 -14zM303 559q0 -20 16.5 -16t16.5 16q-1 10 -17 16q-16 4 -16 -16zM381 721q0 -23 1 -73t6 -112.5t15.5 -129t29 -121 t45 -90t65.5 -35.5h288q8 0 25.5 24.5t39.5 63.5t43.5 85t39.5 88t30.5 75.5t12.5 46.5q0 12 -1 48t-3 77t-5 77.5t-7 53.5v-193q-6 47 -14.5 108.5t-22 126t-36 126t-57 109.5t-85 78t-119.5 30q-86 0 -142.5 -49.5t-89 -121t-46 -151.5t-13.5 -141zM453 1720q0 74 45 90.5 t131 16.5q4 0 13 -3l15 -5q68 -23 96.5 -56.5t28.5 -99.5v-6l107 -139v-11q-4 -29 -20.5 -42t-40 -20t-49 -10t-50.5 -12h-4q-25 10 -71 47t-90 83t-77.5 92.5t-33.5 74.5zM507 1699q-7 -18 1 -24v35l6 19q0 -12 -7 -30zM524 1808q0 -8 2 -8q14 0 15 8q-1 11 -15 11 q-2 0 -2 -11zM526 1821l15 -2v2h-15zM666 1470l10 -6v6h-10zM702 1659l4 -1q3 -1 3 1q0 6 -2.5 7t-4.5 -3v-4zM719 1645q0 -6 24.5 -27t54 -43.5t55.5 -40.5l26 -18q0 -2 -24 16t-53.5 40.5t-53 44t-23.5 28.5v18q0 12 -4 8q-2 -4 -2 -26zM754 1720q0 -6 2 -6v6q0 2 -2 2v-2 zM860 1524q0 -4 2 -4t2 4t-4 4v-4zM862 1503q0 -4 6 -4q10 0 11 4q-1 13 -11 13q-6 0 -6 -13zM874 1475q7 0 5 10q-10 -10 -5 -10zM958 1085l33 33h-33v-33zM965 1055q0 -33 26 -33q27 0 27 33q0 30 -27 30t-26 -30zM1022 160l33 33h-33v-33zM1085 479q16 35 27.5 77 t11.5 83h-39v-160z" />
<glyph unicode="&#xd3;" horiz-adv-x="1374" d="M29 575l4 -36v-156q31 -18 48 -46t28.5 -57.5t21.5 -61.5t29 -58q6 -10 53 -25.5t113.5 -33t145.5 -36t149.5 -33t125 -23.5t70.5 -9h14q94 47 185.5 100.5t164 123t116.5 158.5t44 210q0 160 -59 287t-159.5 216t-233.5 136t-283 47l-11 -3t-26.5 -8t-31 -11.5 t-25.5 -10.5q-129 -47 -220 -106.5t-149.5 -138t-86 -183t-27.5 -242.5zM113 815q0 16 10 16h4q16 -6 16 -16q0 -16 -18 -16q-12 0 -12 16zM229 223q0 33 27 33t27 -33q0 -31 -27 -30q-27 0 -27 30zM240 496q0 47 2 80.5t10 33.5q4 0 4 -4q8 -10 10 -42t2 -68q0 -37 -2 -69 t-10 -44q0 -2 -4 -2q-8 0 -10 34t-2 81zM260 352q0 31 27 31t26 -31q0 -33 -26 -33q-27 0 -27 33zM303 432q0 14 10 14h6q16 -4 17 -14q0 -16 -19 -16q-14 0 -14 16zM303 559q0 16 10 16h6q16 -6 17 -16q0 -16 -19 -16q-14 0 -14 16zM381 721q0 61 13.5 141t46 151.5t89 121 t142.5 49.5q98 0 157.5 -56.5t94 -137.5t51 -174t26.5 -167q2 -10 3 -24v-11q0 -4 2 -8v193q4 -16 7 -53t5 -78t3 -77t1 -48t-12.5 -46t-30.5 -76t-39.5 -88t-43.5 -85t-39 -63.5t-26 -24.5h-288q-39 0 -65.5 35.5t-45 90t-29 121t-15.5 129t-6 112.5t-1 73zM479 1507 q4 -29 20.5 -42t39 -20t49 -10t51.5 -12h2q25 10 70 47t90 83t78.5 92.5t33.5 74.5q0 74 -45 90.5t-131 16.5q-2 0 -11 -3t-17 -5q-66 -23 -94.5 -56.5t-28.5 -99.5v-6l-107 -139v-11zM489 1485q8 -10 3 -10q-7 0 -3 10zM489 1503q1 13 9 13t8 -13q0 -4 -8 -4t-9 4z M489 1516q0 -2 24 16t52.5 40.5t52 44t23.5 28.5v18q0 12 4 8t4 -26q0 -6 -24.5 -27t-54 -43.5t-55.5 -40.5zM500 1524q0 4 8 4v-4q0 -4 -2 -4q-6 0 -6 4zM610 1714v6q0 2 2 2v-2q0 -6 -2 -6zM657 1659q1 10 9 4v-4l-4 -1q-5 -1 -5 1zM690 1464v6h12zM827 1808q1 11 15 11 q2 0 2 -11q0 -8 -2 -8q-14 0 -15 8zM827 1819v2h15zM852 1729q0 -12 7 -30t1 -24v35zM958 1085v33h33zM965 1055q-1 30 26 30t27 -30q0 -33 -27 -33t-26 33zM1022 160v33h33zM1085 479v160h39q0 -41 -11 -83t-28 -77z" />
<glyph unicode="&#xd4;" horiz-adv-x="1374" d="M29 539q0 -29 2 -59.5t2 -61.5v-35q31 -18 48 -46t28.5 -57.5t21.5 -61.5t29 -58q6 -10 53 -25.5t113.5 -33t145.5 -36t149.5 -33t125 -23.5t70.5 -9h14q94 47 185.5 100.5t164 123t116.5 158.5t44 210q0 160 -59 287t-159.5 216t-233.5 136t-283 47l-11 -3t-26.5 -8 t-31 -11.5t-25.5 -10.5q-129 -47 -220 -106.5t-149.5 -138t-86 -183t-27.5 -242.5v-36zM113 815q0 12 3 15t11 1q16 -6 16 -16q0 -12 -15 -16t-15 16zM207 1441q-2 -3 29.5 0t128.5 17v17l253 141l87 -2q20 -12 29 -28.5t21.5 -33t34 -34t65.5 -30.5t118 -22.5t188 -11.5 q-59 29 -100 65.5t-75 76.5t-62.5 80t-61.5 75v-37q-16 0 -37.5 15.5t-42 36t-34 40t-13.5 29.5l13 9q14 9 16 11v9v2q-31 6 -62.5 3t-51 -12.5t-22.5 -22.5t23 -26q-80 -94 -178 -181t-221 -173q-6 0 -24.5 -5t-20.5 -8zM229 223q0 33 27 33t27 -33q0 -31 -27 -30 q-27 0 -27 30zM240 496q0 47 4 84.5t12 25.5q8 -10 10 -42t2 -68q0 -37 -2 -69t-10 -44q-4 -6 -7 2t-5 24.5t-3 39t-1 47.5zM260 352q0 31 27 31t26 -31q0 -33 -26 -33q-27 0 -27 33zM303 432q0 20 16 14q16 -4 17 -14q0 -12 -16.5 -16t-16.5 16zM303 559q0 20 16 16 q16 -6 17 -16q0 -12 -16.5 -16t-16.5 16zM381 721q0 61 13.5 141t46 151.5t89 121t142.5 49.5q70 0 120 -30t84.5 -78t57 -109.5t36 -126t21.5 -126t15 -108.5v193q4 -16 7 -53t5 -78t3 -77t1 -48t-12.5 -46t-30.5 -76t-39.5 -88t-43.5 -85t-39 -63.5t-26 -24.5h-288 q-39 0 -65.5 35.5t-45 90t-29 121t-15.5 129t-6 112.5t-1 73zM657 1671q0 8 19 8q25 0 24 -8q1 -12 -24 -12q-18 0 -19 12zM657 1706q0 8 19 8q25 0 24 -8q1 -12 -24 -12q-18 0 -19 12zM862 1630q0 8 14.5 9t14.5 -9q0 -6 -12 -6q-8 2 -13 4zM958 1085v33h33zM965 1055 q-1 30 26 30t27 -30q0 -33 -27 -33t-26 33zM1022 160v33h33zM1085 479v160h39q0 -41 -11 -83t-28 -77z" />
</font>
</defs>
</svg>
