<?xml version="1.0" standalone="no"?>
<!DOCTYPE svg PUBLIC "-//W3C//DTD SVG 1.1//EN" "http://www.w3.org/Graphics/SVG/1.1/DTD/svg11.dtd" >
<svg xmlns="http://www.w3.org/2000/svg" xmlns:xlink="http://www.w3.org/1999/xlink" version="1.1">
<metadata></metadata>
<defs>
<font id="malifaux_rodent_editionRg" horiz-adv-x="1060" >
<font-face units-per-em="2048" ascent="1638" descent="-410" />
<missing-glyph horiz-adv-x="1024" />
<glyph horiz-adv-x="0" />
<glyph unicode="&#xd;" horiz-adv-x="1024" />
<glyph unicode=" "  horiz-adv-x="1024" />
<glyph unicode="&#x09;" horiz-adv-x="1024" />
<glyph unicode="&#xa0;" horiz-adv-x="1024" />
<glyph unicode="*" horiz-adv-x="1009" d="M160 909q0 18 14 25l240 106l-240 107q-14 6 -14 24q0 16 22 56q25 41 39 49t27 0l213 -154l-29 260q-4 14 12 25q10 4 25.5 6t38.5 2q41 0 61 -8q14 -10 13 -25l-27 -260l213 154q12 8 27 0q12 -10 36 -49q20 -41 25 -56q0 -18 -14 -24l-240 -107l240 -106q14 -6 14 -25 q-4 -16 -25 -55q-25 -41 -36 -49q-14 -8 -27 0l-213 153l27 -260q2 -16 -13 -24q-16 -6 -61 -6t-64 6q-16 8 -12 24l29 260l-213 -153q-12 -8 -27 0q-14 8 -39 49q-23 41 -22 55z" />
<glyph unicode="+" horiz-adv-x="1415" d="M90 1038q-14 41 5.5 80t60.5 53l694 250q41 14 79 -4t52 -59l365 -1039q14 -41 -4.5 -79.5t-59.5 -53.5l-694 -241q-41 -16 -80 1t-53 54zM432 623h258v-258h88v258h258v88h-258v258h-88v-258h-258v-88z" />
<glyph unicode="-" horiz-adv-x="1363" d="M84 248l166 1044q10 70 60 100.5t116 18.5h2l662 -104q68 -10 106.5 -56.5t28.5 -115.5l-170 -1069v-3q-14 -70 -62.5 -98t-118.5 -18v-2l-671 116h-2q-72 16 -99.5 66.5t-17.5 120.5zM147 238q-6 -41 8.5 -71t59.5 -42l670 -119q51 -10 74.5 7.5t29.5 54.5l170 1069 q8 41 -15.5 65.5t-64.5 32.5l-663 113q-88 12 -103 -66zM324 625v90h624v-90h-624z" />
<glyph unicode="/" horiz-adv-x="808" d="M4 -295q-2 6 4 16l604 1655q6 16 13 23q8 8 14 10q8 6 25 6q10 2 36 2q20 0 41 -4q18 -4 25 -8q10 -6 10 -16q4 -10 -2 -23l-604 -1606q-4 -10 -6 -16t-6 -10q-6 -14 -17 -19q-10 -6 -24 -12q-8 -4 -35 -8q-12 -2 -22.5 -2h-18.5q-14 0 -27 4q-8 2 -10 8z" />
<glyph unicode="0" d="M74 633q0 74 6 141.5t16 128.5q25 125 80 213q51 88 141 137q90 47 215 47q123 0 207 -43q82 -43 135 -127q51 -88 72 -208q10 -61 16.5 -132t6.5 -151v10q0 -150 -25 -272q-20 -119 -78 -211q-55 -88 -141 -137q-45 -23 -98.5 -36t-118.5 -16q-121 -2 -207 35 q-41 23 -74.5 54.5t-58.5 74.5q-51 82 -74 207q-20 121 -20 285zM250 645q0 -72 3 -134t11 -114q14 -100 47 -164q35 -66 84 -94q51 -29 123 -28q55 0 98 18q43 20 72 51t51 80q10 25 18.5 50.5t14.5 54.5q4 29 8 59.5t8 62.5q2 35 3.5 70t1.5 70q0 49 -2.5 92t-6.5 82 q-6 82 -20 135q-12 57 -35 102q-20 43 -51 70q-29 27 -68 39q-20 6 -41.5 10t-46.5 4q-84 0 -137 -41t-84 -110q-29 -66 -41 -164q-6 -47 -8 -97.5t-2 -103.5z" />
<glyph unicode="1" horiz-adv-x="1099" d="M176 1024v29q2 6 2 11t2 9q4 8 10 14q2 2 15 11l297 192q4 2 5 2t5 2t7 2t7 2q6 2 23 2h29h40q14 -4 25 -6q8 -2 12 -10q2 -2 2 -10v-1137h236q6 0 14 -4q8 -8 13 -14q4 -12 6 -21q2 -6 2 -14v-16q0 -25 -2 -33q-2 -6 -4 -11.5t-4 -9.5q-6 -10 -13 -12q-4 -2 -12 -2h-676 q-10 0 -14 2q-8 4 -10 12q-6 6 -11 21q-2 8 -2 33v16t2 14t4 11.5t4 9.5q8 12 11 14q12 4 16 4h268v983l-249 -149q-18 -10 -31 -13q-10 0 -19 7q-6 4 -8 20q-2 10 -2 39z" />
<glyph unicode="2" horiz-adv-x="1073" d="M115 74q0 25 2 35q0 8 2 14l4 12q8 16 12 23q12 16 21 24l250 267q45 47 78.5 88t60.5 77q29 35 48 69t34 65q27 57 37 108q4 25 7 47.5t3 44.5q0 23 -4 42.5t-11 37.5q-16 43 -41 68q-27 29 -65 47q-43 16 -92 16q-57 0 -111 -16q-25 -10 -45 -18.5t-39 -18.5 q-37 -23 -61 -37q-25 -18 -37 -18q-4 0 -12 4q-6 4 -9 14q-4 4 -4 10t-2 13q-2 10 -2 36v27q2 4 2 9t2 10q2 6 7 14q4 6 16 18q16 12 41 29q16 10 34.5 17.5t41.5 17.5q41 18 96 30q29 4 56.5 7.5t56.5 3.5q98 0 165 -27q70 -25 117 -72q45 -45 70 -106q23 -63 22 -131 q0 -31 -3 -61.5t-7 -61.5q-12 -59 -47 -133q-18 -35 -43 -75t-59 -83q-68 -90 -179 -203l-204 -213h563q6 0 14 -4q8 -6 14 -14q2 -4 4.5 -10t4.5 -13q0 -6 1 -14t1 -16q0 -10 -1 -18.5t-1 -14.5q-2 -14 -9 -25q-4 -10 -12 -12q-4 -4 -16 -4h-715q-16 0 -25 2q-10 2 -18 12 q-8 6 -10 23q-4 20 -4 37z" />
<glyph unicode="3" horiz-adv-x="1073" d="M104 147q0 33 7 50q8 14 20 14q8 0 35 -16q14 -8 30.5 -16.5t39.5 -18.5q43 -20 96 -35q59 -16 123 -16q68 0 116 18q49 14 84 47q33 29 52 74q16 45 16 92q0 57 -21 100q-10 23 -26.5 41.5t-36.5 34.5q-45 33 -102 49q-66 16 -138 17h-123q-4 0 -16 4q-4 2 -12 10 q-6 8 -8 22q-4 8 -4 33q0 23 2 33q2 6 4 10l4 8q6 10 14 13q4 2 14 2h115q63 0 117 18q53 16 90 49q37 31 55 76q20 41 21 98q0 43 -15 78q-12 37 -39 64q-27 25 -65 41q-20 10 -44 13t-50 3q-57 0 -107 -18q-49 -16 -86 -37q-18 -10 -34.5 -18.5t-28.5 -18.5 q-25 -18 -35 -18q-4 0 -12 4q-4 0 -9 8q-4 4 -4 9t-2 13q0 6 -1 15.5t-1 19.5q0 8 1 14.5t1 12.5q0 8 4 20q2 4 3.5 7.5t3.5 7.5q4 6 14 16q12 12 39 29q14 10 31.5 17t39.5 17q39 18 97 31q29 4 58.5 7t62.5 3q45 0 83.5 -5t73.5 -17q70 -23 113 -66q43 -37 70 -100 q23 -61 22 -129q0 -57 -16 -113q-14 -47 -47 -94q-29 -37 -76 -67q-41 -29 -105 -41v-2q70 -6 123 -33q57 -29 94 -66q41 -43 64 -94q23 -55 22 -115v13q0 -90 -30 -160q-31 -72 -90 -123q-55 -49 -144 -78q-84 -29 -190 -31q-33 -2 -63.5 -1t-59.5 6q-29 4 -53.5 9 t-46.5 11q-45 16 -72 31q-29 14 -37 22q-4 4 -6 7.5t-6 7.5q-2 4 -6 16q-2 6 -3.5 11t-1.5 14q-2 10 -2 36z" />
<glyph unicode="4" horiz-adv-x="1073" d="M49 331.5v22.5q0 23 2 33q0 20 2 29l4 12t4 10l13 25l467 786q4 6 14 15q4 4 10 5t15 5q20 4 36 4q10 2 23.5 2h28.5h30.5t26.5 -2q27 -4 41 -6q16 -6 22 -12q8 -8 9 -15v-825h145q16 0 27 -19q12 -16 12 -53v19q0 -31 -10 -52q-14 -20 -29 -20h-145v-270q0 -6 -4 -15 q0 -2 -15 -10q-12 0 -26 -6q-8 -2 -18.5 -4t-22.5 -4t-21.5 -2t-17.5 -2h-27q-10 6 -12 10q-4 8 -4 14v270h-535q-10 0 -18 5q-6 2 -15 10q-8 12 -10 24q-2 6 -2 16.5zM207 420h422v708h-2z" />
<glyph unicode="5" horiz-adv-x="1024" d="M102 88v31q0 20 2 31q0 12 5 20q8 12 10 14q8 4 12 4q10 0 31 -14q18 -10 57 -27q16 -6 39 -13t49 -13q27 -6 57.5 -10.5t67.5 -4.5q61 0 123 17q53 14 96 51q37 31 64 84q23 55 22 127q0 66 -20 109q-18 47 -60 79q-41 33 -102 48q-57 14 -147 14q-61 0 -105 -6 q-47 -6 -82 -6q-27 0 -41 14q-12 12 -12 49v526q0 33 16 50q16 16 43 16h574q4 0 16 -4q8 -8 12 -14q6 -8 9 -23q0 -6 1 -14.5t1 -18.5q0 -35 -11 -55q-8 -20 -28 -21h-484v-362q18 2 36 3t36 3h86q113 0 193 -27q41 -12 75.5 -31.5t63.5 -41.5q57 -51 84 -119 q29 -70 29 -152v15q0 -100 -35 -187q-37 -82 -101 -135q-31 -29 -68.5 -49t-82.5 -37q-45 -12 -94.5 -20t-102.5 -11q-31 -2 -58.5 -2t-55.5 5q-27 4 -50.5 6t-46.5 10q-41 12 -67 24q-25 8 -35 19q-6 4 -10 12t-7 15q-2 4 -2 9t-2 13z" />
<glyph unicode="6" d="M109 588q0 41 2 83t6 85q10 88 33 164q10 41 26.5 76.5t34.5 70.5q41 74 100 121q57 51 142 82q82 31 194 30q18 0 36.5 -1t37.5 -3l70 -12q16 -4 30.5 -8t24.5 -8t17 -8.5t11 -6.5q8 -8 11 -12q2 -4 3 -7t3 -7q0 -4 1 -8.5t1 -8.5t1 -10t1 -14q0 -23 -2 -31 q0 -16 -4 -20q-4 -10 -8 -13q-8 -4 -15 -4q-12 0 -30 6q-10 4 -20.5 8.5t-24.5 8.5t-31 8t-35 8q-41 6 -90 6q-94 0 -160 -39q-68 -37 -108 -100q-23 -33 -38.5 -69.5t-25.5 -80.5q-20 -82 -24 -176q14 8 28.5 15.5t30.5 15.5t33.5 14.5t38.5 12.5q37 12 79 18q39 8 93 8 q102 0 178 -28q70 -27 117 -78q41 -51 63 -119q18 -72 18 -149v10q0 -86 -26 -164q-25 -80 -80 -141q-53 -59 -137 -97q-41 -16 -90.5 -26t-104.5 -13q-82 -2 -143 13q-59 18 -109 57q-43 35 -75 90q-31 55 -50 123q-10 35 -16 73t-10 79t-6 85t-2 91zM283 561q0 -66 3 -119 t13 -96q14 -84 47 -139q16 -27 35.5 -46.5t44.5 -29.5q49 -23 109 -22q63 0 112 24q49 27 78 64t45 92q14 45 14 102t-12 107q-8 43 -39 80q-23 33 -71 51q-43 18 -111 18q-37 0 -74 -6q-18 -4 -36.5 -9t-34.5 -9q-16 -6 -33 -12.5t-33 -14.5q-33 -16 -57 -35z" />
<glyph unicode="7" d="M100 1200q0 25 2 35q4 16 9 22q2 8 12 15q8 4 14 4h756q16 0 25 -2q12 -4 14 -12q8 -10 10 -23q2 -10 2 -37v17q0 -23 -2 -33q0 -8 -1 -14.5t-3 -14.5q0 -6 -2 -12l-4 -12q-4 -6 -5 -13.5t-5 -13.5l-467 -1073q-4 -14 -13 -21q-6 -6 -18 -12q-12 0 -31 -6q-8 -2 -19.5 -4 t-23.5 -4q-16 -2 -29.5 -2h-23.5q-23 0 -27 6q-8 6 -8 14q0 10 6 23l492 1097h-623q-16 0 -26 21q-10 18 -11 55z" />
<glyph unicode="8" d="M84 291q0 59 18 112q23 51 58 93q20 23 42.5 43t51.5 39q29 18 58.5 36.5t64.5 34.5q-29 16 -56.5 31.5t-50.5 34.5q-23 16 -42 34.5t-35 38.5q-31 41 -48 89q-10 23 -13 47t-3 51q0 68 25 127q25 61 73 104q53 47 125 70q76 25 178 24q49 0 92.5 -5t77.5 -17 q76 -27 119 -64q47 -45 68 -96q23 -57 22 -119q0 -47 -16 -96q-14 -45 -49 -90q-31 -41 -78 -78q-23 -18 -50.5 -35.5t-56.5 -33.5q70 -33 127 -72q55 -37 93 -80q39 -43 57 -88q18 -49 18 -104v10q0 -90 -28 -150q-31 -68 -86 -110q-55 -45 -142 -70q-41 -10 -88 -16 t-100 -9q-100 -2 -180 13q-80 23 -133 63q-57 41 -84 101q-29 57 -29 137zM258 307q0 -98 66 -151q66 -51 198 -52q131 0 193 54q65 51 65 145q0 49 -16 84q-8 18 -21.5 35.5t-29.5 34.5q-16 16 -38 31.5t-48 29.5q-27 16 -55.5 31.5t-63.5 32.5q-66 -31 -111 -62 q-47 -29 -78 -63q-33 -37 -47 -70q-14 -35 -14 -80zM299 985q0 -43 14 -74q10 -31 41 -63q31 -31 72 -57q43 -29 104 -60q102 53 156 115q53 63 53 139q0 45 -14 76q-14 33 -43 57q-29 25 -70 37t-94 12q-109 0 -164 -49t-55 -133z" />
<glyph unicode="9" d="M84 866q0 84 25 164q25 76 77 135q51 59 136 95q78 35 196 34q82 0 144 -20q59 -18 108 -57q43 -37 78 -95q29 -51 51 -123q10 -35 16.5 -71.5t10.5 -77.5t7 -83t3 -87v16q0 -41 -3 -84t-7 -86q-8 -82 -35 -166q-12 -39 -27.5 -75.5t-36.5 -71.5q-45 -74 -102 -123 q-61 -51 -145 -80q-43 -14 -92.5 -22t-104.5 -11q-43 -4 -84 0q-20 0 -38.5 2.5t-35.5 4.5q-29 6 -53 16q-23 8 -33 18q-12 8 -14 23q-4 10 -4 19.5v23.5v35q2 8 6 20q2 6 8 8q4 2 12 3q12 0 31 -7q10 -4 22.5 -8t28.5 -8t34 -8t38 -8q35 -8 92 -9q98 0 166 37 q68 39 115 101q45 68 65 147q23 84 25 174q-29 -16 -59.5 -29.5t-67.5 -25.5t-80 -17.5t-90 -5.5q-113 0 -182 29q-72 31 -119 80q-45 55 -64 121q-18 70 -18 153zM258 879q0 -57 12 -107q12 -53 39 -84q31 -35 74 -51q43 -20 111 -21q72 0 145 23q35 12 65.5 26.5 t55.5 34.5q0 121 -17 215q-18 88 -51 142q-31 53 -80 78q-45 23 -110 22q-68 0 -111 -22q-51 -27 -76 -64q-29 -39 -45 -88q-12 -53 -12 -104z" />
<glyph unicode="&#x3e;" horiz-adv-x="1845" d="M152 561q0 27 2 37q4 16 6 23q6 8 12 12q8 4 12 4l1276 47q-66 63 -133 126.5t-137 129.5q-70 68 -138.5 135.5t-140.5 138.5q-8 8 -10 15q-4 6 0 18q4 10 12 23q6 8 27 28l14.5 14.5t14.5 10.5q8 6 20 10q12 0 17 -2q4 0 12 -8l655 -653q6 -8 11.5 -14.5t9.5 -12.5 q8 -16 8 -35q0 -16 -6 -30q-6 -12 -23 -29l-655 -653q-4 -6 -12 -15q-4 -4 -17 -8q-12 0 -20 4q-12 4 -29 19q-10 8 -16 14t-11 10q-10 10 -12 17q-4 6 0 10q2 4 10 8l140.5 140.5t138.5 133.5q137 131 270 258h-1276q-8 0 -12 5q-6 2 -12 12q-2 6 -6 22q-2 10 -2 35z" />
<glyph unicode="A" horiz-adv-x="1478" d="M43 659q0 152 54.5 286t147.5 233.5t218 157t268 57.5t268 -57.5t218.5 -157t147.5 -233.5t54 -286q0 -125 -36.5 -238.5t-103.5 -205.5t-158 -158.5t-197 -99.5v18q-35 23 -44.5 52.5t-9.5 64.5t1 74v7q0 36 -9 75q-6 25 -17 61.5t-20.5 76.5t-16.5 78t-7 66v150 q0 63 7 107t19.5 79t32 65t43.5 66q23 33 43.5 64t36.5 63q10 18 14 37t21 31q14 10 32.5 20.5t18.5 32.5v15q0 20 -20 20q-16 0 -24.5 -13.5t-41.5 -13.5q-18 -88 -67.5 -156.5t-114.5 -107.5q-6 39 -16.5 81t-22.5 50q-14 4 -28.5 10.5t-24.5 -0.5q-25 -12 -34 -22 t-14.5 -22.5t-8.5 -30t-15 -45.5q-27 6 -54.5 29.5t-51 57t-38 72.5t-14.5 76v29q-18 2 -27.5 7t-14.5 11t-9 11.5t-14 5.5q-4 0 -12.5 -8.5t-8.5 -12.5q0 -45 35 -101.5t77 -118.5t76.5 -129t34.5 -130v-35q0 -51 -7 -96t-15 -92t-15.5 -98.5t-7.5 -114.5v-52.5v-60.5 t-1 -58.5t-3 -45.5q-6 -35 -12 -58.5t-13 -41t-13.5 -33t-10.5 -33.5l21 -2q25 -2 43 12t28 31q0 43 7.5 102.5t19.5 119.5t25.5 112.5t25.5 80.5q41 -31 64.5 -90t40 -129.5t33 -143.5t44.5 -130q-63 -16 -139 -21q-143 0 -268 56.5t-218 155t-147.5 231.5t-54.5 284z" />
<glyph unicode="B" horiz-adv-x="1402" d="M41 754q-2 25 -2 47q0 41 7 67q11 42 29.5 69.5t40 49t36.5 49.5q14 29 19 54.5t13.5 49t26.5 44t59 39.5q43 12 71 17t49.5 12.5t44 18.5t57.5 36q14 10 41.5 25.5t59.5 29.5t62.5 24.5t53.5 10.5q66 -2 100.5 -13.5t57 -29t41 -41t50.5 -49.5q117 0 183.5 -52.5 t66.5 -167.5q43 -10 67.5 -35.5t38 -58t15.5 -70.5q1 -13 1 -25q0 -24 -3 -46q-4 -29 -17.5 -60.5t-33 -58t-45 -44t-53.5 -17.5q-41 0 -70 8t-64 31q-33 -23 -52 -66t-35.5 -88t-37 -82t-53.5 -45l37 178l6 27q-20 -23 -31.5 -63t-24.5 -83t-33.5 -82.5t-57.5 -64.5 q-8 -6 -23 -6q0 51 -5 95t-10 87t-9 88t-6 96q-18 -27 -28.5 -70.5t-14.5 -96t-7.5 -105.5t-5.5 -96q-51 12 -73.5 59t-33.5 100.5t-20.5 98.5t-29.5 55v12q4 -53 9 -104t7 -104q0 -10 -1 -18.5t-5 -14.5q8 -6 36.5 -31t58.5 -50.5t54.5 -47t28.5 -21.5q8 0 33.5 19.5 t53.5 44t50.5 49t26.5 37.5q20 -6 27.5 -28.5t7.5 -51.5t-3 -59.5t-6 -53.5l334 74q-4 -25 -21.5 -48.5t-41 -48t-46 -51t-34.5 -55.5q25 0 56.5 -1t59 -5t47 -15.5t19.5 -31.5q0 -10 -5 -16.5t-11 -12.5t-12.5 -14t-10.5 -23l-1034 -2q-4 14 -11 21.5t-13.5 12.5t-11.5 9.5 t-3 12.5q6 27 29.5 39t53.5 15t59.5 1t46.5 -2q-6 25 -34 51.5t-56.5 53t-51 51t-16.5 45.5q39 -12 95 -25.5t107.5 -24t88.5 -16.5t39 -2q13 28 13 70v16q-3 53 -7 100q-8 -8 -12.5 -11t-14.5 -5l-113 324q-31 -4 -44 -13.5t-50 -9.5h-39q-20 0 -52 7t-60.5 20.5t-51 34 t-24.5 47.5zM283 170l18 -14q25 -16 38 -37t27.5 -38.5t36 -24.5t62.5 5q-14 6 -22.5 10.5t-12.5 8.5t-7 13t-5 28q41 -13 87 -23q32 -7 62 -7q13 0 25 1q-10 29 -8 52.5t-2 58.5q14 -6 23 -16.5t17.5 -21.5t17.5 -18.5t28 -7.5q47 0 77.5 19.5t61.5 23.5q-4 -29 -3 -56.5 t-3 -51.5l176 39l-41 -60q31 0 54.5 12.5t41 32t31.5 44t29 46.5q-121 -29 -240 -43q4 72 4 112t-22 40q-12 0 -26.5 -17.5t-32 -38t-40 -38t-51.5 -17.5q-8 0 -27.5 14.5t-41 33t-41 37t-31.5 26.5q0 -10 2 -34.5t0 -50.5t-8.5 -45.5t-24.5 -19.5q-29 0 -57.5 7.5t-57 13.5 t-57.5 8t-57 -6z" />
<glyph unicode="C" horiz-adv-x="1312" d="M45 1262q10 14 35 14h24q35 0 76 -11.5t79 -28.5t69.5 -36.5t50.5 -36.5l21.5 -21.5t26.5 -28.5t24.5 -29.5t17.5 -24.5q4 -8 18.5 -28.5t22.5 -26.5q2 -2 8 -10.5t14.5 -16.5t14.5 -15.5t6 -9.5t-13.5 -26.5t-28.5 -53t-29.5 -53t-16.5 -26.5q-12 51 -60.5 119.5 t-111 136t-128 123t-112.5 77.5q-10 10 -8 13zM117 -70q25 37 54.5 76t57 80t52 83t38.5 85q2 8 3.5 30.5t1.5 49t-2.5 52.5t-2.5 38q-4 41 -10 82t-6 82q0 4 4 8t8 4q8 0 8.5 -1t6.5 -3q12 16 21 31.5t26 25.5q2 -41 4 -81t6 -80q6 0 6 6q2 26 2 51q0 19 -1 37q-3 43 -5 88 l55 69l-6 -71q6 8 7 33.5t6 37.5v7l28 55q29 51 53 100q23 41 44.5 88t33.5 82q10 29 17.5 51.5t19.5 44.5q27 51 53.5 81t67.5 67q12 10 33.5 25.5t46 30t50.5 24.5t48 10q6 0 15.5 -2t3.5 -8q-18 -20 -37 -44t-36.5 -46.5t-29.5 -41t-16 -24.5q-29 -41 -49.5 -93 t-36.5 -99q-18 -53 -34.5 -103.5t-35.5 -103.5q-16 -57 -31.5 -102.5t-33.5 -92.5q-2 -4 -9.5 -19.5t-15.5 -35t-16.5 -36.5t-10.5 -23q-12 -25 -25 -48.5t-30 -46.5q-16 -23 -29.5 -44t-31.5 -42l-37 -37q-10 -8 -16.5 -20t-16.5 -23q-10 -10 -17.5 -19t-17.5 -19 q-25 -29 -44 -68t-42 -70q-55 -78 -84.5 -123t-64.5 -45zM610 600q29 45 46.5 107.5t33.5 101.5l-4 2q12 0 21.5 -11.5t15.5 -26.5t12 -30.5t13 -23.5v2l-23 61q12 -6 26.5 -16t24.5 -21q12 -12 16.5 -15t6.5 -6t2 -10t6 -24q2 -8 8 -29.5t12.5 -44t11.5 -41t9 -22.5 q0 23 -5 43t-9 37q0 6 -3.5 17.5t-6.5 23.5t-6 22.5t-3 12.5q0 4 0 3t2 3q8 -6 13.5 -13.5t13.5 -11.5q10 -8 17 -9t16 -13q10 10 14 10q8 0 13 -11.5t8 -26.5t5.5 -29.5t4.5 -22.5q4 -25 10 -52.5t10 -50.5q4 -25 9 -49t14 -47q10 -33 16 -44t31 -32q29 -23 59.5 -56.5 t63.5 -59.5q16 -16 32.5 -29.5t32.5 -28.5q4 -4 15.5 -12t22.5 -16.5t20.5 -15.5t11.5 -9q-10 -6 -24.5 -2t-29 11t-26.5 16.5t-19 15.5q-23 16 -42 30.5t-39 35.5q-16 18 -37 34.5t-39 34.5l-18.5 18.5l-18.5 18.5t-22.5 15t-22.5 14q-43 33 -89 59.5t-87 61.5 q-10 10 -18.5 15t-20.5 17l-18.5 18.5l-18.5 18.5q-4 2 -16.5 14.5t-24.5 26.5t-21.5 25.5t-7.5 15.5z" />
<glyph unicode="L" horiz-adv-x="1705" d="M68 225q0 10 3 18.5t3 18.5q0 80 22.5 169t54 177t67.5 166t65 135q33 0 67.5 1t62 4.5t45 10.5t15.5 17q-4 29 -24.5 43t-41 25.5t-33 21.5t0.5 31q6 10 12 8t12.5 -9t12.5 -16.5t14 -11.5q28 -7 48 -7q30 1 42 17q20 28 21 109l329 -27l367 -4l412 37l2 -252l-658 2 q-23 0 -37 -17.5t-14 -39.5v-152q-23 0 -46.5 -7t-44 -15t-35.5 -15.5t-19 -7.5h-7q-31 0 -41 18.5t-24 20.5q-25 0 -40 -32q-11 -22 -11 -49q0 -11 2 -23q2 -10 12 -12.5t14 -6.5q10 -18 2 -24t-30 -15q-6 -2 -14.5 2.5t-12.5 14.5q-12 31 -23.5 60.5t-21.5 58.5 q-92 -23 -127 -76t-43 -139q-2 -24 -2 -46q0 -35 4 -65q6 -52 10 -111q-94 -2 -187 -4t-185 -2z" />
<glyph unicode="M" horiz-adv-x="1452" d="M41 936q0 53 8 103.5t23.5 105.5t36 120.5t41.5 147.5v4h53q12 -94 61 -161.5t120 -111.5t159 -65.5t180 -21.5q88 0 173 18.5t155.5 60.5t122 110.5t69.5 166.5q12 2 25.5 1t25.5 -1q12 -53 29.5 -111.5t33 -117t28 -112.5t14.5 -95v-17q-1 -64 -25 -170 q-28 -120 -79.5 -265.5t-120 -299t-144.5 -282.5q-14 139 -33.5 248.5t-56.5 156.5q-58 12 -120 16q-50 4 -99 4h-21q-58 -1 -108.5 -7.5t-85.5 -14.5q-45 -63 -61.5 -165.5t-22.5 -243.5q-80 129 -149.5 276t-121 287.5t-81 256t-29.5 179.5zM913 672q35 -16 71 -26.5 t89 -10.5q8 0 26.5 9t41 23.5t44 33t36.5 34.5q23 29 27.5 48.5t2.5 37.5q-53 -31 -77.5 -44t-37 -21t-23.5 -12.5t-38 -16.5q-53 -23 -89 -34t-73 -21z" />
<glyph unicode="P" horiz-adv-x="1527" d="M35 645v10q4 90 20.5 198t52 210t92 189t138.5 139q10 4 23.5 2t23.5 -13q18 -20 7 -47.5t-34.5 -62.5t-52.5 -76t-45 -88q-23 -63 -41 -143t-22 -160q-3 -53 -3 -104q0 -130 18 -247q26 -163 97 -317q8 -18 22.5 -37.5l29 -39t25.5 -36t11 -30.5q0 -39 -41 -39h-4 q-45 6 -86 46t-76.5 100.5t-65.5 135t-50 149.5q-21 76 -31 144q-8 57 -8 100v17zM406 1184q0 4 4 4q4 -2 11 0t11 4l-20 25q-4 6 2 10t10 -2q-2 10 3 12t13 -2q-2 12 4.5 14t12.5 -2q10 -10 21 -19t22 -20l28 11q4 0 4 -5q-4 -16 -6 -23t-2 -26q0 -29 17.5 -64.5t42 -67.5 t52.5 -54.5t50 -28.5q6 10 13.5 28.5t14.5 37t17 32t23 13.5h51q14 0 24.5 -13.5t16.5 -32t9 -41t3 -40.5q33 23 66.5 48.5t61.5 56t46.5 68.5t18.5 85q0 2 4 4q23 6 46 11t46 12q6 2 6 -5q0 -33 -21.5 -69.5t-52 -76.5t-67.5 -82t-68 -86t-51.5 -89t-20.5 -92 q0 -61 11.5 -104.5t17.5 -96.5q5 -45 5 -90v-14v-21q0 -42 3 -90q4 -47 9.5 -99t15.5 -98q14 -55 23.5 -100t29.5 -80q4 -10 -4 -14q-14 -2 -33.5 -4t-23.5 0t-6 6t-2 8v35q0 41 -17.5 114.5t-41 147.5t-48.5 134.5t-43 74.5q-23 -16 -42 -67.5t-33.5 -117t-21.5 -132 t-7 -111.5q0 -8 -5 -8q-23 -8 -45 -17.5t-45 -19.5q-6 -6 -10 -4t0 6q27 51 41 90t20.5 80t6.5 91v124q0 61 7 111.5t15 97.5t15.5 94t7.5 105v22q0 31 -12.5 61.5t-30 60.5t-37 55.5t-33.5 43.5q-20 27 -36.5 48.5t-35.5 50.5q-6 12 -13 26.5t-15 27.5t-19.5 23.5 t-27.5 10.5q-6 0 -6 4zM1149 -34.5q10 16.5 24.5 35.5t30 38.5t23.5 38.5q73 154 97 316q17 112 16 237q0 56 -3 114q-4 80 -21.5 160t-39.5 144q-16 47 -45 88t-52.5 75.5t-34.5 62.5t7 48q20 25 47 10q84 -51 140.5 -138t91 -189.5t51 -210t20.5 -197.5v10v-17 q0 -43 -8 -101q-10 -70 -30.5 -145t-50.5 -149.5t-66.5 -135t-77.5 -101.5t-86 -49q-8 -1 -14 -1q-29 0 -29 29q0 11 10 27.5z" />
<glyph unicode="R" horiz-adv-x="1288" d="M49 618q2 68 19 148q23 111 75 166t123 88q25 109 80 182.5t126 118.5t150.5 64.5t151.5 19.5q92 -2 187.5 -38t163 -110.5t95.5 -187.5q11 -44 11 -95q0 -79 -27 -173q-14 -55 -61 -100.5t-110.5 -73t-133.5 -34.5q-16 -2 -32 -2q-53 1 -100 19q-62 24 -108.5 79.5 t-58.5 154.5q-2 20 -2 38q0 43 12 79q18 51 54 85q36 36 82 52q37 13 74 13q9 0 18 -1q51 -4 87 -26.5t55 -55.5q20 -33 22 -73v-9q0 -35 -17 -67q-18 -43 -53 -53.5t-60 -6.5q-10 2 -32.5 13.5t-26.5 44.5v11t5 18t14.5 17.5t27.5 8.5q-6 -23 -5 -34t5 -15t9 -5t8 -1 q18 -2 28 6t13.5 20t1.5 25.5t-7 19.5q-23 31 -52.5 32t-55 -15.5t-40.5 -46.5q-11 -21 -10 -43q0 -9 1 -19q10 -49 40.5 -72.5t65.5 -29.5q15 -3 30 -3q20 0 39 5q34 8 50 24q41 42 61 100q12 36 12 68q0 20 -5 37q-20 74 -73.5 129t-148.5 57q-47 0 -97 -19t-91 -57 q-41 -37 -67 -91q-25 -50 -25 -110v-9q2 -66 12 -112t28.5 -81t45 -60.5t61.5 -49.5v6q-8 -47 -13 -89t-34 -83q-8 -12 -12 -18.5t-7 -12.5t-7.5 -14.5t-12.5 -20.5q-12 -23 -38.5 -39t-56.5 -34.5t-59.5 -43t-50.5 -63.5q-4 -8 -9 -12t-9 -12.5t-10 -22.5t-13 -43 q-4 -18 -20 -42t-34.5 -45.5t-38 -38.5t-29.5 -22q-4 6 -16.5 41t-30.5 62q-10 18 -21.5 27.5t-15.5 19.5q-6 18 -7.5 28.5t-1.5 16.5t-2 10t-10 13q-4 -10 -4 -23.5t-4 -38.5q-2 -12 -5 -23.5t1 -44.5q-29 12 -40 51.5t-13 67.5q-2 109 -9.5 191t-10.5 152q-2 42 -2 82 q0 27 1 54zM227 612q-2 -6 3.5 -4t17.5 5t31.5 5.5t44.5 -4.5q8 12 22 23.5t27.5 21t24 18.5t10.5 17q0 12 -30 17.5t-48 1.5q-29 -10 -57.5 -33t-45.5 -68z" />
<glyph unicode="T" horiz-adv-x="1757" d="M54 255.5q3 10.5 16 27.5q-2 6 -4.5 12t-2.5 14q0 86 7.5 172t16.5 172t16.5 172t7.5 172q0 41 -2 77t14 36q10 0 27.5 1t36 3t35 5t26.5 5q55 12 122 26q66 12 134 20q54 6 108 6h29q68 -2 123 -21q4 -2 19.5 -8t31.5 -12.5t29.5 -10.5t15.5 -4l8 3q9 3 18 7.5l17 8.5 t10 4q53 23 106.5 30t110.5 7q53 0 108.5 -7.5t110 -15.5t107.5 -15t107 -7q23 -109 38 -211.5t28 -201.5t30.5 -197.5t42.5 -198.5q4 -12 7 -31t-13 -21l-594 -43q-12 0 -27.5 -13t-43 -26.5t-73.5 -23.5q-32 -7 -78 -7q-18 0 -38 1q-23 0 -44.5 8t-41 18.5t-38 18.5 t-36.5 8q-156 0 -310.5 7t-312.5 7q-8 16 -5 26.5zM160 334q143 -12 289.5 -26.5t291.5 -14.5h14.5t10.5 10q0 6 -19.5 9t-44 4t-48 2t-31.5 1q-57 4 -107.5 6.5t-104 4.5t-113.5 4t-138 6v-6zM166 385q66 -4 132.5 -5t131.5 -3q22 -2 44 -1q28 0 58 2q52 5 101 9q29 2 57 2 q34 0 65 -3q56 -5 115 -21l-51 653q-70 33 -126 48q-34 9 -74 9q-27 0 -56 -4l-340 -49q-6 -2 -10 -2t-2 -16q-6 -133 -12 -219.5t-13.5 -150t-12.5 -119.5t-7 -130zM250 502q0 27 15.5 32t35.5 9q74 23 164 34q66 8 126 8q22 0 42 -1q14 0 45 -3t61.5 -12.5t54 -24 t23.5 -34.5q0 -16 -12 -29.5t-29 -11.5q-18 0 -30.5 7t-28 14.5t-37 13.5t-55.5 6q-57 -2 -101.5 -5t-84.5 -9.5t-78.5 -14.5t-81.5 -16q-14 -4 -21.5 9t-7.5 28zM250 702q0 25 16.5 32t34.5 18q53 23 125 31t131 8h68q18 0 45.5 -4.5t54.5 -14.5t46.5 -26.5t19.5 -40.5 q0 -16 -14.5 -25.5t-26.5 -5.5q-29 4 -48.5 16t-49.5 22q-30 9 -84 10h-5q-53 0 -143 -20q-6 0 -26.5 -7t-44 -14t-43 -13t-23.5 -6q-18 0 -25.5 13t-7.5 27zM262 895q0 29 13.5 34t21.5 7q57 18 128 28.5t132 10.5h58t80 -7t71 -23.5t31 -49.5q0 -16 -13.5 -24.5 t-27.5 -8.5q-10 0 -21.5 7.5t-32 15.5t-50.5 13q-22 4 -54 4q-13 0 -27 -1q-55 0 -98 -7t-75.5 -14.5t-56.5 -13.5t-40 -6t-27.5 9.5t-11.5 25.5zM809 254q0 -6 17.5 -10t40 -6t43 -3.5t26.5 -1.5t26.5 2.5t43 7.5t41 11t18.5 14q0 4 -1 8.5t-11 -0.5q-33 -14 -83 -20 q-38 -4 -62 -4h-15q-16 2 -34.5 4t-37.5 4q-12 4 -12 -6zM918 1032l65 -657q29 0 50.5 7t46 15.5t56 15.5t81.5 7q51 0 95 -5t90 -10.5t99 -8.5q23 -1 48 -1q34 0 73 2q-25 123 -55.5 292t-71.5 353q-4 10 -8 12.5t-17 4.5q-78 15 -158 23q-60 6 -141 6q-28 0 -59 -1 q-14 0 -45 -2t-63.5 -8t-58 -16.5t-27.5 -28.5zM995 940q8 18 48 32.5t94.5 23t116 8.5t113.5 -7.5t86 -25t34 -43.5q0 -31 -23.5 -33t-44.5 10q-43 25 -91 32q-28 4 -57 4q-20 0 -41 -2q-50 -5 -100.5 -19.5t-95.5 -32.5q-18 -8 -34.5 8t-4.5 45zM1004 731q0 25 24.5 40 t46.5 22q77 18 145 19q31 0 60 -4q92 -12 199 -42q16 -4 26.5 -12.5t10.5 -28.5q0 -14 -9.5 -25.5t-23.5 -11.5q-27 0 -52.5 7t-51 16.5t-53.5 16.5t-56 7q-14 1 -26 1q-37 0 -64 -5q-37 -6 -62.5 -14t-45 -15.5t-34.5 -7.5q-14 0 -24 11.5t-10 25.5zM1018 530q0 20 30.5 34 t78 20t104.5 6t108.5 -3t91 -8.5t54.5 -9.5q20 -6 33.5 -15t13.5 -32q0 -14 -9.5 -24.5t-23.5 -8.5q-25 0 -46 6.5t-51 13.5t-73 13q-32 4 -77 4h-31q-27 -2 -65.5 -8t-65.5 -14q-10 -4 -20.5 -9.5t-22.5 -5.5q-16 0 -22.5 14.5t-6.5 26.5zM1178 330l176 -4q27 0 62.5 1 t71.5 2t69.5 4t58.5 9q-6 10 -26.5 12t-37.5 -2q-41 -4 -69.5 -5t-83.5 -3q-53 -4 -108.5 -8t-112.5 -4v-2z" />
<glyph unicode="X" horiz-adv-x="1288" d="M65 278q1 13 9 35q6 18 11 33.5t13 34.5q12 35 26.5 66.5t27.5 66.5q10 31 19 34t19 21q8 16 15.5 28.5t13.5 35.5q4 10 5 18t5 17q4 8 8.5 15t8.5 17t6 17.5t6 15.5q0 4 12 17l11 10q0 8 -2.5 10t-2.5 10l21 13v2q0 33 19.5 55t19.5 45v18q16 4 30.5 28t26.5 34q4 4 7 8 t8 8q10 6 10 4t4 11q4 12 11 19t18 15q33 33 54 66t42 80q4 8 15 12l22 8q14 8 19 11.5t15 13.5q12 16 29 32.5t33 26.5q6 4 27.5 20.5t46 34t45 32t24.5 14.5q-6 -12 -19 -22.5t-25.5 -22t-21.5 -23t-9 -27.5q-8 0 -9.5 2t-7.5 2h-6q-4 -16 -9 -24t-13.5 -14.5t-17.5 -11.5 t-19 -17q-16 -16 -30.5 -32.5t-31.5 -33.5q-6 -4 -16 -12t-21 -12q-12 -4 -12 -17.5t-4 -29.5q-2 -16 -4 -28.5t-12 -18.5t-19.5 -10.5t-9.5 -24.5q0 -10 2 -15.5t2 -9.5q0 -2 -9 -11l-21.5 -21.5t-24 -23.5t-13.5 -13q-14 -14 -17 -17.5t-7 -25.5q-2 -12 -8.5 -15.5 t-12.5 -1.5t-11 6t-7 4l-8 -98v-4q-16 0 -35 -17.5t-19 -27.5q0 -2 4.5 -7t4.5 -16v-2q0 -8 -3.5 -17t-11.5 -9h-6q0 -6 1 -6t1 -4q0 -8 -9 -22.5t-13 -14.5q-10 0 -14.5 5t-10.5 9l2 -21v-18q0 -18 -6 -48t-23 -30q-4 0 -12 4q-4 -8 -8 -15t-4 -17v-17h-33q-8 -29 -13 -50 t-5 -62l-6 -5q-12 8 -17 9q-8 0 -11 -12.5t-5 -18.5q-4 -23 -4 -21t-21 2h-6q-4 -18 -3 -43.5t-11 -33.5q-10 23 -9 36zM209 -2q0 18 8 47t14 45q4 12 4.5 23.5t2.5 25.5q2 4 10 18.5t12 18.5q-2 4 -2 8v6q2 6 6 13q4 4 5 9t3 9q4 10 6.5 18.5t6.5 18.5q10 39 37 59v29 q16 10 18 17.5t6 29.5q2 10 2 15.5t4 13.5q6 14 5 13t-1 16q0 16 13.5 34.5t13.5 36.5v4v15q6 2 14.5 10t8.5 16q0 4 -5 13q4 8 8.5 11t8.5 13q8 20 14 29q6 14 10 18l7.5 7.5t4.5 11.5t1 28q0 10 4 14.5t9 8.5t8 11t3 26q0 14 5 20t12.5 10.5t12.5 8.5t5 14v4h16 q4 0 12.5 19.5t10.5 23.5q4 10 13 19.5t20 13.5q2 31 18.5 56.5t30.5 45.5q10 12 15 22.5t12 26.5q4 4 19 17.5t21 19.5q20 18 38 38l36 40q10 8 24.5 17.5t18.5 13.5q6 6 8 11t9 11q4 4 12 9.5t8 9.5v16q23 2 46.5 23.5t33.5 25.5q0 -8 -11.5 -16t-17.5 -12 q-18 -10 -18 -11.5t-10 -17.5q-6 -10 -11.5 -18.5t-13.5 -14.5q-8 -8 -19.5 -12t-11.5 -14v10v-8q-10 -2 -22.5 -9.5t-12.5 -17.5q0 -6 2.5 -7t2.5 -7v-6q-2 0 -9.5 -4.5t-14.5 -10.5t-13 -11l-6 -5v-10q0 -10 2 -13.5t2 -13.5v-4q0 -6 -4 -6h-7l-32 4h-6q-10 0 -18.5 -17.5 t-16.5 -40t-12.5 -46t-4.5 -35.5l-41 -13v2q2 -14 9.5 -19t7.5 -16v-6h-17q-4 0 -10 -3l-10 -5q4 -8 4 -14v-6q0 -23 -10.5 -36t-10.5 -36l-28 -25q0 -35 -5 -46t-22 -31q-2 -4 -10 -11.5t-16.5 -15.5t-14.5 -15.5t-6 -11.5q0 -6 4 -9t4 -7q0 -6 -10 -13.5t-14 -7.5v-10v-6 q0 -18 -13.5 -41.5t-11.5 -40.5l2 -14q-8 0 -11 -2l-6 -4t-9.5 -3t-18.5 3q2 -12 10.5 -18.5t12.5 -14.5q-4 -14 -10.5 -18.5t-6.5 -14.5v-6h-8q-6 0 -7 5t-5 9q-2 -2 -2 -6v-18q0 -10 3 -16.5t7 -12.5q-10 -16 -33 -18l6 -33q-6 -2 -9 -4t-9 -2h-8l4 -27q-8 -10 -15 -18 q-6 -8 -10 -15.5t-6 -9.5q-8 -16 -10 -27.5t-2 -33.5l2 -2l-23 -13l-2 2q0 -12 5.5 -18t5.5 -16v-9q0 -12 -9 -12q-4 0 -5 3t-9 3h-6v-6q0 -6 2 -7t2 -7v-2q0 -4 -7 -9.5t-11 -9.5q-4 -6 -7.5 -14t-5.5 -14q-4 -18 -4 -35v-39q-10 4 -10 24v21zM500 154q0 14 3 34.5t8 43 t10 42t9 31.5q10 29 26.5 69t16.5 72h5q14 0 15 23t1 37q16 25 27.5 64.5t21.5 70.5q4 16 12.5 33.5t10.5 34.5q2 31 12 38t20 23q-2 4 -3 7t-1 9q0 8 18.5 21.5t18.5 40.5q10 16 29.5 29.5t19.5 44.5v6l19 8q0 18 18.5 47t28.5 39t15 20.5t13 20.5q6 6 8.5 9t6.5 11t9 9.5 t9 7.5q16 16 37 32.5t33 32.5q2 4 12 14.5t22.5 22.5t21.5 21.5t14 11.5q0 -16 -13.5 -27.5t-21.5 -21.5q-4 -6 -7.5 -14.5t-7.5 -12.5t-10 -11t-10 -11q-8 -12 -18.5 -23.5t-18.5 -23.5q-4 -6 -19.5 -28t-19.5 -22h-8q-2 -23 -20.5 -38t-18.5 -31v-4q0 -4 1 -4t1 -5l-16 -6 v-8q0 -25 -13.5 -42t-13.5 -40v-10q0 -8 2 -11t4 -10q-8 0 -25.5 -17t-17.5 -19q0 -4 4 -13l-4 -6q-14 0 -17 -5t-4 -11t-3 -12.5t-13 -6.5q0 -4 1 -5t1 -5v-10q0 -14 -20 -19l-12 13l2 -51v-11q0 -20 -7.5 -28.5t-21.5 -16.5q0 -20 -4 -34.5t-8 -26.5t-8.5 -23.5 t-4.5 -25.5v-11q0 -4 1 -5t1 -5h-12q-10 0 -9 -10t1 -14q0 -6 -6 -19.5t-13.5 -28t-13.5 -29t-6 -24.5v-12l-14 -6l-11 4q-4 -10 -10 -25.5t-4 -27.5l6 -60l-30 -8q0 -14 -4.5 -21.5t-4.5 -13.5l-2 -6l-14 4v-24l-4 -45q-4 4 -6 18t-2 25zM760 199v22q0 12 5 37t9 41 q4 20 7 36.5t3 45.5l19 22q0 29 3 42.5t7 35.5q2 10 3 19.5t1 19.5v12.5t1 6.5l2 4t3 10q4 10 3 19.5t3 19.5q2 8 5.5 14t5.5 17q2 12 6 38.5t8 34.5q14 29 27.5 59.5t27.5 59.5q8 14 14.5 28.5t14.5 30.5q4 8 6 14.5t6 16.5t1 17.5t-3 19.5q18 10 35.5 26.5t17.5 45.5 q16 0 14.5 6t12.5 6q2 12 14.5 30.5t27.5 37t30.5 34t25.5 21.5q0 -4 -9 -16.5t-20.5 -27.5t-21.5 -31.5t-14 -29.5q-4 -16 -5 -22t-3 -10t-7.5 -8.5t-15.5 -14.5q-14 -12 -19 -23t-5 -38q-12 -6 -17.5 -8t-15.5 -15v-51.5t-19 -34.5q4 -6 6.5 -12t2.5 -16q0 -18 -8.5 -30.5 t-17.5 -25t-17.5 -25t-8.5 -30.5v-2q0 -4 1 -7t-5 -3h-6q-10 0 -13 3t1 -24q4 -10 6 -18t2 -21v-10q0 -4 -7 -10t-11 -15q-6 -10 -5.5 -16t-3.5 -18q0 -6 -1 -18.5t-2 -24t-3 -20.5t-8 -9t-7 4t-11 6q2 -14 12 -26.5t10 -22.5q-4 -2 -6 -4q-6 -6 -6 -8q-2 -4 -3 -8.5 t-3 -8.5q-2 -2 -3 -8t-5 -12l-9 -17q0 -8 2 -12t2 -12q0 -6 -6 -6h-4q-4 0 -5 2t-5 4q-2 -4 -4 -11.5t-2 -11.5v-6l8 -61q-23 0 -23 -29q0 -8 5 -20q-8 0 -10.5 2t-6.5 2t-3 -1t-3 -1l6 -60q-6 6 -11 24.5t-5 33.5z" />
<glyph unicode="_" horiz-adv-x="630" d="M70 504q0 39 8 53t26 14h418q10 0 17 -2q2 -2 10 -12q2 -4 4 -9t2 -13q4 -17 4 -31q0 -39 -10 -55q-10 -14 -27 -15h-418q-16 0 -26 17q-8 14 -8 53z" />
<glyph unicode="`" horiz-adv-x="718" d="M90 504q0 37 10 53q8 14 27 14h418q10 0 14 -2q8 -4 10 -12q4 -8 9 -20q2 -10 2 -33q0 -39 -9 -53q-10 -16 -26 -17h-418q-16 0 -27 17q-10 16 -10 53z" />
<glyph unicode="a" horiz-adv-x="1478" d="M43 659q0 152 54.5 286t147.5 233.5t218 157t268 57.5t268 -57.5t218.5 -157t147.5 -233.5t54 -286q0 -125 -36.5 -238.5t-103.5 -205.5t-158 -158.5t-197 -99.5v18q-35 23 -44.5 52.5t-9.5 64.5t1 74v7q0 36 -9 75q-6 25 -17 61.5t-20.5 76.5t-16.5 78t-7 66v150 q0 63 7 107t19.5 79t32 65t43.5 66q23 33 43.5 64t36.5 63q10 18 14 37t21 31q14 10 32.5 20.5t18.5 32.5v15q0 20 -20 20q-16 0 -24.5 -13.5t-41.5 -13.5q-18 -88 -67.5 -156.5t-114.5 -107.5q-6 39 -16.5 81t-22.5 50q-14 4 -28.5 10.5t-24.5 -0.5q-25 -12 -34 -22 t-14.5 -22.5t-8.5 -30t-15 -45.5q-27 6 -54.5 29.5t-51 57t-38 72.5t-14.5 76v29q-18 2 -27.5 7t-14.5 11t-9 11.5t-14 5.5q-4 0 -12.5 -8.5t-8.5 -12.5q0 -45 35 -101.5t77 -118.5t76.5 -129t34.5 -130v-35q0 -51 -7 -96t-15 -92t-15.5 -98.5t-7.5 -114.5v-52.5v-60.5 t-1 -58.5t-3 -45.5q-6 -35 -12 -58.5t-13 -41t-13.5 -33t-10.5 -33.5l21 -2q25 -2 43 12t28 31q0 43 7.5 102.5t19.5 119.5t25.5 112.5t25.5 80.5q41 -31 64.5 -90t40 -129.5t33 -143.5t44.5 -130q-63 -16 -139 -21q-143 0 -268 56.5t-218 155t-147.5 231.5t-54.5 284z" />
<glyph unicode="b" horiz-adv-x="1402" d="M41 754q-2 25 -2 47q0 41 7 67q11 42 29.5 69.5t40 49t36.5 49.5q14 29 19 54.5t13.5 49t26.5 44t59 39.5q43 12 71 17t49.5 12.5t44 18.5t57.5 36q14 10 41.5 25.5t59.5 29.5t62.5 24.5t53.5 10.5q66 -2 100.5 -13.5t57 -29t41 -41t50.5 -49.5q117 0 183.5 -52.5 t66.5 -167.5q43 -10 67.5 -35.5t38 -58t15.5 -70.5q1 -13 1 -25q0 -24 -3 -46q-4 -29 -17.5 -60.5t-33 -58t-45 -44t-53.5 -17.5q-41 0 -70 8t-64 31q-33 -23 -52 -66t-35.5 -88t-37 -82t-53.5 -45l37 178l6 27q-20 -23 -31.5 -63t-24.5 -83t-33.5 -82.5t-57.5 -64.5 q-8 -6 -23 -6q0 51 -5 95t-10 87t-9 88t-6 96q-18 -27 -28.5 -70.5t-14.5 -96t-7.5 -105.5t-5.5 -96q-51 12 -73.5 59t-33.5 100.5t-20.5 98.5t-29.5 55v12q4 -53 9 -104t7 -104q0 -10 -1 -18.5t-5 -14.5q8 -6 36.5 -31t58.5 -50.5t54.5 -47t28.5 -21.5q8 0 33.5 19.5 t53.5 44t50.5 49t26.5 37.5q20 -6 27.5 -28.5t7.5 -51.5t-3 -59.5t-6 -53.5l334 74q-4 -25 -21.5 -48.5t-41 -48t-46 -51t-34.5 -55.5q25 0 56.5 -1t59 -5t47 -15.5t19.5 -31.5q0 -10 -5 -16.5t-11 -12.5t-12.5 -14t-10.5 -23l-1034 -2q-4 14 -11 21.5t-13.5 12.5t-11.5 9.5 t-3 12.5q6 27 29.5 39t53.5 15t59.5 1t46.5 -2q-6 25 -34 51.5t-56.5 53t-51 51t-16.5 45.5q39 -12 95 -25.5t107.5 -24t88.5 -16.5t39 -2q13 28 13 70v16q-3 53 -7 100q-8 -8 -12.5 -11t-14.5 -5l-113 324q-31 -4 -44 -13.5t-50 -9.5h-39q-20 0 -52 7t-60.5 20.5t-51 34 t-24.5 47.5zM283 170l18 -14q25 -16 38 -37t27.5 -38.5t36 -24.5t62.5 5q-14 6 -22.5 10.5t-12.5 8.5t-7 13t-5 28q41 -13 87 -23q32 -7 62 -7q13 0 25 1q-10 29 -8 52.5t-2 58.5q14 -6 23 -16.5t17.5 -21.5t17.5 -18.5t28 -7.5q47 0 77.5 19.5t61.5 23.5q-4 -29 -3 -56.5 t-3 -51.5l176 39l-41 -60q31 0 54.5 12.5t41 32t31.5 44t29 46.5q-121 -29 -240 -43q4 72 4 112t-22 40q-12 0 -26.5 -17.5t-32 -38t-40 -38t-51.5 -17.5q-8 0 -27.5 14.5t-41 33t-41 37t-31.5 26.5q0 -10 2 -34.5t0 -50.5t-8.5 -45.5t-24.5 -19.5q-29 0 -57.5 7.5t-57 13.5 t-57.5 8t-57 -6z" />
<glyph unicode="c" horiz-adv-x="1312" d="M45 1262q10 14 35 14h24q35 0 76 -11.5t79 -28.5t69.5 -36.5t50.5 -36.5l21.5 -21.5t26.5 -28.5t24.5 -29.5t17.5 -24.5q4 -8 18.5 -28.5t22.5 -26.5q2 -2 8 -10.5t14.5 -16.5t14.5 -15.5t6 -9.5t-13.5 -26.5t-28.5 -53t-29.5 -53t-16.5 -26.5q-12 51 -60.5 119.5 t-111 136t-128 123t-112.5 77.5q-10 10 -8 13zM117 -70q25 37 54.5 76t57 80t52 83t38.5 85q2 8 3.5 30.5t1.5 49t-2.5 52.5t-2.5 38q-4 41 -10 82t-6 82q0 4 4 8t8 4q8 0 8.5 -1t6.5 -3q12 16 21 31.5t26 25.5q2 -41 4 -81t6 -80q6 0 6 6q2 26 2 51q0 19 -1 37q-3 43 -5 88 l55 69l-6 -71q6 8 7 33.5t6 37.5v7l28 55q29 51 53 100q23 41 44.5 88t33.5 82q10 29 17.5 51.5t19.5 44.5q27 51 53.5 81t67.5 67q12 10 33.5 25.5t46 30t50.5 24.5t48 10q6 0 15.5 -2t3.5 -8q-18 -20 -37 -44t-36.5 -46.5t-29.5 -41t-16 -24.5q-29 -41 -49.5 -93 t-36.5 -99q-18 -53 -34.5 -103.5t-35.5 -103.5q-16 -57 -31.5 -102.5t-33.5 -92.5q-2 -4 -9.5 -19.5t-15.5 -35t-16.5 -36.5t-10.5 -23q-12 -25 -25 -48.5t-30 -46.5q-16 -23 -29.5 -44t-31.5 -42l-37 -37q-10 -8 -16.5 -20t-16.5 -23q-10 -10 -17.5 -19t-17.5 -19 q-25 -29 -44 -68t-42 -70q-55 -78 -84.5 -123t-64.5 -45zM610 600q29 45 46.5 107.5t33.5 101.5l-4 2q12 0 21.5 -11.5t15.5 -26.5t12 -30.5t13 -23.5v2l-23 61q12 -6 26.5 -16t24.5 -21q12 -12 16.5 -15t6.5 -6t2 -10t6 -24q2 -8 8 -29.5t12.5 -44t11.5 -41t9 -22.5 q0 23 -5 43t-9 37q0 6 -3.5 17.5t-6.5 23.5t-6 22.5t-3 12.5q0 4 0 3t2 3q8 -6 13.5 -13.5t13.5 -11.5q10 -8 17 -9t16 -13q10 10 14 10q8 0 13 -11.5t8 -26.5t5.5 -29.5t4.5 -22.5q4 -25 10 -52.5t10 -50.5q4 -25 9 -49t14 -47q10 -33 16 -44t31 -32q29 -23 59.5 -56.5 t63.5 -59.5q16 -16 32.5 -29.5t32.5 -28.5q4 -4 15.5 -12t22.5 -16.5t20.5 -15.5t11.5 -9q-10 -6 -24.5 -2t-29 11t-26.5 16.5t-19 15.5q-23 16 -42 30.5t-39 35.5q-16 18 -37 34.5t-39 34.5l-18.5 18.5l-18.5 18.5t-22.5 15t-22.5 14q-43 33 -89 59.5t-87 61.5 q-10 10 -18.5 15t-20.5 17l-18.5 18.5l-18.5 18.5q-4 2 -16.5 14.5t-24.5 26.5t-21.5 25.5t-7.5 15.5z" />
<glyph unicode="l" horiz-adv-x="1705" d="M68 225q0 10 3 18.5t3 18.5q0 80 22.5 169t54 177t67.5 166t65 135q33 0 67.5 1t62 4.5t45 10.5t15.5 17q-4 29 -24.5 43t-41 25.5t-33 21.5t0.5 31q6 10 12 8t12.5 -9t12.5 -16.5t14 -11.5q28 -7 48 -7q30 1 42 17q20 28 21 109l329 -27l367 -4l412 37l2 -252l-658 2 q-23 0 -37 -17.5t-14 -39.5v-152q-23 0 -46.5 -7t-44 -15t-35.5 -15.5t-19 -7.5h-7q-31 0 -41 18.5t-24 20.5q-25 0 -40 -32q-11 -22 -11 -49q0 -11 2 -23q2 -10 12 -12.5t14 -6.5q10 -18 2 -24t-30 -15q-6 -2 -14.5 2.5t-12.5 14.5q-12 31 -23.5 60.5t-21.5 58.5 q-92 -23 -127 -76t-43 -139q-2 -24 -2 -46q0 -35 4 -65q6 -52 10 -111q-94 -2 -187 -4t-185 -2z" />
<glyph unicode="m" horiz-adv-x="1452" d="M41 936q0 53 8 103.5t23.5 105.5t36 120.5t41.5 147.5v4h53q12 -94 61 -161.5t120 -111.5t159 -65.5t180 -21.5q88 0 173 18.5t155.5 60.5t122 110.5t69.5 166.5q12 2 25.5 1t25.5 -1q12 -53 29.5 -111.5t33 -117t28 -112.5t14.5 -95v-17q-1 -64 -25 -170 q-28 -120 -79.5 -265.5t-120 -299t-144.5 -282.5q-14 139 -33.5 248.5t-56.5 156.5q-58 12 -120 16q-50 4 -99 4h-21q-58 -1 -108.5 -7.5t-85.5 -14.5q-45 -63 -61.5 -165.5t-22.5 -243.5q-80 129 -149.5 276t-121 287.5t-81 256t-29.5 179.5zM913 672q35 -16 71 -26.5 t89 -10.5q8 0 26.5 9t41 23.5t44 33t36.5 34.5q23 29 27.5 48.5t2.5 37.5q-53 -31 -77.5 -44t-37 -21t-23.5 -12.5t-38 -16.5q-53 -23 -89 -34t-73 -21z" />
<glyph unicode="p" horiz-adv-x="1527" d="M35 645v10q4 90 20.5 198t52 210t92 189t138.5 139q10 4 23.5 2t23.5 -13q18 -20 7 -47.5t-34.5 -62.5t-52.5 -76t-45 -88q-23 -63 -41 -143t-22 -160q-3 -53 -3 -104q0 -130 18 -247q26 -163 97 -317q8 -18 22.5 -37.5l29 -39t25.5 -36t11 -30.5q0 -39 -41 -39h-4 q-45 6 -86 46t-76.5 100.5t-65.5 135t-50.5 149.5t-30.5 144q-8 57 -8 100v17zM406 1184q0 4 4 4q4 -2 11 0t11 4l-20 25q-4 6 2 10t10 -2q-2 10 3 12t13 -2q-2 12 4.5 14t12.5 -2q10 -10 21 -19t22 -20l28 11q4 0 4 -5q-4 -16 -6 -23t-2 -26q0 -29 17.5 -64.5t42 -67.5 t52.5 -54.5t50 -28.5q6 10 13.5 28.5t14.5 37t17 32t23 13.5h51q14 0 24.5 -13.5t16.5 -32t9 -41t3 -40.5q33 23 66.5 48.5t61.5 56t46.5 68.5t18.5 85q0 2 4 4q23 6 46 11t46 12q6 2 6 -5q0 -33 -21.5 -69.5t-52 -76.5t-67.5 -82t-68 -86t-51.5 -89t-20.5 -92 q0 -61 11.5 -104.5t17.5 -96.5q5 -45 5 -90v-14v-21q0 -43 3 -90q4 -47 9.5 -99t15.5 -98q14 -55 23.5 -100t29.5 -80q4 -10 -4 -14q-14 -2 -33.5 -4t-23.5 0t-6 6t-2 8v35q0 41 -17.5 114.5t-41 147.5t-48.5 134.5t-43 74.5q-23 -16 -42 -67.5t-33.5 -117t-21.5 -132 t-7 -111.5q0 -8 -5 -8q-23 -8 -45 -17.5t-45 -19.5q-6 -6 -10 -4t0 6q27 51 41 90t20.5 80t6.5 91v124q0 61 7 111.5t15 97.5t15.5 94t7.5 105v22q0 31 -12.5 61.5t-30 60.5t-37 55.5t-33.5 43.5q-20 27 -36.5 48.5t-35.5 50.5q-6 12 -13 26.5t-15 27.5t-19.5 23.5 t-27.5 10.5q-6 0 -6 4zM1149 -34.5q10 16.5 24.5 35.5t30 38.5t23.5 38.5q72 154 97 316q16 113 16 237q0 56 -3 114q-4 80 -21.5 160t-39.5 144q-16 47 -45 88t-52.5 75.5t-34.5 62.5t7 48q20 25 47 10q84 -51 140.5 -138t91 -189.5t51 -210t20.5 -197.5v10v-17 q0 -44 -8 -101q-10 -70 -30.5 -145t-50.5 -149.5t-66.5 -135t-77.5 -101.5t-86 -49q-8 -1 -14 -1q-29 0 -29 29q0 11 10 27.5z" />
<glyph unicode="r" horiz-adv-x="1288" d="M49 618q2 68 19 148q23 111 75 166t123 88q25 109 80 182.5t126 118.5t150.5 64.5t151.5 19.5q92 -2 187.5 -38t163 -110.5t95.5 -187.5q11 -44 11 -95q0 -79 -27 -173q-14 -55 -61 -100.5t-110.5 -73t-133.5 -34.5q-16 -2 -32 -2q-53 1 -100 19q-62 24 -108.5 79.5 t-58.5 154.5q-2 20 -2 38q0 43 12 79q18 51 54 85q36 36 82 52q37 13 74 13q9 0 18 -1q51 -4 87 -26.5t55 -55.5q20 -33 22 -73v-9q0 -35 -17 -67q-18 -43 -53 -53.5t-60 -6.5q-10 2 -32.5 13.5t-26.5 44.5v11t5 18t14.5 17.5t27.5 8.5q-6 -23 -5 -34t5 -15t9 -5t8 -1 q18 -2 28 6t13.5 20t1.5 25.5t-7 19.5q-23 31 -52.5 32t-55 -15.5t-40.5 -46.5q-11 -21 -10 -43q0 -9 1 -19q10 -49 40.5 -72.5t65.5 -29.5q15 -3 30 -3q20 0 39 5q34 8 50 24q41 42 61 100q12 36 12 68q0 20 -5 37q-20 74 -73.5 129t-148.5 57q-47 0 -97 -19t-91 -57 q-41 -37 -67 -91q-25 -50 -25 -110v-9q2 -66 12 -112t28.5 -81t45 -60.5t61.5 -49.5v6q-8 -47 -13 -89t-34 -83q-8 -12 -12 -18.5t-7 -12.5t-7.5 -14.5t-12.5 -20.5q-12 -23 -38.5 -39t-56.5 -34.5t-59.5 -43t-50.5 -63.5q-4 -8 -9 -12t-9 -12.5t-10 -22.5t-13 -43 q-4 -18 -20 -42t-34.5 -45.5t-38 -38.5t-29.5 -22q-4 6 -16.5 41t-30.5 62q-10 18 -21.5 27.5t-15.5 19.5q-6 18 -7.5 28.5t-1.5 16.5t-2 10t-10 13q-4 -10 -4 -23.5t-4 -38.5q-2 -12 -5 -23.5t1 -44.5q-29 12 -40 51.5t-13 67.5q-2 109 -9.5 191t-10.5 152q-2 42 -2 82 q0 27 1 54zM227 612q-2 -6 3.5 -4t17.5 5t31.5 5.5t44.5 -4.5q8 12 22 23.5t27.5 21t24 18.5t10.5 17q0 12 -30 17.5t-48 1.5q-29 -10 -57.5 -33t-45.5 -68z" />
<glyph unicode="t" horiz-adv-x="1757" d="M54 255.5q3 10.5 16 27.5q-2 6 -4.5 12t-2.5 14q0 86 7.5 172t16.5 172t16.5 172t7.5 172q0 41 -2 77t14 36q10 0 27.5 1t36 3t35 5t26.5 5q55 12 122 26q66 12 134 20q54 6 108 6h29q68 -2 123 -21q4 -2 19.5 -8t31.5 -12.5t29.5 -10.5t15.5 -4l8 3q9 3 18 7.5l17 8.5 t10 4q53 23 106.5 30t110.5 7q53 0 108.5 -7.5t110 -15.5t107.5 -15t107 -7q23 -109 38 -211.5t28 -201.5t30.5 -197.5t42.5 -198.5q4 -12 7 -31t-13 -21l-594 -43q-12 0 -27.5 -13t-43 -26.5t-73.5 -23.5q-32 -7 -78 -7q-18 0 -38 1q-23 0 -44.5 8t-41 18.5t-38 18.5 t-36.5 8q-156 0 -310.5 7t-312.5 7q-8 16 -5 26.5zM160 334q143 -12 289.5 -26.5t291.5 -14.5h14.5t10.5 10q0 6 -19.5 9t-44 4t-48 2t-31.5 1q-57 4 -107.5 6.5t-104 4.5t-113.5 4t-138 6v-6zM166 385q66 -4 132.5 -5t131.5 -3q22 -2 44 -1q28 0 58 2q52 5 101 9q29 2 57 2 q34 0 65 -3q56 -5 115 -21l-51 653q-70 33 -126 48q-34 9 -74 9q-27 0 -56 -4l-340 -49q-6 -2 -10 -2t-2 -16q-6 -133 -12 -219.5t-13.5 -150t-12.5 -119.5t-7 -130zM250 502q0 27 15.5 32t35.5 9q74 23 164 34q66 8 126 8q22 0 42 -1q14 0 45 -3t61.5 -12.5t54 -24 t23.5 -34.5q0 -16 -12 -29.5t-29 -11.5q-18 0 -30.5 7t-28 14.5t-37 13.5t-55.5 6q-57 -2 -101.5 -5t-84.5 -9.5t-78.5 -14.5t-81.5 -16q-14 -4 -21.5 9t-7.5 28zM250 702q0 25 16.5 32t34.5 18q53 23 125 31t131 8h68q18 0 45.5 -4.5t54.5 -14.5t46.5 -26.5t19.5 -40.5 q0 -16 -14.5 -25.5t-26.5 -5.5q-29 4 -48.5 16t-49.5 22q-30 9 -84 10h-5q-53 0 -143 -20q-6 0 -26.5 -7t-44 -14t-43 -13t-23.5 -6q-18 0 -25.5 13t-7.5 27zM262 895q0 29 13.5 34t21.5 7q57 18 128 28.5t132 10.5h58t80 -7t71 -23.5t31 -49.5q0 -16 -13.5 -24.5 t-27.5 -8.5q-10 0 -21.5 7.5t-32 15.5t-50.5 13q-22 4 -54 4q-13 0 -27 -1q-55 0 -98 -7t-75.5 -14.5t-56.5 -13.5t-40 -6t-27.5 9.5t-11.5 25.5zM809 254q0 -6 17.5 -10t40 -6t43 -3.5t26.5 -1.5t26.5 2.5t43 7.5t41 11t18.5 14q0 4 -1 8.5t-11 -0.5q-33 -14 -83 -20 q-38 -4 -62 -4h-15q-16 2 -34.5 4t-37.5 4q-12 4 -12 -6zM918 1032l65 -657q29 0 50.5 7t46 15.5t56 15.5t81.5 7q51 0 95 -5t90 -10.5t99 -8.5q23 -1 48 -1q34 0 73 2q-25 123 -55.5 292t-71.5 353q-4 10 -8 12.5t-17 4.5q-78 15 -158 23q-60 6 -141 6q-28 0 -59 -1 q-14 0 -45 -2t-63.5 -8t-58 -16.5t-27.5 -28.5zM995 940q8 18 48 32.5t94.5 23t116 8.5t113.5 -7.5t86 -25t34 -43.5q0 -31 -23.5 -33t-44.5 10q-43 25 -91 32q-28 4 -57 4q-20 0 -41 -2q-50 -5 -100.5 -19.5t-95.5 -32.5q-18 -8 -34.5 8t-4.5 45zM1004 731q0 25 24.5 40 t46.5 22q77 18 145 19q31 0 60 -4q92 -12 199 -42q16 -4 26.5 -12.5t10.5 -28.5q0 -14 -9.5 -25.5t-23.5 -11.5q-27 0 -52.5 7t-51 16.5t-53.5 16.5t-56 7q-14 1 -26 1q-37 0 -64 -5q-37 -6 -62.5 -14t-45 -15.5t-34.5 -7.5q-14 0 -24 11.5t-10 25.5zM1018 530q0 20 30.5 34 t78 20t104.5 6t108.5 -3t91 -8.5t54.5 -9.5q20 -6 33.5 -15t13.5 -32q0 -14 -9.5 -24.5t-23.5 -8.5q-25 0 -46 6.5t-51 13.5t-73 13q-32 4 -77 4h-31q-27 -2 -65.5 -8t-65.5 -14q-10 -4 -20.5 -9.5t-22.5 -5.5q-16 0 -22.5 14.5t-6.5 26.5zM1178 330l176 -4q27 0 62.5 1 t71.5 2t69.5 4t58.5 9q-6 10 -26.5 12t-37.5 -2q-41 -4 -69.5 -5t-83.5 -3q-53 -4 -108.5 -8t-112.5 -4v-2z" />
<glyph unicode="x" horiz-adv-x="1288" d="M65 278q1 13 9 35q6 18 11 33.5t13 34.5q12 35 26.5 66.5t27.5 66.5q10 31 19 34t19 21q8 16 15.5 28.5t13.5 35.5q4 10 5 18t5 17q4 8 8.5 15t8.5 17t6 17.5t6 15.5q0 4 12 17l11 10q0 8 -2.5 10t-2.5 10l21 13v2q0 33 19.5 55t19.5 45v18q16 4 30.5 28t26.5 34q4 4 7 8 t8 8q10 6 10 4t4 11q4 12 11 19t18 15q33 33 54 66t42 80q4 8 15 12l22 8q14 8 19 11.5t15 13.5q12 16 29 32.5t33 26.5q6 4 27.5 20.5t46 34t45 32t24.5 14.5q-6 -12 -19 -22.5t-25.5 -22t-21.5 -23t-9 -27.5q-8 0 -9.5 2t-7.5 2h-6q-4 -16 -9 -24t-13.5 -14.5t-17.5 -11.5 t-19 -17q-16 -16 -30.5 -32.5t-31.5 -33.5q-6 -4 -16 -12t-21 -12q-12 -4 -12 -17.5t-4 -29.5q-2 -16 -4 -28.5t-12 -18.5t-19.5 -10.5t-9.5 -24.5q0 -10 2 -15.5t2 -9.5q0 -2 -9 -11l-21.5 -21.5t-24 -23.5t-13.5 -13q-14 -14 -17 -17.5t-7 -25.5q-2 -12 -8.5 -15.5 t-12.5 -1.5t-11 6t-7 4l-8 -98v-4q-16 0 -35 -17.5t-19 -27.5q0 -2 4.5 -7t4.5 -16v-2q0 -8 -3.5 -17t-11.5 -9h-6q0 -6 1 -6t1 -4q0 -8 -9 -22.5t-13 -14.5q-10 0 -14.5 5t-10.5 9l2 -21v-18q0 -18 -6 -48t-23 -30q-4 0 -12 4q-4 -8 -8 -15t-4 -17v-17h-33q-8 -29 -13 -50 t-5 -62l-6 -5q-12 8 -17 9q-8 0 -11 -12.5t-5 -18.5q-4 -23 -4 -21t-21 2h-6q-4 -18 -3 -43.5t-11 -33.5q-10 23 -9 36zM209 -2q0 18 8 47t14 45q4 12 4.5 23.5t2.5 25.5q2 4 10 18.5t12 18.5q-2 4 -2 8v6q2 6 6 13q4 4 5 9t3 9q4 10 6.5 18.5t6.5 18.5q10 39 37 59v29 q16 10 18 17.5t6 29.5q2 10 2 15.5t4 13.5q6 14 5 13t-1 16q0 16 13.5 34.5t13.5 36.5v4v15q6 2 14.5 10t8.5 16q0 4 -5 13q4 8 8.5 11t8.5 13q8 20 14 29q6 14 10 18l7.5 7.5t4.5 11.5t1 28q0 10 4 14.5t9 8.5t8 11t3 26q0 14 5 20t12.5 10.5t12.5 8.5t5 14v4h16 q4 0 12.5 19.5t10.5 23.5q4 10 13 19.5t20 13.5q2 31 18.5 56.5t30.5 45.5q10 12 15 22.5t12 26.5q4 4 19 17.5t21 19.5q20 18 38 38l36 40q10 8 24.5 17.5t18.5 13.5q6 6 8 11t9 11q4 4 12 9.5t8 9.5v16q23 2 46.5 23.5t33.5 25.5q0 -8 -11.5 -16t-17.5 -12 q-18 -10 -18 -11.5t-10 -17.5q-6 -10 -11.5 -18.5t-13.5 -14.5q-8 -8 -19.5 -12t-11.5 -14v10v-8q-10 -2 -22.5 -9.5t-12.5 -17.5q0 -6 2.5 -7t2.5 -7v-6q-2 0 -9.5 -4.5t-14.5 -10.5t-13 -11l-6 -5v-10q0 -10 2 -13.5t2 -13.5v-4q0 -6 -4 -6h-7l-32 4h-6q-10 0 -18.5 -17.5 t-16.5 -40t-12.5 -46t-4.5 -35.5l-41 -13v2q2 -14 9.5 -19t7.5 -16v-6h-17q-4 0 -10 -3l-10 -5q4 -8 4 -14v-6q0 -23 -10.5 -36t-10.5 -36l-28 -25q0 -35 -5 -46t-22 -31q-2 -4 -10 -11.5t-16.5 -15.5t-14.5 -15.5t-6 -11.5q0 -6 4 -9t4 -7q0 -6 -10 -13.5t-14 -7.5v-10v-6 q0 -18 -13.5 -41.5t-11.5 -40.5l2 -14q-8 0 -11 -2l-6 -4t-9.5 -3t-18.5 3q2 -12 10.5 -18.5t12.5 -14.5q-4 -14 -10.5 -18.5t-6.5 -14.5v-6h-8q-6 0 -7 5t-5 9q-2 -2 -2 -6v-18q0 -10 3 -16.5t7 -12.5q-10 -16 -33 -18l6 -33q-6 -2 -9 -4t-9 -2h-8l4 -27q-8 -10 -15 -18 q-6 -8 -10 -15.5t-6 -9.5q-8 -16 -10 -27.5t-2 -33.5l2 -2l-23 -13l-2 2q0 -12 5.5 -18t5.5 -16v-9q0 -12 -9 -12q-4 0 -5 3t-9 3h-6v-6q0 -6 2 -7t2 -7v-2q0 -4 -7 -9.5t-11 -9.5q-4 -6 -7.5 -14t-5.5 -14q-4 -18 -4 -35v-39q-10 4 -10 24v21zM500 154q0 14 3 34.5t8 43 t10 42t9 31.5q10 29 26.5 69t16.5 72h5q14 0 15 23t1 37q16 25 27.5 64.5t21.5 70.5q4 16 12.5 33.5t10.5 34.5q2 31 12 38t20 23q-2 4 -3 7t-1 9q0 8 18.5 21.5t18.5 40.5q10 16 29.5 29.5t19.5 44.5v6l19 8q0 18 18.5 47t28.5 39t15 20.5t13 20.5q6 6 8.5 9t6.5 11t9 9.5 t9 7.5q16 16 37 32.5t33 32.5q2 4 12 14.5t22.5 22.5t21.5 21.5t14 11.5q0 -16 -13.5 -27.5t-21.5 -21.5q-4 -6 -7.5 -14.5t-7.5 -12.5t-10 -11t-10 -11q-8 -12 -18.5 -23.5t-18.5 -23.5q-4 -6 -19.5 -28t-19.5 -22h-8q-2 -23 -20.5 -38t-18.5 -31v-4q0 -4 1 -4t1 -5l-16 -6 v-8q0 -25 -13.5 -42t-13.5 -40v-10q0 -8 2 -11t4 -10q-8 0 -25.5 -17t-17.5 -19q0 -4 4 -13l-4 -6q-14 0 -17 -5t-4 -11t-3 -12.5t-13 -6.5q0 -4 1 -5t1 -5v-10q0 -14 -20 -19l-12 13l2 -51v-11q0 -20 -7.5 -28.5t-21.5 -16.5q0 -20 -4 -34.5t-8 -26.5t-8.5 -23.5 t-4.5 -25.5v-11q0 -4 1 -5t1 -5h-12q-10 0 -9 -10t1 -14q0 -6 -6 -19.5t-13.5 -28t-13.5 -29t-6 -24.5v-12l-14 -6l-11 4q-4 -10 -10 -25.5t-4 -27.5l6 -60l-30 -8q0 -14 -4.5 -21.5t-4.5 -13.5l-2 -6l-14 4v-24l-4 -45q-4 4 -6 18t-2 25zM760 199v22q0 12 5 37t9 41 q4 20 7 36.5t3 45.5l19 22q0 29 3 42.5t7 35.5q2 10 3 19.5t1 19.5v12.5t1 6.5l2 4t3 10q4 10 3 19.5t3 19.5q2 8 5.5 14t5.5 17q2 12 6 38.5t8 34.5q14 29 27.5 59.5t27.5 59.5q8 14 14.5 28.5t14.5 30.5q4 8 6 14.5t6 16.5t1 17.5t-3 19.5q18 10 35.5 26.5t17.5 45.5 q16 0 14.5 6t12.5 6q2 12 14.5 30.5t27.5 37t30.5 34t25.5 21.5q0 -4 -9 -16.5t-20.5 -27.5t-21.5 -31.5t-14 -29.5q-4 -16 -5 -22t-3 -10t-7.5 -8.5t-15.5 -14.5q-14 -12 -19 -23t-5 -38q-12 -6 -17.5 -8t-15.5 -15v-51.5t-19 -34.5q4 -6 6.5 -12t2.5 -16q0 -18 -8.5 -30.5 t-17.5 -25t-17.5 -25t-8.5 -30.5v-2q0 -4 1 -7t-5 -3h-6q-10 0 -13 3t1 -24q4 -10 6 -18t2 -21v-10q0 -4 -7 -10t-11 -15q-6 -10 -5.5 -16t-3.5 -18q0 -6 -1 -18.5t-2 -24t-3 -20.5t-8 -9t-7 4t-11 6q2 -14 12 -26.5t10 -22.5q-4 -2 -6 -4q-6 -6 -6 -8q-2 -4 -3 -8.5 t-3 -8.5q-2 -2 -3 -8t-5 -12l-9 -17q0 -8 2 -12t2 -12q0 -6 -6 -6h-4q-4 0 -5 2t-5 4q-2 -4 -4 -11.5t-2 -11.5v-6l8 -61q-23 0 -23 -29q0 -8 5 -20q-8 0 -10.5 2t-6.5 2t-3 -1t-3 -1l6 -60q-6 6 -11 24.5t-5 33.5z" />
<glyph unicode="&#xad;" horiz-adv-x="1363" d="M84 248l166 1044q10 70 60 100.5t116 18.5h2l662 -104q68 -10 106.5 -56.5t28.5 -115.5l-170 -1069v-3q-14 -70 -62.5 -98t-118.5 -18v-2l-671 116h-2q-72 16 -99.5 66.5t-17.5 120.5zM147 238q-6 -41 8.5 -71t59.5 -42l670 -119q51 -10 74.5 7.5t29.5 54.5l170 1069 q8 41 -15.5 65.5t-64.5 32.5l-663 113q-88 12 -103 -66zM324 625v90h624v-90h-624z" />
<glyph unicode="&#x2000;" horiz-adv-x="713" />
<glyph unicode="&#x2001;" horiz-adv-x="1427" />
<glyph unicode="&#x2002;" horiz-adv-x="713" />
<glyph unicode="&#x2003;" horiz-adv-x="1427" />
<glyph unicode="&#x2004;" horiz-adv-x="475" />
<glyph unicode="&#x2005;" horiz-adv-x="356" />
<glyph unicode="&#x2006;" horiz-adv-x="237" />
<glyph unicode="&#x2007;" horiz-adv-x="237" />
<glyph unicode="&#x2008;" horiz-adv-x="178" />
<glyph unicode="&#x2009;" horiz-adv-x="285" />
<glyph unicode="&#x200a;" horiz-adv-x="79" />
<glyph unicode="&#x2010;" horiz-adv-x="1363" d="M84 248l166 1044q10 70 60 100.5t116 18.5h2l662 -104q68 -10 106.5 -56.5t28.5 -115.5l-170 -1069v-3q-14 -70 -62.5 -98t-118.5 -18v-2l-671 116h-2q-72 16 -99.5 66.5t-17.5 120.5zM147 238q-6 -41 8.5 -71t59.5 -42l670 -119q51 -10 74.5 7.5t29.5 54.5l170 1069 q8 41 -15.5 65.5t-64.5 32.5l-663 113q-88 12 -103 -66zM324 625v90h624v-90h-624z" />
<glyph unicode="&#x2011;" horiz-adv-x="1363" d="M84 248l166 1044q10 70 60 100.5t116 18.5h2l662 -104q68 -10 106.5 -56.5t28.5 -115.5l-170 -1069v-3q-14 -70 -62.5 -98t-118.5 -18v-2l-671 116h-2q-72 16 -99.5 66.5t-17.5 120.5zM147 238q-6 -41 8.5 -71t59.5 -42l670 -119q51 -10 74.5 7.5t29.5 54.5l170 1069 q8 41 -15.5 65.5t-64.5 32.5l-663 113q-88 12 -103 -66zM324 625v90h624v-90h-624z" />
<glyph unicode="&#x2012;" horiz-adv-x="1363" d="M84 248l166 1044q10 70 60 100.5t116 18.5h2l662 -104q68 -10 106.5 -56.5t28.5 -115.5l-170 -1069v-3q-14 -70 -62.5 -98t-118.5 -18v-2l-671 116h-2q-72 16 -99.5 66.5t-17.5 120.5zM147 238q-6 -41 8.5 -71t59.5 -42l670 -119q51 -10 74.5 7.5t29.5 54.5l170 1069 q8 41 -15.5 65.5t-64.5 32.5l-663 113q-88 12 -103 -66zM324 625v90h624v-90h-624z" />
<glyph unicode="&#x2013;" horiz-adv-x="1240" d="M83 248l149 1044q9 70 53.5 100.5t103.5 18.5h2l592 -104q60 -10 94.5 -56.5t25.5 -115.5l-152 -1069v-3q-12 -70 -55.5 -98t-106.5 -18v-2l-599 116h-2q-64 16 -89 66.5t-16 120.5zM140 238q-6 -41 7 -71t53 -42l599 -119q46 -10 67 7.5t26 54.5l152 1069q7 41 -14 65.5 t-57 32.5l-593 113q-79 12 -92 -66zM298 625v90h558v-90h-558z" />
<glyph unicode="&#x2014;" horiz-adv-x="2264" d="M86 248l296 1044q18 70 107.5 100.5t207.5 18.5h4l1183 -104q122 -10 190.5 -56.5t50.5 -115.5l-304 -1069v-3q-25 -70 -111.5 -98t-211.5 -18v-2l-1200 116h-3q-129 16 -178 66.5t-31 120.5zM198 238q-10 -41 15.5 -71t106.5 -42l1198 -119q91 -10 133 7.5t52 54.5 l304 1069q15 41 -27 65.5t-116 32.5l-1185 113q-157 12 -184 -66zM515 625v90h1115v-90h-1115z" />
<glyph unicode="&#x202f;" horiz-adv-x="285" />
<glyph unicode="&#x205f;" horiz-adv-x="356" />
<glyph unicode="&#x25fc;" horiz-adv-x="1392" d="M0 0v1393h1393v-1393h-1393z" />
</font>
</defs>
</svg>
